<svg xmlns="http://www.w3.org/2000/svg" width="89.666" height="104.956" viewBox="0 0 89.666 104.956">
  <g id="Grupo_878327" data-name="Grupo 878327" transform="translate(-300.334 -5672.701)">
    <path id="Trazado_121034" data-name="Trazado 121034" d="M390.53,292.224l-18.884,1.758,6.95,6.95L362.52,317.009a2.242,2.242,0,1,0,3.171,3.171L381.767,304.1l7,7.007Z" transform="translate(-61.529 5443.394)" fill="#529d2e"/>
    <path id="Trazado_121015" data-name="Trazado 121015" d="M663.961,258.188l-36.605,3.407,13.47,13.474-31.162,31.163a4.347,4.347,0,1,0,6.146,6.148l31.164-31.164,13.578,13.58Z" transform="translate(-273.961 5464.004)" fill="#fc8116"/>
    <path id="Trazado_121016" data-name="Trazado 121016" d="M579.972,168.785l-26.787,2.494,9.859,9.859-22.805,22.805a3.18,3.18,0,1,0,4.5,4.5l22.805-22.8,9.936,9.938Z" transform="translate(-189.972 5503.916)" fill="#fcd03e"/>
  </g>
</svg>
