<svg xmlns="http://www.w3.org/2000/svg" width="1240" height="777" viewBox="0 0 1240 777">
  <g id="Grupo_879797" data-name="Grupo 879797" transform="translate(-180 -2612.274)">
    <path id="Rectángulo_298148" data-name="Rectángulo 298148" d="M0,0H990a250,250,0,0,1,250,250V777a0,0,0,0,1,0,0H0a0,0,0,0,1,0,0V0A0,0,0,0,1,0,0Z" transform="translate(180 2612.274)" fill="#e1f3d7"/>
    <g id="Grupo_878449" data-name="Grupo 878449" transform="translate(335.5 -195.233)">
      <path id="Trazado_121014" data-name="Trazado 121014" d="M405.2,292.224l-28.545,2.658,10.506,10.506-24.3,24.3a3.389,3.389,0,1,0,4.793,4.793l24.3-24.3,10.588,10.591Z" transform="translate(-506.863 3245.15)" fill="#529d2e"/>
      <path id="Trazado_121015" data-name="Trazado 121015" d="M675.434,258.188l-44.163,4.11,16.252,16.256-37.6,37.6a5.244,5.244,0,1,0,7.415,7.417l37.6-37.6,16.382,16.384Z" transform="translate(402.566 2635.952)" fill="#fc8116"/>
      <path id="Trazado_121016" data-name="Trazado 121016" d="M588.367,168.785l-32.318,3.009,11.894,11.894L540.43,211.2a3.837,3.837,0,1,0,5.426,5.426l27.514-27.512,11.988,11.989Z" transform="translate(447.119 2638.723)" fill="#529d2e"/>
      <path id="Trazado_134072" data-name="Trazado 134072" d="M49.061,0,16.744,3.009,28.638,14.9,1.124,42.417a3.837,3.837,0,1,0,5.426,5.426L34.064,20.331,46.052,32.321Z" transform="matrix(-0.996, -0.087, 0.087, -0.996, 1042.251, 3035.87)" fill="#fcd03e"/>
      <path id="Trazado_121017" data-name="Trazado 121017" d="M576.3,168.785l-24.368,2.269,8.969,8.969-20.746,20.746a2.893,2.893,0,1,0,4.092,4.092l20.746-20.745,9.039,9.04Z" transform="translate(-637.3 3368.588)" fill="#fcd03e"/>
      <path id="Trazado_134073" data-name="Trazado 134073" d="M586.306,168.785l-30.96,2.883,11.395,11.394L540.383,209.42a3.676,3.676,0,1,0,5.2,5.2l26.358-26.356,11.484,11.486Z" transform="translate(-667.306 3302.588)" fill="#b0c710"/>
    </g>
    <g id="Grupo_879371" data-name="Grupo 879371">
      <path id="Trazado_600494" data-name="Trazado 600494" d="M8.479,312.8a12.9,12.9,0,0,0,5.311.788,6.739,6.739,0,0,1,1.827.129L6.389,338.5a3.524,3.524,0,0,0,2.072,4.533l25.783,9.6,1.089-2.926a5.6,5.6,0,0,0,.347-2.115,11.671,11.671,0,0,1,16.2-11.071,11.779,11.779,0,0,1,6.689,14.073,11.577,11.577,0,0,1-3.012,5.016,5.792,5.792,0,0,0-1.393,2.105l-.764,2.051,26.089,9.811a4.328,4.328,0,0,0,5.567-2.544l8.584-22.971,1.781.662c.2.075.4.158.6.249a14.241,14.241,0,1,0,9.567-21.909,5.416,5.416,0,0,1-1.126-.284l-2.285-.851,9.551-25.648a4.327,4.327,0,0,0-2.544-5.567L37.842,264.144a3.524,3.524,0,0,0-4.533,2.073L23.583,292.33a6.985,6.985,0,0,1-1.1-.945,12.914,12.914,0,0,0-7.011-3.795A13.137,13.137,0,0,0,8.479,312.8" transform="translate(562.861 2907.854)" fill="#c9eab7"/>
      <path id="Trazado_600493" data-name="Trazado 600493" d="M596.452,85.6a20.739,20.739,0,0,0-8.62-.531,10.932,10.932,0,0,1-2.947.045L596.26,44.128a5.672,5.672,0,0,0-3.948-6.98L549.666,25.313l-1.343,4.84a8.981,8.981,0,0,0-.263,3.438,18.775,18.775,0,0,1-24.435,19.977,18.948,18.948,0,0,1-12.662-21.633,18.65,18.65,0,0,1,4.136-8.454,9.322,9.322,0,0,0,1.943-3.566l.942-3.393L474.816,4.392a6.963,6.963,0,0,0-8.57,4.847l-10.591,38-2.947-.818c-.333-.093-.671-.2-1-.315a22.908,22.908,0,1,0-12.312,36.433,8.817,8.817,0,0,1,1.843.3l3.78,1.049-11.775,42.425a6.964,6.964,0,0,0,4.849,8.57L556.1,167.638a5.67,5.67,0,0,0,6.98-3.948l11.987-43.2a11.293,11.293,0,0,1,1.9,1.362,20.781,20.781,0,0,0,11.759,5.117A21.134,21.134,0,0,0,596.452,85.6" transform="translate(723.19 2832.929)" fill="#c9eab7"/>
      <path id="Trazado_600490" data-name="Trazado 600490" d="M235.965,33.911a17.4,17.4,0,0,0-6.529,3.152,9.09,9.09,0,0,1-2.139,1.244L218.788,3.625A4.76,4.76,0,0,0,213.031.137L176.946,8.991l1.007,4.1a7.543,7.543,0,0,0,1.218,2.626,15.761,15.761,0,0,1-9.684,24.663,15.907,15.907,0,0,1-18.155-10.637,15.661,15.661,0,0,1-.445-7.889,7.843,7.843,0,0,0-.04-3.409l-.706-2.871-36.587,8.854a5.847,5.847,0,0,0-4.285,7.07l7.858,32.172-2.493.611c-.283.07-.572.133-.865.182a19.232,19.232,0,1,0,5.952,31.732,7.309,7.309,0,0,1,1.472-.537l3.2-.785,8.807,35.9a5.845,5.845,0,0,0,7.069,4.284l99.853-24.5a4.76,4.76,0,0,0,3.489-5.757l-8.968-36.55a9.534,9.534,0,0,1,1.952.216,17.442,17.442,0,0,0,10.71-1.085,17.742,17.742,0,0,0-11.338-33.462" transform="translate(387.761 3001.782)" fill="#f3ffed"/>
      <path id="Trazado_600491" data-name="Trazado 600491" d="M608.509,213.316a14.028,14.028,0,0,0,5.7,1.307,7.421,7.421,0,0,1,1.975.3l-12.135,26.121a3.838,3.838,0,0,0,1.865,5.1l27.179,12.625,1.432-3.085a6.1,6.1,0,0,0,.558-2.268,12.581,12.581,0,0,1,1.158-4.687,12.728,12.728,0,1,1,19.74,15.089,6.306,6.306,0,0,0-1.692,2.167l-1.006,2.164,27.5,12.878a4.714,4.714,0,0,0,6.261-2.29l11.28-24.214,1.877.873q.321.147.635.321a15.512,15.512,0,1,0,12.256-22.975,5.918,5.918,0,0,1-1.2-.4l-2.41-1.12,12.559-27.037a4.712,4.712,0,0,0-2.288-6.261l-75.21-34.935a3.838,3.838,0,0,0-5.1,1.864l-12.788,27.529a7.56,7.56,0,0,1-1.12-1.12,14.069,14.069,0,0,0-7.289-4.72,14.311,14.311,0,0,0-9.738,26.783" transform="translate(627.894 2986.379)" fill="#f3ffed"/>
    </g>
  </g>
</svg>
