<svg xmlns="http://www.w3.org/2000/svg" width="318" height="212" viewBox="0 0 318 212">
  <g id="Grupo_879798" data-name="Grupo 879798" transform="translate(-1138 7743)">
    <g id="Trazado_604018" data-name="Trazado 604018" transform="translate(1138 -7743)" fill="#f6fff2">
      <path d="M 298 211 L 20 211 C 17.43458366394043 211 14.9464168548584 210.4977874755859 12.60462474822998 209.5072937011719 C 10.34224987030029 208.5503692626953 8.310208320617676 207.1802978515625 6.564958095550537 205.4350433349609 C 4.819708347320557 203.6897888183594 3.449625015258789 201.6577453613281 2.492708444595337 199.3953704833984 C 1.502208352088928 197.0535888671875 1 194.5654144287109 1 192 L 1 20 C 1 17.43458366394043 1.502208352088928 14.9464168548584 2.492708444595337 12.6046667098999 C 3.449625015258789 10.34229183197021 4.819708347320557 8.310250282287598 6.564958095550537 6.565000057220459 C 8.310208320617676 4.819708347320557 10.34224987030029 3.449625015258789 12.60462474822998 2.492708444595337 C 14.9464168548584 1.502208352088928 17.43458366394043 1 20 1 L 298 1 C 300.5654296875 1 303.0535888671875 1.502208352088928 305.3953857421875 2.492708444595337 C 307.6577453613281 3.449625015258789 309.6897888183594 4.819708347320557 311.4350280761719 6.565000057220459 C 313.1802978515625 8.310250282287598 314.5503845214844 10.34229183197021 315.5072937011719 12.6046667098999 C 316.497802734375 14.9464168548584 317 17.43458366394043 317 20 L 317 192 C 317 194.5654144287109 316.497802734375 197.0535888671875 315.5072937011719 199.3953704833984 C 314.5503845214844 201.6577453613281 313.1802978515625 203.6897888183594 311.4350280761719 205.4350433349609 C 309.6897888183594 207.1802978515625 307.6577453613281 208.5503692626953 305.3953857421875 209.5072937011719 C 303.0535888671875 210.4977874755859 300.5654296875 211 298 211 Z" stroke="none"/>
      <path d="M 20 2 C 15.19198608398438 2 10.67184448242188 3.872329711914062 7.2720947265625 7.272079467773438 C 3.872344970703125 10.67182922363281 2 15.19200134277344 2 20 L 2 192 C 2 196.8079986572266 3.872344970703125 201.3281707763672 7.2720947265625 204.7279205322266 C 10.67184448242188 208.1276702880859 15.19198608398438 210 20 210 L 298 210 C 302.8079528808594 210 307.3281555175781 208.1276702880859 310.7279052734375 204.7279205322266 C 314.1276550292969 201.3281707763672 316 196.8079528808594 316 192 L 316 20 C 316 15.19204711914062 314.1276550292969 10.67182922363281 310.7279052734375 7.272079467773438 C 307.3281555175781 3.872329711914062 302.8079528808594 2 298 2 L 20 2 M 20 0 L 298 0 C 309.045654296875 0 318 8.95428466796875 318 20 L 318 192 C 318 203.0457153320312 309.045654296875 212 298 212 L 20 212 C 8.95428466796875 212 0 203.0457153320312 0 192 L 0 20 C 0 8.95428466796875 8.95428466796875 0 20 0 Z" stroke="none" fill="#e5f5da"/>
    </g>
    <path id="Trazado_602059" data-name="Trazado 602059" d="M1824.192-7045.008h-18.711v185.447h18.711" transform="translate(-5662.961 -9428.179) rotate(90)" fill="none" stroke="#16263d" stroke-width="2"/>
    <path id="Trazado_602060" data-name="Trazado 602060" d="M1873.008-6918.964h-78.9" transform="translate(-5633.429 -9477.115) rotate(90)" fill="none" stroke="#16263d" stroke-width="2"/>
    <g id="Trazado_604019" data-name="Trazado 604019" transform="translate(1196.6 -7667.571)" fill="#ffcb9d">
      <path d="M 54.16672134399414 33.37274169921875 L 10.00000286102295 33.37274169921875 C 5.03738260269165 33.37274169921875 1.00000262260437 29.33536148071289 1.00000262260437 24.37274169921875 L 1.00000262260437 10.00000095367432 C 1.00000262260437 5.037380695343018 5.03738260269165 1.000000834465027 10.00000286102295 1.000000834465027 L 54.16672134399414 1.000000834465027 C 59.12934112548828 1.000000834465027 63.16672134399414 5.037380695343018 63.16672134399414 10.00000095367432 L 63.16672134399414 24.37274169921875 C 63.16672134399414 29.33536148071289 59.12934112548828 33.37274169921875 54.16672134399414 33.37274169921875 Z" stroke="none"/>
      <path d="M 10.00000381469727 2 C 5.588790893554688 2 2.000003814697266 5.588790893554688 2.000003814697266 10 L 2.000003814697266 24.37274169921875 C 2.000003814697266 28.78395080566406 5.588790893554688 32.37274169921875 10.00000381469727 32.37274169921875 L 54.16672134399414 32.37274169921875 C 58.57793426513672 32.37274169921875 62.16672134399414 28.78395080566406 62.16672134399414 24.37274169921875 L 62.16672134399414 10 C 62.16672134399414 5.588790893554688 58.57793426513672 2 54.16672134399414 2 L 10.00000381469727 2 M 10.00000381469727 0 L 54.16672134399414 0 C 59.68957138061523 0 64.16672515869141 4.477149963378906 64.16672515869141 10 L 64.16672515869141 24.37274169921875 C 64.16672515869141 29.89559173583984 59.68957138061523 34.37274169921875 54.16672134399414 34.37274169921875 L 10.00000381469727 34.37274169921875 C 4.477153778076172 34.37274169921875 0 29.89559173583984 0 24.37274169921875 L 0 10 C 0 4.477149963378906 4.477153778076172 0 10.00000381469727 0 Z" stroke="none" fill="#ed8738"/>
    </g>
    <path id="Trazado_604020" data-name="Trazado 604020" d="M8.031,13H6.906V4.469H8.031Zm2.912-6.34.035.8a2.31,2.31,0,0,1,1.9-.914q2.01,0,2.027,2.268V13H13.82V8.8a1.459,1.459,0,0,0-.313-1.014,1.256,1.256,0,0,0-.958-.328,1.564,1.564,0,0,0-.926.281A1.91,1.91,0,0,0,11,8.482V13H9.918V6.66Zm8.139,5.572a1.561,1.561,0,0,0,1.014-.352,1.237,1.237,0,0,0,.48-.879H21.6a1.966,1.966,0,0,1-.375,1.037,2.47,2.47,0,0,1-.923.785,2.663,2.663,0,0,1-1.222.293,2.612,2.612,0,0,1-2.06-.864,3.442,3.442,0,0,1-.765-2.364V9.707a3.817,3.817,0,0,1,.34-1.646,2.588,2.588,0,0,1,.976-1.119,2.771,2.771,0,0,1,1.5-.4,2.543,2.543,0,0,1,1.772.639A2.283,2.283,0,0,1,21.6,8.84H20.576a1.494,1.494,0,0,0-.466-1.011,1.449,1.449,0,0,0-1.034-.4,1.517,1.517,0,0,0-1.28.595,2.793,2.793,0,0,0-.454,1.72v.205a2.737,2.737,0,0,0,.451,1.688A1.524,1.524,0,0,0,19.082,12.232ZM24,13H22.914V4H24Zm5.648-.627a2.3,2.3,0,0,1-1.857.744,1.971,1.971,0,0,1-1.544-.589,2.549,2.549,0,0,1-.536-1.743V6.66h1.084v4.1q0,1.441,1.172,1.441a1.623,1.623,0,0,0,1.652-.926V6.66H30.7V13H29.67ZM33.525,13H32.441V6.66h1.084ZM32.353,4.979a.647.647,0,0,1,.161-.445.6.6,0,0,1,.478-.182.614.614,0,0,1,.48.182.64.64,0,0,1,.164.445.619.619,0,0,1-.164.439.626.626,0,0,1-.48.176.616.616,0,0,1-.478-.176A.626.626,0,0,1,32.353,4.979Zm5.971,2.654a3.248,3.248,0,0,0-.533-.041,1.428,1.428,0,0,0-1.447.908V13H35.26V6.66h1.055l.018.732a1.688,1.688,0,0,1,1.512-.85,1.107,1.107,0,0,1,.48.082Z" transform="translate(1206.683 -7658.385)" fill="#12263f"/>
    <g id="Trazado_604021" data-name="Trazado 604021" transform="translate(1208.295 -7717.385)" fill="#faeab5">
      <path d="M 144.4808044433594 33.37274932861328 L 10.00000190734863 33.37274932861328 C 5.037382125854492 33.37274932861328 1.000002264976501 29.33537101745605 1.000002264976501 24.37275123596191 L 1.000002264976501 9.999990463256836 C 1.000002264976501 5.037370681762695 5.037382125854492 0.9999908208847046 10.00000190734863 0.9999908208847046 L 144.4808044433594 0.9999908208847046 C 149.4434204101562 0.9999908208847046 153.4808044433594 5.037370681762695 153.4808044433594 9.999990463256836 L 153.4808044433594 24.37275123596191 C 153.4808044433594 29.33537101745605 149.4434204101562 33.37274932861328 144.4808044433594 33.37274932861328 Z" stroke="none"/>
      <path d="M 10 1.999996185302734 C 5.588790893554688 1.999996185302734 2 5.588787078857422 2 9.999996185302734 L 2 24.37274551391602 C 2 28.78395462036133 5.588790893554688 32.37274551391602 10 32.37274551391602 L 144.4808044433594 32.37274551391602 C 148.8920135498047 32.37274551391602 152.4808044433594 28.78395462036133 152.4808044433594 24.37274551391602 L 152.4808044433594 9.999996185302734 C 152.4808044433594 5.588787078857422 148.8920135498047 1.999996185302734 144.4808044433594 1.999996185302734 L 10 1.999996185302734 M 10 -3.814697265625e-06 L 144.4808044433594 -3.814697265625e-06 C 150.0036468505859 -3.814697265625e-06 154.4808044433594 4.477142333984375 154.4808044433594 9.999996185302734 L 154.4808044433594 24.37274551391602 C 154.4808044433594 29.89558029174805 150.0036468505859 34.37274551391602 144.4808044433594 34.37274551391602 L 10 34.37274551391602 C 4.477157592773438 34.37274551391602 0 29.89558029174805 0 24.37274551391602 L 0 9.999996185302734 C 0 4.477142333984375 4.477157592773438 -3.814697265625e-06 10 -3.814697265625e-06 Z" stroke="none" fill="#f6d05c"/>
    </g>
    <path id="Trazado_604022" data-name="Trazado 604022" d="M11.24,5.893H8.627V13H6.869V5.893H4.291V4.469H11.24ZM14.82,13a1.88,1.88,0,0,1-.17-.568,2.049,2.049,0,0,1-1.6.686,2.251,2.251,0,0,1-1.544-.539,1.734,1.734,0,0,1-.612-1.359,1.792,1.792,0,0,1,.747-1.547A3.686,3.686,0,0,1,13.8,9.127h.779V8.764a1.045,1.045,0,0,0-.226-.7.887.887,0,0,0-.712-.264A1.009,1.009,0,0,0,12.972,8a.7.7,0,0,0-.243.563H11.035a1.7,1.7,0,0,1,.34-1.02,2.246,2.246,0,0,1,.961-.735,3.5,3.5,0,0,1,1.395-.267,2.767,2.767,0,0,1,1.86.589,2.06,2.06,0,0,1,.688,1.655v2.748a3.031,3.031,0,0,0,.252,1.365V13Zm-1.4-1.178a1.458,1.458,0,0,0,.691-.167,1.1,1.1,0,0,0,.469-.448v-1.09h-.633q-1.271,0-1.354.879l-.006.1a.678.678,0,0,0,.223.521A.865.865,0,0,0,13.42,11.822ZM19.168,6.66l.053.709a2.228,2.228,0,0,1,1.822-.826,1.691,1.691,0,0,1,1.682.967,2.177,2.177,0,0,1,1.9-.967,1.891,1.891,0,0,1,1.535.6,2.761,2.761,0,0,1,.5,1.808V13h-1.7V8.957a1.207,1.207,0,0,0-.211-.788.935.935,0,0,0-.744-.249,1.057,1.057,0,0,0-1.055.727L22.965,13H21.271V8.963a1.193,1.193,0,0,0-.217-.8.944.944,0,0,0-.738-.246,1.1,1.1,0,0,0-1.043.6V13H17.58V6.66ZM31.643,13a1.88,1.88,0,0,1-.17-.568,2.049,2.049,0,0,1-1.6.686,2.251,2.251,0,0,1-1.544-.539,1.734,1.734,0,0,1-.612-1.359,1.792,1.792,0,0,1,.747-1.547,3.686,3.686,0,0,1,2.159-.545H31.4V8.764a1.045,1.045,0,0,0-.226-.7.887.887,0,0,0-.712-.264A1.009,1.009,0,0,0,29.794,8a.7.7,0,0,0-.243.563H27.857a1.7,1.7,0,0,1,.34-1.02,2.246,2.246,0,0,1,.961-.735,3.5,3.5,0,0,1,1.395-.267,2.767,2.767,0,0,1,1.86.589A2.06,2.06,0,0,1,33.1,8.787v2.748a3.031,3.031,0,0,0,.252,1.365V13Zm-1.4-1.178a1.458,1.458,0,0,0,.691-.167,1.1,1.1,0,0,0,.469-.448v-1.09H30.77q-1.271,0-1.354.879l-.006.1a.678.678,0,0,0,.223.521A.865.865,0,0,0,30.242,11.822ZM35.961,6.66l.053.732a2.213,2.213,0,0,1,1.822-.85,1.84,1.84,0,0,1,1.5.592,2.761,2.761,0,0,1,.5,1.77V13H38.146V8.945a1.1,1.1,0,0,0-.234-.782,1.049,1.049,0,0,0-.779-.243,1.165,1.165,0,0,0-1.072.609V13H34.367V6.66Zm3.363-2.584a1.64,1.64,0,0,1-.387,1.11,1.2,1.2,0,0,1-.943.448,1.431,1.431,0,0,1-.4-.05,2.654,2.654,0,0,1-.478-.214,2.576,2.576,0,0,0-.439-.2,1.074,1.074,0,0,0-.293-.038.47.47,0,0,0-.349.146.57.57,0,0,0-.144.416l-.984-.059A1.665,1.665,0,0,1,35.3,4.527a1.184,1.184,0,0,1,.94-.457,1.211,1.211,0,0,1,.331.044,3.645,3.645,0,0,1,.507.214,3.294,3.294,0,0,0,.486.205,1.11,1.11,0,0,0,.281.035.494.494,0,0,0,.354-.144.546.546,0,0,0,.149-.413Zm1.535,5.7a3.76,3.76,0,0,1,.363-1.682,2.659,2.659,0,0,1,1.046-1.143,3.051,3.051,0,0,1,1.585-.4,2.887,2.887,0,0,1,2.095.785,3.151,3.151,0,0,1,.905,2.133l.012.434a3.314,3.314,0,0,1-.814,2.341,3.157,3.157,0,0,1-4.374,0,3.372,3.372,0,0,1-.817-2.391Zm1.693.12a2.37,2.37,0,0,0,.34,1.382,1.221,1.221,0,0,0,1.934.006,2.593,2.593,0,0,0,.346-1.511A2.346,2.346,0,0,0,44.826,8.4a1.124,1.124,0,0,0-.973-.487,1.105,1.105,0,0,0-.961.484A2.637,2.637,0,0,0,42.553,9.892Zm8.08-.108A3.821,3.821,0,0,1,51.3,7.422a2.158,2.158,0,0,1,1.819-.879,1.942,1.942,0,0,1,1.529.691V4h1.7v9H54.816l-.082-.674a1.993,1.993,0,0,1-1.629.791,2.152,2.152,0,0,1-1.8-.882A3.944,3.944,0,0,1,50.633,9.783Zm1.693.126a2.5,2.5,0,0,0,.311,1.367,1.012,1.012,0,0,0,.9.475,1.133,1.133,0,0,0,1.107-.663V8.583a1.117,1.117,0,0,0-1.1-.663Q52.326,7.92,52.326,9.909Zm8.25,3.208a3.112,3.112,0,0,1-2.271-.855,3.041,3.041,0,0,1-.876-2.279V9.818A3.83,3.83,0,0,1,57.8,8.11a2.709,2.709,0,0,1,1.046-1.16,2.936,2.936,0,0,1,1.544-.407,2.631,2.631,0,0,1,2.048.82,3.333,3.333,0,0,1,.747,2.326v.691H59.146a1.573,1.573,0,0,0,.5,1,1.5,1.5,0,0,0,1.046.375,1.828,1.828,0,0,0,1.529-.709l.832.932a2.542,2.542,0,0,1-1.031.841A3.383,3.383,0,0,1,60.576,13.117Zm-.193-5.209a1.058,1.058,0,0,0-.817.341,1.768,1.768,0,0,0-.4.977H61.52V9.091a1.261,1.261,0,0,0-.3-.874A1.092,1.092,0,0,0,60.383,7.908ZM68.92,13h-1.7V4h1.7Zm5.068,0a1.88,1.88,0,0,1-.17-.568,2.049,2.049,0,0,1-1.6.686,2.251,2.251,0,0,1-1.544-.539,1.734,1.734,0,0,1-.612-1.359,1.792,1.792,0,0,1,.747-1.547,3.686,3.686,0,0,1,2.159-.545h.779V8.764a1.045,1.045,0,0,0-.226-.7.887.887,0,0,0-.712-.264A1.009,1.009,0,0,0,72.14,8a.7.7,0,0,0-.243.563H70.2a1.7,1.7,0,0,1,.34-1.02A2.246,2.246,0,0,1,71.5,6.81,3.5,3.5,0,0,1,72.9,6.543a2.767,2.767,0,0,1,1.86.589,2.06,2.06,0,0,1,.688,1.655v2.748A3.031,3.031,0,0,0,75.7,12.9V13Zm-1.4-1.178a1.458,1.458,0,0,0,.691-.167,1.1,1.1,0,0,0,.469-.448v-1.09h-.633q-1.271,0-1.354.879l-.006.1a.678.678,0,0,0,.223.521A.865.865,0,0,0,72.588,11.822ZM85.443,9.889a3.8,3.8,0,0,1-.665,2.347,2.132,2.132,0,0,1-1.8.882,1.975,1.975,0,0,1-1.553-.668v2.988H79.736V6.66h1.57l.059.621a1.99,1.99,0,0,1,1.605-.738,2.147,2.147,0,0,1,1.822.867,3.905,3.905,0,0,1,.65,2.391ZM83.75,9.766A2.5,2.5,0,0,0,83.437,8.4a1.021,1.021,0,0,0-.911-.48,1.109,1.109,0,0,0-1.1.609v2.6a1.128,1.128,0,0,0,1.107.627Q83.75,11.752,83.75,9.766Zm2.479.006a3.76,3.76,0,0,1,.363-1.682,2.659,2.659,0,0,1,1.046-1.143,3.051,3.051,0,0,1,1.585-.4,2.887,2.887,0,0,1,2.095.785,3.151,3.151,0,0,1,.905,2.133l.012.434a3.314,3.314,0,0,1-.814,2.341,3.157,3.157,0,0,1-4.374,0,3.372,3.372,0,0,1-.817-2.391Zm1.693.12a2.37,2.37,0,0,0,.34,1.382,1.221,1.221,0,0,0,1.934.006,2.593,2.593,0,0,0,.346-1.511A2.346,2.346,0,0,0,90.2,8.4a1.124,1.124,0,0,0-.973-.487,1.105,1.105,0,0,0-.961.484A2.637,2.637,0,0,0,87.922,9.892Zm11.068,0a3.839,3.839,0,0,1-.65,2.376,2.154,2.154,0,0,1-1.816.853,1.979,1.979,0,0,1-1.646-.791L94.8,13H93.277V4h1.693V7.229a1.929,1.929,0,0,1,1.541-.686,2.172,2.172,0,0,1,1.819.853,3.845,3.845,0,0,1,.659,2.4ZM97.3,9.766a2.522,2.522,0,0,0-.3-1.4,1.03,1.03,0,0,0-.908-.442,1.117,1.117,0,0,0-1.113.662v2.5a1.132,1.132,0,0,0,1.125.668,1.045,1.045,0,0,0,1.078-.809A4.171,4.171,0,0,0,97.3,9.766ZM101.82,13h-1.7V4h1.7Zm5.068,0a1.88,1.88,0,0,1-.17-.568,2.049,2.049,0,0,1-1.6.686,2.251,2.251,0,0,1-1.544-.539,1.734,1.734,0,0,1-.612-1.359,1.792,1.792,0,0,1,.747-1.547,3.686,3.686,0,0,1,2.159-.545h.779V8.764a1.045,1.045,0,0,0-.226-.7.887.887,0,0,0-.712-.264A1.009,1.009,0,0,0,105.04,8a.7.7,0,0,0-.243.563H103.1a1.7,1.7,0,0,1,.34-1.02,2.246,2.246,0,0,1,.961-.735,3.5,3.5,0,0,1,1.395-.267,2.767,2.767,0,0,1,1.86.589,2.06,2.06,0,0,1,.688,1.655v2.748A3.031,3.031,0,0,0,108.6,12.9V13Zm-1.4-1.178a1.458,1.458,0,0,0,.691-.167,1.1,1.1,0,0,0,.469-.448v-1.09h-.633q-1.271,0-1.354.879l-.006.1a.678.678,0,0,0,.223.521A.865.865,0,0,0,105.488,11.822Zm6.8-.07a1.111,1.111,0,0,0,.762-.258.9.9,0,0,0,.3-.686h1.588a2.172,2.172,0,0,1-.352,1.181,2.32,2.32,0,0,1-.946.832,2.962,2.962,0,0,1-1.327.3,2.752,2.752,0,0,1-2.145-.864,3.42,3.42,0,0,1-.785-2.388V9.754a3.381,3.381,0,0,1,.779-2.338,2.72,2.72,0,0,1,2.139-.873,2.667,2.667,0,0,1,1.907.677,2.4,2.4,0,0,1,.729,1.8h-1.588a1.164,1.164,0,0,0-.3-.8,1.132,1.132,0,0,0-1.667.122,2.5,2.5,0,0,0-.3,1.4v.176a2.531,2.531,0,0,0,.3,1.408A1.033,1.033,0,0,0,112.285,11.752ZM117.693,13h-1.7V6.66h1.7Zm-1.8-7.98a.834.834,0,0,1,.255-.627,1.1,1.1,0,0,1,1.386,0,.829.829,0,0,1,.258.627.831.831,0,0,1-.261.633,1.086,1.086,0,0,1-1.377,0A.831.831,0,0,1,115.895,5.02Zm2.93,4.752a3.76,3.76,0,0,1,.363-1.682,2.659,2.659,0,0,1,1.046-1.143,3.051,3.051,0,0,1,1.585-.4,2.887,2.887,0,0,1,2.095.785,3.151,3.151,0,0,1,.905,2.133l.012.434a3.314,3.314,0,0,1-.814,2.341,3.157,3.157,0,0,1-4.374,0,3.372,3.372,0,0,1-.817-2.391Zm1.693.12a2.37,2.37,0,0,0,.34,1.382,1.221,1.221,0,0,0,1.934.006,2.593,2.593,0,0,0,.346-1.511,2.346,2.346,0,0,0-.346-1.373,1.124,1.124,0,0,0-.973-.487,1.105,1.105,0,0,0-.961.484A2.637,2.637,0,0,0,120.518,9.892ZM122.152,4H124l-1.623,1.816H121Zm5.279,2.66.053.732a2.213,2.213,0,0,1,1.822-.85,1.84,1.84,0,0,1,1.5.592,2.761,2.761,0,0,1,.5,1.77V13h-1.693V8.945a1.1,1.1,0,0,0-.234-.782,1.049,1.049,0,0,0-.779-.243,1.165,1.165,0,0,0-1.072.609V13h-1.693V6.66Z" transform="translate(1217.295 -7709.653)" fill="#12263f"/>
    <g id="Trazado_604023" data-name="Trazado 604023" transform="translate(1157.516 -7603.987)" fill="#ecfce4">
      <path d="M 68.16673278808594 45.37255859375 L 9.999996185302734 45.37255859375 C 5.037373542785645 45.37255859375 0.9999958872795105 41.33517837524414 0.9999958872795105 36.37255859375 L 0.9999958872795105 10.00000190734863 C 0.9999958872795105 5.037379264831543 5.037373542785645 1.000001549720764 9.999996185302734 1.000001549720764 L 68.16673278808594 1.000001549720764 C 73.12934875488281 1.000001549720764 77.16673278808594 5.037379264831543 77.16673278808594 10.00000190734863 L 77.16673278808594 36.37255859375 C 77.16673278808594 41.33517837524414 73.12934875488281 45.37255859375 68.16673278808594 45.37255859375 Z" stroke="none"/>
      <path d="M 10 1.999996185302734 C 5.588783264160156 1.999996185302734 2 5.588787078857422 2 9.999996185302734 L 2 36.37256240844727 C 2 40.78377532958984 5.588783264160156 44.37256240844727 10 44.37256240844727 L 68.16672515869141 44.37256240844727 C 72.57794189453125 44.37256240844727 76.16672515869141 40.78377532958984 76.16672515869141 36.37256240844727 L 76.16672515869141 9.999996185302734 C 76.16672515869141 5.588787078857422 72.57794189453125 1.999996185302734 68.16672515869141 1.999996185302734 L 10 1.999996185302734 M 10 -3.814697265625e-06 L 68.16672515869141 -3.814697265625e-06 C 73.6895751953125 -3.814697265625e-06 78.16672515869141 4.477149963378906 78.16672515869141 9.999996185302734 L 78.16672515869141 36.37256240844727 C 78.16672515869141 41.89540863037109 73.6895751953125 46.37256240844727 68.16672515869141 46.37256240844727 L 10 46.37256240844727 C 4.477149963378906 46.37256240844727 0 41.89540863037109 0 36.37256240844727 L 0 9.999996185302734 C 0 4.477149963378906 4.477149963378906 -3.814697265625e-06 10 -3.814697265625e-06 Z" stroke="none" fill="#659a40"/>
    </g>
    <path id="Trazado_604024" data-name="Trazado 604024" d="M4.031,9.66V13H2.906V4.469H6.053a3.161,3.161,0,0,1,2.194.715,2.423,2.423,0,0,1,.794,1.893,2.391,2.391,0,0,1-.776,1.913,3.3,3.3,0,0,1-2.224.671Zm0-.92H6.053a2.021,2.021,0,0,0,1.383-.426,1.556,1.556,0,0,0,.48-1.23,1.608,1.608,0,0,0-.48-1.221,1.894,1.894,0,0,0-1.318-.475H4.031ZM9.943,9.771A3.745,3.745,0,0,1,10.31,8.1a2.732,2.732,0,0,1,1.02-1.148,2.775,2.775,0,0,1,1.491-.4,2.674,2.674,0,0,1,2.095.9,3.449,3.449,0,0,1,.8,2.385V9.9a3.777,3.777,0,0,1-.354,1.661,2.692,2.692,0,0,1-1.014,1.146,2.807,2.807,0,0,1-1.515.41,2.667,2.667,0,0,1-2.089-.9,3.432,3.432,0,0,1-.8-2.373Zm1.09.129a2.712,2.712,0,0,0,.489,1.693,1.658,1.658,0,0,0,2.622-.009,2.966,2.966,0,0,0,.486-1.813,2.708,2.708,0,0,0-.5-1.69,1.574,1.574,0,0,0-1.315-.647,1.557,1.557,0,0,0-1.295.639A2.944,2.944,0,0,0,11.033,9.9Zm11.408,0a3.77,3.77,0,0,1-.668,2.335,2.134,2.134,0,0,1-1.793.882,2.21,2.21,0,0,1-1.857-.85L18.07,13h-1V4h1.084V7.357a2.2,2.2,0,0,1,1.811-.814,2.147,2.147,0,0,1,1.813.873,3.883,3.883,0,0,1,.659,2.391Zm-1.084-.123a2.929,2.929,0,0,0-.428-1.711,1.416,1.416,0,0,0-1.23-.6,1.591,1.591,0,0,0-1.541,1V11.2a1.636,1.636,0,0,0,1.553,1,1.408,1.408,0,0,0,1.213-.6A3.115,3.115,0,0,0,21.357,9.777ZM24.984,13H23.9V4h1.084Zm5.648,0a2.277,2.277,0,0,1-.152-.668,2.419,2.419,0,0,1-1.8.785,2.238,2.238,0,0,1-1.538-.53,1.716,1.716,0,0,1-.6-1.345A1.792,1.792,0,0,1,27.29,9.7a3.55,3.55,0,0,1,2.118-.548h1.055v-.5a1.217,1.217,0,0,0-.34-.905,1.366,1.366,0,0,0-1-.337,1.581,1.581,0,0,0-.973.293.863.863,0,0,0-.393.709h-1.09A1.5,1.5,0,0,1,27,7.5a2.3,2.3,0,0,1,.914-.7,3.075,3.075,0,0,1,1.269-.258,2.506,2.506,0,0,1,1.717.548A1.976,1.976,0,0,1,31.547,8.6v2.918a3.567,3.567,0,0,0,.223,1.389V13Zm-1.8-.826a1.905,1.905,0,0,0,.967-.264,1.6,1.6,0,0,0,.662-.686v-1.3h-.85q-1.992,0-1.992,1.166a.987.987,0,0,0,.34.8A1.306,1.306,0,0,0,28.834,12.174Zm6.955.059a1.561,1.561,0,0,0,1.014-.352,1.237,1.237,0,0,0,.48-.879h1.025a1.966,1.966,0,0,1-.375,1.037,2.47,2.47,0,0,1-.923.785,2.663,2.663,0,0,1-1.222.293,2.612,2.612,0,0,1-2.06-.864,3.442,3.442,0,0,1-.765-2.364V9.707a3.817,3.817,0,0,1,.34-1.646,2.588,2.588,0,0,1,.976-1.119,2.771,2.771,0,0,1,1.5-.4,2.543,2.543,0,0,1,1.772.639,2.283,2.283,0,0,1,.753,1.658H37.283a1.494,1.494,0,0,0-.466-1.011,1.449,1.449,0,0,0-1.034-.4,1.517,1.517,0,0,0-1.28.595,2.793,2.793,0,0,0-.454,1.72v.205a2.737,2.737,0,0,0,.451,1.688A1.524,1.524,0,0,0,35.789,12.232ZM40.705,13H39.621V6.66h1.084ZM39.533,4.979a.647.647,0,0,1,.161-.445.6.6,0,0,1,.478-.182.614.614,0,0,1,.48.182.64.64,0,0,1,.164.445.619.619,0,0,1-.164.439.626.626,0,0,1-.48.176.616.616,0,0,1-.478-.176A.626.626,0,0,1,39.533,4.979Zm2.619,4.793A3.745,3.745,0,0,1,42.519,8.1a2.732,2.732,0,0,1,1.02-1.148,2.775,2.775,0,0,1,1.491-.4,2.674,2.674,0,0,1,2.095.9,3.449,3.449,0,0,1,.8,2.385V9.9a3.777,3.777,0,0,1-.354,1.661,2.692,2.692,0,0,1-1.014,1.146,2.807,2.807,0,0,1-1.515.41,2.667,2.667,0,0,1-2.089-.9,3.432,3.432,0,0,1-.8-2.373Zm1.09.129a2.712,2.712,0,0,0,.489,1.693,1.658,1.658,0,0,0,2.622-.009,2.966,2.966,0,0,0,.486-1.813,2.708,2.708,0,0,0-.5-1.69,1.574,1.574,0,0,0-1.315-.647,1.557,1.557,0,0,0-1.295.639A2.944,2.944,0,0,0,43.242,9.9ZM45.521,4h1.313l-1.57,1.723-.873,0Zm4.787,2.66.035.8a2.31,2.31,0,0,1,1.9-.914q2.01,0,2.027,2.268V13H53.186V8.8a1.459,1.459,0,0,0-.313-1.014,1.256,1.256,0,0,0-.958-.328,1.564,1.564,0,0,0-.926.281,1.91,1.91,0,0,0-.621.738V13H49.283V6.66Z" transform="translate(1167.516 -7588.801)" fill="#12263f"/>
    <g id="Trazado_604025" data-name="Trazado 604025" transform="translate(1242.917 -7603.987)" fill="#ecfce4">
      <path d="M 68.16673278808594 45.37255859375 L 9.999996185302734 45.37255859375 C 5.037373542785645 45.37255859375 0.9999958872795105 41.33517837524414 0.9999958872795105 36.37255859375 L 0.9999958872795105 10.00000190734863 C 0.9999958872795105 5.037379264831543 5.037373542785645 1.000001549720764 9.999996185302734 1.000001549720764 L 68.16673278808594 1.000001549720764 C 73.12934875488281 1.000001549720764 77.16673278808594 5.037379264831543 77.16673278808594 10.00000190734863 L 77.16673278808594 36.37255859375 C 77.16673278808594 41.33517837524414 73.12934875488281 45.37255859375 68.16673278808594 45.37255859375 Z" stroke="none"/>
      <path d="M 10 1.999996185302734 C 5.588783264160156 1.999996185302734 2 5.588787078857422 2 9.999996185302734 L 2 36.37256240844727 C 2 40.78377532958984 5.588783264160156 44.37256240844727 10 44.37256240844727 L 68.16672515869141 44.37256240844727 C 72.57794189453125 44.37256240844727 76.16672515869141 40.78377532958984 76.16672515869141 36.37256240844727 L 76.16672515869141 9.999996185302734 C 76.16672515869141 5.588787078857422 72.57794189453125 1.999996185302734 68.16672515869141 1.999996185302734 L 10 1.999996185302734 M 10 -3.814697265625e-06 L 68.16672515869141 -3.814697265625e-06 C 73.6895751953125 -3.814697265625e-06 78.16672515869141 4.477149963378906 78.16672515869141 9.999996185302734 L 78.16672515869141 36.37256240844727 C 78.16672515869141 41.89540863037109 73.6895751953125 46.37256240844727 68.16672515869141 46.37256240844727 L 10 46.37256240844727 C 4.477149963378906 46.37256240844727 0 41.89540863037109 0 36.37256240844727 L 0 9.999996185302734 C 0 4.477149963378906 4.477149963378906 -3.814697265625e-06 10 -3.814697265625e-06 Z" stroke="none" fill="#659a40"/>
    </g>
    <path id="Trazado_604026" data-name="Trazado 604026" d="M5.534,4.469,8.323,11.43l2.789-6.961h1.459V13H11.446V9.678l.105-3.586L8.751,13H7.89L5.095,6.109l.111,3.568V13H4.081V4.469Zm12.768,7.9a2.3,2.3,0,0,1-1.857.744,1.971,1.971,0,0,1-1.544-.589,2.549,2.549,0,0,1-.536-1.743V6.66h1.084v4.1q0,1.441,1.172,1.441a1.623,1.623,0,0,0,1.652-.926V6.66h1.084V13H18.325Zm5.332.744a2.77,2.77,0,0,1-2.1-.847,3.142,3.142,0,0,1-.809-2.265v-.2a3.8,3.8,0,0,1,.36-1.685A2.811,2.811,0,0,1,22.1,6.962a2.534,2.534,0,0,1,1.4-.419,2.374,2.374,0,0,1,1.922.814,3.526,3.526,0,0,1,.686,2.332v.451H21.812a2.254,2.254,0,0,0,.548,1.515,1.722,1.722,0,0,0,1.333.577A1.888,1.888,0,0,0,24.665,12a2.444,2.444,0,0,0,.7-.621l.662.516A2.662,2.662,0,0,1,23.634,13.117ZM23.5,7.434a1.446,1.446,0,0,0-1.1.478,2.321,2.321,0,0,0-.551,1.339h3.176V9.168a2.065,2.065,0,0,0-.445-1.28A1.361,1.361,0,0,0,23.5,7.434Zm7.553,3.885a.8.8,0,0,0-.331-.683,3.187,3.187,0,0,0-1.154-.419,5.457,5.457,0,0,1-1.307-.422,1.859,1.859,0,0,1-.715-.586,1.4,1.4,0,0,1-.231-.809,1.645,1.645,0,0,1,.659-1.318,2.574,2.574,0,0,1,1.685-.539,2.649,2.649,0,0,1,1.749.557,1.768,1.768,0,0,1,.671,1.424h-1.09a.979.979,0,0,0-.378-.768,1.416,1.416,0,0,0-.952-.322,1.482,1.482,0,0,0-.926.258.812.812,0,0,0-.334.674.658.658,0,0,0,.311.592,3.821,3.821,0,0,0,1.122.381,5.847,5.847,0,0,1,1.315.434,1.919,1.919,0,0,1,.747.606,1.491,1.491,0,0,1,.243.864,1.623,1.623,0,0,1-.68,1.362,2.851,2.851,0,0,1-1.764.513,3.193,3.193,0,0,1-1.348-.27,2.192,2.192,0,0,1-.917-.753,1.815,1.815,0,0,1-.331-1.046h1.084a1.122,1.122,0,0,0,.437.864,1.693,1.693,0,0,0,1.075.319,1.748,1.748,0,0,0,.987-.249A.765.765,0,0,0,31.052,11.318Zm3.967-6.193V6.66H36.2V7.5H35.019v3.937a.88.88,0,0,0,.158.572.666.666,0,0,0,.539.191,2.624,2.624,0,0,0,.516-.07V13a3.161,3.161,0,0,1-.832.116,1.35,1.35,0,0,1-1.1-.439,1.888,1.888,0,0,1-.369-1.248V7.5H32.78V6.66h1.154V5.125Zm5.514,2.508A3.248,3.248,0,0,0,40,7.592a1.428,1.428,0,0,0-1.447.908V13H37.468V6.66h1.055l.018.732a1.688,1.688,0,0,1,1.512-.85,1.107,1.107,0,0,1,.48.082Zm3.627,5.484a2.77,2.77,0,0,1-2.1-.847,3.142,3.142,0,0,1-.809-2.265v-.2a3.8,3.8,0,0,1,.36-1.685,2.811,2.811,0,0,1,1.008-1.16,2.534,2.534,0,0,1,1.4-.419,2.374,2.374,0,0,1,1.922.814,3.526,3.526,0,0,1,.686,2.332v.451H42.337a2.254,2.254,0,0,0,.548,1.515,1.722,1.722,0,0,0,1.333.577A1.888,1.888,0,0,0,45.19,12a2.444,2.444,0,0,0,.7-.621l.662.516A2.662,2.662,0,0,1,44.159,13.117Zm-.135-5.684a1.446,1.446,0,0,0-1.1.478,2.321,2.321,0,0,0-.551,1.339h3.176V9.168a2.065,2.065,0,0,0-.445-1.28A1.361,1.361,0,0,0,44.024,7.434ZM47.6,9.771A3.745,3.745,0,0,1,47.965,8.1a2.732,2.732,0,0,1,1.02-1.148,2.775,2.775,0,0,1,1.491-.4,2.674,2.674,0,0,1,2.095.9,3.449,3.449,0,0,1,.8,2.385V9.9a3.777,3.777,0,0,1-.354,1.661A2.692,2.692,0,0,1,52,12.707a2.807,2.807,0,0,1-1.515.41,2.667,2.667,0,0,1-2.089-.9,3.432,3.432,0,0,1-.8-2.373Zm1.09.129a2.712,2.712,0,0,0,.489,1.693,1.658,1.658,0,0,0,2.622-.009,2.966,2.966,0,0,0,.486-1.813,2.708,2.708,0,0,0-.5-1.69,1.574,1.574,0,0,0-1.315-.647,1.557,1.557,0,0,0-1.295.639A2.944,2.944,0,0,0,48.688,9.9Z" transform="translate(1252.916 -7588.801)" fill="#12263f"/>
    <g id="Trazado_604027" data-name="Trazado 604027" transform="translate(1328.317 -7603.987)" fill="#ecfce4">
      <path d="M 98.16673278808594 45.37274169921875 L 10.0000057220459 45.37274169921875 C 5.037391185760498 45.37274169921875 1.000005483627319 41.33535766601562 1.000005483627319 36.37274169921875 L 1.000005483627319 9.999999046325684 C 1.000005483627319 5.037384986877441 5.037391185760498 0.9999994039535522 10.0000057220459 0.9999994039535522 L 98.16673278808594 0.9999994039535522 C 103.1293487548828 0.9999994039535522 107.1667327880859 5.037384986877441 107.1667327880859 9.999999046325684 L 107.1667327880859 36.37274169921875 C 107.1667327880859 41.33535766601562 103.1293487548828 45.37274169921875 98.16673278808594 45.37274169921875 Z" stroke="none"/>
      <path d="M 9.999992370605469 2 C 5.588775634765625 2 1.999992370605469 5.588787078857422 1.999992370605469 10 L 1.999992370605469 36.37274169921875 C 1.999992370605469 40.78395462036133 5.588775634765625 44.37274169921875 9.999992370605469 44.37274169921875 L 98.16671752929688 44.37274169921875 C 102.5779342651367 44.37274169921875 106.1667175292969 40.78395462036133 106.1667175292969 36.37274169921875 L 106.1667175292969 10 C 106.1667175292969 5.588787078857422 102.5779342651367 2 98.16671752929688 2 L 9.999992370605469 2 M 9.999992370605469 0 L 98.16671752929688 0 C 103.6895751953125 0 108.1667175292969 4.477153778076172 108.1667175292969 10 L 108.1667175292969 36.37274169921875 C 108.1667175292969 41.89558410644531 103.6895751953125 46.37274169921875 98.16671752929688 46.37274169921875 L 9.999992370605469 46.37274169921875 C 4.477149963378906 46.37274169921875 -7.62939453125e-06 41.89558410644531 -7.62939453125e-06 36.37274169921875 L -7.62939453125e-06 10 C -7.62939453125e-06 4.477153778076172 4.477149963378906 0 9.999992370605469 0 Z" stroke="none" fill="#659a40"/>
    </g>
    <path id="Trazado_604028" data-name="Trazado 604028" d="M6.178,13V4.469H8.586a3.877,3.877,0,0,1,1.969.492,3.329,3.329,0,0,1,1.321,1.4,4.558,4.558,0,0,1,.472,2.086v.545a4.574,4.574,0,0,1-.466,2.115,3.277,3.277,0,0,1-1.33,1.395,4.124,4.124,0,0,1-2.013.5ZM7.3,5.389V12.08H8.486a2.575,2.575,0,0,0,2.024-.809,3.344,3.344,0,0,0,.724-2.3v-.5a3.4,3.4,0,0,0-.683-2.261,2.429,2.429,0,0,0-1.937-.818Zm9.205,7.729a2.77,2.77,0,0,1-2.1-.847,3.142,3.142,0,0,1-.809-2.265v-.2a3.8,3.8,0,0,1,.36-1.685,2.811,2.811,0,0,1,1.008-1.16,2.534,2.534,0,0,1,1.4-.419,2.374,2.374,0,0,1,1.922.814,3.526,3.526,0,0,1,.686,2.332v.451H14.685a2.254,2.254,0,0,0,.548,1.515,1.722,1.722,0,0,0,1.333.577A1.888,1.888,0,0,0,17.539,12a2.444,2.444,0,0,0,.7-.621l.662.516A2.662,2.662,0,0,1,16.508,13.117Zm-.135-5.684a1.446,1.446,0,0,0-1.1.478,2.321,2.321,0,0,0-.551,1.339H17.9V9.168a2.065,2.065,0,0,0-.445-1.28A1.361,1.361,0,0,0,16.373,7.434ZM21.7,5.125V6.66h1.184V7.5H21.7v3.937a.88.88,0,0,0,.158.572.666.666,0,0,0,.539.191,2.624,2.624,0,0,0,.516-.07V13a3.161,3.161,0,0,1-.832.116,1.35,1.35,0,0,1-1.1-.439,1.888,1.888,0,0,1-.369-1.248V7.5H19.467V6.66h1.154V5.125Zm5.08,7.992a2.77,2.77,0,0,1-2.1-.847,3.142,3.142,0,0,1-.809-2.265v-.2a3.8,3.8,0,0,1,.36-1.685,2.811,2.811,0,0,1,1.008-1.16,2.534,2.534,0,0,1,1.4-.419,2.374,2.374,0,0,1,1.922.814,3.526,3.526,0,0,1,.686,2.332v.451H24.963a2.254,2.254,0,0,0,.548,1.515,1.722,1.722,0,0,0,1.333.577A1.888,1.888,0,0,0,27.816,12a2.444,2.444,0,0,0,.7-.621l.662.516A2.662,2.662,0,0,1,26.785,13.117ZM26.65,7.434a1.446,1.446,0,0,0-1.1.478A2.321,2.321,0,0,0,25,9.25h3.176V9.168a2.065,2.065,0,0,0-.445-1.28A1.361,1.361,0,0,0,26.65,7.434Zm6.926.2a3.248,3.248,0,0,0-.533-.041A1.428,1.428,0,0,0,31.6,8.5V13H30.512V6.66h1.055l.018.732a1.688,1.688,0,0,1,1.512-.85,1.107,1.107,0,0,1,.48.082Zm2.016-.973.029.7a2.341,2.341,0,0,1,1.881-.82,1.813,1.813,0,0,1,1.811,1.02,2.4,2.4,0,0,1,.823-.738,2.431,2.431,0,0,1,1.2-.281q2.086,0,2.121,2.209V13H42.371V8.816A1.456,1.456,0,0,0,42.06,7.8a1.368,1.368,0,0,0-1.043-.337,1.437,1.437,0,0,0-1,.36,1.462,1.462,0,0,0-.463.97V13h-1.09V8.846a1.209,1.209,0,0,0-1.354-1.383,1.45,1.45,0,0,0-1.459.908V13H34.566V6.66ZM46.267,13H45.183V6.66h1.084ZM45.1,4.979a.647.647,0,0,1,.161-.445.6.6,0,0,1,.478-.182.614.614,0,0,1,.48.182.64.64,0,0,1,.164.445.619.619,0,0,1-.164.439.626.626,0,0,1-.48.176.616.616,0,0,1-.478-.176A.626.626,0,0,1,45.1,4.979ZM49.027,6.66l.035.8a2.31,2.31,0,0,1,1.9-.914q2.01,0,2.027,2.268V13H51.9V8.8a1.459,1.459,0,0,0-.313-1.014,1.256,1.256,0,0,0-.958-.328,1.564,1.564,0,0,0-.926.281,1.91,1.91,0,0,0-.621.738V13H48V6.66ZM58.537,13a2.277,2.277,0,0,1-.152-.668,2.419,2.419,0,0,1-1.8.785,2.238,2.238,0,0,1-1.538-.53,1.716,1.716,0,0,1-.6-1.345A1.792,1.792,0,0,1,55.194,9.7a3.55,3.55,0,0,1,2.118-.548h1.055v-.5a1.217,1.217,0,0,0-.34-.905,1.366,1.366,0,0,0-1-.337,1.581,1.581,0,0,0-.973.293.863.863,0,0,0-.393.709H54.57a1.5,1.5,0,0,1,.337-.917,2.3,2.3,0,0,1,.914-.7,3.075,3.075,0,0,1,1.269-.258,2.506,2.506,0,0,1,1.717.548A1.976,1.976,0,0,1,59.451,8.6v2.918a3.567,3.567,0,0,0,.223,1.389V13Zm-1.8-.826a1.905,1.905,0,0,0,.967-.264,1.6,1.6,0,0,0,.662-.686v-1.3h-.85q-1.992,0-1.992,1.166a.987.987,0,0,0,.34.8A1.306,1.306,0,0,0,56.738,12.174Zm6.955.059a1.561,1.561,0,0,0,1.014-.352,1.237,1.237,0,0,0,.48-.879h1.025a1.966,1.966,0,0,1-.375,1.037,2.47,2.47,0,0,1-.923.785,2.663,2.663,0,0,1-1.222.293,2.612,2.612,0,0,1-2.06-.864,3.442,3.442,0,0,1-.765-2.364V9.707a3.817,3.817,0,0,1,.34-1.646,2.588,2.588,0,0,1,.976-1.119,2.771,2.771,0,0,1,1.5-.4,2.543,2.543,0,0,1,1.772.639,2.283,2.283,0,0,1,.753,1.658H65.187a1.494,1.494,0,0,0-.466-1.011,1.449,1.449,0,0,0-1.034-.4,1.517,1.517,0,0,0-1.28.595,2.793,2.793,0,0,0-.454,1.72v.205a2.737,2.737,0,0,0,.451,1.688A1.524,1.524,0,0,0,63.693,12.232ZM68.609,13H67.525V6.66h1.084ZM67.437,4.979a.647.647,0,0,1,.161-.445.6.6,0,0,1,.478-.182.614.614,0,0,1,.48.182.64.64,0,0,1,.164.445.619.619,0,0,1-.164.439.626.626,0,0,1-.48.176.616.616,0,0,1-.478-.176A.626.626,0,0,1,67.437,4.979Zm2.619,4.793A3.745,3.745,0,0,1,70.423,8.1a2.732,2.732,0,0,1,1.02-1.148,2.775,2.775,0,0,1,1.491-.4,2.674,2.674,0,0,1,2.095.9,3.449,3.449,0,0,1,.8,2.385V9.9a3.777,3.777,0,0,1-.354,1.661,2.692,2.692,0,0,1-1.014,1.146,2.807,2.807,0,0,1-1.515.41,2.667,2.667,0,0,1-2.089-.9,3.432,3.432,0,0,1-.8-2.373Zm1.09.129a2.712,2.712,0,0,0,.489,1.693,1.658,1.658,0,0,0,2.622-.009,2.966,2.966,0,0,0,.486-1.813,2.708,2.708,0,0,0-.5-1.69,1.574,1.574,0,0,0-1.315-.647,1.557,1.557,0,0,0-1.295.639A2.944,2.944,0,0,0,71.146,9.9ZM73.426,4h1.313l-1.57,1.723-.873,0Zm4.787,2.66.035.8a2.31,2.31,0,0,1,1.9-.914q2.01,0,2.027,2.268V13H81.09V8.8a1.459,1.459,0,0,0-.313-1.014,1.256,1.256,0,0,0-.958-.328,1.564,1.564,0,0,0-.926.281,1.91,1.91,0,0,0-.621.738V13H77.187V6.66ZM8.416,24.777a3.714,3.714,0,0,1,.691-2.347,2.186,2.186,0,0,1,1.811-.888,2.2,2.2,0,0,1,1.764.762V19h1.084v9h-1l-.053-.68a2.208,2.208,0,0,1-1.811.8,2.165,2.165,0,0,1-1.8-.9,3.756,3.756,0,0,1-.694-2.355ZM9.5,24.9a2.812,2.812,0,0,0,.445,1.688,1.44,1.44,0,0,0,1.23.609,1.581,1.581,0,0,0,1.506-.926V23.359a1.593,1.593,0,0,0-1.494-.9,1.446,1.446,0,0,0-1.242.615A3.1,3.1,0,0,0,9.5,24.9Zm8.578,3.217a2.77,2.77,0,0,1-2.1-.847,3.142,3.142,0,0,1-.809-2.265v-.2a3.8,3.8,0,0,1,.36-1.685,2.811,2.811,0,0,1,1.008-1.16,2.534,2.534,0,0,1,1.4-.419,2.374,2.374,0,0,1,1.922.814,3.526,3.526,0,0,1,.686,2.332v.451H16.256a2.254,2.254,0,0,0,.548,1.515,1.722,1.722,0,0,0,1.333.577A1.888,1.888,0,0,0,19.109,27a2.444,2.444,0,0,0,.7-.621l.662.516A2.662,2.662,0,0,1,18.078,28.117Zm-.135-5.684a1.446,1.446,0,0,0-1.1.478,2.321,2.321,0,0,0-.551,1.339h3.176v-.082a2.065,2.065,0,0,0-.445-1.28A1.361,1.361,0,0,0,17.943,22.434ZM25.953,28H24.869V19h1.084ZM31.6,28a2.277,2.277,0,0,1-.152-.668,2.419,2.419,0,0,1-1.8.785,2.238,2.238,0,0,1-1.538-.53,1.716,1.716,0,0,1-.6-1.345,1.792,1.792,0,0,1,.753-1.538,3.55,3.55,0,0,1,2.118-.548h1.055v-.5a1.217,1.217,0,0,0-.34-.905,1.366,1.366,0,0,0-1-.337,1.581,1.581,0,0,0-.973.293.863.863,0,0,0-.393.709h-1.09a1.5,1.5,0,0,1,.337-.917,2.3,2.3,0,0,1,.914-.7,3.075,3.075,0,0,1,1.269-.258,2.506,2.506,0,0,1,1.717.548,1.976,1.976,0,0,1,.645,1.509v2.918a3.567,3.567,0,0,0,.223,1.389V28Zm-1.8-.826a1.905,1.905,0,0,0,.967-.264,1.6,1.6,0,0,0,.662-.686v-1.3h-.85q-1.992,0-1.992,1.166a.987.987,0,0,0,.34.8A1.306,1.306,0,0,0,29.8,27.174Zm8.4-5.514.029.7a2.341,2.341,0,0,1,1.881-.82,1.813,1.813,0,0,1,1.811,1.02,2.4,2.4,0,0,1,.823-.738,2.431,2.431,0,0,1,1.2-.281q2.086,0,2.121,2.209V28H44.984V23.816a1.456,1.456,0,0,0-.311-1.017,1.368,1.368,0,0,0-1.043-.337,1.437,1.437,0,0,0-1,.36,1.462,1.462,0,0,0-.463.97V28h-1.09V23.846a1.209,1.209,0,0,0-1.354-1.383,1.45,1.45,0,0,0-1.459.908V28H37.18V21.66Zm13.412,5.713a2.3,2.3,0,0,1-1.857.744,1.971,1.971,0,0,1-1.544-.589,2.549,2.549,0,0,1-.536-1.743V21.66h1.084v4.1q0,1.441,1.172,1.441a1.623,1.623,0,0,0,1.652-.926V21.66h1.084V28H51.64Zm5.332.744a2.77,2.77,0,0,1-2.1-.847,3.142,3.142,0,0,1-.809-2.265v-.2a3.8,3.8,0,0,1,.36-1.685,2.811,2.811,0,0,1,1.008-1.16,2.534,2.534,0,0,1,1.4-.419,2.374,2.374,0,0,1,1.922.814,3.526,3.526,0,0,1,.686,2.332v.451H55.127a2.254,2.254,0,0,0,.548,1.515,1.722,1.722,0,0,0,1.333.577A1.888,1.888,0,0,0,57.98,27a2.444,2.444,0,0,0,.7-.621l.662.516A2.662,2.662,0,0,1,56.949,28.117Zm-.135-5.684a1.446,1.446,0,0,0-1.1.478,2.321,2.321,0,0,0-.551,1.339h3.176v-.082a2.065,2.065,0,0,0-.445-1.28A1.361,1.361,0,0,0,56.814,22.434Zm7.553,3.885a.8.8,0,0,0-.331-.683,3.187,3.187,0,0,0-1.154-.419,5.457,5.457,0,0,1-1.307-.422,1.859,1.859,0,0,1-.715-.586,1.4,1.4,0,0,1-.231-.809,1.645,1.645,0,0,1,.659-1.318,2.574,2.574,0,0,1,1.685-.539,2.649,2.649,0,0,1,1.749.557,1.768,1.768,0,0,1,.671,1.424H64.3a.979.979,0,0,0-.378-.768,1.416,1.416,0,0,0-.952-.322,1.482,1.482,0,0,0-.926.258.812.812,0,0,0-.334.674.658.658,0,0,0,.311.592,3.821,3.821,0,0,0,1.122.381,5.847,5.847,0,0,1,1.315.434,1.919,1.919,0,0,1,.747.606,1.491,1.491,0,0,1,.243.864,1.623,1.623,0,0,1-.68,1.362,2.851,2.851,0,0,1-1.764.513,3.193,3.193,0,0,1-1.348-.27,2.192,2.192,0,0,1-.917-.753,1.815,1.815,0,0,1-.331-1.046H61.5a1.122,1.122,0,0,0,.437.864,1.693,1.693,0,0,0,1.075.319,1.748,1.748,0,0,0,.987-.249A.765.765,0,0,0,64.367,26.318Zm3.967-6.193V21.66h1.184V22.5H68.334v3.937a.88.88,0,0,0,.158.572.666.666,0,0,0,.539.191,2.624,2.624,0,0,0,.516-.07V28a3.161,3.161,0,0,1-.832.116,1.35,1.35,0,0,1-1.1-.439,1.888,1.888,0,0,1-.369-1.248V22.5H66.1V21.66H67.25V20.125Zm5.514,2.508a3.248,3.248,0,0,0-.533-.041,1.428,1.428,0,0,0-1.447.908V28H70.783V21.66h1.055l.018.732a1.688,1.688,0,0,1,1.512-.85,1.107,1.107,0,0,1,.48.082ZM78.523,28a2.277,2.277,0,0,1-.152-.668,2.419,2.419,0,0,1-1.8.785,2.238,2.238,0,0,1-1.538-.53,1.716,1.716,0,0,1-.6-1.345,1.792,1.792,0,0,1,.753-1.538,3.55,3.55,0,0,1,2.118-.548h1.055v-.5a1.217,1.217,0,0,0-.34-.905,1.366,1.366,0,0,0-1-.337,1.581,1.581,0,0,0-.973.293.863.863,0,0,0-.393.709h-1.09a1.5,1.5,0,0,1,.337-.917,2.3,2.3,0,0,1,.914-.7,3.075,3.075,0,0,1,1.269-.258,2.506,2.506,0,0,1,1.717.548,1.976,1.976,0,0,1,.645,1.509v2.918a3.567,3.567,0,0,0,.223,1.389V28Zm-1.8-.826a1.905,1.905,0,0,0,.967-.264,1.6,1.6,0,0,0,.662-.686v-1.3H77.5q-1.992,0-1.992,1.166a.987.987,0,0,0,.34.8A1.306,1.306,0,0,0,76.724,27.174Z" transform="translate(1338.316 -7596.301)" fill="#12263f"/>
    <path id="Trazado_602061" data-name="Trazado 602061" d="M1818.872-6918.964H1794.1" transform="translate(-533.337 -731.421)" fill="none" stroke="#16263d" stroke-width="2"/>
  </g>
</svg>
