<svg xmlns="http://www.w3.org/2000/svg" xmlns:xlink="http://www.w3.org/1999/xlink" width="414.384" height="397.503" viewBox="0 0 414.384 397.503">
  <defs>
    <clipPath id="clip-path">
      <rect id="Rectángulo_298310" data-name="Rectángulo 298310" width="310.701" height="350.824" fill="none"/>
    </clipPath>
    <clipPath id="clip-path-3">
      <rect id="Rectángulo_298295" data-name="Rectángulo 298295" width="85.221" height="61.775" fill="none"/>
    </clipPath>
    <clipPath id="clip-path-4">
      <rect id="Rectángulo_298296" data-name="Rectángulo 298296" width="85.692" height="64.071" fill="none"/>
    </clipPath>
    <clipPath id="clip-path-5">
      <rect id="Rectángulo_298297" data-name="Rectángulo 298297" width="12.028" height="16.835" fill="#b77b46"/>
    </clipPath>
    <clipPath id="clip-path-6">
      <rect id="Rectángulo_298298" data-name="Rectángulo 298298" width="31.563" height="17.124" fill="none"/>
    </clipPath>
    <clipPath id="clip-path-7">
      <rect id="Rectángulo_298299" data-name="Rectángulo 298299" width="17.516" height="15.092" fill="none"/>
    </clipPath>
    <clipPath id="clip-path-8">
      <rect id="Rectángulo_298300" data-name="Rectángulo 298300" width="2.3" height="2.316" fill="none"/>
    </clipPath>
    <clipPath id="clip-path-9">
      <rect id="Rectángulo_298301" data-name="Rectángulo 298301" width="24.9" height="12.485" fill="none"/>
    </clipPath>
    <clipPath id="clip-path-10">
      <rect id="Rectángulo_298302" data-name="Rectángulo 298302" width="20.042" height="23.895" fill="none"/>
    </clipPath>
    <clipPath id="clip-path-11">
      <rect id="Rectángulo_298303" data-name="Rectángulo 298303" width="5.558" height="34.503" fill="none"/>
    </clipPath>
    <clipPath id="clip-path-12">
      <rect id="Rectángulo_298304" data-name="Rectángulo 298304" width="28.323" height="19.08" fill="none"/>
    </clipPath>
    <clipPath id="clip-path-13">
      <rect id="Rectángulo_298305" data-name="Rectángulo 298305" width="6.246" height="16.549" fill="none"/>
    </clipPath>
    <clipPath id="clip-path-14">
      <rect id="Rectángulo_298306" data-name="Rectángulo 298306" width="91.16" height="62.675" fill="none"/>
    </clipPath>
    <clipPath id="clip-path-15">
      <rect id="Rectángulo_298307" data-name="Rectángulo 298307" width="62.527" height="90.735" fill="none"/>
    </clipPath>
    <clipPath id="clip-path-16">
      <rect id="Rectángulo_298308" data-name="Rectángulo 298308" width="56.923" height="84.304" fill="none"/>
    </clipPath>
  </defs>
  <g id="Grupo_879801" data-name="Grupo 879801" transform="translate(-1011.616 -8786.118)">
    <g id="Grupo_878673" data-name="Grupo 878673" transform="translate(0 2832.124)">
      <path id="Trazado_121014" data-name="Trazado 121014" d="M405.2,292.224l-28.545,2.658,10.506,10.506-24.3,24.3a3.389,3.389,0,1,0,4.793,4.793l24.3-24.3,10.588,10.591Z" transform="translate(983.803 5719.42)" fill="#529d2e"/>
      <path id="Trazado_121017" data-name="Trazado 121017" d="M576.3,168.785l-24.368,2.269,8.969,8.969-20.746,20.746a2.893,2.893,0,1,0,4.092,4.092l20.746-20.745,9.039,9.04Z" transform="translate(843.7 5791.209)" fill="#fcd03e"/>
    </g>
    <g id="Grupo_878745" data-name="Grupo 878745" transform="translate(1011.616 8832.797)">
      <g id="Grupo_878744" data-name="Grupo 878744" clip-path="url(#clip-path)">
        <g id="Grupo_878743" data-name="Grupo 878743">
          <g id="Grupo_878742" data-name="Grupo 878742" clip-path="url(#clip-path)">
            <path id="Trazado_602076" data-name="Trazado 602076" d="M71.763,322.224c-1.494-1.578-3.714-2.176-5.753-2.927a30.878,30.878,0,0,1-14.148-47.349l-.308-1.588c-.7-7.383-9.616-12.678-16.433-9.755s-9.129,13.034-4.26,18.629c-8,.661-13.286,9.779-12.16,17.727s6.943,14.471,13.419,19.216a63.519,63.519,0,0,0,36.885,12.184,5.1,5.1,0,0,0,2.618-.472c1.879-1.092,1.634-4.086.14-5.665" transform="translate(-4.647 -65.075)" fill="#bde3a7"/>
            <path id="Trazado_602077" data-name="Trazado 602077" d="M377.864,292.261a9.651,9.651,0,0,0,.232-9.972c-1.866-2.966-5.962-4.467-9.144-3a6.7,6.7,0,0,0-11.363-7.08c-2.13,3.29-1,7.7.826,11.17s4.337,6.721,4.94,10.594c.616,3.955-.9,8-3.268,11.234s-5.526,5.774-8.648,8.28l-.6.573a21.486,21.486,0,0,0,17.2-1.479c2.939-1.626,5.659-4.316,5.852-7.668.108-1.872-.591-3.748-.307-5.6.42-2.744,2.816-4.684,4.272-7.048" transform="translate(-87.884 -67.441)" fill="#bde3a7"/>
            <path id="Trazado_602078" data-name="Trazado 602078" d="M154.836,455.438a10.838,10.838,0,0,1-7.556-4.023c-1.1-1.526-1.625-3.385-2.58-5s-2.608-3.083-4.478-2.9c-2.9.283-4.849,4.287-7.674,3.582-1.7-.423-2.5-2.419-2.516-4.167s.5-3.493.281-5.229c-.611-4.877-6.875-7.275-11.548-5.75s-11.772,7.162-14.817,11.02c3.2,5.327,9.777,7.4,15.806,8.908q15.18,3.807,30.619,6.456a22.609,22.609,0,0,0,7.293.427,7.931,7.931,0,0,0,5.935-3.84,32.155,32.155,0,0,1-8.763.522" transform="translate(-26.038 -108.086)" fill="#bde3a7"/>
            <path id="Trazado_602079" data-name="Trazado 602079" d="M308.342,404.2c-.743-4.167-4.9-7.837-9.022-6.877,3.419-2.817,3.439-8.484.737-12s-7.4-5.025-11.827-4.894-8.68,1.688-12.792,3.338c2.015-2.568-.934-6.565-4.191-6.78s-6.166,1.858-8.808,3.776-5.692,3.868-8.917,3.365l3.032,1.209c7.23,1.1,14.522,2.786,20.784,6.564s11.417,9.935,12.5,17.169-2.725,15.33-9.587,17.859A29.1,29.1,0,0,0,304.6,415.938c2.6-3.341,4.484-7.576,3.741-11.742" transform="translate(-63.506 -94.43)" fill="#bde3a7"/>
            <path id="Trazado_602080" data-name="Trazado 602080" d="M9.564,264.435a62.6,62.6,0,0,1-.195-6.981,62.6,62.6,0,0,1,.195-6.981,62.6,62.6,0,0,1,.195,6.981,62.6,62.6,0,0,1-.195,6.981" transform="translate(-2.347 -62.742)" fill="#e4fcd4"/>
            <path id="Trazado_602081" data-name="Trazado 602081" d="M14.434,259.722a66.88,66.88,0,0,1-7.216.195A66.9,66.9,0,0,1,0,259.722a66.912,66.912,0,0,1,7.218-.195,66.9,66.9,0,0,1,7.216.195" transform="translate(0 -65.01)" fill="#e4fcd4"/>
            <path id="Trazado_602082" data-name="Trazado 602082" d="M381.046,360.171a125.146,125.146,0,0,1,0-13.962,125.127,125.127,0,0,1,0,13.962" transform="translate(-95.401 -86.723)" fill="#e4fcd4"/>
            <path id="Trazado_602083" data-name="Trazado 602083" d="M385.916,355.458a133.748,133.748,0,0,1-14.434,0,133.727,133.727,0,0,1,14.434,0" transform="translate(-93.054 -88.991)" fill="#e4fcd4"/>
            <path id="Trazado_602084" data-name="Trazado 602084" d="M324.538,40.53a62.6,62.6,0,0,1-.195-6.981,62.6,62.6,0,0,1,.195-6.981,62.6,62.6,0,0,1,.195,6.981,62.6,62.6,0,0,1-.195,6.981" transform="translate(-81.246 -6.655)" fill="#e0e0e0"/>
            <path id="Trazado_602085" data-name="Trazado 602085" d="M329.408,35.817a66.887,66.887,0,0,1-7.216.195,66.9,66.9,0,0,1-7.218-.195,66.9,66.9,0,0,1,7.218-.195,66.887,66.887,0,0,1,7.216.195" transform="translate(-78.899 -8.923)" fill="#e0e0e0"/>
            <path id="Trazado_602086" data-name="Trazado 602086" d="M23.182,180.17a4.266,4.266,0,1,1-4.266-4.266,4.266,4.266,0,0,1,4.266,4.266" transform="translate(-3.67 -44.063)" fill="#e4fcd4"/>
            <path id="Trazado_602087" data-name="Trazado 602087" d="M244.6,422.565a4.266,4.266,0,1,1-4.266-4.266,4.266,4.266,0,0,1,4.266,4.266" transform="translate(-59.133 -104.782)" fill="#e4fcd4"/>
            <path id="Trazado_602088" data-name="Trazado 602088" d="M297.562,315a4.266,4.266,0,1,1-4.266-4.266A4.266,4.266,0,0,1,297.562,315" transform="translate(-72.4 -77.838)" fill="#e4fcd4"/>
            <path id="Trazado_602089" data-name="Trazado 602089" d="M128.456,31.581a4.266,4.266,0,1,1-4.266-4.266,4.267,4.267,0,0,1,4.266,4.266" transform="translate(-30.04 -6.842)" fill="#e4fcd4"/>
            <path id="Trazado_602090" data-name="Trazado 602090" d="M156.847,369.006a2.133,2.133,0,1,1-2.133-2.133,2.133,2.133,0,0,1,2.133,2.133" transform="translate(-38.221 -91.9)" fill="#e4fcd4"/>
            <path id="Trazado_602091" data-name="Trazado 602091" d="M88.178,354.81a2.133,2.133,0,1,1-2.133-2.133,2.133,2.133,0,0,1,2.133,2.133" transform="translate(-21.02 -88.344)" fill="#e4fcd4"/>
            <path id="Trazado_602092" data-name="Trazado 602092" d="M158.334,37.986a2.133,2.133,0,1,1-2.133-2.133,2.133,2.133,0,0,1,2.133,2.133" transform="translate(-38.593 -8.981)" fill="#e4fcd4"/>
            <path id="Trazado_602093" data-name="Trazado 602093" d="M283.7,191.971a2.133,2.133,0,1,1-2.133-2.133,2.133,2.133,0,0,1,2.133,2.133" transform="translate(-69.996 -47.553)" fill="#e0e0e0"/>
            <path id="Trazado_602094" data-name="Trazado 602094" d="M11.271,30.05s-4.75,2.452,1.905,12.4A138.615,138.615,0,0,0,24.195,57.2s1.249,2.344-.775,2.971-6.667.439-7.289,3.08c-.645,2.739,1.555,4.992,5.68,6.707s13.024,5.806,13.828,6.179,1.661,1.423.351,2.071-11.433,2.93-10.063,7.668,13.648,7.63,14.983,7.972,1.706.847,1.684,1.56-3.5,1.16-6.348,1.927S30.22,99.5,31.24,102.163s8.675,7.62,25.8,7.276l7.925-.678,3.508-7.178c6.569-15.819,4.753-24.753,2.641-26.676s-4.563.525-6.318,2.9-3.439,5.448-4.111,5.208-1.007-.769-.838-2.138S61.8,67.022,57.892,64.017s-9.73,5.587-10.812,6.57-1.746-.214-1.8-1.082c-.054-.884-.615-10.662-.707-15.129S43.188,47.038,40.4,46.64c-2.686-.384-4.206,4.007-5.528,5.663s-3.049-.363-3.049-.363A138.581,138.581,0,0,0,22.113,36.3c-6.835-9.828-10.935-6.192-10.935-6.192" transform="translate(-2.412 -7.377)" fill="#bde3a7"/>
            <path id="Trazado_602095" data-name="Trazado 602095" d="M68.13,113.752C63.139,106.515,54.483,93.5,46.994,82.37s-14.274-21.2-19.228-28.46L21.89,45.316l-1.6-2.338-.41-.611c-.091-.139-.133-.214-.133-.214s.055.065.154.2l.429.6,1.635,2.312c1.417,2.009,3.447,4.93,5.941,8.55C32.9,61.048,39.713,71.1,47.2,82.232s16.121,24.159,21.075,31.421" transform="translate(-4.948 -10.559)" fill="#529d2e"/>
            <path id="Trazado_602096" data-name="Trazado 602096" d="M26.955,75.25a2.588,2.588,0,0,1,.569.088c.363.07.884.189,1.527.341,1.286.306,3.05.774,4.989,1.326L39,78.436l1.5.424a2.5,2.5,0,0,1,.546.178,2.573,2.573,0,0,1-.569-.085c-.364-.072-.885-.19-1.527-.349-1.283-.319-3.041-.81-4.979-1.363l-4.965-1.395L27.5,75.432a2.613,2.613,0,0,1-.546-.182" transform="translate(-6.752 -18.849)" fill="#529d2e"/>
            <path id="Trazado_602097" data-name="Trazado 602097" d="M46.4,74.07c-.067-.016.739-3.7,1.8-8.221s1.973-8.182,2.039-8.166-.739,3.7-1.8,8.222S46.464,74.086,46.4,74.07" transform="translate(-11.621 -14.449)" fill="#529d2e"/>
            <path id="Trazado_602098" data-name="Trazado 602098" d="M60.712,98.614a2.727,2.727,0,0,1,.263-.525l.784-1.39c.66-1.174,1.565-2.8,2.5-4.631s1.727-3.514,2.289-4.738l.668-1.45a2.693,2.693,0,0,1,.271-.521,2.677,2.677,0,0,1-.183.558c-.133.354-.334.861-.6,1.483-.522,1.244-1.29,2.946-2.23,4.78s-1.866,3.453-2.566,4.607c-.352.576-.642,1.038-.852,1.351a2.7,2.7,0,0,1-.346.476" transform="translate(-15.208 -21.382)" fill="#529d2e"/>
            <path id="Trazado_602099" data-name="Trazado 602099" d="M42.27,102.953a2.265,2.265,0,0,1,.54-.055l1.475-.057c1.245-.037,2.966-.072,4.867-.094s3.622-.03,4.868-.022l1.476.022a2.273,2.273,0,0,1,.542.042,2.355,2.355,0,0,1-.54.054l-1.475.057c-1.245.037-2.966.072-4.867.1s-3.622.029-4.868.022l-1.475-.022a2.291,2.291,0,0,1-.542-.041" transform="translate(-10.588 -25.731)" fill="#529d2e"/>
            <path id="Trazado_602100" data-name="Trazado 602100" d="M52.27,125.242a3.754,3.754,0,0,1,.692-.063l1.89-.08c1.6-.056,3.8-.118,6.237-.17s4.642-.086,6.239-.1h1.891a3.655,3.655,0,0,1,.694.033,3.752,3.752,0,0,1-.692.063l-1.89.08c-1.6.056-3.8.118-6.237.17s-4.642.086-6.238.1l-1.892,0a3.737,3.737,0,0,1-.694-.033" transform="translate(-13.093 -31.269)" fill="#e0e0e0"/>
            <path id="Trazado_602101" data-name="Trazado 602101" d="M75.243,119.027a4.236,4.236,0,0,1,.316-.674l.93-1.8c.784-1.519,1.859-3.622,2.979-5.977s2.086-4.511,2.771-6.077l.813-1.855a4.26,4.26,0,0,1,.324-.669,4.164,4.164,0,0,1-.235.706c-.166.449-.417,1.094-.741,1.887-.645,1.585-1.582,3.757-2.709,6.115s-2.224,4.453-3.047,5.953c-.414.749-.756,1.351-1,1.763a4.306,4.306,0,0,1-.4.627" transform="translate(-18.848 -25.545)" fill="#e0e0e0"/>
            <path id="Trazado_602102" data-name="Trazado 602102" d="M352.4,200.824c-8.449-7.368-9.246-19.441-7.736-30.054.252-1.771.259-3.667,1.273-5.136s3.1-2.322,4.614-1.4c1.253.764,1.663,2.362,2.265,3.712a10.454,10.454,0,0,0,3.741,4.432,3.983,3.983,0,0,0,3.615.724c1.625-.681,2.034-2.78,2.213-4.549q.5-4.948,1-9.894a16.57,16.57,0,0,1,1.1-5.195,5.518,5.518,0,0,1,3.847-3.338,3.346,3.346,0,0,1,3.877,2.674,16.388,16.388,0,0,1-.187,2.207,1.871,1.871,0,0,0,.9,1.869,2.151,2.151,0,0,0,2.03-.6,23.627,23.627,0,0,0,4.908-5.918,32.829,32.829,0,0,1,4.646-6.152,9.619,9.619,0,0,1,6.871-2.936,5.758,5.758,0,0,1,5.45,4.538c.373,2.563-1.354,4.936-3.154,6.782a39.707,39.707,0,0,1-9.063,6.949,3.266,3.266,0,0,0-1.534,1.33c-.511,1.137.48,2.428,1.6,2.942a20.611,20.611,0,0,0,4.077.909,4,4,0,0,1,3.171,2.44c.529,1.885-1.186,3.617-2.808,4.7a34,34,0,0,1-10.63,4.7,11.462,11.462,0,0,0-3.914,1.407,3.293,3.293,0,0,0-1.453,3.636,3.352,3.352,0,0,0,3.474,1.783,23.711,23.711,0,0,0,4.04-1.064c2.53-.655,5.65-.149,6.98,2.119a5.63,5.63,0,0,1,.062,5.013,12.973,12.973,0,0,1-3.152,4.081,34.192,34.192,0,0,1-15.618,8.639c-5.848,1.348-11.129,1.313-16.51-1.339" transform="translate(-86.183 -35.384)" fill="#e5ffd4"/>
            <path id="Trazado_602103" data-name="Trazado 602103" d="M359.823,195.06a159.323,159.323,0,0,1,8.128-16.382l2.351-4.184c.775-1.372,1.543-2.732,2.377-4.017a79.654,79.654,0,0,1,5.214-7.1c1.767-2.18,3.524-4.183,5.181-6.045s3.242-3.562,4.749-5.053a63.176,63.176,0,0,1,7.628-6.5c.957-.695,1.718-1.208,2.238-1.55l.594-.385a1.179,1.179,0,0,1,.208-.121,1.4,1.4,0,0,1-.19.149l-.575.411c-.507.36-1.255.89-2.2,1.6a66.781,66.781,0,0,0-7.54,6.562c-1.492,1.5-3.06,3.206-4.709,5.07s-3.393,3.876-5.15,6.055a80.517,80.517,0,0,0-5.178,7.088c-.827,1.278-1.587,2.627-2.363,4s-1.556,2.771-2.349,4.184a163.262,163.262,0,0,0-8.136,16.338" transform="translate(-90.134 -36.001)" fill="#529d2e"/>
            <path id="Trazado_602104" data-name="Trazado 602104" d="M376.937,172.822a3.623,3.623,0,0,1-.091-.773c-.04-.5-.074-1.222-.1-2.116-.06-1.788-.059-4.259-.047-6.985s-.023-5.19-.11-6.972c-.041-.891-.082-1.612-.116-2.11a3.57,3.57,0,0,1-.016-.779,3.554,3.554,0,0,1,.142.765c.073.495.149,1.216.22,2.108.148,1.785.218,4.259.207,6.988-.019,2.688-.035,5.121-.048,6.98,0,.839,0,1.547,0,2.115a3.5,3.5,0,0,1-.036.778" transform="translate(-94.296 -38.348)" fill="#529d2e"/>
            <path id="Trazado_602105" data-name="Trazado 602105" d="M400.3,176.928a4.916,4.916,0,0,1-.918.01c-.589-.01-1.441-.031-2.5-.022-2.106,0-5.016.1-8.222.356s-6.1.618-8.181.937c-1.044.152-1.885.3-2.467.4a4.889,4.889,0,0,1-.911.122,4.934,4.934,0,0,1,.886-.249c.576-.136,1.413-.317,2.455-.5,2.081-.38,4.977-.776,8.194-1.037a80.752,80.752,0,0,1,8.249-.259c1.057.022,1.91.077,2.5.128a4.819,4.819,0,0,1,.911.118" transform="translate(-94.462 -44.253)" fill="#529d2e"/>
            <path id="Trazado_602106" data-name="Trazado 602106" d="M357.475,201.584a1.167,1.167,0,0,1-.126-.294l-.3-.865c-.257-.752-.6-1.849-1.008-3.211-.816-2.723-1.825-6.519-2.882-10.723s-2.03-8.007-2.788-10.743l-.908-3.239c-.1-.353-.177-.644-.242-.883a1.16,1.16,0,0,1-.063-.314,1.219,1.219,0,0,1,.126.295l.3.863c.258.752.6,1.85,1.009,3.211.816,2.723,1.825,6.52,2.883,10.725s2.03,8.005,2.787,10.742c.373,1.33.68,2.425.908,3.237l.242.883a1.208,1.208,0,0,1,.063.315" transform="translate(-87.461 -42.913)" fill="#529d2e"/>
            <path id="Trazado_602107" data-name="Trazado 602107" d="M391.518,203.052a1.261,1.261,0,0,1-.313.091l-.909.2-3.348.7c-2.827.591-6.722,1.453-11.025,2.411s-8.212,1.785-11.051,2.318c-1.42.267-2.572.471-3.37.6l-.92.139a1.211,1.211,0,0,1-.325.025,1.261,1.261,0,0,1,.313-.091l.909-.2,3.348-.7c2.827-.591,6.723-1.453,11.027-2.412s8.209-1.785,11.05-2.318c1.42-.267,2.571-.471,3.37-.6l.92-.139a1.206,1.206,0,0,1,.325-.025" transform="translate(-90.242 -50.862)" fill="#529d2e"/>
            <path id="Trazado_602108" data-name="Trazado 602108" d="M268.322,38.806c1.361-7.808,5.082-19.22,9.54-25.771S289.195,1.276,297.045.188s16.51,2.594,20.046,9.687c1.9,3.8,2.244,8.176,3.627,12.193s4.412,8.032,8.649,8.355c3.749.287,7.363-2.416,11.054-1.7,4.806.935,6.662,6.859,6.689,11.755s-.672,10.332,2.338,14.194c2.462,3.161,6.679,4.25,10.078,6.369,7.352,4.585,10.5,14.056,9.753,22.688s-4.72,16.625-8.943,24.19a189.015,189.015,0,0,0-14.279-35.891c-3.41-6.532-9.632-12.092-15.142-16.984-8.46-7.512-27.032-11.1-38.261-12.478s-13.214-1.683-24.333-3.764" transform="translate(-67.213 0)" fill="#bde3a7"/>
            <path id="Trazado_602109" data-name="Trazado 602109" d="M141.549,64.047c-27.789,2.018-58.125,5.7-80.369,14.238L68.2,125.822s43.118-15.429,78.2-14.358Z" transform="translate(-15.325 -16.043)" fill="#e8505b"/>
            <g id="Grupo_878702" data-name="Grupo 878702" transform="translate(45.854 48.004)" opacity="0.8">
              <g id="Grupo_878701" data-name="Grupo 878701">
                <g id="Grupo_878700" data-name="Grupo 878700" clip-path="url(#clip-path-3)">
                  <path id="Trazado_602110" data-name="Trazado 602110" d="M141.549,64.047c-27.789,2.018-58.125,5.7-80.369,14.238L68.2,125.822s43.118-15.429,78.2-14.358Z" transform="translate(-61.18 -64.047)" fill="#ffeddd"/>
                </g>
              </g>
            </g>
            <path id="Trazado_602111" data-name="Trazado 602111" d="M141.836,110.831a1.479,1.479,0,0,1-.267.05l-.789.109-3.032.379c-1.318.156-2.93.349-4.795.624s-4,.534-6.336.923c-9.374,1.45-22.278,3.842-36.3,7.467-4.873,1.258-9.569,2.555-13.867,3.9l-.214.067-.03-.22c-1.5-10.9-2.956-20.3-4.071-26.963l-1.342-7.8q-.235-1.338-.366-2.085l-.087-.54a.8.8,0,0,1-.019-.185.8.8,0,0,1,.051.179l.119.533q.152.742.426,2.074c.361,1.812.861,4.457,1.45,7.785,1.18,6.656,2.684,16.051,4.209,26.952l-.244-.153c4.31-1.361,9.005-2.664,13.885-3.923a353.9,353.9,0,0,1,36.353-7.362c2.345-.372,4.479-.619,6.348-.866s3.484-.425,4.806-.558l3.042-.307.791-.07a1.4,1.4,0,0,1,.272-.01" transform="translate(-17.616 -21.682)" fill="#e8505b"/>
            <path id="Trazado_602112" data-name="Trazado 602112" d="M143.767,100.816c-.019.005-.1-.331-.32-.946a10.06,10.06,0,0,0-1.43-2.458,12.5,12.5,0,0,0-3.374-2.955,13.206,13.206,0,0,0-1.2-.639,11,11,0,0,0-1.358-.491,7.467,7.467,0,0,0-3.091-.3,6.505,6.505,0,0,0-3.148,1.238A10.542,10.542,0,0,0,127.328,97a41.809,41.809,0,0,0-3.532,7.539,9.462,9.462,0,0,1-2.614,3.748,4.969,4.969,0,0,1-2.17,1.039,4.344,4.344,0,0,1-2.441-.282c-3.165-1.255-4.573-4.9-7.771-6.009a6.263,6.263,0,0,0-4.746.388,5.986,5.986,0,0,0-1.88,1.451,9.558,9.558,0,0,0-1.253,2.013c-.714,1.408-1.251,2.974-2.459,4.079a3.641,3.641,0,0,1-2.156.972,4.215,4.215,0,0,1-2.256-.485,8.083,8.083,0,0,1-3.1-3.05,26.257,26.257,0,0,1-1.642-3.743,17.819,17.819,0,0,0-1.626-3.383,6.765,6.765,0,0,0-2.485-2.306,6.433,6.433,0,0,0-5.7-.166,9.651,9.651,0,0,0-3.617,2.608,7.03,7.03,0,0,0-1.357,2.479c-.191.624-.218.972-.246.968a4.394,4.394,0,0,1,.171-.989,6.817,6.817,0,0,1,1.315-2.554,9.693,9.693,0,0,1,3.648-2.712,6.656,6.656,0,0,1,5.912.122,7.038,7.038,0,0,1,2.608,2.383,18.079,18.079,0,0,1,1.677,3.433,26.392,26.392,0,0,0,1.635,3.684,7.765,7.765,0,0,0,2.972,2.906,3.861,3.861,0,0,0,2.061.441,3.27,3.27,0,0,0,1.939-.884c1.109-1.007,1.65-2.539,2.365-3.97a9.89,9.89,0,0,1,1.3-2.1,6.349,6.349,0,0,1,2-1.546,6.641,6.641,0,0,1,5.043-.411,10.369,10.369,0,0,1,4.055,3.056,11.237,11.237,0,0,0,3.736,2.969,3.963,3.963,0,0,0,2.23.265,4.6,4.6,0,0,0,2.006-.959,9.12,9.12,0,0,0,2.518-3.6,41.587,41.587,0,0,1,3.592-7.575,10.818,10.818,0,0,1,2.611-2.8,6.772,6.772,0,0,1,3.294-1.268,7.7,7.7,0,0,1,3.191.337,11.287,11.287,0,0,1,1.385.516,13.5,13.5,0,0,1,1.216.665,12.464,12.464,0,0,1,3.381,3.048,9.6,9.6,0,0,1,1.384,2.524c.111.31.151.561.2.723a1.186,1.186,0,0,1,.049.25" transform="translate(-18.605 -23.223)" fill="#e8505b"/>
            <path id="Trazado_602113" data-name="Trazado 602113" d="M68.179,95.169c.02.106-.342.264-.808.352s-.86.075-.881-.031.341-.264.808-.352.86-.075.881.031" transform="translate(-16.655 -23.817)" fill="#e8505b"/>
            <path id="Trazado_602114" data-name="Trazado 602114" d="M69.919,106.768c.046.1-.227.321-.609.5s-.728.242-.773.145.227-.321.609-.5.728-.242.773-.145" transform="translate(-17.167 -26.733)" fill="#e8505b"/>
            <path id="Trazado_602115" data-name="Trazado 602115" d="M71.969,119.419c.035.1-.245.293-.627.426s-.72.158-.756.057.245-.292.627-.426.72-.159.755-.058" transform="translate(-17.681 -29.898)" fill="#e8505b"/>
            <path id="Trazado_602116" data-name="Trazado 602116" d="M74.376,131.862c.032.1-.286.295-.709.427s-.794.158-.826.055.285-.294.709-.427.794-.157.826-.055" transform="translate(-18.246 -33.015)" fill="#e8505b"/>
            <path id="Trazado_602117" data-name="Trazado 602117" d="M144.806,71.5a3.787,3.787,0,0,1,.908-.2c.6-.1,1.472-.234,2.585-.391,2.227-.313,5.4-.725,9.189-1.191l.177-.022.016.178c.295,3.191.634,6.867.995,10.763l.015.162.016.188-.187.023L146.1,82.528l-.166.02-.017-.164c-.349-3.258-.639-5.978-.848-7.937q-.133-1.365-.212-2.191a5.1,5.1,0,0,1-.046-.755,6.589,6.589,0,0,1,.136.8c.076.555.177,1.293.3,2.21.246,1.934.587,4.618,1,7.835l-.184-.145,12.416-1.582-.17.211-.015-.162c-.344-3.9-.669-7.575-.951-10.767l.193.157L144.806,71.5" transform="translate(-36.272 -17.457)" fill="#e8505b"/>
            <path id="Trazado_602118" data-name="Trazado 602118" d="M157.038,74.581c0,.115-2.139.115-4.747.4s-4.7.717-4.725.6a23.151,23.151,0,0,1,9.472-1" transform="translate(-36.964 -18.645)" fill="#e8505b"/>
            <path id="Trazado_602119" data-name="Trazado 602119" d="M157.419,78.309c0,.113-1.991.19-4.43.429s-4.409.538-4.431.427a25.6,25.6,0,0,1,8.861-.856" transform="translate(-37.213 -19.589)" fill="#e8505b"/>
            <path id="Trazado_602120" data-name="Trazado 602120" d="M154.706,81.574a17.048,17.048,0,0,1-5.106.647,17.047,17.047,0,0,1,5.106-.647" transform="translate(-37.474 -20.42)" fill="#e8505b"/>
            <path id="Trazado_602121" data-name="Trazado 602121" d="M320.485,77.634c-27.209-8.292-50.161-15.372-80.982-15.177L234.793,110.9c32.011,2.833,42.71,4.929,72.27,15.626Z" transform="translate(-58.814 -15.644)" fill="#e8505b"/>
            <g id="Grupo_878705" data-name="Grupo 878705" transform="translate(175.979 46.809)" opacity="0.8">
              <g id="Grupo_878704" data-name="Grupo 878704">
                <g id="Grupo_878703" data-name="Grupo 878703" clip-path="url(#clip-path-4)">
                  <path id="Trazado_602122" data-name="Trazado 602122" d="M320.485,77.634c-27.209-8.292-50.161-15.372-80.982-15.177L234.793,110.9c32.011,2.833,42.71,4.929,72.27,15.626Z" transform="translate(-234.793 -62.453)" fill="#fff1e5"/>
                </g>
              </g>
            </g>
            <path id="Trazado_602123" data-name="Trazado 602123" d="M262.817,90.361l1.2-10.277a12.05,12.05,0,0,0-8.391,2.32,12.635,12.635,0,0,0-5.157,10.163c-.01.495,0,1,.043,1.52v.037h0l12-1.349Z" transform="translate(-62.741 -20.043)" fill="#ffa455"/>
            <path id="Trazado_602124" data-name="Trazado 602124" d="M279.69,88.77a11.626,11.626,0,0,0-8.551-8.15c-.121-.028-.242-.055-.366-.079-.077-.016-.154-.034-.232-.048q-.344-.063-.7-.108l-.031-.005h0l-.029,0h0l-1.2,10.277-.282,2.416,11.332,4.136.014.005a13.1,13.1,0,0,0,.587-2.631,14.1,14.1,0,0,0-.538-5.809" transform="translate(-67.206 -20.134)" fill="#e8505b"/>
            <g id="Grupo_878708" data-name="Grupo 878708" transform="translate(201.089 60.241)">
              <g id="Grupo_878707" data-name="Grupo 878707">
                <g id="Grupo_878706" data-name="Grupo 878706" clip-path="url(#clip-path-5)">
                  <path id="Trazado_602125" data-name="Trazado 602125" d="M279.69,88.77a11.626,11.626,0,0,0-8.551-8.15c-.121-.028-.242-.055-.366-.079-.077-.016-.154-.034-.232-.048q-.344-.063-.7-.108l-.031-.005h0l-.029,0h0l-1.2,10.277-.282,2.416,11.332,4.136.014.005a13.1,13.1,0,0,0,.587-2.631,14.1,14.1,0,0,0-.538-5.809" transform="translate(-268.295 -80.374)" fill="#b77b46"/>
                </g>
              </g>
            </g>
            <path id="Trazado_602126" data-name="Trazado 602126" d="M263.159,98.853l-12,1.349a11.91,11.91,0,0,0,23.351,2.789l-11.332-4.136" transform="translate(-62.913 -24.762)" fill="#fc8116"/>
            <path id="Trazado_602127" data-name="Trazado 602127" d="M325.817,92.376a6.272,6.272,0,0,1-1.06-.428c-.669-.3-1.642-.727-2.852-1.233a85.481,85.481,0,0,0-19.651-5.606c-1.294-.208-2.345-.362-3.073-.457a6.567,6.567,0,0,1-1.127-.195,6.24,6.24,0,0,1,1.143.043c.734.049,1.793.161,3.1.336a72.392,72.392,0,0,1,19.72,5.626c1.2.54,2.159,1,2.808,1.349a6.581,6.581,0,0,1,.994.565" transform="translate(-74.661 -21.153)" fill="#e8505b"/>
            <path id="Trazado_602128" data-name="Trazado 602128" d="M324.717,99.122a6.273,6.273,0,0,1-1.06-.428c-.669-.3-1.642-.727-2.852-1.233a85.479,85.479,0,0,0-19.651-5.606c-1.294-.208-2.345-.362-3.073-.457a6.568,6.568,0,0,1-1.127-.195,6.418,6.418,0,0,1,1.143.043c.734.049,1.793.161,3.1.336a72.391,72.391,0,0,1,19.72,5.626c1.2.54,2.159,1,2.808,1.349a6.58,6.58,0,0,1,.994.565" transform="translate(-74.386 -22.843)" fill="#e8505b"/>
            <path id="Trazado_602129" data-name="Trazado 602129" d="M323.618,105.869a6.413,6.413,0,0,1-1.06-.429c-.669-.3-1.642-.727-2.852-1.233A85.481,85.481,0,0,0,300.055,98.6c-1.294-.208-2.345-.362-3.073-.457a6.569,6.569,0,0,1-1.126-.195,6.327,6.327,0,0,1,1.143.043c.734.049,1.793.161,3.1.336a72.391,72.391,0,0,1,19.72,5.626c1.2.54,2.159,1,2.808,1.349a6.453,6.453,0,0,1,.994.566" transform="translate(-74.11 -24.532)" fill="#e8505b"/>
            <path id="Trazado_602130" data-name="Trazado 602130" d="M321.695,112.615a6.1,6.1,0,0,1-1.027-.427c-.647-.3-1.59-.726-2.761-1.231a81.054,81.054,0,0,0-19.067-5.609c-1.258-.21-2.28-.363-2.988-.459a6.113,6.113,0,0,1-1.1-.195,6.04,6.04,0,0,1,1.112.044c.714.049,1.744.161,3.012.337a68.692,68.692,0,0,1,19.139,5.63c1.161.539,2.089,1,2.716,1.346a6.088,6.088,0,0,1,.959.564" transform="translate(-73.835 -26.222)" fill="#e8505b"/>
            <path id="Trazado_602131" data-name="Trazado 602131" d="M317.837,118.337a4.926,4.926,0,0,1-.927-.369l-2.477-1.1a60.516,60.516,0,0,0-17.108-4.881l-2.685-.371a4.873,4.873,0,0,1-.982-.176,4.891,4.891,0,0,1,1,.025c.64.037,1.565.123,2.706.249a51.9,51.9,0,0,1,17.186,4.9c1.036.495,1.866.91,2.43,1.216a4.852,4.852,0,0,1,.86.505" transform="translate(-73.559 -27.911)" fill="#e8505b"/>
            <path id="Trazado_602132" data-name="Trazado 602132" d="M305.361,120.6a12,12,0,0,1-1.936-.4c-1.186-.276-2.829-.63-4.658-.944s-3.5-.545-4.7-.717a10.714,10.714,0,0,1-1.949-.338,9.331,9.331,0,0,1,1.98.064c1.218.1,2.9.286,4.74.606a42.362,42.362,0,0,1,4.661,1.062,8.532,8.532,0,0,1,1.866.668" transform="translate(-73.173 -29.6)" fill="#e8505b"/>
            <path id="Trazado_602133" data-name="Trazado 602133" d="M245.886,70.079s.206-.016.625-.032l1.873-.062c1.655-.04,4.046-.014,7.106.159a113.1,113.1,0,0,1,24.959,4.468l.137.041-.025.145c-1.875,10.736-4.1,23.5-6.489,37.159-.1.553-.194,1.1-.289,1.647l-.037.209-.206-.054a164.465,164.465,0,0,0-16.665-3.438c-5.369-.824-10.5-1.408-15.273-1.71l-.184-.011.021-.18c1.312-11.458,2.411-21.057,3.184-27.81.393-3.341.7-5.977.915-7.8.108-.882.191-1.566.25-2.046.029-.219.052-.389.069-.519a1.006,1.006,0,0,1,.029-.169,1.523,1.523,0,0,1-.01.19c-.013.136-.028.313-.049.539l-.211,2.081c-.193,1.83-.473,4.481-.828,7.841-.73,6.733-1.767,16.3-3.006,27.728l-.162-.191c4.792.29,9.93.864,15.314,1.682a162.608,162.608,0,0,1,16.708,3.433l-.242.154c.1-.542.192-1.094.289-1.647l6.545-37.148.112.187a115.736,115.736,0,0,0-24.868-4.59c-3.044-.2-5.457-.257-7.075-.253l-1.862,0c-.425,0-.655-.01-.655-.01" transform="translate(-60.474 -17.527)" fill="#e8505b"/>
            <path id="Trazado_602134" data-name="Trazado 602134" d="M207.411,198.431l26.532,5.875L238,198.431l-.655-7.566-4.032-3.683h-13.9l-12.977,11.686" transform="translate(-51.711 -46.888)" fill="#e8505b"/>
            <g id="Grupo_878711" data-name="Grupo 878711" transform="translate(154.724 140.294)" opacity="0.3">
              <g id="Grupo_878710" data-name="Grupo 878710">
                <g id="Grupo_878709" data-name="Grupo 878709" clip-path="url(#clip-path-6)">
                  <path id="Trazado_602135" data-name="Trazado 602135" d="M207.411,198.431l26.532,5.875L238,198.431l-.655-7.566-4.032-3.683h-13.9l-12.977,11.686" transform="translate(-206.435 -187.182)"/>
                </g>
              </g>
            </g>
            <path id="Trazado_602136" data-name="Trazado 602136" d="M259.366,126.2l33.49-4.51,5.271-1.487s12.072-2.652,13.2-3.054c1.3-.465,1.84.051,1.979.543.216.767-.518,1.625-1.623,2.058-.382.15-6.506,2.271-6.506,2.271a15.31,15.31,0,0,1,2.069.6c1.464.5,2.87,2.386,3.574,4.586s.706,2.88-.136,3.193a1.143,1.143,0,0,1-.973-.135A2.261,2.261,0,0,1,308.7,129c-1.175-3.509-3.371-3.786-3.371-3.786l-.69.194s2.266,1.582,2.227,3.5a2.177,2.177,0,0,1-.176.821,2.895,2.895,0,0,1-3.229,3.81c-.482-.083-1-.369-1.073-.853a1.544,1.544,0,0,1,.155-.75,2.321,2.321,0,0,0,.12-.392l-2.009.274s-4.544.376-6.5.762l-31.363,9.446a8.121,8.121,0,1,1-3.426-15.825" transform="translate(-63.206 -29.299)" fill="#ffbe9d"/>
            <path id="Trazado_602137" data-name="Trazado 602137" d="M307.438,123.812a1.687,1.687,0,0,0,1.444,1.336c.689.145,1.407.051,2.1.145,2.086.282,3.709,2.18,5.806,2.36.292.025.661-.035.748-.316.08-.26-.144-.506-.348-.686l-5.226-4.618" transform="translate(-77.012 -30.569)" fill="#ffbe9d"/>
            <path id="Trazado_602138" data-name="Trazado 602138" d="M311.961,122.031a2.819,2.819,0,0,1,.616.441c.38.3.92.753,1.583,1.315l2.314,1.988.665.579c.2.2.543.372.606.851a.588.588,0,0,1-.358.554,1.212,1.212,0,0,1-.564.093,4.6,4.6,0,0,1-1.008-.2,26.752,26.752,0,0,1-3.351-1.7,5.236,5.236,0,0,0-1.491-.5c-.485-.073-.961-.058-1.4-.09a2.455,2.455,0,0,1-1.908-.824c-.31-.424-.244-.744-.231-.733a2.039,2.039,0,0,0,.349.633,2.378,2.378,0,0,0,1.8.643,14.325,14.325,0,0,1,1.434.044,5.418,5.418,0,0,1,1.6.49,31.091,31.091,0,0,0,3.314,1.651,4.289,4.289,0,0,0,.911.184c.289.02.537-.084.511-.238,0-.172-.242-.385-.468-.581l-.657-.588L313.974,124c-.639-.588-1.151-1.07-1.5-1.409a2.782,2.782,0,0,1-.514-.558" transform="translate(-77.006 -30.568)" fill="#eb996e"/>
            <path id="Trazado_602139" data-name="Trazado 602139" d="M322.047,128.057a2.871,2.871,0,0,1,1.318-.017,2.219,2.219,0,0,1,1.147.788,5.694,5.694,0,0,1,.824,1.565,9,9,0,0,0,.763,1.67,2.92,2.92,0,0,0,1.1,1.055,1.14,1.14,0,0,0,1.025.023c.218-.116.3-.227.294-.234s-.12.062-.333.142a1.076,1.076,0,0,1-.9-.093,2.894,2.894,0,0,1-.978-1.019,10.014,10.014,0,0,1-.724-1.637,5.525,5.525,0,0,0-.881-1.623,2.326,2.326,0,0,0-1.286-.813,2.067,2.067,0,0,0-1.023.031c-.232.071-.343.148-.337.162" transform="translate(-80.671 -32.017)" fill="#eb996e"/>
            <path id="Trazado_602140" data-name="Trazado 602140" d="M329.324,120.446a7.214,7.214,0,0,0-1.22.414l-2.91,1.07-2.927,1.027a7.346,7.346,0,0,0-1.2.456,5.787,5.787,0,0,0,1.259-.283c.767-.215,1.815-.548,2.959-.958s2.164-.821,2.892-1.144a5.708,5.708,0,0,0,1.152-.582" transform="translate(-80.424 -30.17)" fill="#eb996e"/>
            <path id="Trazado_602141" data-name="Trazado 602141" d="M320.3,130.629c-.013.014.091.117.264.306a1.2,1.2,0,0,1,.378.922.642.642,0,0,1-.395.5,3.444,3.444,0,0,1-.809.223,1.444,1.444,0,0,0-.9.484,1.232,1.232,0,0,0-.152,1.1,1.4,1.4,0,0,0,.753.808,1.746,1.746,0,0,0,1.01.149A5.649,5.649,0,0,0,322,134.54a3.359,3.359,0,0,0,.895-.667.749.749,0,0,0,.208-.354c-.02-.011-.094.112-.28.283a3.957,3.957,0,0,1-.907.576,6.078,6.078,0,0,1-1.507.507,1.381,1.381,0,0,1-1.482-.8.99.99,0,0,1,.111-.872,1.234,1.234,0,0,1,.755-.4,3.4,3.4,0,0,0,.856-.265.83.83,0,0,0,.476-.664,1.249,1.249,0,0,0-.488-1.013c-.2-.172-.324-.247-.334-.235" transform="translate(-79.812 -32.721)" fill="#eb996e"/>
            <path id="Trazado_602142" data-name="Trazado 602142" d="M319.672,135.693c0-.012-.144,0-.333.157a1.119,1.119,0,0,0-.375.931,1.494,1.494,0,0,0,.888,1.189,2.444,2.444,0,0,0,1.818.026,2.958,2.958,0,0,0,1.444-1.1,2.82,2.82,0,0,0,.486-1.4,2.669,2.669,0,0,0-.108-.987c-.072-.223-.141-.334-.155-.329a4.663,4.663,0,0,1,.083,1.3,2.791,2.791,0,0,1-.5,1.282,2.825,2.825,0,0,1-1.337,1,2.273,2.273,0,0,1-1.635,0,1.325,1.325,0,0,1-.8-.994,1.063,1.063,0,0,1,.263-.839c.149-.162.273-.208.264-.229" transform="translate(-79.898 -33.611)" fill="#eb996e"/>
            <path id="Trazado_602143" data-name="Trazado 602143" d="M311.873,131.209c.023-.006-.011-.241-.215-.58a2.431,2.431,0,0,0-1.221-1l.013.226a7.2,7.2,0,0,0,.765-.424,5.534,5.534,0,0,0,2.1-2.164,14.022,14.022,0,0,1-2.239,1.947c-.25.16-.5.3-.735.42l-.261.133.274.094a2.548,2.548,0,0,1,1.175.854c.226.293.311.5.342.492" transform="translate(-77.674 -31.88)" fill="#eb996e"/>
            <path id="Trazado_602144" data-name="Trazado 602144" d="M326.239,127.752c-.049-.047-.4.344-.441.962s.253,1.053.308,1.013-.094-.458-.052-1,.248-.938.186-.979" transform="translate(-81.609 -32)" fill="#eb996e"/>
            <path id="Trazado_602145" data-name="Trazado 602145" d="M109.828,139.322s-4.892-7.928-5.758-8.6-8.61-3.508-9.271-3.3-10.046,1.812-8.969,2.925,7.622-.1,7.622-.1l.878.439s-5.654.9-6.844,1.589c-1.1.633-.72,1.974.316,1.867s5.947-1.058,6.24-.856-5.344,1.325-5.95,1.683c-.816.483-.9,1.934.132,1.863.607-.042,5.923-1.414,5.923-1.414a45.3,45.3,0,0,0-4.6,1.992c-.636.6-.132,1.521.781,1.32.627-.138,3.6-1.557,4.444-1.74,0,0,.784.21,1.5,1.8.332.741,1.845,5.36,4.611,5.3,2.45-.053,4.856,1.967,4.856,1.967Z" transform="translate(-21.478 -31.916)" fill="#ffbe9d"/>
            <path id="Trazado_602146" data-name="Trazado 602146" d="M85.883,131.217a4.329,4.329,0,0,0,1.71.473,10.12,10.12,0,0,0,1.934.08c.717-.079,1.5-.19,2.325-.3l1.751-.256-.106-.01a25.388,25.388,0,0,0,4.047,1.27,25.076,25.076,0,0,0-3.9-1.666l-.046-.018-.06.008-1.737.234-2.3.337a12.433,12.433,0,0,1-1.874.015c-1.069-.074-1.725-.229-1.742-.163" transform="translate(-21.513 -32.761)" fill="#eb996e"/>
            <path id="Trazado_602147" data-name="Trazado 602147" d="M109.339,140.362a1.871,1.871,0,0,1-2.18,0c-.669-.4-1.182-1.02-1.82-1.47-1.908-1.344-4.658-1.025-6.5-2.459-.257-.2-.51-.528-.37-.821.131-.272.5-.3.8-.3l7.73.187" transform="translate(-24.656 -33.895)" fill="#ffbe9d"/>
            <path id="Trazado_602148" data-name="Trazado 602148" d="M106.927,135.428a3.111,3.111,0,0,0-.834-.106c-.537-.04-1.315-.082-2.278-.125l-3.38-.129-.977-.031a1.535,1.535,0,0,0-1.135.236.652.652,0,0,0-.126.72,1.349,1.349,0,0,0,.388.5,5.087,5.087,0,0,0,.97.6,29.635,29.635,0,0,0,4.005,1.145,5.807,5.807,0,0,1,1.586.723c.45.305.825.677,1.207.983a2.721,2.721,0,0,0,2.173.769c.572-.11.758-.42.74-.422a2.262,2.262,0,0,1-.761.252,2.638,2.638,0,0,1-1.95-.836c-.356-.31-.72-.7-1.2-1.046a6,6,0,0,0-1.673-.809,34.461,34.461,0,0,1-3.938-1.156,4.658,4.658,0,0,1-.879-.537c-.25-.2-.373-.474-.236-.579.132-.137.487-.13.818-.118l.977.016,3.382.034c.963,0,1.743,0,2.282-.015a3.077,3.077,0,0,0,.838-.066" transform="translate(-24.584 -33.824)" fill="#eb996e"/>
            <path id="Trazado_602149" data-name="Trazado 602149" d="M166.1,377.529l-1.787,19.662-5.9,15.144a2.023,2.023,0,0,0,3.105,2.347c3.321-2.53,15.491-11.9,15.541-13.342.058-1.675,3.262-20.615,3.262-20.615Z" transform="translate(-39.646 -94.569)" fill="#ffa455"/>
            <g id="Grupo_878714" data-name="Grupo 878714" transform="translate(120.045 305.447)" opacity="0.6">
              <g id="Grupo_878713" data-name="Grupo 878713">
                <g id="Grupo_878712" data-name="Grupo 878712" clip-path="url(#clip-path-7)">
                  <path id="Trazado_602150" data-name="Trazado 602150" d="M160.166,422.514l17.516-14.983-.094.831a3.043,3.043,0,0,1-.941,1.88c-1.412,1.321-5.392,4.886-14.6,11.963a2.023,2.023,0,0,1-1.884.31" transform="translate(-160.166 -407.531)" fill="#fff"/>
                </g>
              </g>
            </g>
            <g id="Grupo_878717" data-name="Grupo 878717" transform="translate(133.638 298.528)" opacity="0.6">
              <g id="Grupo_878716" data-name="Grupo 878716">
                <g id="Grupo_878715" data-name="Grupo 878715" clip-path="url(#clip-path-8)">
                  <path id="Trazado_602151" data-name="Trazado 602151" d="M178.921,398.432a1.224,1.224,0,0,0-.514,1.55,1.177,1.177,0,0,0,1.532.523,1.291,1.291,0,0,0,.536-1.644,1.221,1.221,0,0,0-1.654-.367" transform="translate(-178.302 -398.3)" fill="#fff"/>
                </g>
              </g>
            </g>
            <path id="Trazado_602152" data-name="Trazado 602152" d="M166.2,415.9c-.117.041-.442-1.037-1.546-1.722a6.158,6.158,0,0,0-2.209-.69c-.012-.05.254-.175.72-.187a3.224,3.224,0,0,1,2.9,1.865c.183.429.181.723.13.733" transform="translate(-40.691 -103.53)" fill="#263238"/>
            <path id="Trazado_602153" data-name="Trazado 602153" d="M164.008,419.492c-.1.074-.66-.636-1.641-1.041a16.383,16.383,0,0,0-1.887-.465,2.24,2.24,0,0,1,2.057.067c1.117.469,1.579,1.4,1.471,1.44" transform="translate(-40.199 -104.654)" fill="#263238"/>
            <path id="Trazado_602154" data-name="Trazado 602154" d="M169.677,411.716a20.125,20.125,0,0,0-2.425-1.779,20.176,20.176,0,0,0-2.832-1.01,5.529,5.529,0,0,1,5.257,2.788" transform="translate(-41.186 -102.416)" fill="#263238"/>
            <path id="Trazado_602155" data-name="Trazado 602155" d="M171.123,404.365c-.066.112-1.1-.465-2.5-.676-1.4-.231-2.561,0-2.59-.127a5.021,5.021,0,0,1,5.091.8" transform="translate(-41.59 -100.996)" fill="#263238"/>
            <path id="Trazado_602156" data-name="Trazado 602156" d="M171.961,396.669a6.426,6.426,0,0,0-5.262-.417c-.027-.044.215-.266.7-.476a4.411,4.411,0,0,1,3.951.313c.443.283.648.54.613.58" transform="translate(-41.757 -99.058)" fill="#263238"/>
            <path id="Trazado_602157" data-name="Trazado 602157" d="M169.536,393.371a1.715,1.715,0,0,1,.058-.745,5.188,5.188,0,0,1,.812-1.876,2.3,2.3,0,0,1,1.1-.98.813.813,0,0,1,.89.283,1.324,1.324,0,0,1,.209.921,2.858,2.858,0,0,1-2.79,2.344,3.316,3.316,0,0,1-3.04-2.093,1.148,1.148,0,0,1,.055-.957.8.8,0,0,1,.877-.325,2.822,2.822,0,0,1,1.216.819,5.79,5.79,0,0,1,1.165,1.676,1.755,1.755,0,0,1,.224.713,9.225,9.225,0,0,0-1.6-2.168,2.651,2.651,0,0,0-1.077-.688.425.425,0,0,0-.479.175.79.79,0,0,0,0,.631,2.961,2.961,0,0,0,2.657,1.784,2.481,2.481,0,0,0,2.4-1.956.957.957,0,0,0-.118-.649.439.439,0,0,0-.489-.163,2.081,2.081,0,0,0-.951.812,7.671,7.671,0,0,0-1.118,2.442" transform="translate(-41.758 -97.626)" fill="#263238"/>
            <path id="Trazado_602158" data-name="Trazado 602158" d="M185.747,344.925,200.46,228.412l-4.705-27.085L168.006,202.8l-3.455,139.975a2.138,2.138,0,0,0,1.728,2.155l16.16,2.491a2.891,2.891,0,0,0,3.308-2.494" transform="translate(-41.219 -50.431)" fill="#263238"/>
            <path id="Trazado_602159" data-name="Trazado 602159" d="M207.974,230.343l26.761,26.485-38.505,9.364,2.741,19.427,52.119-7.093a16.4,16.4,0,0,0,11.344-25.486l-40.6-59.6-18.142,5.913Z" transform="translate(-49.155 -48.455)" fill="#263238"/>
            <path id="Trazado_602160" data-name="Trazado 602160" d="M209.919,233.684a30.514,30.514,0,0,1,1.478,6.742,30.655,30.655,0,0,1-1.478-6.742" transform="translate(-52.577 -58.536)" fill="#455a64"/>
            <path id="Trazado_602161" data-name="Trazado 602161" d="M200.942,278.612s.214-.079.636-.213l1.875-.582,7.181-2.184,26.131-7.859-.067.249-32.124-34.21.331-.109c-.636,5.375-1.3,10.988-1.978,16.714-3.313,27.751-6.426,52.858-8.835,71.012-1.2,9.078-2.25,16.413-3.02,21.475-.428,2.525-.711,4.493-1,5.812l-.323,1.5c-.074.337-.122.507-.122.507s.022-.176.084-.516.16-.853.284-1.506c.266-1.319.524-3.293.929-5.819.723-5.068,1.735-12.407,2.9-21.488,2.34-18.161,5.409-43.272,8.722-71.022.679-5.725,1.345-11.338,1.983-16.712l.049-.411.283.3,32.064,34.267.168.179-.235.07L210.682,275.8l-7.2,2.105-1.887.54c-.426.12-.649.17-.649.17" transform="translate(-47.5 -58.427)" fill="#455a64"/>
            <path id="Trazado_602162" data-name="Trazado 602162" d="M193.167,353.084c-.107-.014,2.949-24.743,6.826-55.227s7.107-55.2,7.213-55.182-2.949,24.737-6.826,55.232-7.106,55.191-7.213,55.177" transform="translate(-48.387 -60.789)" fill="#455a64"/>
            <path id="Trazado_602163" data-name="Trazado 602163" d="M206.1,217.234a8.676,8.676,0,0,1,.621,1.806c.328,1.131.735,2.707,1.118,4.463s.669,3.36.841,4.526a8.689,8.689,0,0,1,.188,1.9,9.863,9.863,0,0,1-.459-1.851c-.272-1.286-.6-2.808-.951-4.491l-1-4.478a9.891,9.891,0,0,1-.353-1.875" transform="translate(-51.623 -54.416)" fill="#455a64"/>
            <path id="Trazado_602164" data-name="Trazado 602164" d="M208.18,214.119c-.042-.022.376-.365,1.087-.117a1.264,1.264,0,0,1,.812.959,1.39,1.39,0,0,1-.606,1.419,1.35,1.35,0,0,1-1.538-.152,1.183,1.183,0,0,1,.154-1.879c.175-.1.289-.1.295-.074.036.05-.408.208-.528.808a.869.869,0,0,0,.309.869,1.018,1.018,0,0,0,1.106.094,1.061,1.061,0,0,0,.454-1.027,1.007,1.007,0,0,0-.568-.764,2.079,2.079,0,0,0-.976-.136" transform="translate(-51.986 -53.584)" fill="#455a64"/>
            <path id="Trazado_602165" data-name="Trazado 602165" d="M255.5,282.541c-.081.088-1.587-1.3-3.756-2.548-2.159-1.265-4.111-1.886-4.074-2a14.849,14.849,0,0,1,7.83,4.549" transform="translate(-62.041 -69.633)" fill="#455a64"/>
            <path id="Trazado_602166" data-name="Trazado 602166" d="M175.812,93.679,160.447,101.1l6.623,46.227-2.6,20.749a8.111,8.111,0,0,0,2.709,7.113l24.814-.489,17.378-9.554,7.981-1.348L214.082,148l1.464-22.4,18.163,9.7a6.326,6.326,0,0,0,4.564.544l33.3-8.611L269.84,114.4,239.7,117.8,216.739,97.52l-17.086-3.841-3.048-5.034H179.123l-1.223.917a3.659,3.659,0,0,0-1.263,1.732Z" transform="translate(-40.191 -22.205)" fill="#fc8116"/>
            <path id="Trazado_602167" data-name="Trazado 602167" d="M147.027,105.257a18.428,18.428,0,0,0-6.919,9.025c-1.756,5.453-5.719,27.511-5.719,27.511l-17.457-10.833-10.061,10.575,23.272,20.522a11.83,11.83,0,0,0,19.546-7.272l2.856-20.916Z" transform="translate(-26.771 -26.366)" fill="#fc8116"/>
            <path id="Trazado_602168" data-name="Trazado 602168" d="M225.481,192.906l-1.082-1.59-11.489,2.123-2.115,4.9Z" transform="translate(-52.803 -47.924)" fill="#ffbe9d"/>
            <path id="Trazado_602169" data-name="Trazado 602169" d="M169.426,192.222c10.265,4.131,21.228,2.612,31.006-2.569,2.952-1.563,5.689-3.511,8.653-5.051a18.364,18.364,0,0,1,9.586-2.447c3.332.234,6.695,2.074,8.027,5.136s0,7.233-3.137,8.376l1.111.992a9.955,9.955,0,0,0,4.547-12.912c-1.725-3.5-5.349-5.582-8-8.438-3.9-4.2-4.312-12.326-4.337-18.651" transform="translate(-42.44 -39.242)" fill="#fc8116"/>
            <path id="Trazado_602170" data-name="Trazado 602170" d="M194.832,104.3a3.6,3.6,0,0,1-.756.043,2.873,2.873,0,0,0-1.82.837,4.26,4.26,0,0,0-.907,2.931,9.748,9.748,0,0,0,.833,3.931l.289.645-.566-.42a30.446,30.446,0,0,1-3.871-3.423,28.52,28.52,0,0,1-5.951-9.112,20.308,20.308,0,0,1-.965-3.167,7.207,7.207,0,0,1-.173-1.2,34.908,34.908,0,0,0,1.394,4.266,30.053,30.053,0,0,0,5.978,8.946,31.736,31.736,0,0,0,3.809,3.4l-.277.226a8.96,8.96,0,0,1-.64-2.1,9.222,9.222,0,0,1-.172-1.99,4.43,4.43,0,0,1,1.055-3.085,2.9,2.9,0,0,1,1.976-.8,3.55,3.55,0,0,1,.764.078" transform="translate(-45.324 -23.887)" fill="#263238"/>
            <path id="Trazado_602171" data-name="Trazado 602171" d="M200.7,103.237c1.264-.545,3.137.26,4.046,1.3.6.684.938,1.633,1.728,2.082s3.29.8,4.017.243c0,0,.444-2.135.677-3.019a67.046,67.046,0,0,0,1.708-10.255c-2.419-1.17-1.752-2.714-6.1-2.419a11.1,11.1,0,0,1,.151,6.132" transform="translate(-50.275 -22.827)" fill="#fc8116"/>
            <path id="Trazado_602172" data-name="Trazado 602172" d="M206.931,97.244c-.04-.011.158-.579.253-1.644a12.126,12.126,0,0,0-.54-4.442l-.056-.18.183-.01a7.5,7.5,0,0,1,3.209.289,4.9,4.9,0,0,1,1.481,1.067,5.989,5.989,0,0,0,1.5,1.04l.118.055-.013.132c-.193,1.821-.415,3.807-.759,5.858-.226,1.34-.5,2.64-.809,3.879s-.56,2.426-.826,3.553l-.017.074-.049.031a2.391,2.391,0,0,1-1.284.313,7.9,7.9,0,0,1-2.325-.322,2.388,2.388,0,0,1-.985-.537,10.282,10.282,0,0,1-1.155-1.584,4.053,4.053,0,0,0-1.18-1.073,4.2,4.2,0,0,0-2.157-.674,4.7,4.7,0,0,0-.812.115,1.656,1.656,0,0,1,.808-.229,4.106,4.106,0,0,1,2.272.6,4.184,4.184,0,0,1,1.278,1.1,10.749,10.749,0,0,0,1.147,1.518,3.68,3.68,0,0,0,1.951.673,7.177,7.177,0,0,0,1.147.061,2.137,2.137,0,0,0,1.078-.252l-.067.106c.256-1.133.5-2.343.806-3.574s.57-2.519.8-3.85c.342-2.037.57-4.017.775-5.833l.1.187a6.263,6.263,0,0,1-1.58-1.111,4.621,4.621,0,0,0-1.372-1.019,7.361,7.361,0,0,0-3.058-.312l.127-.19a11.586,11.586,0,0,1,.427,4.551,7.554,7.554,0,0,1-.256,1.221,1.712,1.712,0,0,1-.156.406" transform="translate(-50.276 -22.776)" fill="#263238"/>
            <path id="Trazado_602173" data-name="Trazado 602173" d="M232.229,172.482c-.031,0,.034-.3-.007-.86a5.226,5.226,0,0,0-.74-2.311,7.68,7.68,0,0,0-2.756-2.662,11.628,11.628,0,0,0-4.914-1.349c-1.906-.175-4.016-.071-6.287-.225a23.552,23.552,0,0,1-7.091-1.5,14.617,14.617,0,0,1-6.395-4.776,11.136,11.136,0,0,1-1.839-3.852,14.8,14.8,0,0,1-.421-4.367,75.74,75.74,0,0,1,1.21-8.5,64.126,64.126,0,0,0,.748-7.919,65.7,65.7,0,0,0-.986-13.424,66.474,66.474,0,0,0-2.211-8.817c-.322-1.026-.611-1.809-.8-2.343-.087-.251-.155-.452-.21-.61a.936.936,0,0,1-.058-.213.894.894,0,0,1,.1.2l.244.6c.213.526.526,1.3.869,2.323a61.488,61.488,0,0,1,2.338,8.816,64.5,64.5,0,0,1,1.074,13.484,63.241,63.241,0,0,1-.73,7.968,76.622,76.622,0,0,0-1.2,8.459,12.151,12.151,0,0,0,2.177,7.978,14.3,14.3,0,0,0,6.221,4.669,23.367,23.367,0,0,0,6.979,1.515c2.244.166,4.36.079,6.288.272a11.773,11.773,0,0,1,5,1.436,7.78,7.78,0,0,1,2.777,2.775,5.122,5.122,0,0,1,.685,2.383,3.089,3.089,0,0,1-.034.647.976.976,0,0,1-.037.217" transform="translate(-49.967 -27.24)" fill="#263238"/>
            <path id="Trazado_602174" data-name="Trazado 602174" d="M218.684,175.541a7.57,7.57,0,0,1-.866.895c-.285.283-.642.62-1.079.986s-.914.807-1.49,1.236a40.849,40.849,0,0,1-4.147,2.868,42.1,42.1,0,0,1-11.362,4.758,40.826,40.826,0,0,1-4.953.943c-.71.11-1.359.145-1.926.2s-1.058.072-1.459.076a7.515,7.515,0,0,1-1.246-.011,7.592,7.592,0,0,1,1.237-.14c.4-.028.885-.067,1.447-.142s1.206-.125,1.908-.251a45.875,45.875,0,0,0,4.9-1.018,44.755,44.755,0,0,0,11.27-4.719,45.694,45.694,0,0,0,4.162-2.778c.583-.412,1.073-.833,1.518-1.183s.818-.667,1.118-.932a7.623,7.623,0,0,1,.968-.782" transform="translate(-47.634 -43.972)" fill="#263238"/>
            <path id="Trazado_602175" data-name="Trazado 602175" d="M213.281,142.694a1.664,1.664,0,0,1-.065.413c-.069.31-.156.7-.262,1.168a17.613,17.613,0,0,1-.5,1.83c-.226.7-.444,1.52-.8,2.382l-.524,1.366c-.186.474-.423.947-.645,1.448-.43,1.01-1,2.032-1.581,3.12a43.223,43.223,0,0,1-10.253,12.224c-.971.76-1.878,1.5-2.8,2.1-.454.306-.879.623-1.313.888l-1.254.753c-.787.5-1.552.857-2.207,1.2a17.732,17.732,0,0,1-1.716.806l-1.106.461a1.683,1.683,0,0,1-.4.136,1.694,1.694,0,0,1,.364-.208l1.073-.527c.47-.217,1.04-.494,1.679-.862s1.393-.732,2.165-1.244l1.231-.77c.426-.27.844-.591,1.291-.9.9-.606,1.8-1.351,2.754-2.112a44.691,44.691,0,0,0,10.17-12.125c.583-1.075,1.162-2.084,1.6-3.08.227-.494.47-.961.662-1.428s.37-.917.543-1.347c.37-.85.6-1.655.848-2.349s.424-1.3.557-1.8c.134-.465.244-.844.332-1.148a1.7,1.7,0,0,1,.142-.395" transform="translate(-47.06 -35.744)" fill="#263238"/>
            <path id="Trazado_602176" data-name="Trazado 602176" d="M178.1,205.739a4.529,4.529,0,0,1-1.368-1.019,10.412,10.412,0,0,1-3.128-7.443,4.523,4.523,0,0,1,.228-1.689c.066.008-.01.652.047,1.682a11.726,11.726,0,0,0,3.051,7.258c.7.761,1.21,1.157,1.17,1.21" transform="translate(-43.486 -48.994)" fill="#263238"/>
            <path id="Trazado_602177" data-name="Trazado 602177" d="M178.74,201.342c.112.029-.1.992.013,2.174s.46,2.1.355,2.145a4.459,4.459,0,0,1-.368-4.319" transform="translate(-44.674 -50.435)" fill="#263238"/>
            <path id="Trazado_602178" data-name="Trazado 602178" d="M166.825,153.867a1.265,1.265,0,0,1-.091-.352c-.051-.278-.112-.614-.186-1.019-.159-.947-.371-2.216-.629-3.755-.528-3.171-1.273-7.548-2.171-12.368s-1.782-9.174-2.432-12.322c-.314-1.529-.573-2.789-.766-3.73-.077-.4-.142-.741-.195-1.018a1.325,1.325,0,0,1-.042-.361,1.263,1.263,0,0,1,.119.343c.072.273.16.6.265,1,.224.871.528,2.137.888,3.7.72,3.135,1.645,7.483,2.546,12.309s1.6,9.214,2.06,12.4c.229,1.592.4,2.883.507,3.776.045.409.082.749.112,1.03a1.275,1.275,0,0,1,.013.363" transform="translate(-40.157 -29.795)" fill="#263238"/>
            <path id="Trazado_602179" data-name="Trazado 602179" d="M232.979,153.372a1.331,1.331,0,0,1-.037-.371c-.009-.289-.02-.639-.032-1.064-.022-.924-.026-2.261-.014-3.915.031-3.305.175-7.873.558-12.9s.889-9.572,1.279-12.853c.2-1.594.368-2.906.492-3.882.062-.42.113-.767.155-1.053a1.358,1.358,0,0,1,.08-.364,1.36,1.36,0,0,1,0,.373c-.022.288-.049.638-.082,1.061-.093.98-.217,2.3-.369,3.9-.32,3.287-.785,7.827-1.164,12.852s-.57,9.579-.672,12.88c-.045,1.6-.082,2.926-.109,3.909-.017.424-.03.776-.041,1.064a1.364,1.364,0,0,1-.041.371" transform="translate(-58.337 -29.299)" fill="#263238"/>
            <path id="Trazado_602180" data-name="Trazado 602180" d="M150.675,164.58c-.132.058-1.12-2.673-3.03-5.642A42.978,42.978,0,0,0,143.584,154a7.045,7.045,0,0,1,1.468,1.2,20.241,20.241,0,0,1,2.919,3.525,24.391,24.391,0,0,1,2.105,4.059,7.763,7.763,0,0,1,.6,1.8" transform="translate(-35.966 -38.576)" fill="#263238"/>
            <path id="Trazado_602181" data-name="Trazado 602181" d="M151.965,161.32a14.029,14.029,0,0,1-.84-1.459,11.732,11.732,0,0,0-2.591-3.033,16.532,16.532,0,0,0-3.43-2.09,9.732,9.732,0,0,1-1.519-.738,5.891,5.891,0,0,1,1.629.484,13.39,13.39,0,0,1,3.568,2.042,10.2,10.2,0,0,1,2.585,3.2,4.991,4.991,0,0,1,.6,1.593" transform="translate(-35.967 -38.575)" fill="#263238"/>
            <path id="Trazado_602182" data-name="Trazado 602182" d="M160.728,136.427a1.119,1.119,0,0,1-.156.332,3.429,3.429,0,0,1-.687.8,4.562,4.562,0,0,1-3.675.99,7.11,7.11,0,0,1-4.613-3.262,15.463,15.463,0,0,1-1.521-3.028c-.209-.548-.42-1.1-.6-1.688a4.6,4.6,0,0,1-.211-1.883,2.565,2.565,0,0,1,.913-1.7,2.159,2.159,0,0,1,1.851-.331A3.613,3.613,0,0,1,154.5,129a3.516,3.516,0,0,1-.306,3.065,3.817,3.817,0,0,1-2.139,1.639,3.419,3.419,0,0,1-2.22-.1,3.807,3.807,0,0,1-1.386-.941,3.21,3.21,0,0,1-.584-.88,1.026,1.026,0,0,1-.112-.349,5.165,5.165,0,0,0,.8,1.124,3.785,3.785,0,0,0,1.354.842,3.223,3.223,0,0,0,2.063.046,3.556,3.556,0,0,0,1.943-1.543,3.194,3.194,0,0,0,.244-2.776,3.268,3.268,0,0,0-2.216-2.087,1.78,1.78,0,0,0-1.526.266,2.194,2.194,0,0,0-.763,1.446,7.759,7.759,0,0,0,.779,3.381,15.442,15.442,0,0,0,1.464,2.967,6.894,6.894,0,0,0,4.361,3.189,4.487,4.487,0,0,0,3.532-.835,5.509,5.509,0,0,0,.939-1.016" transform="translate(-37.01 -31.708)" fill="#fafafa"/>
            <path id="Trazado_602183" data-name="Trazado 602183" d="M194.1,145.571a1.45,1.45,0,0,1-.2.178l-.627.484a16.6,16.6,0,0,1-2.581,1.622,7.937,7.937,0,0,1-2.1.7,5.481,5.481,0,0,1-2.63-.171,9.27,9.27,0,0,1-4.748-4.181,15.254,15.254,0,0,1,.139-15.926,8.235,8.235,0,0,1,3.528-3.3,4.628,4.628,0,0,1,2.527-.321,3.49,3.49,0,0,1,2.265,1.282,3.679,3.679,0,0,1,.7,2.551,5.876,5.876,0,0,1-.812,2.551,8.306,8.306,0,0,1-4.168,3.38,10.707,10.707,0,0,1-5.348.552,11,11,0,0,1-4.825-2,16.493,16.493,0,0,1-5.668-7.946,9.548,9.548,0,0,1-.689-4.549,4.573,4.573,0,0,1,.872-2.071,3.215,3.215,0,0,1,1.83-1.192,4.011,4.011,0,0,1,3.775,1.3,4.3,4.3,0,0,1,.911,3.593,5.7,5.7,0,0,1-1.538,3.027,7.327,7.327,0,0,1-2.535,1.66,11.543,11.543,0,0,1-4.761.72,27.629,27.629,0,0,1-3.029-.308l-.782-.126a1.345,1.345,0,0,1-.264-.057,1.378,1.378,0,0,1,.27.017l.785.088c.69.073,1.709.2,3.024.235a11.548,11.548,0,0,0,4.674-.77,7.12,7.12,0,0,0,2.439-1.63,5.46,5.46,0,0,0,1.444-2.9,4.022,4.022,0,0,0-.864-3.349,3.706,3.706,0,0,0-3.477-1.189,3.464,3.464,0,0,0-2.437,3,9.24,9.24,0,0,0,.69,4.376,16.172,16.172,0,0,0,5.552,7.755,10.627,10.627,0,0,0,4.659,1.925,10.332,10.332,0,0,0,5.152-.532,7.935,7.935,0,0,0,3.973-3.212,5.5,5.5,0,0,0,.762-2.38,3.3,3.3,0,0,0-.623-2.291,3.111,3.111,0,0,0-2.022-1.143,4.257,4.257,0,0,0-2.322.291,7.9,7.9,0,0,0-3.371,3.151,14.694,14.694,0,0,0-2.285,8.319,14.851,14.851,0,0,0,2.081,7.267,9.077,9.077,0,0,0,4.58,4.117,6.2,6.2,0,0,0,4.6-.458,18.135,18.135,0,0,0,2.6-1.548l.648-.452a1.412,1.412,0,0,1,.228-.145" transform="translate(-40.917 -29.342)" fill="#fafafa"/>
            <path id="Trazado_602184" data-name="Trazado 602184" d="M171.811,98.965a2.237,2.237,0,0,1-.238.671,10.634,10.634,0,0,1-.962,1.686,12.349,12.349,0,0,1-11.11,5.3,10.652,10.652,0,0,1-1.916-.313,2.24,2.24,0,0,1-.672-.237c.016-.07.991.217,2.6.274a12.877,12.877,0,0,0,10.872-5.187c.968-1.288,1.358-2.227,1.423-2.2" transform="translate(-39.306 -24.79)" fill="#fafafa"/>
            <path id="Trazado_602185" data-name="Trazado 602185" d="M190.389,103.2a4.8,4.8,0,0,0-3.482,2.957c-.046-.007-.06-.3.087-.74a3.509,3.509,0,0,1,2.651-2.251c.46-.073.745-.013.744.034" transform="translate(-46.811 -25.834)" fill="#fafafa"/>
            <path id="Trazado_602186" data-name="Trazado 602186" d="M211.26,106.861a1.717,1.717,0,0,1-.636-.293,5.192,5.192,0,0,1-1.409-1.3,5.092,5.092,0,0,1-1.039-2.658,2.535,2.535,0,0,1,.46-1.683,1.739,1.739,0,0,1,1.737-.734,1.928,1.928,0,0,1,1.363,1.309,1.8,1.8,0,0,1-.343,1.724,2.426,2.426,0,0,1-2.715.72,3.046,3.046,0,0,1-1.482-1.226,1.425,1.425,0,0,1-.28-.645c.031-.014.132.214.4.557a3.121,3.121,0,0,0,1.449,1.054,2.15,2.15,0,0,0,2.344-.684,1.443,1.443,0,0,0,.261-1.382,1.564,1.564,0,0,0-1.082-1.046,1.367,1.367,0,0,0-1.348.584,2.192,2.192,0,0,0-.406,1.436,5.01,5.01,0,0,0,.9,2.513,7.817,7.817,0,0,0,1.821,1.751" transform="translate(-51.83 -25.09)" fill="#fafafa"/>
            <path id="Trazado_602187" data-name="Trazado 602187" d="M214.88,96.6a6.922,6.922,0,0,0-5.449-2.237c-.01-.045.325-.18.9-.224a5.084,5.084,0,0,1,4.06,1.666c.381.438.525.77.486.794" transform="translate(-52.461 -23.579)" fill="#fafafa"/>
            <path id="Trazado_602188" data-name="Trazado 602188" d="M234.709,107.017a.576.576,0,0,1-.148.092l-.451.235a19.482,19.482,0,0,1-1.8.765,21.7,21.7,0,0,1-7.06,1.327,10.013,10.013,0,0,1-2.4-.232,5.223,5.223,0,0,1-2.364-1.152,3.507,3.507,0,0,1-1.159-2.566,4.32,4.32,0,0,1,1-2.819,5.793,5.793,0,0,1,5.968-1.533,6.952,6.952,0,0,1,4.783,4.632,6.836,6.836,0,0,1-1.428,6.5,10.473,10.473,0,0,1-5.551,2.987,31.832,31.832,0,0,1-5.685.574,31.41,31.41,0,0,0-4.907.479,9.95,9.95,0,0,0-6.039,3.445,7.219,7.219,0,0,0-1.15,2.328.566.566,0,0,1,.024-.172,4.816,4.816,0,0,1,.119-.5,6.009,6.009,0,0,1,.885-1.75,9.968,9.968,0,0,1,6.1-3.624,30.8,30.8,0,0,1,4.947-.532,32.019,32.019,0,0,0,5.62-.6,10.15,10.15,0,0,0,5.345-2.889,6.462,6.462,0,0,0,1.34-6.132,6.582,6.582,0,0,0-4.513-4.376,5.443,5.443,0,0,0-5.588,1.4,3.979,3.979,0,0,0-.929,2.582,3.176,3.176,0,0,0,1.034,2.334,4.951,4.951,0,0,0,2.215,1.1,9.844,9.844,0,0,0,2.325.249,22.474,22.474,0,0,0,7.012-1.194c.8-.271,1.408-.522,1.819-.694a4.909,4.909,0,0,1,.631-.256" transform="translate(-51.681 -25.271)" fill="#fafafa"/>
            <path id="Trazado_602189" data-name="Trazado 602189" d="M215.771,146.7c-.063.028-.325-.628-1.008-1.506a7.71,7.71,0,0,0-7.66-2.879c-1.093.21-1.722.531-1.751.469a4.1,4.1,0,0,1,1.69-.739,7.413,7.413,0,0,1,7.943,2.985,4.082,4.082,0,0,1,.786,1.669" transform="translate(-51.439 -35.526)" fill="#fafafa"/>
            <path id="Trazado_602190" data-name="Trazado 602190" d="M227.426,155.893a3.674,3.674,0,0,1-1.025,1.515,6.279,6.279,0,0,1-8.217.651,3.674,3.674,0,0,1-1.252-1.333c.053-.047.483.51,1.408,1.106a6.388,6.388,0,0,0,7.871-.625c.818-.734,1.156-1.352,1.215-1.314" transform="translate(-54.34 -39.05)" fill="#fafafa"/>
            <path id="Trazado_602191" data-name="Trazado 602191" d="M231.359,135.673c-.033.056-.484-.217-1.281-.427a5.489,5.489,0,0,0-5.74,1.836c-.527.634-.736,1.118-.8,1.091a2.609,2.609,0,0,1,.576-1.259,5.253,5.253,0,0,1,6.04-1.931,2.6,2.6,0,0,1,1.2.691" transform="translate(-55.994 -33.739)" fill="#fafafa"/>
            <path id="Trazado_602192" data-name="Trazado 602192" d="M264.22,126.385a3.058,3.058,0,0,1,.137.556,4.031,4.031,0,0,1,.094.69,5.5,5.5,0,0,1,.026.951,9.509,9.509,0,0,1-2.147,5.585,9.882,9.882,0,0,1-3.232,2.664,10.01,10.01,0,0,1-4.682,1.075,12.593,12.593,0,0,1-9.627-4.765,7.535,7.535,0,0,1-1.357-2.6,4.922,4.922,0,0,1,.049-2.86,3.644,3.644,0,0,1,1.754-2.139,4.039,4.039,0,0,1,2.635-.312,4.479,4.479,0,0,1,2.228,1.182,5.131,5.131,0,0,1,1.222,2.033,6.81,6.81,0,0,1-.034,4.182,7.955,7.955,0,0,1-1.769,2.97,8.107,8.107,0,0,1-2.063,1.595,7.691,7.691,0,0,1-1.53.609,3,3,0,0,1-.563.106,11.151,11.151,0,0,0,2.019-.848,8.088,8.088,0,0,0,3.643-4.515,6.569,6.569,0,0,0-.01-4,4.815,4.815,0,0,0-1.158-1.891,4.136,4.136,0,0,0-2.058-1.073,3.685,3.685,0,0,0-2.392.29,3.273,3.273,0,0,0-1.563,1.928,4.545,4.545,0,0,0-.037,2.638A7.178,7.178,0,0,0,245.1,132.9a12.3,12.3,0,0,0,9.322,4.644,9.543,9.543,0,0,0,7.7-3.553,9.554,9.554,0,0,0,2.211-5.42,13.835,13.835,0,0,0-.106-2.189" transform="translate(-60.931 -31.348)" fill="#fafafa"/>
            <path id="Trazado_602193" data-name="Trazado 602193" d="M278.453,142.187a2,2,0,0,1-.456-.514,5.4,5.4,0,0,1-.819-1.7,6.945,6.945,0,0,1-.113-2.792,25.523,25.523,0,0,1,.761-3.309,23.458,23.458,0,0,1,2.682-5.532c.421-.663.777-1.188,1.031-1.546a2.355,2.355,0,0,1,.428-.534,18.95,18.95,0,0,1-1.222,2.223,27.568,27.568,0,0,0-2.545,5.5,29.522,29.522,0,0,0-.778,3.247,7.084,7.084,0,0,0,.025,2.673,10.018,10.018,0,0,0,1.007,2.278" transform="translate(-69.381 -31.628)" fill="#fafafa"/>
            <path id="Trazado_602194" data-name="Trazado 602194" d="M296.867,124.5a1.674,1.674,0,0,1,.226.537,9.587,9.587,0,0,1,.378,1.54,13.819,13.819,0,0,1-2.211,10.02,9.685,9.685,0,0,1-.992,1.238c-.259.27-.411.409-.432.391-.052-.046.5-.662,1.192-1.78a15.224,15.224,0,0,0,2.17-9.83c-.16-1.307-.4-2.1-.332-2.117" transform="translate(-73.604 -31.187)" fill="#fafafa"/>
            <path id="Trazado_602195" data-name="Trazado 602195" d="M226.209,170.435a1.335,1.335,0,0,1-.328-.168,8.624,8.624,0,0,0-.915-.5,10.74,10.74,0,0,0-3.653-1.024,11.133,11.133,0,0,0-5.5.882,9.449,9.449,0,0,0-2.748,1.821,5.655,5.655,0,0,0-1.082,1.339,2.706,2.706,0,0,0-.377,1.645,1.96,1.96,0,0,0,.8,1.408,1.6,1.6,0,0,0,1.527.07,2.685,2.685,0,0,0,1.39-2.633,5.322,5.322,0,0,0-2.779-4.508,5.476,5.476,0,0,0-3.67-.486,11.207,11.207,0,0,0-1.333.432,1.209,1.209,0,0,1,.31-.2,4.917,4.917,0,0,1,.988-.38,5.486,5.486,0,0,1,3.832.389,5.582,5.582,0,0,1,3.012,4.747,3.886,3.886,0,0,1-.318,1.692,2.545,2.545,0,0,1-1.277,1.3,1.981,1.981,0,0,1-1.894-.094,2.339,2.339,0,0,1-.977-1.686,3.088,3.088,0,0,1,.425-1.882,6.063,6.063,0,0,1,1.158-1.426,9.7,9.7,0,0,1,2.868-1.873,11.187,11.187,0,0,1,5.678-.827,10.185,10.185,0,0,1,3.694,1.163,6.13,6.13,0,0,1,.888.568,1.3,1.3,0,0,1,.284.233" transform="translate(-51.987 -42.072)" fill="#fafafa"/>
            <path id="Trazado_602196" data-name="Trazado 602196" d="M235.347,179.536a4.967,4.967,0,0,1-.907,1.72c-.591.891-1.142,1.564-1.232,1.5a4.966,4.966,0,0,1,.907-1.721c.591-.89,1.142-1.563,1.232-1.5" transform="translate(-58.414 -44.972)" fill="#fafafa"/>
            <path id="Trazado_602197" data-name="Trazado 602197" d="M247.34,192.969c-.061.016-.165-.268-.426-.654a3.892,3.892,0,0,0-3.047-1.7c-.466-.017-.763.043-.781-.016-.015-.041.263-.2.772-.259a3.422,3.422,0,0,1,3.295,1.835c.221.462.23.784.187.792" transform="translate(-60.892 -47.676)" fill="#fafafa"/>
            <path id="Trazado_602198" data-name="Trazado 602198" d="M203.965,188.753c.027.055-.9.516-2.348,1.342a20.272,20.272,0,0,0-5.1,3.939,10.853,10.853,0,0,0-2.7,5.728,13.253,13.253,0,0,0,.042,2.672,2.194,2.194,0,0,1-.214-.7,7.113,7.113,0,0,1-.1-2,10.508,10.508,0,0,1,2.681-5.958,18.361,18.361,0,0,1,5.257-3.923c.746-.387,1.363-.671,1.794-.854a2.558,2.558,0,0,1,.688-.246" transform="translate(-48.476 -47.281)" fill="#fafafa"/>
            <path id="Trazado_602199" data-name="Trazado 602199" d="M221.66,191.212c-.024.029-.42-.247-.817-.9a5.007,5.007,0,0,1,.467-5.6c.5-.58.935-.787.954-.753.042.055-.322.337-.736.921a5.379,5.379,0,0,0-.441,5.3c.31.646.624.984.573,1.031" transform="translate(-55.159 -46.08)" fill="#fafafa"/>
            <path id="Trazado_602200" data-name="Trazado 602200" d="M191.255,174.837c-.018.013-.133-.169-.429-.434a3.114,3.114,0,0,0-1.561-.693,3.9,3.9,0,0,0-2.614.546,7.947,7.947,0,0,0-2.482,2.62c-.741,1.138-1.369,2.51-2.316,3.843a8.172,8.172,0,0,1-4.133,3.089,7.659,7.659,0,0,1-5.673-.33,8.115,8.115,0,0,1-4.172-4.448,4.836,4.836,0,0,1-.128-3.162,4.431,4.431,0,0,1,1.943-2.383,4.563,4.563,0,0,1,2.9-.663,4.778,4.778,0,0,1,2.572,1.224,6.3,6.3,0,0,1,2.034,4.711,7.784,7.784,0,0,1-1.4,4.28,8.687,8.687,0,0,1-2.71,2.548,10.767,10.767,0,0,1-2.575,1.12,11.425,11.425,0,0,1-1.732.367c-.2.029-.355.04-.458.048a.487.487,0,0,1-.157,0,4.566,4.566,0,0,1,.6-.126,14.141,14.141,0,0,0,1.7-.434,11.019,11.019,0,0,0,2.5-1.16,8.561,8.561,0,0,0,2.6-2.518,7.533,7.533,0,0,0,1.3-4.128,5.975,5.975,0,0,0-1.95-4.442,4.421,4.421,0,0,0-2.377-1.122,4.194,4.194,0,0,0-2.652.619,4.061,4.061,0,0,0-1.774,2.179,4.462,4.462,0,0,0,.127,2.909,7.763,7.763,0,0,0,3.966,4.233,7.311,7.311,0,0,0,5.4.334,7.866,7.866,0,0,0,3.983-2.937c.934-1.288,1.578-2.655,2.347-3.8a8.085,8.085,0,0,1,2.6-2.658,4.027,4.027,0,0,1,2.75-.507,3.075,3.075,0,0,1,1.589.785,1.878,1.878,0,0,1,.376.492" transform="translate(-41.967 -43.284)" fill="#fafafa"/>
            <path id="Trazado_602201" data-name="Trazado 602201" d="M198.38,187.968a3.632,3.632,0,0,1-1.209-.956,8.254,8.254,0,0,1-2.075-6.956,3.633,3.633,0,0,1,.489-1.462c.064.022-.116.579-.215,1.5a9.166,9.166,0,0,0,2.008,6.735c.588.717,1.044,1.085,1,1.138" transform="translate(-48.842 -44.737)" fill="#fafafa"/>
            <path id="Trazado_602202" data-name="Trazado 602202" d="M194.333,165.086c-.02.039-.528-.252-1.507-.636a17.968,17.968,0,0,0-10.8-.808,14.558,14.558,0,0,0-3.6,1.348,2.4,2.4,0,0,0-1.19,1.423,1.355,1.355,0,0,0,.776,1.508.81.81,0,0,0,.79-.238,1.972,1.972,0,0,0,.448-.836,6.936,6.936,0,0,0,.172-1.991,9.012,9.012,0,0,0-.959-3.679,8.594,8.594,0,0,0-2.116-2.72,8.415,8.415,0,0,0-2.611-1.5,9.1,9.1,0,0,0-4.344-.432c-1.034.164-1.577.392-1.59.354a1.737,1.737,0,0,1,.387-.175,7.672,7.672,0,0,1,1.177-.328,8.893,8.893,0,0,1,4.46.322,8.58,8.58,0,0,1,2.728,1.514,8.839,8.839,0,0,1,2.228,2.8,9.288,9.288,0,0,1,1.02,3.825,7.205,7.205,0,0,1-.181,2.116,2.346,2.346,0,0,1-.547,1.006,1.2,1.2,0,0,1-1.169.337,1.481,1.481,0,0,1-.89-.806,1.885,1.885,0,0,1-.163-1.151,2.754,2.754,0,0,1,1.373-1.677,14.619,14.619,0,0,1,3.712-1.37,17.772,17.772,0,0,1,6.638-.242,16.728,16.728,0,0,1,4.3,1.259,10.446,10.446,0,0,1,1.088.549,1.706,1.706,0,0,1,.36.226" transform="translate(-42.036 -39.134)" fill="#fafafa"/>
            <path id="Trazado_602203" data-name="Trazado 602203" d="M123.069,164.33c-.024-.032.465-.362,1.2-1.111a10.446,10.446,0,0,0,2.356-3.718,8.146,8.146,0,0,0-.189-6.342,8.011,8.011,0,0,0-2.392-2.953,6.738,6.738,0,0,0-3.775-1.417,4.351,4.351,0,0,0-1.983.414,2.5,2.5,0,0,0-1.318,1.337,1.928,1.928,0,0,0,.268,1.74,2.835,2.835,0,0,0,1.423,1.055,3.871,3.871,0,0,0,3.245-.551,5.5,5.5,0,0,0,1.967-2.234,11.282,11.282,0,0,0,.938-4.305c.021-.492.038-.895.052-1.216a1.779,1.779,0,0,1,.037-.426,1.746,1.746,0,0,1,.042.425c.013.279.026.69.021,1.222a10.837,10.837,0,0,1-.841,4.419,5.725,5.725,0,0,1-2.04,2.385,4.19,4.19,0,0,1-3.531.623,3.178,3.178,0,0,1-1.619-1.187,2.3,2.3,0,0,1-.323-2.076,2.878,2.878,0,0,1,1.51-1.56,4.717,4.717,0,0,1,2.165-.456,7.085,7.085,0,0,1,3.995,1.5,8.322,8.322,0,0,1,2.485,3.1,7.833,7.833,0,0,1,.74,3.522,9.1,9.1,0,0,1-.618,3.07,10.115,10.115,0,0,1-2.508,3.73,7.664,7.664,0,0,1-.947.777,1.775,1.775,0,0,1-.364.225" transform="translate(-29.18 -36.223)" fill="#fafafa"/>
            <path id="Trazado_602204" data-name="Trazado 602204" d="M144.814,179.268a3.129,3.129,0,0,1-.586-.623,12.244,12.244,0,0,1-1.283-1.95,13.836,13.836,0,0,1,.967-14.668,12.218,12.218,0,0,1,1.527-1.764,3.126,3.126,0,0,1,.663-.54c.055.055-.881.847-1.964,2.461a14.237,14.237,0,0,0-.949,14.385c.862,1.743,1.686,2.652,1.624,2.7" transform="translate(-35.393 -40.009)" fill="#fafafa"/>
            <path id="Trazado_602205" data-name="Trazado 602205" d="M160.112,160.4c-.071.025-.382-1.127-1.311-2.781a15.4,15.4,0,0,0-11.846-7.835c-1.886-.208-3.068-.043-3.073-.118a3.039,3.039,0,0,1,.822-.141,13.02,13.02,0,0,1,2.277-.016,14.839,14.839,0,0,1,12.063,7.978,13.063,13.063,0,0,1,.877,2.1,3.046,3.046,0,0,1,.191.812" transform="translate(-36.042 -37.44)" fill="#fafafa"/>
            <g id="Grupo_878720" data-name="Grupo 878720" transform="translate(144.033 133.88)" opacity="0.3">
              <g id="Grupo_878719" data-name="Grupo 878719">
                <g id="Grupo_878718" data-name="Grupo 878718" clip-path="url(#clip-path-9)">
                  <path id="Trazado_602206" data-name="Trazado 602206" d="M192.688,188.68c-.714.306-.648,1.448-.049,1.942a3.207,3.207,0,0,0,2.226.476,28.929,28.929,0,0,0,22.206-12.472c-6.776,5.559-15.664,7.658-24.212,9.6" transform="translate(-192.171 -178.625)"/>
                </g>
              </g>
            </g>
            <g id="Grupo_878723" data-name="Grupo 878723" transform="translate(142.858 112.393)" opacity="0.3">
              <g id="Grupo_878722" data-name="Grupo 878722">
                <g id="Grupo_878721" data-name="Grupo 878721" clip-path="url(#clip-path-10)">
                  <path id="Trazado_602207" data-name="Trazado 602207" d="M190.958,173.851a3.075,3.075,0,0,1,.712-3.676,12.363,12.363,0,0,1,3.464-2.062,21.9,21.9,0,0,0,10.1-10.37c1.361-2.952,2.4-6.574,5.411-7.787a29.271,29.271,0,0,1-19.269,22.98" transform="translate(-190.603 -149.956)"/>
                </g>
              </g>
            </g>
            <g id="Grupo_878726" data-name="Grupo 878726" transform="translate(119.372 97.427)" opacity="0.3">
              <g id="Grupo_878725" data-name="Grupo 878725">
                <g id="Grupo_878724" data-name="Grupo 878724" clip-path="url(#clip-path-11)">
                  <path id="Trazado_602208" data-name="Trazado 602208" d="M161.831,129.989a76.136,76.136,0,0,1-1.725,24.5,20.955,20.955,0,0,0-.836,5.162,6.86,6.86,0,0,0,2.492,4.846c1.246-2.865,1.268-5.63,1.792-8.72.472-2.784,1.264-9.28,1.265-9.375a36.778,36.778,0,0,0-3.415-15.674" transform="translate(-159.268 -129.989)"/>
                </g>
              </g>
            </g>
            <g id="Grupo_878729" data-name="Grupo 878729" transform="translate(135.65 72.695)" opacity="0.3">
              <g id="Grupo_878728" data-name="Grupo 878728">
                <g id="Grupo_878727" data-name="Grupo 878727" clip-path="url(#clip-path-12)">
                  <path id="Trazado_602209" data-name="Trazado 602209" d="M181.4,97.117a29.869,29.869,0,0,0,8.482,15.917c1.658,1.614,3.718,3.107,6.031,3.033a14.113,14.113,0,0,1-1.157-8.835,36.563,36.563,0,0,0,6.173,3.359,12.273,12.273,0,0,0,6.9.783q.72-6.227,1.441-12.455a2.3,2.3,0,0,0-.13-1.391.8.8,0,0,0-1.187-.284,1.141,1.141,0,0,0-.233.546c-.845,3.64-1.315,6.9-2.159,10.535-.606.6-2.473.354-3.7-.1-1.071-.394-1.482-1.281-2.191-2.175s-.583-.738-1.634-1.184c-1.931-.819-5.642-.166-6.45,1.569s-.2,4.019.342,5.722A25.964,25.964,0,0,1,180.986,96.99" transform="translate(-180.986 -96.99)"/>
                </g>
              </g>
            </g>
            <g id="Grupo_878732" data-name="Grupo 878732" transform="translate(175.354 90.401)" opacity="0.3">
              <g id="Grupo_878731" data-name="Grupo 878731">
                <g id="Grupo_878730" data-name="Grupo 878730" clip-path="url(#clip-path-13)">
                  <path id="Trazado_602210" data-name="Trazado 602210" d="M235.538,120.614c-.151.3,4.667,16.549,4.667,16.549l-6.246-3.559Z" transform="translate(-233.96 -120.614)"/>
                </g>
              </g>
            </g>
            <path id="Trazado_602211" data-name="Trazado 602211" d="M184.3,53.218V79.088a6.273,6.273,0,0,0,1.474,4.04,18.944,18.944,0,0,0,5.195,4.3l5.219,2.939,4.316-3.853a6.28,6.28,0,0,0,2.09-4.436c.074-1.885.074-3.784.074-3.784s7.314-.525,8-7.737c.323-3.4.426-10.351.444-16.76A14.029,14.029,0,0,0,198.24,39.786l-.206-.017A13.407,13.407,0,0,0,184.3,53.218" transform="translate(-46.167 -9.961)" fill="#ffbe9d"/>
            <path id="Trazado_602212" data-name="Trazado 602212" d="M205.744,89.987a17.5,17.5,0,0,1-9.17-3.557s1.892,5.472,9.151,5.418Z" transform="translate(-49.241 -21.65)" fill="#eb996e"/>
            <path id="Trazado_602213" data-name="Trazado 602213" d="M216.536,64.336a1.035,1.035,0,0,1-1.08.958.989.989,0,0,1-.986-1.018,1.034,1.034,0,0,1,1.079-.959.99.99,0,0,1,.987,1.019" transform="translate(-53.723 -15.861)" fill="#263238"/>
            <path id="Trazado_602214" data-name="Trazado 602214" d="M216.256,61.953c-.139.124-.872-.519-1.982-.608-1.108-.1-1.969.4-2.078.253-.055-.065.1-.3.471-.526a2.843,2.843,0,0,1,1.677-.369,2.727,2.727,0,0,1,1.563.652c.319.29.415.543.347.6" transform="translate(-53.151 -15.203)" fill="#263238"/>
            <path id="Trazado_602215" data-name="Trazado 602215" d="M202.574,63.635a1.035,1.035,0,0,1-1.08.959.99.99,0,0,1-.986-1.018,1.036,1.036,0,0,1,1.08-.959.99.99,0,0,1,.986,1.018" transform="translate(-50.226 -15.685)" fill="#263238"/>
            <path id="Trazado_602216" data-name="Trazado 602216" d="M201.684,61.025c-.139.124-.873-.519-1.982-.608s-1.968.4-2.078.253c-.054-.064.1-.3.472-.525a2.842,2.842,0,0,1,1.677-.369,2.729,2.729,0,0,1,1.564.652c.319.289.414.543.347.6" transform="translate(-49.501 -14.971)" fill="#263238"/>
            <path id="Trazado_602217" data-name="Trazado 602217" d="M207.507,69.764a7.337,7.337,0,0,1,1.829-.176c.286-.006.558-.04.622-.229a1.449,1.449,0,0,0-.119-.855q-.315-1.061-.66-2.227a37.148,37.148,0,0,1-1.414-5.8,37.385,37.385,0,0,1,1.878,5.671c.217.781.426,1.524.623,2.237a1.643,1.643,0,0,1,.055,1.124.715.715,0,0,1-.5.375,1.9,1.9,0,0,1-.487.027,7.216,7.216,0,0,1-1.827-.148" transform="translate(-51.979 -15.15)" fill="#263238"/>
            <path id="Trazado_602218" data-name="Trazado 602218" d="M202.987,73.532c.181,0,.084,1.209,1.044,2.149s2.253.914,2.249,1.083c.01.076-.306.21-.848.18a3.01,3.01,0,0,1-1.883-.836,2.624,2.624,0,0,1-.8-1.8c0-.507.155-.794.237-.78" transform="translate(-50.788 -18.419)" fill="#263238"/>
            <path id="Trazado_602219" data-name="Trazado 602219" d="M202.2,55.335c-.134.292-1.231.058-2.545.107-1.316.022-2.4.317-2.548.032-.066-.136.14-.4.589-.662a4.425,4.425,0,0,1,3.879-.106c.462.232.683.489.624.628" transform="translate(-49.371 -13.604)" fill="#263238"/>
            <path id="Trazado_602220" data-name="Trazado 602220" d="M216.17,57.6c-.216.236-.959-.089-1.877-.178-.914-.12-1.711.029-1.869-.25-.068-.134.076-.376.435-.587a2.73,2.73,0,0,1,3.018.344c.3.286.388.554.292.67" transform="translate(-53.207 -14.099)" fill="#263238"/>
            <path id="Trazado_602221" data-name="Trazado 602221" d="M192.419,46.417l-.042.028a5.7,5.7,0,0,0-2.415,3.5c-.011.05-.022.1-.032.144-.453,2.036-.576,4.135-1.048,6.166s-.385,3.583-2.42,4.041a2.71,2.71,0,0,1-2.833-1.151,1.763,1.763,0,0,1-.178-.965c.026-5-.98-6.947-.54-12.146a4.4,4.4,0,0,1,2.114-3.417c1.153-.69,2.549-1.389,3.712-.717s2.542,3.068,3.4,4.105" transform="translate(-45.79 -10.427)" fill="#263238"/>
            <path id="Trazado_602222" data-name="Trazado 602222" d="M185.484,62.215c-.118-.063-4.839-1.877-5.09,3.071s4.769,4.18,4.785,4.038.305-7.11.305-7.11" transform="translate(-45.185 -15.491)" fill="#ffbe9d"/>
            <path id="Trazado_602223" data-name="Trazado 602223" d="M184.183,67.9c-.021-.016-.089.056-.238.115a.862.862,0,0,1-.645-.019,2.135,2.135,0,0,1-.89-1.964,2.844,2.844,0,0,1,.3-1.222,1,1,0,0,1,.682-.629.439.439,0,0,1,.5.262c.059.142.023.239.049.249s.11-.078.081-.284a.553.553,0,0,0-.179-.32.65.65,0,0,0-.47-.15,1.213,1.213,0,0,0-.94.722,2.931,2.931,0,0,0-.369,1.364,2.241,2.241,0,0,0,1.149,2.2.926.926,0,0,0,.8-.091c.16-.115.191-.224.175-.234" transform="translate(-45.606 -16.015)" fill="#eb996e"/>
            <path id="Trazado_602224" data-name="Trazado 602224" d="M190.294,41.21c-1.052-2.075,2.512-4.635,5.012-5.2s5.61.887,7.968,1.892a13.507,13.507,0,0,0,4.569,1.535,10.948,10.948,0,0,0,3.2-.539,8.011,8.011,0,0,1,3.209-.362,2.986,2.986,0,0,1,2.461,1.863,1.872,1.872,0,0,1-1.456,2.416,2.432,2.432,0,1,1,.275,4.545c.746-.474,1.749.494,1.59,1.363a2.563,2.563,0,0,1-1.842,1.728,9.268,9.268,0,0,1-6.58-.647c-2.072-.893-3.954-2.174-6-3.119s-5.471-2.62-7.653-2.047c-1.607.42-2.849,2.211-3.7,1.723a3.028,3.028,0,0,1-1.378-2.349,8.793,8.793,0,0,1,.33-2.8" transform="translate(-47.579 -8.988)" fill="#263238"/>
            <path id="Trazado_602225" data-name="Trazado 602225" d="M216.343,43.189c-.039-.028-.285.344-.863.876a6.83,6.83,0,0,1-2.889,1.539,6.278,6.278,0,0,1-4.691-.58c-1.617-.89-2.928-2.515-4.464-4.07a10.275,10.275,0,0,0-5.327-3.123,5.706,5.706,0,0,0-4.855,1.243,4.325,4.325,0,0,0-1.384,3.1,3.347,3.347,0,0,0,.138.925c.073.2.121.3.136.3a7.942,7.942,0,0,1-.084-1.215,4.263,4.263,0,0,1,1.426-2.847,5.413,5.413,0,0,1,4.541-1.057A10.022,10.022,0,0,1,203.09,41.3c1.508,1.52,2.861,3.188,4.592,4.118a6.735,6.735,0,0,0,7.931-1.216,4.625,4.625,0,0,0,.579-.727c.113-.179.166-.277.151-.286" transform="translate(-48.062 -9.451)" fill="#455a64"/>
            <path id="Trazado_602226" data-name="Trazado 602226" d="M185.237,57.681c.016.019.224-.118.443-.494a3.333,3.333,0,0,0,.394-1.769c.022-1.6-1.243-3.423-1.24-5.634a4.975,4.975,0,0,1,.79-2.9,3.791,3.791,0,0,1,1.965-1.434,3.236,3.236,0,0,1,1.667-.087c.391.1.6.206.618.168.013-.019-.16-.189-.564-.35a3.081,3.081,0,0,0-1.814-.064,3.992,3.992,0,0,0-2.241,1.506,5.25,5.25,0,0,0-.911,3.167,9.031,9.031,0,0,0,.694,3.189,9.4,9.4,0,0,1,.69,2.458,3.813,3.813,0,0,1-.492,2.243" transform="translate(-46.177 -11.275)" fill="#455a64"/>
            <path id="Trazado_602227" data-name="Trazado 602227" d="M176.492,252.625s-.378.016-1.115.028l-3.272.046c-2.877.046-7.119.156-12.575.423-5.456.284-12.126.764-19.836,1.644-3.852.463-7.968.992-12.308,1.713-4.344.694-8.915,1.559-13.676,2.643S104,261.5,98.93,263.153a98.866,98.866,0,0,0-15.325,6.323,50.077,50.077,0,0,0-7.35,4.694,23.5,23.5,0,0,0-6.017,6.583c-.182.331-.379.657-.552.993l-.424,1.058-.213.529c-.058.181-.092.369-.14.553L68.642,285a11.18,11.18,0,0,0,.225,4.573,16.761,16.761,0,0,0,5.037,7.86c4.7,4.41,10.686,7.48,16.9,10.055a138.566,138.566,0,0,0,19.687,6.228,258.994,258.994,0,0,0,42.974,6.328,341.272,341.272,0,0,0,43.479.17,273.563,273.563,0,0,0,40.141-5.238,169.94,169.94,0,0,0,18.2-4.908,90.6,90.6,0,0,0,16.269-7.087,44.542,44.542,0,0,0,6.859-4.886,19.844,19.844,0,0,0,4.966-6.322l.369-.915a4.832,4.832,0,0,0,.317-.925l.229-.948c.034-.158.084-.313.106-.473l.039-.483a9.471,9.471,0,0,0-.282-3.781,13.433,13.433,0,0,0-1.585-3.384,20.748,20.748,0,0,0-2.32-2.85,34.982,34.982,0,0,0-5.486-4.522,58.064,58.064,0,0,0-5.815-3.467,100.811,100.811,0,0,0-11.338-5.046,170.447,170.447,0,0,0-19.006-5.86c-5.3-1.325-9.461-2.159-12.286-2.7-1.41-.281-2.492-.462-3.216-.6s-1.1-.212-1.1-.212,1.5.22,4.326.735,7,1.326,12.308,2.629a168.369,168.369,0,0,1,19.046,5.8A100.53,100.53,0,0,1,269.06,269.8a58.156,58.156,0,0,1,5.847,3.469,35.289,35.289,0,0,1,5.537,4.547,21.07,21.07,0,0,1,2.359,2.887,13.693,13.693,0,0,1,1.626,3.459,9.745,9.745,0,0,1,.3,3.893l-.04.5c-.022.163-.073.323-.108.486l-.233.972a4.983,4.983,0,0,1-.323.948l-.376.936a20.126,20.126,0,0,1-5.031,6.428,44.834,44.834,0,0,1-6.9,4.932,90.752,90.752,0,0,1-16.322,7.132,169.9,169.9,0,0,1-18.235,4.936,273.176,273.176,0,0,1-40.192,5.268,340.654,340.654,0,0,1-43.529-.163,258.772,258.772,0,0,1-43.037-6.346,138.781,138.781,0,0,1-19.737-6.254c-6.233-2.59-12.25-5.672-17-10.14a17.1,17.1,0,0,1-5.129-8.032,11.527,11.527,0,0,1-.226-4.718l.276-1.146c.049-.19.085-.384.145-.57l.219-.543.436-1.085c.177-.345.378-.677.565-1.016a23.8,23.8,0,0,1,6.108-6.674,50.283,50.283,0,0,1,7.4-4.717,98.939,98.939,0,0,1,15.384-6.324c5.079-1.649,10.042-2.937,14.81-4.012s9.347-1.934,13.7-2.619c4.346-.713,8.467-1.232,12.323-1.685,7.718-.86,14.394-1.319,19.854-1.579s9.7-.33,12.582-.351l3.273-.007c.738,0,1.115.011,1.115.011" transform="translate(-17.075 -63.278)" fill="#e8505b"/>
            <path id="Trazado_602228" data-name="Trazado 602228" d="M109.771,175.038s-.426.1-1.261.262-2.079.4-3.7.749c-3.25.676-8.039,1.719-14.122,3.381a144.814,144.814,0,0,0-21.635,7.648c-2.033.934-4.113,1.957-6.19,3.137a58.03,58.03,0,0,0-6.213,3.985,34.167,34.167,0,0,0-5.735,5.271,18.065,18.065,0,0,0-3.888,7.129,13.093,13.093,0,0,0,.617,8.394,21.7,21.7,0,0,0,5.189,7.257c4.436,4.256,10.067,7.479,16.058,10.252,12.072,5.485,25.859,9.163,40.49,11.91a339.929,339.929,0,0,0,46.451,5.124A400.285,400.285,0,0,0,206,248.641a290.469,290.469,0,0,0,49.5-8.066,148.42,148.42,0,0,0,22.547-7.742,77.111,77.111,0,0,0,10.187-5.438,38.794,38.794,0,0,0,8.582-7.239,16.241,16.241,0,0,0,4.255-9.837,8.5,8.5,0,0,0-.046-1.339,8.813,8.813,0,0,0-.142-1.327l-.292-1.3a8.934,8.934,0,0,0-.427-1.258,18.765,18.765,0,0,0-2.572-4.6,35.27,35.27,0,0,0-7.6-7.024,69,69,0,0,0-8.7-5.088,123.05,123.05,0,0,0-17.826-7c-5.871-1.837-11.6-3.293-17.1-4.511a329.525,329.525,0,0,0-52.922-6.751c-6.3-.327-11.2-.341-14.517-.425l-3.777-.082c-.851-.02-1.287-.041-1.287-.041s.436-.006,1.287,0l3.777.043c3.321.059,8.221.049,14.523.352a325.775,325.775,0,0,1,52.974,6.632c5.51,1.211,11.249,2.661,17.132,4.494a123.068,123.068,0,0,1,17.879,6.994,69.245,69.245,0,0,1,8.751,5.1,35.548,35.548,0,0,1,7.684,7.089,19.123,19.123,0,0,1,2.625,4.681,9.267,9.267,0,0,1,.437,1.288l.3,1.334a9.1,9.1,0,0,1,.148,1.363,8.879,8.879,0,0,1,.049,1.376,13.957,13.957,0,0,1-1.3,5.362,19.909,19.909,0,0,1-3.032,4.694,39.132,39.132,0,0,1-8.658,7.316,77.524,77.524,0,0,1-10.232,5.47,148.642,148.642,0,0,1-22.6,7.771,290.355,290.355,0,0,1-49.571,8.086,399.61,399.61,0,0,1-50.224.887,339.442,339.442,0,0,1-46.5-5.152c-14.649-2.76-28.454-6.454-40.559-11.969-6.009-2.79-11.662-6.03-16.133-10.33a21.989,21.989,0,0,1-5.247-7.364,13.378,13.378,0,0,1-.617-8.571,18.32,18.32,0,0,1,3.956-7.23A34.383,34.383,0,0,1,56.5,194a58.4,58.4,0,0,1,6.246-3.99c2.087-1.18,4.174-2.2,6.213-3.132a143.987,143.987,0,0,1,21.686-7.6c6.095-1.641,10.891-2.659,14.147-3.311s4.98-.933,4.98-.933" transform="translate(-11.603 -42.478)" fill="#e8505b"/>
            <path id="Trazado_602229" data-name="Trazado 602229" d="M148.126,326.93l-3.739.59c-2.449.393-6.058,1.013-10.661,2.021a135.7,135.7,0,0,0-16.513,4.655,76.937,76.937,0,0,0-9.818,4.265,42.877,42.877,0,0,0-4.982,3.046,25.944,25.944,0,0,0-4.58,4.078,14.884,14.884,0,0,0-1.809,2.608,10.293,10.293,0,0,0-1.117,3.031c-.043.27-.106.537-.132.81l-.048.824c0,.551.07,1.1.119,1.659a16.641,16.641,0,0,0,.43,1.626l.317.788.16.4.211.372a18.531,18.531,0,0,0,4.5,5.3,37.1,37.1,0,0,0,6.039,4.053,79.778,79.778,0,0,0,14.132,5.9,146.82,146.82,0,0,0,15.755,4.028,234.821,234.821,0,0,0,34.667,4.143,282.338,282.338,0,0,0,37.488-.652,199.784,199.784,0,0,0,36.925-6.364,93.057,93.057,0,0,0,16.636-6.339,41.563,41.563,0,0,0,7.237-4.675c.572-.425,1.052-.95,1.58-1.42s.953-1.035,1.432-1.547a13.792,13.792,0,0,0,2.132-3.563,9.557,9.557,0,0,0-.331-7.9,18.976,18.976,0,0,0-5.163-6.01,52.688,52.688,0,0,0-13.4-7.332,112.946,112.946,0,0,0-13.637-4.367c-4.451-1.15-8.774-2.054-12.922-2.782a255.811,255.811,0,0,0-39.7-3.632l-14.636-.081s5.211-.066,14.638-.01A253.381,253.381,0,0,1,229.071,328c4.153.725,8.481,1.624,12.939,2.77a113.2,113.2,0,0,1,13.663,4.362,52.828,52.828,0,0,1,13.454,7.352,19.174,19.174,0,0,1,5.223,6.078,9.773,9.773,0,0,1,.342,8.075,14.015,14.015,0,0,1-2.164,3.622c-.483.518-.927,1.079-1.447,1.565s-1.017,1.005-1.593,1.432a41.785,41.785,0,0,1-7.275,4.7,93.2,93.2,0,0,1-16.676,6.361,199.715,199.715,0,0,1-36.968,6.376,282.168,282.168,0,0,1-37.52.648,234.562,234.562,0,0,1-34.7-4.161,146.817,146.817,0,0,1-15.776-4.043,79.988,79.988,0,0,1-14.163-5.926,37.263,37.263,0,0,1-6.066-4.079,18.7,18.7,0,0,1-4.543-5.36l-.213-.378-.161-.4-.322-.8a16.546,16.546,0,0,1-.436-1.655c-.051-.564-.116-1.13-.12-1.691l.05-.84c.026-.277.091-.55.135-.825a10.486,10.486,0,0,1,1.138-3.078,15.062,15.062,0,0,1,1.832-2.634,26.04,26.04,0,0,1,4.615-4.1,42.882,42.882,0,0,1,5-3.049,76.789,76.789,0,0,1,9.843-4.257,134.649,134.649,0,0,1,16.538-4.621c4.609-.994,8.221-1.6,10.673-1.978s3.746-.543,3.746-.543" transform="translate(-23.685 -81.266)" fill="#e8505b"/>
            <path id="Trazado_602230" data-name="Trazado 602230" d="M254.545,412.547a7.7,7.7,0,0,0-.623-2.73c-.7-1.719-2.557-3.855-5.488-5.788-5.89-3.876-15.734-7.132-28.127-9.122a171.27,171.27,0,0,0-20.448-2,196.313,196.313,0,0,0-23.576.433c-4.142.328-8.376.806-12.67,1.489a121.053,121.053,0,0,0-13.014,2.745c-2.183.588-4.36,1.267-6.516,2.06a52.444,52.444,0,0,0-6.36,2.772,25.732,25.732,0,0,0-5.765,3.99,7.625,7.625,0,0,0-.007,12.3,25.7,25.7,0,0,0,5.764,3.993,52.426,52.426,0,0,0,6.361,2.774c2.157.793,4.336,1.473,6.518,2.061a120.932,120.932,0,0,0,13.017,2.745c4.3.684,8.531,1.161,12.673,1.489a196.345,196.345,0,0,0,23.579.433,171.316,171.316,0,0,0,20.45-2c12.392-1.991,22.235-5.247,28.124-9.123,2.931-1.932,4.791-4.068,5.486-5.787a7.7,7.7,0,0,0,.623-2.73c-.008.113-.022.3-.05.716a3.9,3.9,0,0,1-.155.869,5.688,5.688,0,0,1-.388,1.158c-.69,1.73-2.55,3.881-5.482,5.825-5.893,3.9-15.741,7.174-28.142,9.181a170.82,170.82,0,0,1-20.46,2.024,196.246,196.246,0,0,1-23.6-.42c-4.145-.326-8.382-.8-12.684-1.485a120.96,120.96,0,0,1-13.033-2.746c-2.186-.588-4.369-1.269-6.531-2.063a52.447,52.447,0,0,1-6.379-2.781,25.837,25.837,0,0,1-5.8-4.018A11.375,11.375,0,0,1,129.633,416a6.734,6.734,0,0,1,.006-6.913,11.355,11.355,0,0,1,2.212-2.8,25.853,25.853,0,0,1,5.8-4.015,52.686,52.686,0,0,1,6.38-2.78c2.161-.794,4.343-1.474,6.528-2.062a120.885,120.885,0,0,1,13.032-2.745c4.3-.682,8.538-1.159,12.681-1.485a196.192,196.192,0,0,1,23.594-.42,170.848,170.848,0,0,1,20.46,2.023c12.4,2.006,22.251,5.28,28.143,9.181,2.932,1.944,4.792,4.1,5.483,5.825a5.71,5.71,0,0,1,.389,1.158,3.911,3.911,0,0,1,.155.869c.028.412.042.6.05.716" transform="translate(-32.234 -98.344)" fill="#e8505b"/>
            <path id="Trazado_602231" data-name="Trazado 602231" d="M74.076,263.314a2.393,2.393,0,1,1-2.393-2.393,2.392,2.392,0,0,1,2.393,2.393" transform="translate(-17.357 -65.359)" fill="#e8505b"/>
            <path id="Trazado_602232" data-name="Trazado 602232" d="M362.812,265.477a2.393,2.393,0,1,1-2.392-2.392,2.393,2.393,0,0,1,2.392,2.392" transform="translate(-89.684 -65.901)" fill="#e8505b"/>
            <path id="Trazado_602233" data-name="Trazado 602233" d="M232.593,383.118a2.393,2.393,0,1,1-2.394-2.393,2.393,2.393,0,0,1,2.394,2.393" transform="translate(-57.064 -95.37)" fill="#e8505b"/>
            <path id="Trazado_602234" data-name="Trazado 602234" d="M136.442,301.474a1.2,1.2,0,1,1-1.2-1.2,1.2,1.2,0,0,1,1.2,1.2" transform="translate(-33.579 -75.218)" fill="#e8505b"/>
            <path id="Trazado_602235" data-name="Trazado 602235" d="M334.956,340.159a1.2,1.2,0,1,1-1.2-1.2,1.2,1.2,0,0,1,1.2,1.2" transform="translate(-83.305 -84.908)" fill="#e8505b"/>
            <path id="Trazado_602236" data-name="Trazado 602236" d="M208.939,413.989a1.2,1.2,0,1,1-1.2-1.2,1.2,1.2,0,0,1,1.2,1.2" transform="translate(-51.739 -103.402)" fill="#e8505b"/>
            <path id="Trazado_602237" data-name="Trazado 602237" d="M126.817,134.715a.6.6,0,1,1-.6-.6.6.6,0,0,1,.6.6" transform="translate(-31.466 -33.595)" fill="#e8505b"/>
            <path id="Trazado_602238" data-name="Trazado 602238" d="M239.874,238.626c-29.059,7.694-57.068,7.11-87.6,0l-3.565-55.8c31.544,6.141,63.213,5.363,91.16-1.32Z" transform="translate(-37.252 -45.466)" fill="#e8505b"/>
            <g id="Grupo_878735" data-name="Grupo 878735" transform="translate(111.462 136.038)" opacity="0.8">
              <g id="Grupo_878734" data-name="Grupo 878734">
                <g id="Grupo_878733" data-name="Grupo 878733" clip-path="url(#clip-path-14)">
                  <path id="Trazado_602239" data-name="Trazado 602239" d="M239.874,238.626c-29.059,7.694-57.068,7.11-87.6,0l-3.565-55.8c31.544,6.141,63.213,5.363,91.16-1.32Z" transform="translate(-148.714 -181.504)" fill="#fff4ea"/>
                </g>
              </g>
            </g>
            <path id="Trazado_602240" data-name="Trazado 602240" d="M238.482,246.4a.8.8,0,0,1-.181.091l-.549.233c-.487.193-1.194.509-2.131.843a80.1,80.1,0,0,1-8.042,2.524,105.114,105.114,0,0,1-27.57,3.146,160.882,160.882,0,0,1-27.627-2.956c-3.495-.664-6.308-1.277-8.245-1.728-.97-.22-1.719-.408-2.227-.534l-.577-.15a.785.785,0,0,1-.193-.064.832.832,0,0,1,.2.025l.585.112,2.242.462c1.946.4,4.766.977,8.263,1.6a169.753,169.753,0,0,0,27.581,2.838,108.568,108.568,0,0,0,27.5-3.023c3.444-.864,6.186-1.737,8.059-2.4.944-.312,1.658-.6,2.153-.773l.563-.2a.837.837,0,0,1,.2-.055" transform="translate(-40.365 -61.72)" fill="#e8505b"/>
            <path id="Trazado_602241" data-name="Trazado 602241" d="M203.629,242.481a19.1,19.1,0,0,1-11.189-.374V222.244a28.094,28.094,0,0,1,11.189,0Z" transform="translate(-48.205 -55.53)" fill="#fc8116"/>
            <path id="Trazado_602242" data-name="Trazado 602242" d="M227.392,237.7a.726.726,0,0,1-.015-.153c-.005-.116-.011-.259-.019-.432q-.016-.606-.045-1.658c-.029-1.468-.07-3.556-.123-6.168-.079-5.271-.19-12.646-.319-21.2l.149.181a30,30,0,0,0-11.579.009l.159-.194c0,.124,0,.259.005.394.118,11.738.226,22.34.3,29.91l-.109-.131a26.131,26.131,0,0,0,4.876.594,17.949,17.949,0,0,0,3.683-.3,18.232,18.232,0,0,0,2.26-.594l.566-.2a1.255,1.255,0,0,1,.208-.062.873.873,0,0,1-.178.089l-.569.244a15.752,15.752,0,0,1-2.256.667,17.521,17.521,0,0,1-3.715.369,25.836,25.836,0,0,1-4.929-.543l-.107-.021,0-.11c-.106-7.57-.256-18.171-.42-29.909,0-.135,0-.27-.005-.394v-.163l.161-.031a30.174,30.174,0,0,1,11.726.009l.148.031v.15c.064,8.591.12,16,.16,21.3.007,2.6.013,4.678.016,6.138q-.006,1.033-.008,1.629c0,.167-.007.3-.009.415a.45.45,0,0,1-.012.135" transform="translate(-53.909 -51.935)" fill="#e8505b"/>
            <path id="Trazado_602243" data-name="Trazado 602243" d="M250.667,234.082c-3,1.621-6.938,1.836-11.189,1.593v-32.8a23.9,23.9,0,0,1,11.189,0Z" transform="translate(-59.988 -50.651)" fill="#fc8116"/>
            <path id="Trazado_602244" data-name="Trazado 602244" d="M179.969,242.826a8.058,8.058,0,0,1-.038-.84c-.011-.578-.025-1.344-.044-2.294-.021-2-.051-4.759-.087-8.055l.109.157a25.054,25.054,0,0,0-10.771-1.788h-.02l.177-.194c-.01,4.093-.019,7.928-.027,11.189l-.1-.155a20.923,20.923,0,0,0,4.319,1.233c1.323.238,2.49.375,3.452.471l2.24.19a7.894,7.894,0,0,1,.793.085,5.779,5.779,0,0,1-.8.019c-.52-.01-1.282-.032-2.252-.1s-2.144-.178-3.484-.395a20.567,20.567,0,0,1-4.4-1.194l-.1-.043V241c-.008-3.261-.017-7.1-.027-11.189v-.181l.177-.013h.021a24.834,24.834,0,0,1,10.926,1.86l.111.042v.117c-.036,3.341-.066,6.141-.087,8.165q-.028,1.4-.044,2.255a5.726,5.726,0,0,1-.038.769" transform="translate(-42.31 -57.5)" fill="#e8505b"/>
            <path id="Trazado_602245" data-name="Trazado 602245" d="M185.71,208.239a11.165,11.165,0,0,1-2.189.135c-1.354.022-3.224-.006-5.287-.127s-3.924-.314-5.266-.495a11.227,11.227,0,0,1-2.158-.39,13.419,13.419,0,0,1,2.188.115c1.345.11,3.2.258,5.259.379s3.917.191,5.267.241a13.4,13.4,0,0,1,2.186.141" transform="translate(-42.787 -51.938)" fill="#e8505b"/>
            <path id="Trazado_602246" data-name="Trazado 602246" d="M184.1,211.449a9.34,9.34,0,0,1-1.92-.009c-1.185-.055-2.82-.159-4.624-.3s-3.438-.286-4.617-.411a9.332,9.332,0,0,1-1.9-.284,9.492,9.492,0,0,1,1.926.009c1.184.055,2.817.159,4.619.3s3.431.286,4.61.411a9.463,9.463,0,0,1,1.905.285" transform="translate(-42.845 -52.707)" fill="#e8505b"/>
            <path id="Trazado_602247" data-name="Trazado 602247" d="M186.95,212.371a6.6,6.6,0,0,1,.009-.7q.028-.718.076-1.933c.08-1.694.193-4.077.331-7l.143.151a160.335,160.335,0,0,1-20.707-1.148l.217-.181v.017l0,.02,0,.04,0,.079-.009.158-.019.316-.037.63q-.036.628-.073,1.249-.073,1.242-.144,2.451c-.1,1.61-.189,3.17-.278,4.662l-.163-.194c5.988.738,11.162,1.05,14.83,1.192l4.292.13,1.13.035a3.464,3.464,0,0,1,.411.027,2.35,2.35,0,0,1-.379.028c-.256.01-.66.028-1.162.033-1,.015-2.461.016-4.3-.022-3.674-.077-8.862-.341-14.866-1.055l-.172-.02.01-.174c.084-1.493.172-3.053.263-4.663q.069-1.209.14-2.452.036-.621.072-1.249l.037-.63.018-.316.009-.159,0-.079,0-.04v-.037c-.047.038.414-.347.22-.184a175.559,175.559,0,0,0,20.659,1.251h.153l-.01.151c-.2,2.959-.368,5.368-.486,7.079q-.092,1.194-.146,1.9a4.942,4.942,0,0,1-.068.64" transform="translate(-41.6 -50.427)" fill="#e8505b"/>
            <path id="Trazado_602248" data-name="Trazado 602248" d="M196.475,220.275a8.936,8.936,0,0,1-1.441-2,7.1,7.1,0,0,1-1.111-2.208,8.961,8.961,0,0,1,1.441,2,7.122,7.122,0,0,1,1.111,2.208" transform="translate(-48.574 -54.123)" fill="#e8505b"/>
            <path id="Trazado_602249" data-name="Trazado 602249" d="M35.334,124.731l9.5,57.468s14.5,27.149,53.027,33.268l-6.217-51.3s-35.629-11.018-56.31-39.436" transform="translate(-8.851 -31.244)" fill="#e8505b"/>
            <g id="Grupo_878738" data-name="Grupo 878738" transform="translate(26.483 93.487)" opacity="0.8">
              <g id="Grupo_878737" data-name="Grupo 878737">
                <g id="Grupo_878736" data-name="Grupo 878736" clip-path="url(#clip-path-15)">
                  <path id="Trazado_602250" data-name="Trazado 602250" d="M35.334,124.731l9.5,57.468s14.5,27.149,53.027,33.268l-6.217-51.3s-35.629-11.018-56.31-39.436" transform="translate(-35.334 -124.731)" fill="#ffefe2"/>
                </g>
              </g>
            </g>
            <path id="Trazado_602251" data-name="Trazado 602251" d="M94.551,216.554a1.157,1.157,0,0,1-.245-.057l-.708-.205-2.716-.827c-1.173-.378-2.635-.763-4.259-1.426l-2.623-1c-.931-.349-1.914-.718-2.909-1.2-2-.919-4.233-1.863-6.5-3.136-2.32-1.167-4.672-2.642-7.132-4.209A71.65,71.65,0,0,1,53.145,192.09a42.778,42.778,0,0,1-5.165-7.2l-.013-.024-.005-.032c-1.734-11.2-3.256-21.038-4.35-28.1-.526-3.506-.949-6.323-1.245-8.29-.136-.953-.241-1.7-.317-2.234-.031-.238-.055-.429-.073-.579a.827.827,0,0,1-.013-.2.837.837,0,0,1,.048.193c.028.148.064.337.108.574l.383,2.222c.322,1.964.784,4.774,1.358,8.273,1.127,7.062,2.7,16.894,4.481,28.084l-.018-.056a42.884,42.884,0,0,0,5.116,7.123A72.19,72.19,0,0,0,67.661,204.2c2.443,1.569,4.781,3.049,7.086,4.223C77,209.7,79.21,210.658,81.2,211.589c.988.486,1.966.863,2.89,1.219l2.606,1.025c1.612.681,3.065,1.088,4.23,1.486l2.691.9.7.243a1.147,1.147,0,0,1,.234.1" transform="translate(-10.511 -36.428)" fill="#e8505b"/>
            <path id="Trazado_602252" data-name="Trazado 602252" d="M92.281,204.129a.74.74,0,0,1-.132.12l-.408.328-1.6,1.248-6.052,4.635-.1.073-.071-.1L76.52,200.2l.226.037-5.674,4.041-.19.135-.08-.218-7.315-19.84-1.05-2.856.358.02-4.621,9.173-.2.4-.146-.42-9.652-27.828.2-.012-1.42,5.986q-.248,1.01-.389,1.577l-.106.4a.529.529,0,0,1-.046.134.488.488,0,0,1,.017-.141l.079-.409q.12-.573.335-1.589c.31-1.413.757-3.442,1.322-6.008l.079-.364.124.352,9.807,27.774-.346-.022,4.609-9.179.2-.4.155.421,1.051,2.856c2.605,7.1,5.077,13.842,7.282,19.851l-.27-.083,5.692-4.017.133-.094.094.132L84.113,210.3l-.166-.025,6.117-4.548,1.639-1.2.427-.3a.715.715,0,0,1,.151-.094" transform="translate(-11.627 -40.684)" fill="#e8505b"/>
            <path id="Trazado_602253" data-name="Trazado 602253" d="M99.457,178.417a3.39,3.39,0,0,1-.809-.181c-.513-.139-1.25-.364-2.153-.663a73.8,73.8,0,0,1-13.533-6.111c-.821-.48-1.477-.883-1.921-1.177a3.332,3.332,0,0,1-.67-.487,3.46,3.46,0,0,1,.747.357l1.978,1.067c1.672.9,4,2.09,6.64,3.282s5.073,2.147,6.851,2.809l2.108.779a3.41,3.41,0,0,1,.761.325" transform="translate(-20.132 -42.533)" fill="#e8505b"/>
            <path id="Trazado_602254" data-name="Trazado 602254" d="M103.84,183.032a7.975,7.975,0,0,1-1.861-.329,43.366,43.366,0,0,1-8.572-3.065,7.988,7.988,0,0,1-1.647-.926,10.449,10.449,0,0,1,1.761.674c1.072.446,2.558,1.046,4.223,1.643s3.2,1.073,4.307,1.408a10.492,10.492,0,0,1,1.789.6" transform="translate(-22.985 -44.765)" fill="#e8505b"/>
            <path id="Trazado_602255" data-name="Trazado 602255" d="M87.188,212.553c0,.475-.289.861-.645.861s-.646-.386-.646-.861.289-.861.646-.861.645.385.645.861" transform="translate(-21.517 -53.028)" fill="#e8505b"/>
            <path id="Trazado_602256" data-name="Trazado 602256" d="M68.383,188.314c0,.475-.289.861-.646.861s-.645-.386-.645-.861.289-.861.645-.861.646.386.646.861" transform="translate(-16.806 -46.956)" fill="#e8505b"/>
            <path id="Trazado_602257" data-name="Trazado 602257" d="M49.393,163.02c0,.475-.289.861-.646.861s-.645-.386-.645-.861.289-.861.645-.861.646.386.646.861" transform="translate(-12.049 -40.62)" fill="#e8505b"/>
            <path id="Trazado_602258" data-name="Trazado 602258" d="M351.644,138.391l-4.76,58.385s-13.9,24.968-52.163,25.919l4.729-58.784s33.382-1.354,52.194-25.52" transform="translate(-73.826 -34.666)" fill="#e8505b"/>
            <path id="Trazado_602259" data-name="Trazado 602259" d="M363.049,130.653c-1.248-4.041-4.271-9.8-11.468-11l-8.508,78.533s15.971-3.189,16.4-11.943c.037-.755,3.233-39.787,4.032-49.452a15.844,15.844,0,0,0-.456-6.138" transform="translate(-85.938 -29.972)" fill="#fc8116"/>
            <g id="Grupo_878741" data-name="Grupo 878741" transform="translate(220.896 103.725)" opacity="0.8">
              <g id="Grupo_878740" data-name="Grupo 878740">
                <g id="Grupo_878739" data-name="Grupo 878739" clip-path="url(#clip-path-16)">
                  <path id="Trazado_602260" data-name="Trazado 602260" d="M351.644,138.391l-4.76,58.385s-13.9,24.968-52.163,25.919l4.729-58.784s33.382-1.354,52.194-25.52" transform="translate(-294.722 -138.391)" fill="#ffead8"/>
                </g>
              </g>
            </g>
            <path id="Trazado_602261" data-name="Trazado 602261" d="M353.792,158.249a34.628,34.628,0,0,0-6.1,18.882c-.038,1.937.075,3.943-.661,5.734s-2.661,3.287-4.529,2.775c-1.952-.535-2.825-2.842-4.536-3.924a5.056,5.056,0,0,0-5.133.109,8.6,8.6,0,0,0-3.372,4.1c-1.392,3.2-1.483,6.811-2.507,10.148s-3.538,6.7-7.026,6.852c-1.273.055-2.533-.331-3.807-.292-2.694.08-5.031,2.081-6.288,4.466a23.04,23.04,0,0,0-1.989,7.79s20.4,1.943,43.3-25.1Z" transform="translate(-77.114 -39.641)" fill="#fc8116"/>
            <path id="Trazado_602262" data-name="Trazado 602262" d="M325.341,205.064c0,.724-.358,1.312-.8,1.312s-.8-.588-.8-1.312.358-1.312.8-1.312.8.588.8,1.312" transform="translate(-81.095 -51.039)" fill="#e8505b"/>
            <path id="Trazado_602263" data-name="Trazado 602263" d="M338.162,172.676c0,.724-.358,1.312-.8,1.312s-.8-.588-.8-1.312.358-1.312.8-1.312.8.588.8,1.312" transform="translate(-84.307 -42.926)" fill="#e8505b"/>
            <path id="Trazado_602264" data-name="Trazado 602264" d="M353.621,162.008a1.805,1.805,0,0,1-.132.333c-.109.238-.252.552-.431.946-.4.851-.968,2.052-1.682,3.566l-6.084,12.671-.082.171-.162-.1-14.431-9.13.285-.091-.6,1.476-9.319,22.816-.064.155-.146-.082c-3.6-2.024-6.534-3.65-8.574-4.759-1.022-.552-1.818-.978-2.364-1.255l-.624-.305a1,1,0,0,1-.218-.1,17.68,17.68,0,0,1,3.284,1.51c2.066,1.066,5.024,2.652,8.642,4.646l-.21.074,9.232-22.851.6-1.476.088-.217.2.125,14.4,9.173-.244.069c2.557-5.194,4.7-9.535,6.21-12.609l1.767-3.526.477-.923a1.832,1.832,0,0,1,.18-.309" transform="translate(-77.401 -40.582)" fill="#e8505b"/>
          </g>
        </g>
      </g>
    </g>
  </g>
</svg>
