<svg xmlns="http://www.w3.org/2000/svg" xmlns:xlink="http://www.w3.org/1999/xlink" width="1320" height="506.835" viewBox="0 0 1320 506.835">
  <defs>
    <radialGradient id="radial-gradient" cx="0.717" cy="0.531" r="0.587" gradientTransform="matrix(0.58, -0.815, 0.512, 0.365, 0.029, 0.922)" gradientUnits="objectBoundingBox">
      <stop offset="0" stop-color="#d2ed1b"/>
      <stop offset="1" stop-color="#529d2e"/>
    </radialGradient>
    <clipPath id="clip-path">
      <path id="Rectangle_652" data-name="Rectangle 652" d="M1299.213,0H20.787C9.307,0,0,8.4,0,18.772V488.063c0,10.367,9.307,18.772,20.787,18.772H1299.213c11.48,0,20.787-8.4,20.787-18.772V18.772C1320,8.4,1310.693,0,1299.213,0Z" transform="translate(144.333 70)" fill="url(#radial-gradient)"/>
    </clipPath>
    <linearGradient id="linear-gradient" x1="-0.192" y1="0.448" x2="0.908" y2="0.95" gradientUnits="objectBoundingBox">
      <stop offset="0" stop-color="#00b988"/>
      <stop offset="1" stop-color="#00b988" stop-opacity="0"/>
    </linearGradient>
    <linearGradient id="linear-gradient-2" x1="0.119" y1="0.4" x2="1.219" y2="0.902" xlink:href="#linear-gradient"/>
    <linearGradient id="linear-gradient-3" x1="-0.192" y1="0.552" x2="0.908" y2="0.05" xlink:href="#linear-gradient"/>
    <linearGradient id="linear-gradient-4" x1="0.119" y1="0.6" x2="1.219" y2="0.098" xlink:href="#linear-gradient"/>
  </defs>
  <g id="Grupo_879797" data-name="Grupo 879797" transform="translate(-140 -70)">
    <path id="Trazado_599959" data-name="Trazado 599959" d="M576.3,168.785l-24.368,2.269,8.969,8.969-20.746,20.746a2.893,2.893,0,1,0,4.092,4.092l20.746-20.745,9.039,9.04Z" transform="translate(-297.639 -49.708)" fill="#fcd03e"/>
    <path id="Trazado_599960" data-name="Trazado 599960" d="M417.434,292.224l-36.605,3.408L394.3,309.1l-31.164,31.164a4.346,4.346,0,1,0,6.146,6.146l31.164-31.164,13.578,13.582Z" transform="translate(497.803 97.509)" fill="#529d2e"/>
    <path id="Trazado_599964" data-name="Trazado 599964" d="M576.3,168.785l-24.368,2.269,8.969,8.969-20.746,20.746a2.893,2.893,0,1,0,4.092,4.092l20.746-20.745,9.039,9.04Z" transform="translate(439.367 42.459)" fill="#fcd03e"/>
    <path id="Rectangle_652-2" data-name="Rectangle 652" d="M1299.213,0H20.787C9.307,0,0,8.4,0,18.772V488.063c0,10.367,9.307,18.772,20.787,18.772H1299.213c11.48,0,20.787-8.4,20.787-18.772V18.772C1320,8.4,1310.693,0,1299.213,0Z" transform="translate(140 70)" fill="url(#radial-gradient)"/>
    <g id="Enmascarar_grupo_700428" data-name="Enmascarar grupo 700428" transform="translate(-4.333)" clip-path="url(#clip-path)">
      <g id="Grupo_877998" data-name="Grupo 877998" transform="translate(135.557 69.539)" opacity="0.53" style="mix-blend-mode: multiply;isolation: isolate">
        <rect id="Rectángulo_297811" data-name="Rectángulo 297811" width="439.795" height="286.766" transform="translate(-231.987 12.811) rotate(-45)" fill="#071452" opacity="0.2" style="mix-blend-mode: overlay;isolation: isolate"/>
        <rect id="Rectángulo_297812" data-name="Rectángulo 297812" width="208.538" height="457.303" transform="matrix(0.707, -0.707, 0.707, 0.707, 42.293, -39.162)" fill="url(#linear-gradient)"/>
        <rect id="Rectángulo_297813" data-name="Rectángulo 297813" width="208.539" height="457.303" transform="matrix(0.707, -0.707, 0.707, 0.707, -100.89, -39.161)" fill="url(#linear-gradient-2)"/>
        <circle id="Elipse_7521" data-name="Elipse 7521" cx="264.159" cy="264.159" r="264.159" transform="translate(-264.159 235.143)" fill="#071452" opacity="0.2" style="mix-blend-mode: overlay;isolation: isolate"/>
      </g>
      <g id="Grupo_877999" data-name="Grupo 877999" transform="translate(1320.667 46.772)" style="mix-blend-mode: multiply;isolation: isolate">
        <path id="Trazado_599836" data-name="Trazado 599836" d="M0,291.807l425.309,14.486L415.863,28.972-9.446,14.486Z" transform="translate(225.514 219.149) rotate(-135)" fill="#071452" opacity="0.2" style="mix-blend-mode: overlay;isolation: isolate"/>
        <path id="Trazado_599837" data-name="Trazado 599837" d="M0,449.11l201.669,6.869L186.606,13.738-15.063,6.869Z" transform="matrix(-0.707, -0.707, 0.707, -0.707, -141.919, 278.415)" fill="url(#linear-gradient-3)"/>
        <path id="Trazado_599838" data-name="Trazado 599838" d="M0,449.11l201.669,6.869L186.607,13.738-15.063,6.869Z" transform="matrix(-0.707, -0.707, 0.707, -0.707, -8.168, 278.417)" fill="url(#linear-gradient-4)"/>
      </g>
      <g id="Grupo_878000" data-name="Grupo 878000" transform="translate(1309.444 635.996) rotate(90)" opacity="0.53" style="mix-blend-mode: multiply;isolation: isolate">
        <path id="Trazado_599839" data-name="Trazado 599839" d="M5.719,167.9l257.49,8.77L257.49,8.77,0,0Z" transform="translate(36.425 12.867) rotate(-135)" fill="#071452" opacity="0.2" style="mix-blend-mode: overlay;isolation: isolate"/>
        <path id="Trazado_599840" data-name="Trazado 599840" d="M9.119,267.741,131.214,271.9,122.095,4.159,0,0Z" transform="matrix(-0.707, -0.707, 0.707, -0.707, -186.882, 54.413)" fill="url(#linear-gradient-3)"/>
        <path id="Trazado_599841" data-name="Trazado 599841" d="M9.119,267.742,131.214,271.9,122.095,4.159,0,0Z" transform="matrix(-0.707, -0.707, 0.707, -0.707, -105.907, 54.414)" fill="url(#linear-gradient-4)"/>
      </g>
      <g id="Grupo_878014" data-name="Grupo 878014" transform="translate(109.801 17.255)">
        <g id="Grupo_878001" data-name="Grupo 878001" transform="translate(1101 -16)">
          <line id="Línea_282" data-name="Línea 282" x2="53.755" transform="translate(150.18 511.912)" fill="none" stroke="#f6fbd1" stroke-miterlimit="10" stroke-width="1.872"/>
          <line id="Línea_283" data-name="Línea 283" x2="53.755" transform="translate(163.62 498.474)" fill="none" stroke="#f6fbd1" stroke-miterlimit="10" stroke-width="1.872"/>
          <line id="Línea_284" data-name="Línea 284" x2="53.756" transform="translate(177.057 485.034)" fill="none" stroke="#f6fbd1" stroke-miterlimit="10" stroke-width="1.872"/>
          <line id="Línea_285" data-name="Línea 285" x2="53.754" transform="translate(190.496 471.596)" fill="none" stroke="#f6fbd1" stroke-miterlimit="10" stroke-width="1.872"/>
          <line id="Línea_286" data-name="Línea 286" x2="53.754" transform="translate(203.935 458.157)" fill="none" stroke="#f6fbd1" stroke-miterlimit="10" stroke-width="1.872"/>
          <line id="Línea_287" data-name="Línea 287" x2="53.754" transform="translate(217.374 444.719)" fill="none" stroke="#f6fbd1" stroke-miterlimit="10" stroke-width="1.872"/>
          <line id="Línea_288" data-name="Línea 288" x2="53.753" transform="translate(230.813 431.279)" fill="none" stroke="#f6fbd1" stroke-miterlimit="10" stroke-width="1.872"/>
          <line id="Línea_289" data-name="Línea 289" x2="53.754" transform="translate(244.252 417.841)" fill="none" stroke="#f6fbd1" stroke-miterlimit="10" stroke-width="1.872"/>
          <line id="Línea_290" data-name="Línea 290" x2="53.756" transform="translate(257.689 404.402)" fill="none" stroke="#f6fbd1" stroke-miterlimit="10" stroke-width="1.872"/>
          <line id="Línea_291" data-name="Línea 291" x2="53.754" transform="translate(271.129 390.964)" fill="none" stroke="#f6fbd1" stroke-miterlimit="10" stroke-width="1.872"/>
          <line id="Línea_292" data-name="Línea 292" x2="53.756" transform="translate(284.566 377.524)" fill="none" stroke="#f6fbd1" stroke-miterlimit="10" stroke-width="1.872"/>
          <line id="Línea_293" data-name="Línea 293" x2="53.756" transform="translate(298.006 364.087)" fill="none" stroke="#f6fbd1" stroke-miterlimit="10" stroke-width="1.872"/>
          <line id="Línea_294" data-name="Línea 294" x2="53.754" transform="translate(311.445 350.647)" fill="none" stroke="#f6fbd1" stroke-miterlimit="10" stroke-width="1.872"/>
        </g>
        <circle id="Elipse_7522" data-name="Elipse 7522" cx="59" cy="59" r="59" transform="translate(-18.231 94.825)" fill="none" stroke="#f6fbd1" stroke-miterlimit="10" stroke-width="9"/>
        <circle id="Elipse_7523" data-name="Elipse 7523" cx="25" cy="25" r="25" transform="translate(735.199 243.825)" fill="none" stroke="#f6fbd1" stroke-miterlimit="10" stroke-width="9"/>
        <circle id="Elipse_7524" data-name="Elipse 7524" cx="15.5" cy="15.5" r="15.5" transform="translate(630.199 470.825)" fill="none" stroke="#f6fbd1" stroke-miterlimit="10" stroke-width="9"/>
        <g id="Grupo_878013" data-name="Grupo 878013">
          <g id="Grupo_878002" data-name="Grupo 878002">
            <path id="Trazado_599842" data-name="Trazado 599842" d="M120.959-135.478a2.213,2.213,0,0,0,3.129,0,2.212,2.212,0,0,0,0-3.13,2.214,2.214,0,0,0-3.129,0A2.214,2.214,0,0,0,120.959-135.478Z" fill="#f6fbd1"/>
            <path id="Trazado_599843" data-name="Trazado 599843" d="M108.963-123.483a2.214,2.214,0,0,0,3.13,0,2.213,2.213,0,0,0,0-3.129,2.214,2.214,0,0,0-3.13,0A2.214,2.214,0,0,0,108.963-123.483Z" fill="#f6fbd1"/>
            <path id="Trazado_599844" data-name="Trazado 599844" d="M96.968-111.487a2.213,2.213,0,0,0,3.13,0,2.214,2.214,0,0,0,0-3.129,2.213,2.213,0,0,0-3.129,0A2.214,2.214,0,0,0,96.968-111.487Z" fill="#f6fbd1"/>
            <path id="Trazado_599845" data-name="Trazado 599845" d="M84.973-99.492a2.211,2.211,0,0,0,3.129,0,2.213,2.213,0,0,0,0-3.13,2.214,2.214,0,0,0-3.129,0A2.214,2.214,0,0,0,84.973-99.492Z" fill="#f6fbd1"/>
            <path id="Trazado_599846" data-name="Trazado 599846" d="M72.978-87.5a2.213,2.213,0,0,0,3.13,0,2.216,2.216,0,0,0,0-3.13,2.214,2.214,0,0,0-3.13,0A2.214,2.214,0,0,0,72.978-87.5Z" fill="#f6fbd1"/>
            <path id="Trazado_599847" data-name="Trazado 599847" d="M60.983-75.5a2.211,2.211,0,0,0,3.129,0,2.212,2.212,0,0,0,0-3.128,2.211,2.211,0,0,0-3.129,0A2.21,2.21,0,0,0,60.983-75.5Z" fill="#f6fbd1"/>
            <path id="Trazado_599848" data-name="Trazado 599848" d="M48.987-63.506a2.214,2.214,0,0,0,3.129,0,2.213,2.213,0,0,0,0-3.129,2.212,2.212,0,0,0-3.129,0A2.211,2.211,0,0,0,48.987-63.506Z" fill="#f6fbd1"/>
            <path id="Trazado_599849" data-name="Trazado 599849" d="M36.992-51.51a2.215,2.215,0,0,0,3.13,0,2.216,2.216,0,0,0,0-3.13,2.214,2.214,0,0,0-3.13,0A2.212,2.212,0,0,0,36.992-51.51Z" fill="#f6fbd1"/>
            <path id="Trazado_599850" data-name="Trazado 599850" d="M25-39.514a2.217,2.217,0,0,0,3.13,0,2.215,2.215,0,0,0,0-3.131,2.215,2.215,0,0,0-3.13,0A2.214,2.214,0,0,0,25-39.514Z" fill="#f6fbd1"/>
            <path id="Trazado_599851" data-name="Trazado 599851" d="M13-27.519a2.215,2.215,0,0,0,3.13,0,2.213,2.213,0,0,0,0-3.129,2.214,2.214,0,0,0-3.128,0A2.215,2.215,0,0,0,13-27.519Z" fill="#f6fbd1"/>
            <path id="Trazado_599852" data-name="Trazado 599852" d="M1-15.524a2.216,2.216,0,0,0,3.13,0,2.215,2.215,0,0,0,0-3.13,2.215,2.215,0,0,0-3.13,0A2.214,2.214,0,0,0,1-15.524Z" fill="#f6fbd1"/>
          </g>
          <g id="Grupo_878003" data-name="Grupo 878003">
            <path id="Trazado_599853" data-name="Trazado 599853" d="M132.956-123.482a2.213,2.213,0,0,0,3.128,0,2.213,2.213,0,0,0,0-3.13,2.212,2.212,0,0,0-3.128,0A2.211,2.211,0,0,0,132.956-123.482Z" fill="#f6fbd1"/>
            <path id="Trazado_599854" data-name="Trazado 599854" d="M120.959-111.487a2.214,2.214,0,0,0,3.13,0,2.213,2.213,0,0,0,0-3.13,2.215,2.215,0,0,0-3.13,0A2.215,2.215,0,0,0,120.959-111.487Z" fill="#f6fbd1"/>
            <path id="Trazado_599855" data-name="Trazado 599855" d="M108.963-99.491a2.214,2.214,0,0,0,3.131,0,2.215,2.215,0,0,0,0-3.13,2.214,2.214,0,0,0-3.129,0A2.216,2.216,0,0,0,108.963-99.491Z" fill="#f6fbd1"/>
            <path id="Trazado_599856" data-name="Trazado 599856" d="M96.969-87.5a2.212,2.212,0,0,0,3.129,0,2.214,2.214,0,0,0,0-3.13,2.213,2.213,0,0,0-3.129,0A2.213,2.213,0,0,0,96.969-87.5Z" fill="#f6fbd1"/>
            <path id="Trazado_599857" data-name="Trazado 599857" d="M84.974-75.5a2.212,2.212,0,0,0,3.13,0,2.213,2.213,0,0,0,0-3.128,2.212,2.212,0,0,0-3.13,0A2.211,2.211,0,0,0,84.974-75.5Z" fill="#f6fbd1"/>
            <path id="Trazado_599858" data-name="Trazado 599858" d="M72.978-63.505a2.215,2.215,0,0,0,3.13,0,2.214,2.214,0,0,0,0-3.129,2.212,2.212,0,0,0-3.13,0A2.213,2.213,0,0,0,72.978-63.505Z" fill="#f6fbd1"/>
            <path id="Trazado_599859" data-name="Trazado 599859" d="M60.983-51.51a2.214,2.214,0,0,0,3.129,0,2.215,2.215,0,0,0,0-3.13,2.213,2.213,0,0,0-3.129,0A2.213,2.213,0,0,0,60.983-51.51Z" fill="#f6fbd1"/>
            <path id="Trazado_599860" data-name="Trazado 599860" d="M48.988-39.514a2.216,2.216,0,0,0,3.13,0,2.216,2.216,0,0,0,0-3.13,2.214,2.214,0,0,0-3.13,0A2.212,2.212,0,0,0,48.988-39.514Z" fill="#f6fbd1"/>
            <path id="Trazado_599861" data-name="Trazado 599861" d="M36.992-27.519a2.216,2.216,0,0,0,3.13,0,2.215,2.215,0,0,0,0-3.13,2.214,2.214,0,0,0-3.13,0A2.212,2.212,0,0,0,36.992-27.519Z" fill="#f6fbd1"/>
            <path id="Trazado_599862" data-name="Trazado 599862" d="M25-15.524a2.215,2.215,0,0,0,3.13,0,2.214,2.214,0,0,0,0-3.129,2.214,2.214,0,0,0-3.129,0A2.212,2.212,0,0,0,25-15.524Z" fill="#f6fbd1"/>
            <path id="Trazado_599863" data-name="Trazado 599863" d="M13-3.528a2.216,2.216,0,0,0,3.13,0,2.215,2.215,0,0,0,0-3.13,2.214,2.214,0,0,0-3.13,0A2.214,2.214,0,0,0,13-3.528Z" fill="#f6fbd1"/>
          </g>
          <g id="Grupo_878004" data-name="Grupo 878004">
            <path id="Trazado_599864" data-name="Trazado 599864" d="M144.95-111.488a2.213,2.213,0,0,0,3.13,0,2.214,2.214,0,0,0,0-3.13,2.215,2.215,0,0,0-3.13,0A2.213,2.213,0,0,0,144.95-111.488Z" fill="#f6fbd1"/>
            <path id="Trazado_599865" data-name="Trazado 599865" d="M132.955-99.493a2.21,2.21,0,0,0,3.129,0,2.212,2.212,0,0,0,0-3.13,2.214,2.214,0,0,0-3.129,0A2.212,2.212,0,0,0,132.955-99.493Z" fill="#f6fbd1"/>
            <path id="Trazado_599866" data-name="Trazado 599866" d="M120.958-87.5a2.212,2.212,0,0,0,3.131,0,2.211,2.211,0,0,0,0-3.13,2.214,2.214,0,0,0-3.129,0A2.215,2.215,0,0,0,120.958-87.5Z" fill="#f6fbd1"/>
            <path id="Trazado_599867" data-name="Trazado 599867" d="M108.963-75.5a2.211,2.211,0,0,0,3.13,0,2.211,2.211,0,0,0,0-3.129,2.212,2.212,0,0,0-3.129,0A2.213,2.213,0,0,0,108.963-75.5Z" fill="#f6fbd1"/>
            <path id="Trazado_599868" data-name="Trazado 599868" d="M96.969-63.506a2.213,2.213,0,0,0,3.13,0,2.213,2.213,0,0,0,0-3.13,2.214,2.214,0,0,0-3.129,0A2.214,2.214,0,0,0,96.969-63.506Z" fill="#f6fbd1"/>
            <path id="Trazado_599869" data-name="Trazado 599869" d="M84.973-51.51a2.214,2.214,0,0,0,3.13,0,2.213,2.213,0,0,0,0-3.13,2.214,2.214,0,0,0-3.129,0A2.215,2.215,0,0,0,84.973-51.51Z" fill="#f6fbd1"/>
            <path id="Trazado_599870" data-name="Trazado 599870" d="M72.977-39.515a2.215,2.215,0,0,0,3.13,0,2.213,2.213,0,0,0,0-3.13,2.214,2.214,0,0,0-3.129,0A2.214,2.214,0,0,0,72.977-39.515Z" fill="#f6fbd1"/>
            <path id="Trazado_599871" data-name="Trazado 599871" d="M60.983-27.52a2.213,2.213,0,0,0,3.129,0,2.215,2.215,0,0,0,0-3.131,2.215,2.215,0,0,0-3.129,0A2.214,2.214,0,0,0,60.983-27.52Z" fill="#f6fbd1"/>
            <path id="Trazado_599872" data-name="Trazado 599872" d="M48.987-15.524a2.215,2.215,0,0,0,3.13,0,2.215,2.215,0,0,0,0-3.131,2.216,2.216,0,0,0-3.13,0A2.214,2.214,0,0,0,48.987-15.524Z" fill="#f6fbd1"/>
            <path id="Trazado_599873" data-name="Trazado 599873" d="M36.991-3.529a2.215,2.215,0,0,0,3.131,0,2.215,2.215,0,0,0,0-3.13,2.214,2.214,0,0,0-3.129,0A2.213,2.213,0,0,0,36.991-3.529Z" fill="#f6fbd1"/>
            <path id="Trazado_599874" data-name="Trazado 599874" d="M25,8.466a2.213,2.213,0,1,0,0-3.129A2.211,2.211,0,0,0,25,8.466Z" fill="#f6fbd1"/>
          </g>
          <g id="Grupo_878005" data-name="Grupo 878005">
            <path id="Trazado_599875" data-name="Trazado 599875" d="M156.946-99.492a2.212,2.212,0,0,0,3.13,0,2.216,2.216,0,0,0,0-3.13,2.215,2.215,0,0,0-3.13,0A2.212,2.212,0,0,0,156.946-99.492Z" fill="#f6fbd1"/>
            <path id="Trazado_599876" data-name="Trazado 599876" d="M144.951-87.5a2.211,2.211,0,0,0,3.129,0,2.213,2.213,0,0,0,0-3.129,2.212,2.212,0,0,0-3.129,0A2.211,2.211,0,0,0,144.951-87.5Z" fill="#f6fbd1"/>
            <path id="Trazado_599877" data-name="Trazado 599877" d="M132.955-75.5a2.211,2.211,0,0,0,3.129,0,2.21,2.21,0,0,0,0-3.128,2.21,2.21,0,0,0-3.128,0A2.211,2.211,0,0,0,132.955-75.5Z" fill="#f6fbd1"/>
            <path id="Trazado_599878" data-name="Trazado 599878" d="M120.959-63.505a2.213,2.213,0,0,0,3.129,0,2.21,2.21,0,0,0,0-3.129,2.211,2.211,0,0,0-3.129,0A2.212,2.212,0,0,0,120.959-63.505Z" fill="#f6fbd1"/>
            <path id="Trazado_599879" data-name="Trazado 599879" d="M108.965-51.51a2.214,2.214,0,0,0,3.129,0,2.214,2.214,0,0,0,0-3.13,2.213,2.213,0,0,0-3.129,0A2.212,2.212,0,0,0,108.965-51.51Z" fill="#f6fbd1"/>
            <path id="Trazado_599880" data-name="Trazado 599880" d="M96.969-39.514a2.214,2.214,0,0,0,3.129,0,2.214,2.214,0,0,0,0-3.13,2.213,2.213,0,0,0-3.129,0A2.213,2.213,0,0,0,96.969-39.514Z" fill="#f6fbd1"/>
            <path id="Trazado_599881" data-name="Trazado 599881" d="M84.973-27.519a2.214,2.214,0,0,0,3.129,0,2.212,2.212,0,0,0,0-3.129,2.213,2.213,0,0,0-3.129,0A2.214,2.214,0,0,0,84.973-27.519Z" fill="#f6fbd1"/>
            <path id="Trazado_599882" data-name="Trazado 599882" d="M72.978-15.524a2.215,2.215,0,0,0,3.13,0,2.216,2.216,0,0,0,0-3.13,2.215,2.215,0,0,0-3.13,0A2.214,2.214,0,0,0,72.978-15.524Z" fill="#f6fbd1"/>
            <path id="Trazado_599883" data-name="Trazado 599883" d="M60.983-3.528a2.214,2.214,0,0,0,3.129,0,2.215,2.215,0,0,0,0-3.131,2.213,2.213,0,0,0-3.129,0A2.214,2.214,0,0,0,60.983-3.528Z" fill="#f6fbd1"/>
            <path id="Trazado_599884" data-name="Trazado 599884" d="M48.987,8.467a2.213,2.213,0,1,0,0-3.13A2.212,2.212,0,0,0,48.987,8.467Z" fill="#f6fbd1"/>
            <path id="Trazado_599885" data-name="Trazado 599885" d="M36.992,20.462a2.213,2.213,0,1,0,0-3.129A2.212,2.212,0,0,0,36.992,20.462Z" fill="#f6fbd1"/>
          </g>
          <g id="Grupo_878006" data-name="Grupo 878006">
            <path id="Trazado_599886" data-name="Trazado 599886" d="M168.941-87.5a2.212,2.212,0,0,0,3.13,0,2.214,2.214,0,0,0,0-3.129,2.214,2.214,0,0,0-3.13,0A2.213,2.213,0,0,0,168.941-87.5Z" fill="#f6fbd1"/>
            <path id="Trazado_599887" data-name="Trazado 599887" d="M156.946-75.5a2.212,2.212,0,0,0,3.13,0,2.213,2.213,0,0,0,0-3.128,2.212,2.212,0,0,0-3.13,0A2.21,2.21,0,0,0,156.946-75.5Z" fill="#f6fbd1"/>
            <path id="Trazado_599888" data-name="Trazado 599888" d="M144.95-63.505a2.214,2.214,0,0,0,3.13,0,2.213,2.213,0,0,0,0-3.129,2.213,2.213,0,0,0-3.129,0A2.213,2.213,0,0,0,144.95-63.505Z" fill="#f6fbd1"/>
            <path id="Trazado_599889" data-name="Trazado 599889" d="M132.955-51.51a2.213,2.213,0,0,0,3.129,0,2.212,2.212,0,0,0,0-3.129,2.212,2.212,0,0,0-3.129,0A2.211,2.211,0,0,0,132.955-51.51Z" fill="#f6fbd1"/>
            <path id="Trazado_599890" data-name="Trazado 599890" d="M120.959-39.515a2.215,2.215,0,0,0,3.13,0,2.212,2.212,0,0,0,0-3.13,2.216,2.216,0,0,0-3.13,0A2.215,2.215,0,0,0,120.959-39.515Z" fill="#f6fbd1"/>
            <path id="Trazado_599891" data-name="Trazado 599891" d="M108.963-27.519a2.216,2.216,0,0,0,3.13,0,2.213,2.213,0,0,0,0-3.13,2.215,2.215,0,0,0-3.13,0A2.216,2.216,0,0,0,108.963-27.519Z" fill="#f6fbd1"/>
            <path id="Trazado_599892" data-name="Trazado 599892" d="M96.969-15.524a2.214,2.214,0,0,0,3.129,0,2.214,2.214,0,0,0,0-3.129,2.214,2.214,0,0,0-3.13,0A2.214,2.214,0,0,0,96.969-15.524Z" fill="#f6fbd1"/>
            <path id="Trazado_599893" data-name="Trazado 599893" d="M84.973-3.529a2.214,2.214,0,0,0,3.13,0,2.214,2.214,0,0,0,0-3.13,2.216,2.216,0,0,0-3.13,0A2.215,2.215,0,0,0,84.973-3.529Z" fill="#f6fbd1"/>
            <path id="Trazado_599894" data-name="Trazado 599894" d="M72.977,8.467a2.214,2.214,0,1,0,0-3.13A2.213,2.213,0,0,0,72.977,8.467Z" fill="#f6fbd1"/>
            <path id="Trazado_599895" data-name="Trazado 599895" d="M60.983,20.462a2.213,2.213,0,1,0,0-3.129A2.21,2.21,0,0,0,60.983,20.462Z" fill="#f6fbd1"/>
            <path id="Trazado_599896" data-name="Trazado 599896" d="M48.987,32.458a2.213,2.213,0,1,0,0-3.13A2.214,2.214,0,0,0,48.987,32.458Z" fill="#f6fbd1"/>
          </g>
          <g id="Grupo_878007" data-name="Grupo 878007">
            <circle id="Elipse_7525" data-name="Elipse 7525" cx="2.213" cy="2.213" r="2.213" transform="translate(180.288 -79.279)" fill="#f6fbd1"/>
            <path id="Trazado_599897" data-name="Trazado 599897" d="M168.941-63.506a2.214,2.214,0,0,0,3.13,0,2.214,2.214,0,0,0,0-3.129,2.214,2.214,0,0,0-3.13,0A2.213,2.213,0,0,0,168.941-63.506Z" fill="#f6fbd1"/>
            <path id="Trazado_599898" data-name="Trazado 599898" d="M156.945-51.51a2.216,2.216,0,0,0,3.131,0,2.216,2.216,0,0,0,0-3.13,2.214,2.214,0,0,0-3.13,0A2.213,2.213,0,0,0,156.945-51.51Z" fill="#f6fbd1"/>
            <path id="Trazado_599899" data-name="Trazado 599899" d="M144.95-39.514a2.216,2.216,0,0,0,3.13,0,2.215,2.215,0,0,0,0-3.13,2.214,2.214,0,0,0-3.13,0A2.214,2.214,0,0,0,144.95-39.514Z" fill="#f6fbd1"/>
            <path id="Trazado_599900" data-name="Trazado 599900" d="M132.956-27.52a2.211,2.211,0,0,0,3.128,0,2.212,2.212,0,0,0,0-3.13,2.213,2.213,0,0,0-3.128,0A2.211,2.211,0,0,0,132.956-27.52Z" fill="#f6fbd1"/>
            <path id="Trazado_599901" data-name="Trazado 599901" d="M120.959-15.524a2.214,2.214,0,0,0,3.129,0,2.211,2.211,0,0,0,0-3.13,2.214,2.214,0,0,0-3.129,0A2.214,2.214,0,0,0,120.959-15.524Z" fill="#f6fbd1"/>
            <path id="Trazado_599902" data-name="Trazado 599902" d="M108.963-3.529a2.214,2.214,0,0,0,3.129,0,2.213,2.213,0,0,0,0-3.13,2.213,2.213,0,0,0-3.129,0A2.214,2.214,0,0,0,108.963-3.529Z" fill="#f6fbd1"/>
            <path id="Trazado_599903" data-name="Trazado 599903" d="M96.969,8.466a2.213,2.213,0,1,0,0-3.129A2.21,2.21,0,0,0,96.969,8.466Z" fill="#f6fbd1"/>
            <path id="Trazado_599904" data-name="Trazado 599904" d="M84.973,20.462a2.213,2.213,0,1,0,0-3.129A2.212,2.212,0,0,0,84.973,20.462Z" fill="#f6fbd1"/>
            <path id="Trazado_599905" data-name="Trazado 599905" d="M72.977,32.458a2.213,2.213,0,1,0,0-3.13A2.214,2.214,0,0,0,72.977,32.458Z" fill="#f6fbd1"/>
            <path id="Trazado_599906" data-name="Trazado 599906" d="M60.983,44.453a2.213,2.213,0,1,0,0-3.129A2.213,2.213,0,0,0,60.983,44.453Z" fill="#f6fbd1"/>
          </g>
          <g id="Grupo_878008" data-name="Grupo 878008">
            <path id="Trazado_599907" data-name="Trazado 599907" d="M192.932-63.505a2.214,2.214,0,0,0,3.13,0,2.214,2.214,0,0,0,0-3.129,2.213,2.213,0,0,0-3.13,0A2.214,2.214,0,0,0,192.932-63.505Z" fill="#f6fbd1"/>
            <path id="Trazado_599908" data-name="Trazado 599908" d="M180.937-51.51a2.214,2.214,0,0,0,3.13,0,2.214,2.214,0,0,0,0-3.129,2.213,2.213,0,0,0-3.13,0A2.213,2.213,0,0,0,180.937-51.51Z" fill="#f6fbd1"/>
            <path id="Trazado_599909" data-name="Trazado 599909" d="M168.941-39.514a2.215,2.215,0,0,0,3.13,0,2.214,2.214,0,0,0,0-3.13,2.213,2.213,0,0,0-3.129,0A2.214,2.214,0,0,0,168.941-39.514Z" fill="#f6fbd1"/>
            <path id="Trazado_599910" data-name="Trazado 599910" d="M156.946-27.519a2.214,2.214,0,0,0,3.13,0,2.214,2.214,0,0,0,0-3.129,2.214,2.214,0,0,0-3.13,0A2.211,2.211,0,0,0,156.946-27.519Z" fill="#f6fbd1"/>
            <path id="Trazado_599911" data-name="Trazado 599911" d="M144.952-15.524a2.214,2.214,0,0,0,3.129,0,2.214,2.214,0,0,0,0-3.13,2.214,2.214,0,0,0-3.129,0A2.21,2.21,0,0,0,144.952-15.524Z" fill="#f6fbd1"/>
            <circle id="Elipse_7526" data-name="Elipse 7526" cx="2.213" cy="2.213" r="2.213" transform="translate(132.307 -7.306)" fill="#f6fbd1"/>
            <path id="Trazado_599912" data-name="Trazado 599912" d="M120.959,8.467a2.213,2.213,0,1,0,0-3.129A2.212,2.212,0,0,0,120.959,8.467Z" fill="#f6fbd1"/>
            <path id="Trazado_599913" data-name="Trazado 599913" d="M108.965,20.462a2.213,2.213,0,1,0,0-3.129A2.211,2.211,0,0,0,108.965,20.462Z" fill="#f6fbd1"/>
            <path id="Trazado_599914" data-name="Trazado 599914" d="M96.969,32.458a2.213,2.213,0,1,0,0-3.129A2.213,2.213,0,0,0,96.969,32.458Z" fill="#f6fbd1"/>
            <path id="Trazado_599915" data-name="Trazado 599915" d="M84.973,44.454a2.213,2.213,0,1,0,0-3.13A2.214,2.214,0,0,0,84.973,44.454Z" fill="#f6fbd1"/>
            <circle id="Elipse_7527" data-name="Elipse 7527" cx="2.213" cy="2.213" r="2.213" transform="translate(72.33 52.671)" fill="#f6fbd1"/>
          </g>
          <g id="Grupo_878009" data-name="Grupo 878009">
            <path id="Trazado_599916" data-name="Trazado 599916" d="M204.927-51.51a2.214,2.214,0,0,0,3.129,0,2.214,2.214,0,0,0,0-3.129,2.213,2.213,0,0,0-3.13,0A2.214,2.214,0,0,0,204.927-51.51Z" fill="#f6fbd1"/>
            <path id="Trazado_599917" data-name="Trazado 599917" d="M192.932-39.514a2.214,2.214,0,0,0,3.129,0,2.214,2.214,0,0,0,0-3.129,2.214,2.214,0,0,0-3.13,0A2.215,2.215,0,0,0,192.932-39.514Z" fill="#f6fbd1"/>
            <path id="Trazado_599918" data-name="Trazado 599918" d="M180.936-27.519a2.214,2.214,0,0,0,3.13,0,2.214,2.214,0,0,0,0-3.129,2.215,2.215,0,0,0-3.13,0A2.214,2.214,0,0,0,180.936-27.519Z" fill="#f6fbd1"/>
            <path id="Trazado_599919" data-name="Trazado 599919" d="M168.941-15.524a2.214,2.214,0,0,0,3.129,0,2.214,2.214,0,0,0,0-3.129,2.214,2.214,0,0,0-3.13,0A2.213,2.213,0,0,0,168.941-15.524Z" fill="#f6fbd1"/>
            <path id="Trazado_599920" data-name="Trazado 599920" d="M156.947-3.529a2.212,2.212,0,0,0,3.129,0,2.214,2.214,0,0,0,0-3.129,2.214,2.214,0,0,0-3.129,0A2.21,2.21,0,0,0,156.947-3.529Z" fill="#f6fbd1"/>
            <path id="Trazado_599921" data-name="Trazado 599921" d="M144.951,8.467a2.213,2.213,0,1,0,0-3.13A2.211,2.211,0,0,0,144.951,8.467Z" fill="#f6fbd1"/>
            <path id="Trazado_599922" data-name="Trazado 599922" d="M132.956,20.462a2.212,2.212,0,1,0,0-3.129A2.209,2.209,0,0,0,132.956,20.462Z" fill="#f6fbd1"/>
            <path id="Trazado_599923" data-name="Trazado 599923" d="M120.959,32.458a2.213,2.213,0,1,0,0-3.13A2.212,2.212,0,0,0,120.959,32.458Z" fill="#f6fbd1"/>
            <path id="Trazado_599924" data-name="Trazado 599924" d="M108.963,44.454a2.214,2.214,0,1,0,0-3.13A2.214,2.214,0,0,0,108.963,44.454Z" fill="#f6fbd1"/>
            <path id="Trazado_599925" data-name="Trazado 599925" d="M96.969,56.449a2.213,2.213,0,1,0,0-3.13A2.213,2.213,0,0,0,96.969,56.449Z" fill="#f6fbd1"/>
            <path id="Trazado_599926" data-name="Trazado 599926" d="M84.973,68.444a2.213,2.213,0,1,0,0-3.129A2.214,2.214,0,0,0,84.973,68.444Z" fill="#f6fbd1"/>
          </g>
          <g id="Grupo_878010" data-name="Grupo 878010">
            <path id="Trazado_599927" data-name="Trazado 599927" d="M216.922-39.514a2.216,2.216,0,0,0,3.13,0,2.214,2.214,0,0,0,0-3.13,2.214,2.214,0,0,0-3.13,0A2.215,2.215,0,0,0,216.922-39.514Z" fill="#f6fbd1"/>
            <path id="Trazado_599928" data-name="Trazado 599928" d="M204.927-27.519a2.216,2.216,0,0,0,3.13,0,2.216,2.216,0,0,0,0-3.13,2.215,2.215,0,0,0-3.13,0A2.215,2.215,0,0,0,204.927-27.519Z" fill="#f6fbd1"/>
            <path id="Trazado_599929" data-name="Trazado 599929" d="M192.931-15.524a2.216,2.216,0,0,0,3.131,0,2.216,2.216,0,0,0,0-3.13,2.215,2.215,0,0,0-3.13,0A2.215,2.215,0,0,0,192.931-15.524Z" fill="#f6fbd1"/>
            <path id="Trazado_599930" data-name="Trazado 599930" d="M180.936-3.528a2.216,2.216,0,0,0,3.13,0,2.215,2.215,0,0,0,0-3.13,2.214,2.214,0,0,0-3.13,0A2.215,2.215,0,0,0,180.936-3.528Z" fill="#f6fbd1"/>
            <path id="Trazado_599931" data-name="Trazado 599931" d="M168.942,8.466a2.213,2.213,0,1,0,0-3.129A2.21,2.21,0,0,0,168.942,8.466Z" fill="#f6fbd1"/>
            <path id="Trazado_599932" data-name="Trazado 599932" d="M156.946,20.462a2.213,2.213,0,1,0,0-3.129A2.212,2.212,0,0,0,156.946,20.462Z" fill="#f6fbd1"/>
            <path id="Trazado_599933" data-name="Trazado 599933" d="M144.951,32.458a2.213,2.213,0,1,0,0-3.129A2.213,2.213,0,0,0,144.951,32.458Z" fill="#f6fbd1"/>
            <circle id="Elipse_7528" data-name="Elipse 7528" cx="2.212" cy="2.212" r="2.212" transform="translate(132.308 40.676)" fill="#f6fbd1"/>
            <path id="Trazado_599934" data-name="Trazado 599934" d="M120.959,56.449a2.213,2.213,0,1,0,0-3.129A2.214,2.214,0,0,0,120.959,56.449Z" fill="#f6fbd1"/>
            <path id="Trazado_599935" data-name="Trazado 599935" d="M108.963,68.444a2.213,2.213,0,1,0,0-3.13A2.215,2.215,0,0,0,108.963,68.444Z" fill="#f6fbd1"/>
            <path id="Trazado_599936" data-name="Trazado 599936" d="M96.969,80.439a2.213,2.213,0,1,0,0-3.129A2.213,2.213,0,0,0,96.969,80.439Z" fill="#f6fbd1"/>
          </g>
          <g id="Grupo_878011" data-name="Grupo 878011">
            <circle id="Elipse_7529" data-name="Elipse 7529" cx="2.213" cy="2.213" r="2.213" transform="translate(228.27 -31.297)" fill="#f6fbd1"/>
            <path id="Trazado_599937" data-name="Trazado 599937" d="M216.922-15.524a2.216,2.216,0,0,0,3.13,0,2.214,2.214,0,0,0,0-3.13,2.216,2.216,0,0,0-3.13,0A2.216,2.216,0,0,0,216.922-15.524Z" fill="#f6fbd1"/>
            <path id="Trazado_599938" data-name="Trazado 599938" d="M204.927-3.528a2.215,2.215,0,0,0,3.13,0,2.216,2.216,0,0,0,0-3.13,2.216,2.216,0,0,0-3.13,0A2.216,2.216,0,0,0,204.927-3.528Z" fill="#f6fbd1"/>
            <path id="Trazado_599939" data-name="Trazado 599939" d="M192.931,8.467a2.213,2.213,0,1,0,0-3.13A2.212,2.212,0,0,0,192.931,8.467Z" fill="#f6fbd1"/>
            <path id="Trazado_599940" data-name="Trazado 599940" d="M180.937,20.461a2.213,2.213,0,1,0,0-3.128A2.211,2.211,0,0,0,180.937,20.461Z" fill="#f6fbd1"/>
            <path id="Trazado_599941" data-name="Trazado 599941" d="M168.941,32.458a2.213,2.213,0,1,0,0-3.13A2.214,2.214,0,0,0,168.941,32.458Z" fill="#f6fbd1"/>
            <path id="Trazado_599942" data-name="Trazado 599942" d="M156.946,44.453a2.213,2.213,0,1,0,0-3.129A2.214,2.214,0,0,0,156.946,44.453Z" fill="#f6fbd1"/>
            <path id="Trazado_599943" data-name="Trazado 599943" d="M144.951,56.449a2.213,2.213,0,1,0,0-3.13A2.214,2.214,0,0,0,144.951,56.449Z" fill="#f6fbd1"/>
            <path id="Trazado_599944" data-name="Trazado 599944" d="M132.955,68.444a2.213,2.213,0,1,0,0-3.129A2.214,2.214,0,0,0,132.955,68.444Z" fill="#f6fbd1"/>
            <path id="Trazado_599945" data-name="Trazado 599945" d="M120.959,80.439a2.213,2.213,0,1,0,0-3.13A2.214,2.214,0,0,0,120.959,80.439Z" fill="#f6fbd1"/>
            <path id="Trazado_599946" data-name="Trazado 599946" d="M108.963,92.435a2.213,2.213,0,1,0,0-3.13A2.216,2.216,0,0,0,108.963,92.435Z" fill="#f6fbd1"/>
          </g>
          <g id="Grupo_878012" data-name="Grupo 878012">
            <path id="Trazado_599947" data-name="Trazado 599947" d="M240.914-15.524a2.213,2.213,0,0,0,3.128,0,2.212,2.212,0,0,0,0-3.13,2.212,2.212,0,0,0-3.128,0A2.212,2.212,0,0,0,240.914-15.524Z" fill="#f6fbd1"/>
            <path id="Trazado_599948" data-name="Trazado 599948" d="M228.918-3.529a2.213,2.213,0,0,0,3.129,0,2.212,2.212,0,0,0,0-3.13,2.214,2.214,0,0,0-3.129,0A2.214,2.214,0,0,0,228.918-3.529Z" fill="#f6fbd1"/>
            <path id="Trazado_599949" data-name="Trazado 599949" d="M216.922,8.467a2.213,2.213,0,1,0,0-3.13A2.212,2.212,0,0,0,216.922,8.467Z" fill="#f6fbd1"/>
            <path id="Trazado_599950" data-name="Trazado 599950" d="M204.927,20.462a2.213,2.213,0,1,0,0-3.129A2.211,2.211,0,0,0,204.927,20.462Z" fill="#f6fbd1"/>
            <path id="Trazado_599951" data-name="Trazado 599951" d="M192.932,32.457a2.213,2.213,0,1,0,0-3.129A2.213,2.213,0,0,0,192.932,32.457Z" fill="#f6fbd1"/>
            <path id="Trazado_599952" data-name="Trazado 599952" d="M180.936,44.453a2.213,2.213,0,1,0,0-3.129A2.214,2.214,0,0,0,180.936,44.453Z" fill="#f6fbd1"/>
            <path id="Trazado_599953" data-name="Trazado 599953" d="M168.941,56.449a2.213,2.213,0,1,0,0-3.129A2.214,2.214,0,0,0,168.941,56.449Z" fill="#f6fbd1"/>
            <path id="Trazado_599954" data-name="Trazado 599954" d="M156.946,68.444a2.213,2.213,0,1,0,0-3.129A2.215,2.215,0,0,0,156.946,68.444Z" fill="#f6fbd1"/>
            <path id="Trazado_599955" data-name="Trazado 599955" d="M144.95,80.439a2.213,2.213,0,1,0,0-3.128A2.215,2.215,0,0,0,144.95,80.439Z" fill="#f6fbd1"/>
            <path id="Trazado_599956" data-name="Trazado 599956" d="M132.955,92.435a2.213,2.213,0,1,0,0-3.13A2.214,2.214,0,0,0,132.955,92.435Z" fill="#f6fbd1"/>
            <path id="Trazado_599957" data-name="Trazado 599957" d="M120.959,104.43a2.213,2.213,0,1,0,0-3.129A2.214,2.214,0,0,0,120.959,104.43Z" fill="#f6fbd1"/>
          </g>
        </g>
      </g>
    </g>
  </g>
</svg>
