<svg xmlns="http://www.w3.org/2000/svg" xmlns:xlink="http://www.w3.org/1999/xlink" width="100" height="100" viewBox="0 0 100 100">
  <defs>
    <clipPath id="clip-path">
      <rect id="Rectángulo_297905" data-name="Rectángulo 297905" width="100" height="100" fill="none"/>
    </clipPath>
  </defs>
  <g id="Grupo_879802" data-name="Grupo 879802" transform="translate(-593 -5808.301)">
    <g id="Grupo_878135" data-name="Grupo 878135" transform="translate(315 493.301)">
      <g id="Grupo_878131" data-name="Grupo 878131">
        <path id="Trazado_599981" data-name="Trazado 599981" d="M50,0A50,50,0,1,1,0,50,50,50,0,0,1,50,0Z" transform="translate(278 5315)" fill="#fcd03e"/>
      </g>
      <g id="Grupo_879798" data-name="Grupo 879798">
        <path id="Trazado_604008" data-name="Trazado 604008" d="M31.164,42h-6.6V20.984l-6.484,1.895v-5l12.48-4.316h.605Zm28.32-11.621q0,5.762-2.588,8.887A8.943,8.943,0,0,1,49.6,42.391a8.991,8.991,0,0,1-7.344-3.145q-2.6-3.145-2.6-8.867v-5.2q0-5.762,2.588-8.887a8.965,8.965,0,0,1,7.314-3.125,8.969,8.969,0,0,1,7.324,3.145q2.6,3.145,2.6,8.887ZM52.9,24.344a10.142,10.142,0,0,0-.8-4.58,2.677,2.677,0,0,0-2.539-1.514,2.613,2.613,0,0,0-2.471,1.406,9.555,9.555,0,0,0-.83,4.258V31.18a10.219,10.219,0,0,0,.8,4.658A2.687,2.687,0,0,0,49.6,37.313a2.651,2.651,0,0,0,2.48-1.436,9.756,9.756,0,0,0,.82-4.5Z" transform="translate(290 5339)" fill="#12263f" stroke="rgba(255,255,255,0)" stroke-width="3"/>
        <g id="Grupo_878133" data-name="Grupo 878133" transform="translate(278 5315)">
          <g id="Grupo_878132" data-name="Grupo 878132" clip-path="url(#clip-path)">
            <path id="Trazado_599979" data-name="Trazado 599979" d="M50.192,1A49.191,49.191,0,1,0,99.383,50.191,49.191,49.191,0,0,0,50.192,1m0,91.968a43,43,0,1,1,43-43,43,43,0,0,1-43,43" transform="translate(-0.191 -0.191)" fill="#fff"/>
            <path id="Trazado_599980" data-name="Trazado 599980" d="M50.192,1A49.191,49.191,0,1,0,99.383,50.191,49.191,49.191,0,0,0,50.192,1Zm0,91.968a43,43,0,1,1,43-43A43,43,0,0,1,50.189,92.968Z" transform="translate(-0.191 -0.191)" fill="none" stroke="#12263f" stroke-miterlimit="10" stroke-width="2"/>
          </g>
        </g>
      </g>
    </g>
  </g>
</svg>
