<svg xmlns="http://www.w3.org/2000/svg" width="1240" height="973" viewBox="0 0 1240 973">
  <g id="Grupo_879798" data-name="Grupo 879798" transform="translate(-180 -6749.218)">
    <path id="Rectángulo_298104" data-name="Rectángulo 298104" d="M0,0H990a250,250,0,0,1,250,250V973a0,0,0,0,1,0,0H0a0,0,0,0,1,0,0V0A0,0,0,0,1,0,0Z" transform="translate(180 6749.218)" fill="#fff7df"/>
    <g id="Grupo_878389" data-name="Grupo 878389" transform="translate(346 3978.593)">
      <path id="Trazado_121014" data-name="Trazado 121014" d="M405.2,292.224l-28.545,2.658,10.506,10.506-24.3,24.3a3.389,3.389,0,1,0,4.793,4.793l24.3-24.3,10.588,10.591Z" transform="translate(-506.863 3392.15)" fill="#529d2e"/>
      <path id="Trazado_121015" data-name="Trazado 121015" d="M663.961,258.188l-36.605,3.407,13.47,13.474-31.162,31.163a4.347,4.347,0,1,0,6.146,6.148l31.164-31.164,13.578,13.58Z" transform="translate(410.039 2621.127)" fill="#fc8116"/>
      <path id="Trazado_121016" data-name="Trazado 121016" d="M579.972,168.785l-26.787,2.494,9.859,9.859-22.805,22.805a3.18,3.18,0,1,0,4.5,4.5l22.805-22.8,9.936,9.938Z" transform="translate(324.694 2638.723)" fill="#fcd03e"/>
      <path id="Trazado_134072" data-name="Trazado 134072" d="M579.972,168.785l-26.787,2.494,9.859,9.859-22.805,22.805a3.18,3.18,0,1,0,4.5,4.5l22.805-22.8,9.936,9.938Z" transform="matrix(-0.996, -0.087, 0.087, -0.996, 1566.912, 3211.937)" fill="#fcd03e"/>
      <path id="Trazado_121017" data-name="Trazado 121017" d="M576.3,168.785l-24.368,2.269,8.969,8.969-20.746,20.746a2.893,2.893,0,1,0,4.092,4.092l20.746-20.745,9.039,9.04Z" transform="translate(-637.3 3515.588)" fill="#fcd03e"/>
      <path id="Trazado_134073" data-name="Trazado 134073" d="M586.306,168.785l-30.96,2.883,11.395,11.394L540.383,209.42a3.676,3.676,0,1,0,5.2,5.2l26.358-26.356,11.484,11.486Z" transform="translate(-667.306 3449.588)" fill="#b0c710"/>
    </g>
    <g id="Grupo_878128" data-name="Grupo 878128" transform="translate(0 571.949)">
      <rect id="Rectángulo_36509" data-name="Rectángulo 36509" width="295" height="65" rx="32.5" transform="translate(285 6656.75)" fill="#fcd03e"/>
      <rect id="Rectángulo_36510" data-name="Rectángulo 36510" width="190" height="65" rx="10" transform="translate(685 6375.139)" fill="#fdab64"/>
      <rect id="Rectángulo_297896" data-name="Rectángulo 297896" width="190" height="65" rx="10" transform="translate(1020 6375.139)" fill="#a4dc88"/>
      <rect id="Rectángulo_297900" data-name="Rectángulo 297900" width="190" height="65" rx="10" transform="translate(1020 6656.75)" fill="#a4dc88"/>
      <rect id="Rectángulo_297903" data-name="Rectángulo 297903" width="190" height="65" rx="10" transform="translate(1020 6938.361)" fill="#a4dc88"/>
      <rect id="Rectángulo_297897" data-name="Rectángulo 297897" width="190" height="65" rx="10" transform="translate(1020 6284.888)" fill="#a4dc88"/>
      <rect id="Rectángulo_297901" data-name="Rectángulo 297901" width="190" height="65" rx="10" transform="translate(1020 6566.5)" fill="#a4dc88"/>
      <rect id="Rectángulo_297904" data-name="Rectángulo 297904" width="190" height="65" rx="10" transform="translate(1020 6848.111)" fill="#a4dc88"/>
      <rect id="Rectángulo_297898" data-name="Rectángulo 297898" width="190" height="65" rx="10" transform="translate(1020 6465.389)" fill="#a4dc88"/>
      <rect id="Rectángulo_297899" data-name="Rectángulo 297899" width="190" height="65" rx="10" transform="translate(1020 6747)" fill="#a4dc88"/>
      <rect id="Rectángulo_297902" data-name="Rectángulo 297902" width="190" height="65" rx="10" transform="translate(1020 7028.612)" fill="#a4dc88"/>
      <rect id="Rectángulo_297894" data-name="Rectángulo 297894" width="190" height="65" rx="10" transform="translate(685 6656.75)" fill="#fdab64"/>
      <rect id="Rectángulo_297895" data-name="Rectángulo 297895" width="190" height="65" rx="10" transform="translate(685 6938.361)" fill="#fdab64"/>
      <text id="Tipos_de_parámetros" data-name="Tipos de parámetros" transform="translate(436.332 6695.75)" fill="#12263f" font-size="18" font-family="Roboto-Black, Roboto" font-weight="800"><tspan x="-84.01" y="0">Tipos de parámetros</tspan></text>
      <text id="Centralización" transform="translate(780 6414.139)" fill="#12263f" font-size="16" font-family="Roboto-Bold, Roboto" font-weight="700"><tspan x="-51.73" y="0">Centralización</tspan></text>
      <text id="Mediana" transform="translate(1115 6414.139)" fill="#12263f" font-size="16" font-family="Roboto-Regular, Roboto"><tspan x="-30.793" y="0">Mediana</tspan></text>
      <text id="Déciles" transform="translate(1115 6695.75)" fill="#12263f" font-size="16" font-family="Roboto-Regular, Roboto"><tspan x="-25.918" y="0">Déciles</tspan></text>
      <text id="Desviación_media" data-name="Desviación media" transform="translate(1115 6977.361)" fill="#12263f" font-size="16" font-family="Roboto-Regular, Roboto"><tspan x="-62.918" y="0">Desviación media</tspan></text>
      <text id="Media_aritmética" data-name="Media aritmética" transform="translate(1115 6323.888)" fill="#12263f" font-size="16" font-family="Roboto-Regular, Roboto"><tspan x="-59.965" y="0">Media aritmética</tspan></text>
      <text id="Cuártiles" transform="translate(1115 6605.5)" fill="#12263f" font-size="16" font-family="Roboto-Regular, Roboto"><tspan x="-31.73" y="0">Cuártiles</tspan></text>
      <text id="Rango_o_recorrido" data-name="Rango o recorrido" transform="translate(1115 6887.111)" fill="#12263f" font-size="16" font-family="Roboto-Regular, Roboto"><tspan x="-63.391" y="0">Rango o recorrido</tspan></text>
      <text id="Moda" transform="translate(1115 6504.389)" fill="#12263f" font-size="16" font-family="Roboto-Regular, Roboto"><tspan x="-20.41" y="0">Moda</tspan></text>
      <text id="Percentiles" transform="translate(1115 6786)" fill="#12263f" font-size="16" font-family="Roboto-Regular, Roboto"><tspan x="-39.617" y="0">Percentiles</tspan></text>
      <text id="Varianza" transform="translate(1115 7067.612)" fill="#12263f" font-size="16" font-family="Roboto-Regular, Roboto"><tspan x="-30.992" y="0">Varianza</tspan></text>
      <text id="Posición" transform="translate(780 6695.75)" fill="#12263f" font-size="16" font-family="Roboto-Bold, Roboto" font-weight="700"><tspan x="-31.164" y="0">Posición</tspan></text>
      <text id="Dispersión" transform="translate(780 6977.361)" fill="#12263f" font-size="16" font-family="Roboto-Bold, Roboto" font-weight="700"><tspan x="-38.418" y="0">Dispersión</tspan></text>
      <path id="Trazado_599968" data-name="Trazado 599968" d="M-3847-5061h105" transform="translate(4427 11750.25)" fill="none" stroke="#16263d" stroke-width="3"/>
      <path id="Trazado_599973" data-name="Trazado 599973" d="M-3847-5061h145" transform="translate(4722 11750.25)" fill="none" stroke="#16263d" stroke-width="3"/>
      <path id="Trazado_599974" data-name="Trazado 599974" d="M-3847-5061h145" transform="translate(4722 11468.25)" fill="none" stroke="#16263d" stroke-width="3"/>
      <path id="Trazado_599975" data-name="Trazado 599975" d="M-3847-5061h145" transform="translate(4722 12032.25)" fill="none" stroke="#16263d" stroke-width="3"/>
      <path id="Trazado_599969" data-name="Trazado 599969" d="M-3283.777-5103.5v52.5H-3847v-52.5" transform="translate(-4418.499 10254.639) rotate(90)" fill="none" stroke="#16263d" stroke-width="3"/>
      <path id="Trazado_599976" data-name="Trazado 599976" d="M-3666.5-5103.5v72.5H-3847v-72.5" transform="translate(-4083.5 10164.389) rotate(90)" fill="none" stroke="#16263d" stroke-width="3"/>
      <path id="Trazado_599977" data-name="Trazado 599977" d="M-3666.5-5103.5v72.5H-3847v-72.5" transform="translate(-4083.5 10446) rotate(90)" fill="none" stroke="#16263d" stroke-width="3"/>
      <path id="Trazado_599978" data-name="Trazado 599978" d="M-3666.5-5103.5v72.5H-3847v-72.5" transform="translate(-4083.5 10728) rotate(90)" fill="none" stroke="#16263d" stroke-width="3"/>
    </g>
  </g>
</svg>
