<svg xmlns="http://www.w3.org/2000/svg" xmlns:xlink="http://www.w3.org/1999/xlink" width="85" height="93" viewBox="0 0 85 93">
  <defs>
    <clipPath id="clip-path">
      <rect id="Rectángulo_37019" data-name="Rectángulo 37019" width="85" height="85" transform="translate(600 6283)" fill="#dbf049"/>
    </clipPath>
  </defs>
  <g id="Grupo_879803" data-name="Grupo 879803" transform="translate(-810 -2710.151)">
    <circle id="Elipse_5326" data-name="Elipse 5326" cx="42.5" cy="42.5" r="42.5" transform="translate(810 2710.151)" fill="#fcd03e"/>
    <g id="Enmascarar_grupo_157" data-name="Enmascarar grupo 157" transform="translate(210 -3564.849)" clip-path="url(#clip-path)">
      <g id="lista-de-verificacion_1_" data-name="lista-de-verificacion (1)" transform="translate(600.002 6283)">
        <path id="Trazado_140036" data-name="Trazado 140036" d="M5.645,1.66H61.426A3.985,3.985,0,0,1,65.41,5.645V79.355a3.985,3.985,0,0,1-3.984,3.984H5.645A3.985,3.985,0,0,1,1.66,79.355V5.645A3.985,3.985,0,0,1,5.645,1.66Zm0,0" fill="#79b2ff"/>
        <path id="Trazado_140037" data-name="Trazado 140037" d="M46.539,8.3H58.77V76.7H8.3V8.3h12.23" fill="#fff"/>
        <path id="Trazado_140038" data-name="Trazado 140038" d="M24.584,13.613h17.9a3.528,3.528,0,0,0,3.528-3.528V1.66H21.056v8.425A3.528,3.528,0,0,0,24.584,13.613Zm0,0" fill="#ff6977"/>
        <path id="Trazado_140039" data-name="Trazado 140039" d="M24.584,13.613h17.9a3.528,3.528,0,0,0,3.528-3.528V1.66H21.056v8.425A3.528,3.528,0,0,0,24.584,13.613Zm0,0" fill="#bdd9ff"/>
        <path id="Trazado_140040" data-name="Trazado 140040" d="M56.393,43.257,75.845,23.805a4.391,4.391,0,0,1,6.209,6.209L62.6,49.466,51.409,54.449Zm0,0" fill="#ffc15a"/>
        <path id="Trazado_140041" data-name="Trazado 140041" d="M62.6,49.466l-6.209-6.209L51.409,54.449Zm0,0" fill="#98a1b3"/>
        <path id="Trazado_140042" data-name="Trazado 140042" d="M79.919,32.149l2.135-2.135a4.391,4.391,0,0,0-6.209-6.209L73.71,25.939Zm0,0" fill="#ff6977"/>
        <path id="Trazado_140043" data-name="Trazado 140043" d="M16.27,21.582H26.895V32.207H16.27Zm0,0" fill="#cbe558"/>
        <path id="Trazado_140044" data-name="Trazado 140044" d="M16.27,39.844H26.895V50.469H16.27Zm0,0" fill="#cbe558"/>
        <path id="Trazado_140045" data-name="Trazado 140045" d="M16.27,58.105H26.895V68.73H16.27Zm0,0" fill="#ff6977"/>
        <path id="Trazado_140046" data-name="Trazado 140046" d="M33.535,75.039a1.661,1.661,0,1,0,1.174.486A1.673,1.673,0,0,0,33.535,75.039Zm0,0"/>
        <path id="Trazado_140047" data-name="Trazado 140047" d="M83.228,22.631a6.057,6.057,0,0,0-8.557,0l-7.6,7.6V5.644A5.651,5.651,0,0,0,61.426,0H5.644A5.651,5.651,0,0,0,0,5.644V79.355A5.651,5.651,0,0,0,5.644,85H61.426a5.651,5.651,0,0,0,5.645-5.645V47.346L83.228,31.188a6.057,6.057,0,0,0,0-8.557ZM63.75,5.645V33.552l-3.32,3.32V8.3a1.66,1.66,0,0,0-1.66-1.66h-11.1V3.32H61.426A2.327,2.327,0,0,1,63.75,5.645ZM54.685,51.174l2.241-5.035,2.794,2.794ZM44.354,3.32v6.765a1.87,1.87,0,0,1-1.868,1.868h-17.9a1.87,1.87,0,0,1-1.868-1.868V3.32ZM61.426,81.68H5.645A2.327,2.327,0,0,1,3.32,79.355V5.645A2.327,2.327,0,0,1,5.645,3.32H19.4v3.32H8.3A1.66,1.66,0,0,0,6.641,8.3V76.7a1.66,1.66,0,0,0,1.66,1.66H26.895a1.66,1.66,0,0,0,0-3.32H9.961V9.961H19.4v.125a5.194,5.194,0,0,0,5.188,5.188h17.9a5.194,5.194,0,0,0,5.188-5.188V9.961h9.435V40.193l-1.891,1.89a1.68,1.68,0,0,0-.342.5L49.893,53.774a1.661,1.661,0,0,0,2.192,2.193l5.025-2.237v21.31H40.176a1.66,1.66,0,0,0,0,3.32H58.77a1.66,1.66,0,0,0,1.66-1.66V52.251l2.848-1.268a1.655,1.655,0,0,0,.473-.319V79.355a2.327,2.327,0,0,1-2.324,2.324ZM74.692,35.028,62.6,47.119,58.74,43.257,73.71,28.287l3.862,3.862Zm6.188-6.187-.961.96L76.058,25.94l.96-.96a2.73,2.73,0,1,1,3.862,3.861Zm0,0"/>
        <path id="Trazado_140048" data-name="Trazado 140048" d="M26.895,19.922H16.27a1.66,1.66,0,0,0-1.66,1.66V32.207a1.66,1.66,0,0,0,1.66,1.66H26.895a1.66,1.66,0,0,0,1.66-1.66V21.582A1.66,1.66,0,0,0,26.895,19.922Zm-1.66,10.625h-7.3v-7.3h7.3Zm0,0"/>
        <path id="Trazado_140049" data-name="Trazado 140049" d="M26.895,38.184H16.27a1.66,1.66,0,0,0-1.66,1.66V50.469a1.66,1.66,0,0,0,1.66,1.66H26.895a1.66,1.66,0,0,0,1.66-1.66V39.844A1.66,1.66,0,0,0,26.895,38.184Zm-1.66,10.625h-7.3V41.5h7.3Zm0,0"/>
        <path id="Trazado_140050" data-name="Trazado 140050" d="M26.895,56.445H16.27a1.66,1.66,0,0,0-1.66,1.66V68.73a1.66,1.66,0,0,0,1.66,1.66H26.895a1.66,1.66,0,0,0,1.66-1.66V58.105A1.66,1.66,0,0,0,26.895,56.445ZM25.234,67.07h-7.3v-7.3h7.3Zm0,0"/>
        <path id="Trazado_140051" data-name="Trazado 140051" d="M38.778,31.816a1.66,1.66,0,0,0,2.348,0l7.5-7.5a1.66,1.66,0,0,0-2.348-2.348l-6.321,6.321-2.519-2.519a1.66,1.66,0,0,0-2.348,2.348Zm0,0"/>
        <path id="Trazado_140052" data-name="Trazado 140052" d="M38.778,50.078a1.66,1.66,0,0,0,2.348,0l7.5-7.495a1.66,1.66,0,0,0-2.348-2.348l-6.321,6.322-2.519-2.519a1.66,1.66,0,0,0-2.348,2.348Zm0,0"/>
        <path id="Trazado_140053" data-name="Trazado 140053" d="M41.852,65.766l2.574,2.573a1.66,1.66,0,0,0,2.348-2.348L44.2,63.418l2.573-2.574A1.66,1.66,0,0,0,44.426,58.5L41.852,61.07,39.279,58.5a1.66,1.66,0,1,0-2.348,2.348L39.5,63.418l-2.574,2.574a1.66,1.66,0,0,0,2.348,2.348Zm0,0"/>
      </g>
    </g>
  </g>
</svg>
