<svg xmlns="http://www.w3.org/2000/svg" xmlns:xlink="http://www.w3.org/1999/xlink" width="100" height="100" viewBox="0 0 100 100">
  <defs>
    <clipPath id="clip-path">
      <rect id="Rectángulo_297905" data-name="Rectángulo 297905" width="100" height="100" fill="none"/>
    </clipPath>
  </defs>
  <g id="Grupo_879803" data-name="Grupo 879803" transform="translate(-912 -5808.301)">
    <g id="Grupo_878136" data-name="Grupo 878136" transform="translate(634 493.301)">
      <g id="Grupo_879799" data-name="Grupo 879799">
        <g id="Grupo_878131" data-name="Grupo 878131">
          <path id="Trazado_599981" data-name="Trazado 599981" d="M50,0A50,50,0,1,1,0,50,50,50,0,0,1,50,0Z" transform="translate(278 5315)" fill="#fcd03e"/>
        </g>
        <path id="Trazado_604009" data-name="Trazado 604009" d="M28.547,28.109l1.738-14.547H46.906V18.68H35.637l-.645,5.649a7.763,7.763,0,0,1,1.846-.726,8.421,8.421,0,0,1,2.236-.314,8.343,8.343,0,0,1,6.514,2.51,10.11,10.11,0,0,1,2.275,7.041,10.092,10.092,0,0,1-1.221,4.951A8.39,8.39,0,0,1,43.215,41.2,10.822,10.822,0,0,1,38,42.391a11.644,11.644,0,0,1-5.02-1.1,9,9,0,0,1-3.672-3.025A7.35,7.35,0,0,1,28,33.921h6.6a3.734,3.734,0,0,0,1,2.475,3.162,3.162,0,0,0,2.363.916q3.32,0,3.32-4.912,0-4.541-4.062-4.541a4.054,4.054,0,0,0-3.437,1.481Z" transform="translate(290 5339)" fill="#12263f" stroke="rgba(255,255,255,0)" stroke-width="3"/>
      </g>
      <g id="Grupo_878133" data-name="Grupo 878133" transform="translate(278 5315)">
        <g id="Grupo_878132" data-name="Grupo 878132" clip-path="url(#clip-path)">
          <path id="Trazado_599979" data-name="Trazado 599979" d="M50.192,1A49.191,49.191,0,1,0,99.383,50.191,49.191,49.191,0,0,0,50.192,1m0,91.968a43,43,0,1,1,43-43,43,43,0,0,1-43,43" transform="translate(-0.191 -0.191)" fill="#fff"/>
          <path id="Trazado_599980" data-name="Trazado 599980" d="M50.192,1A49.191,49.191,0,1,0,99.383,50.191,49.191,49.191,0,0,0,50.192,1Zm0,91.968a43,43,0,1,1,43-43A43,43,0,0,1,50.189,92.968Z" transform="translate(-0.191 -0.191)" fill="none" stroke="#12263f" stroke-miterlimit="10" stroke-width="2"/>
        </g>
      </g>
    </g>
  </g>
</svg>
