<svg xmlns="http://www.w3.org/2000/svg" xmlns:xlink="http://www.w3.org/1999/xlink" width="85" height="93" viewBox="0 0 85 93">
  <defs>
    <clipPath id="clip-path">
      <rect id="Rectángulo_37017" data-name="Rectángulo 37017" width="85" height="85" transform="translate(180 6283)" fill="#dbf049"/>
    </clipPath>
  </defs>
  <g id="Grupo_879802" data-name="Grupo 879802" transform="translate(-390 -2710.151)">
    <circle id="Elipse_5325" data-name="Elipse 5325" cx="42.5" cy="42.5" r="42.5" transform="translate(390 2710.151)" fill="#fcd03e"/>
    <g id="Enmascarar_grupo_156" data-name="Enmascarar grupo 156" transform="translate(210 -3564.849)" clip-path="url(#clip-path)">
      <g id="Page-1" transform="translate(180.016 6283)">
        <g id="_042---Checklist-Goals" data-name="042---Checklist-Goals">
          <g id="Cartoony" transform="translate(1.416 1.416)">
            <path id="Shape" d="M53.813,37.528V12.745A4.248,4.248,0,0,0,49.565,8.5H4.248A4.248,4.248,0,0,0,0,12.745V72.223a4.248,4.248,0,0,0,4.248,4.248H53.813Z" fill="sienna"/>
            <path id="Shape-2" data-name="Shape" d="M49.565,8.5H45.317a4.248,4.248,0,0,1,4.248,4.248V76.472h4.248V12.745A4.248,4.248,0,0,0,49.565,8.5Z" fill="#783e22"/>
            <path id="Shape-3" data-name="Shape" d="M48.149,39.85V15.578a1.416,1.416,0,0,0-1.416-1.416H7.081a1.416,1.416,0,0,0-1.416,1.416V69.391a1.416,1.416,0,0,0,1.416,1.416H48.149Z" fill="#ffe0b2"/>
            <path id="Shape-4" data-name="Shape" d="M46.733,14.161H42.484A1.416,1.416,0,0,1,43.9,15.578v55.23h4.248V15.578A1.416,1.416,0,0,0,46.733,14.161Z" fill="#dfc49c"/>
            <path id="Shape-5" data-name="Shape" d="M11.329,11.329v2.832a1.416,1.416,0,0,0,1.416,1.416H41.068a1.416,1.416,0,0,0,1.416-1.416V11.329a4.248,4.248,0,0,0-4.248-4.248H32.571V5.665a5.665,5.665,0,1,0-11.329,0V7.081H15.578A4.248,4.248,0,0,0,11.329,11.329Z" fill="#ffdc00"/>
            <path id="Shape-6" data-name="Shape" d="M38.236,7.081H33.987a4.248,4.248,0,0,1,4.248,4.248v2.832a1.416,1.416,0,0,1-1.416,1.416h4.248a1.416,1.416,0,0,0,1.416-1.416V11.329A4.248,4.248,0,0,0,38.236,7.081Z" fill="#fec108"/>
            <path id="Shape-7" data-name="Shape" d="M28.323,5.665V7.081h4.248V5.665A5.646,5.646,0,0,0,24.783.425a5.665,5.665,0,0,1,3.54,5.24Z" fill="#fec108"/>
            <circle id="Oval" cx="22.658" cy="22.658" r="22.658" transform="translate(36.82 36.82)" fill="#f44335"/>
            <path id="Shape-8" data-name="Shape" d="M59.478,36.82c-.717,0-1.425.042-2.124.108a22.65,22.65,0,0,1,0,45.1c.7.065,1.408.108,2.124.108a22.658,22.658,0,1,0,0-45.317Z" fill="#c81e1e"/>
            <circle id="Oval-2" data-name="Oval" cx="16.994" cy="16.994" r="16.994" transform="translate(42.484 42.484)" fill="#f5f5f5"/>
            <path id="Shape-9" data-name="Shape" d="M59.478,42.484a16.966,16.966,0,0,0-2.124.142,16.978,16.978,0,0,1,0,33.693,16.994,16.994,0,1,0,2.124-33.834Z" fill="#cfd8dc"/>
            <circle id="Oval-3" data-name="Oval" cx="11.329" cy="11.329" r="11.329" transform="translate(48.149 48.149)" fill="#f44335"/>
            <path id="Shape-10" data-name="Shape" d="M59.478,48.149a11.3,11.3,0,0,0-2.124.207,11.329,11.329,0,0,1,0,22.245,11.329,11.329,0,1,0,2.124-22.452Z" fill="#c81e1e"/>
            <circle id="Oval-4" data-name="Oval" cx="5.665" cy="5.665" r="5.665" transform="translate(53.813 53.813)" fill="#607d8b"/>
            <path id="Shape-11" data-name="Shape" d="M59.478,53.813a5.615,5.615,0,0,0-2.124.425,5.652,5.652,0,0,1,0,10.479,5.665,5.665,0,1,0,2.124-10.9Z" fill="#37474f"/>
          </g>
          <g id="Icons">
            <circle id="Oval-5" data-name="Oval" cx="1.416" cy="1.416" r="1.416" transform="translate(26.907 5.665)"/>
            <path id="Shape-12" data-name="Shape" d="M84.554,37.235a1.416,1.416,0,0,0-2,0l-.514.513a1.409,1.409,0,0,0-2.733.489v2.246l-2.443,2.443a23.725,23.725,0,0,0-20.215-5.707V14.161A5.665,5.665,0,0,0,50.981,8.5H43.359a5.616,5.616,0,0,0-3.707-1.416H35.4a7.081,7.081,0,0,0-14.161,0H16.994A5.616,5.616,0,0,0,13.286,8.5H5.665A5.665,5.665,0,0,0,0,14.161V73.639A5.665,5.665,0,0,0,5.665,79.3H45.413c.487.409.991.792,1.515,1.161l-1.416,2.361a1.416,1.416,0,1,0,2.43,1.453L49.31,81.99a24,24,0,0,0,23.157,0l1.368,2.288a1.416,1.416,0,0,0,2.43-1.453l-1.416-2.361a23.971,23.971,0,0,0,4-35.538l2.454-2.443h2.246a1.416,1.416,0,0,0,.489-2.735l.513-.513a1.416,1.416,0,0,0,0-2ZM53.813,14.161V37.886a23.649,23.649,0,0,0-2.832,1.095V16.994a2.832,2.832,0,0,0-2.832-2.832H45.317V12.745a5.578,5.578,0,0,0-.2-1.416h5.866a2.832,2.832,0,0,1,2.832,2.832ZM14.161,12.745a2.832,2.832,0,0,1,2.832-2.832h4.248v1.416a1.416,1.416,0,0,0,2.832,0V7.081a4.248,4.248,0,1,1,8.5,0v4.248a1.416,1.416,0,0,0,2.832,0V9.913h4.248a2.832,2.832,0,0,1,2.832,2.832v2.832H14.161ZM42.484,18.41a2.822,2.822,0,0,0,2.439-1.416h3.226V40.5a23.954,23.954,0,0,0-9.168,30.305H8.5V16.994h3.226a2.822,2.822,0,0,0,2.439,1.416ZM2.832,73.639V14.161a2.832,2.832,0,0,1,2.832-2.832H11.53a5.578,5.578,0,0,0-.2,1.416v1.416H8.5a2.832,2.832,0,0,0-2.832,2.832V70.807A2.832,2.832,0,0,0,8.5,73.639h32a24.057,24.057,0,0,0,2.065,2.832H5.665A2.832,2.832,0,0,1,2.832,73.639Zm79.3-12.745a21.316,21.316,0,1,1-7.278-15.967l-2,2a18.465,18.465,0,1,0,2,2l2-2a21.13,21.13,0,0,1,5.275,13.965Zm-11.329,0a9.953,9.953,0,1,1-3.988-7.93L64.793,54.99a7.1,7.1,0,1,0,2,2l2.029-2.024A9.847,9.847,0,0,1,70.807,60.894Zm-5.665,0a4.248,4.248,0,1,1-4.248-4.248,4.179,4.179,0,0,1,1.82.425l-2.821,2.821a1.416,1.416,0,1,0,2,2l2.822-2.82A4.179,4.179,0,0,1,65.143,60.894Zm3.7-9.948a12.778,12.778,0,1,0,2,2l2.015-2.015a15.6,15.6,0,1,1-2-2Z"/>
            <path id="Shape-13" data-name="Shape" d="M14.576,29.324a1.416,1.416,0,0,0,1,.415h.142a1.416,1.416,0,0,0,1.038-.623l2.832-4.248A1.416,1.416,0,0,0,17.233,23.3l-1.874,2.812-.2-.2a1.416,1.416,0,0,0-2,2Z"/>
            <path id="Shape-14" data-name="Shape" d="M24.074,28.323h18.41a1.416,1.416,0,0,0,0-2.832H24.074a1.416,1.416,0,0,0,0,2.832Z"/>
            <path id="Shape-15" data-name="Shape" d="M14.576,40.653a1.416,1.416,0,0,0,1,.415h.142a1.416,1.416,0,0,0,1.038-.623L19.59,36.2a1.416,1.416,0,0,0-2.356-1.572l-1.874,2.812-.2-.2a1.416,1.416,0,0,0-2,2Z"/>
            <path id="Shape-16" data-name="Shape" d="M24.074,39.652h18.41a1.416,1.416,0,0,0,0-2.832H24.074a1.416,1.416,0,1,0,0,2.832Z"/>
            <path id="Shape-17" data-name="Shape" d="M24.074,62.31h8.5a1.416,1.416,0,1,0,0-2.832h-8.5a1.416,1.416,0,1,0,0,2.832Z"/>
            <path id="Shape-18" data-name="Shape" d="M14.576,51.982a1.416,1.416,0,0,0,1,.415.968.968,0,0,0,.142-.007,1.416,1.416,0,0,0,1.038-.623l2.832-4.248a1.416,1.416,0,1,0-2.356-1.572l-1.874,2.812-.2-.2a1.416,1.416,0,0,0-2,2Z"/>
            <path id="Shape-19" data-name="Shape" d="M14.576,63.312a1.416,1.416,0,0,0,1,.415.968.968,0,0,0,.142-.007,1.416,1.416,0,0,0,1.038-.623l2.832-4.248a1.416,1.416,0,1,0-2.356-1.572l-1.874,2.812-.2-.2a1.416,1.416,0,0,0-2,2Z"/>
            <path id="Shape-20" data-name="Shape" d="M24.074,50.981H34.936a1.416,1.416,0,1,0,0-2.832H24.074a1.416,1.416,0,1,0,0,2.832Z"/>
          </g>
        </g>
      </g>
    </g>
  </g>
</svg>
