<svg xmlns="http://www.w3.org/2000/svg" xmlns:xlink="http://www.w3.org/1999/xlink" width="470.333" height="350.52" viewBox="0 0 470.333 350.52">
  <defs>
    <clipPath id="clip-path">
      <rect id="Rectángulo_298008" data-name="Rectángulo 298008" width="362.999" height="350.52" fill="none"/>
    </clipPath>
    <clipPath id="clip-path-5">
      <rect id="Rectángulo_297997" data-name="Rectángulo 297997" width="5.244" height="7.19" fill="#529d2e"/>
    </clipPath>
    <clipPath id="clip-path-6">
      <rect id="Rectángulo_297998" data-name="Rectángulo 297998" width="13.527" height="43.015" fill="#529d2e"/>
    </clipPath>
    <clipPath id="clip-path-8">
      <rect id="Rectángulo_298000" data-name="Rectángulo 298000" width="19.605" height="12.29" fill="none"/>
    </clipPath>
    <clipPath id="clip-path-9">
      <rect id="Rectángulo_298001" data-name="Rectángulo 298001" width="2.323" height="2.323" fill="none"/>
    </clipPath>
    <clipPath id="clip-path-11">
      <rect id="Rectángulo_298003" data-name="Rectángulo 298003" width="28.593" height="17.854" fill="#fc8116"/>
    </clipPath>
    <clipPath id="clip-path-12">
      <rect id="Rectángulo_298004" data-name="Rectángulo 298004" width="28.07" height="19.3" fill="#fc8116"/>
    </clipPath>
    <clipPath id="clip-path-13">
      <rect id="Rectángulo_298005" data-name="Rectángulo 298005" width="10.315" height="21.303" fill="#f26838"/>
    </clipPath>
  </defs>
  <g id="Grupo_879798" data-name="Grupo 879798" transform="translate(-180 -660.479)">
    <g id="Grupo_878621" data-name="Grupo 878621" transform="translate(-1165.666 -5049.443)">
      <path id="Trazado_121014" data-name="Trazado 121014" d="M405.2,292.224l-28.545,2.658,10.506,10.506-24.3,24.3a3.389,3.389,0,1,0,4.793,4.793l24.3-24.3,10.588,10.591Z" transform="translate(983.803 5719.42)" fill="#529d2e"/>
      <path id="Trazado_121017" data-name="Trazado 121017" d="M576.3,168.785l-24.368,2.269,8.969,8.969-20.746,20.746a2.893,2.893,0,1,0,4.092,4.092l20.746-20.745,9.039,9.04Z" transform="translate(843.7 5791.209)" fill="#fcd03e"/>
    </g>
    <g id="Grupo_878622" data-name="Grupo 878622" transform="translate(287.334 660.479)">
      <g id="Grupo_878278" data-name="Grupo 878278" clip-path="url(#clip-path)">
        <g id="Grupo_878246" data-name="Grupo 878246">
          <g id="Grupo_878245" data-name="Grupo 878245" clip-path="url(#clip-path)">
            <path id="Trazado_600282" data-name="Trazado 600282" d="M13.957,261.352s7.129-2.343,10.545,14.111,3.931,25.545,3.931,25.545,1.119,3.557,3.738,2.147,7-6.244,10.256-4.269c3.378,2.049,3.468,6.468,1.128,12.287s-7,18.755-7.416,19.927c-.409,1.15-.209,3.063,1.729,2.389s14.182-8.567,17.578-2.533S49.662,352.127,48.69,353.8s-.83,2.541-.094,3.222,4.6-2.36,8.175-4.461,8.087-3.913,9.755-.267-.9,16.183-18.1,32.995l-8.476,7.269-10.639-3.55C7.011,380.025-.149,369.416,0,365.41s5.015-4.054,9.12-3.474,8.839,1.917,9.259,1.006.221-1.766-1.316-2.943-15.8-11.67-14.96-18.543,15.167-4.248,17.216-4.364,1.5-1.96.687-2.867c-.832-.924-10.072-11.106-14.454-15.592s-5.985-8.606-3.643-11.789c2.258-3.068,8.15-.27,11.109.035s2.636-3.411,2.636-3.411-2.992-8.6-6.109-25.113,4.558-17.042,4.558-17.042" transform="translate(0 -54.412)" fill="#ffd8b7"/>
            <path id="Trazado_600283" data-name="Trazado 600283" d="M44.5,394.117c-2.333-12.119-5.7-28.834-9.482-47.286s-7.188-35.15-9.589-47.254c-1.192-6.041-2.159-10.935-2.83-14.338l-.774-3.9c-.09-.432-.16-.768-.211-1.012-.05-.228-.085-.342-.085-.342s.009.12.046.349c.042.245.1.584.173,1.019.165.912.4,2.226.7,3.911.616,3.4,1.542,8.3,2.712,14.362,2.334,12.119,5.7,28.833,9.48,47.278s7.19,35.158,9.591,47.262" transform="translate(-4.483 -58.318)" fill="#fc8116"/>
            <path id="Trazado_600284" data-name="Trazado 600284" d="M43.544,317.643a3.273,3.273,0,0,0-.477.652c-.287.432-.684,1.07-1.166,1.863-.961,1.587-2.23,3.814-3.585,6.3-1.321,2.448-2.515,4.662-3.438,6.374l-1.05,1.926a3.212,3.212,0,0,0-.355.726,3.334,3.334,0,0,0,.482-.65c.287-.433.683-1.071,1.157-1.869.945-1.6,2.185-3.84,3.539-6.323l3.483-6.347,1.061-1.921a3.288,3.288,0,0,0,.349-.729" transform="translate(-6.971 -66.161)" fill="#fc8116"/>
            <path id="Trazado_600285" data-name="Trazado 600285" d="M26.846,336.846c.055-.09-4.419-2.913-9.993-6.3s-10.138-6.067-10.193-5.977,4.419,2.912,9.994,6.3,10.137,6.066,10.192,5.976" transform="translate(-1.387 -67.603)" fill="#fc8116"/>
            <path id="Trazado_600286" data-name="Trazado 600286" d="M35.858,373.883a3.467,3.467,0,0,0-.783-.26l-2.162-.588c-1.825-.5-4.343-1.193-7.092-2.06s-5.219-1.726-7-2.364l-2.111-.752a3.408,3.408,0,0,0-.791-.235,3.432,3.432,0,0,0,.736.373c.484.217,1.189.517,2.07.868,1.759.7,4.217,1.611,6.98,2.476s5.3,1.526,7.14,1.957c.924.212,1.673.375,2.195.471a3.391,3.391,0,0,0,.817.116" transform="translate(-3.316 -76.57)" fill="#fc8116"/>
            <path id="Trazado_600287" data-name="Trazado 600287" d="M54.659,358.034a2.969,2.969,0,0,0-.591.482c-.363.329-.88.813-1.511,1.417-1.265,1.208-2.994,2.9-4.886,4.777s-3.593,3.6-4.809,4.857c-.608.629-1.095,1.142-1.426,1.5a2.9,2.9,0,0,0-.486.588,2.994,2.994,0,0,0,.591-.482c.363-.329.88-.813,1.512-1.417,1.265-1.208,2.994-2.9,4.887-4.778s3.591-3.6,4.807-4.856c.608-.629,1.1-1.142,1.427-1.5a2.9,2.9,0,0,0,.486-.588" transform="translate(-8.529 -74.574)" fill="#fc8116"/>
            <path id="Trazado_600288" data-name="Trazado 600288" d="M65.473,388.33a4.779,4.779,0,0,0-.749.626l-1.943,1.81c-1.629,1.54-3.862,3.686-6.31,6.073s-4.653,4.566-6.233,6.155l-1.858,1.9a4.758,4.758,0,0,0-.645.733,4.848,4.848,0,0,0,.749-.626l1.943-1.81c1.629-1.54,3.862-3.686,6.312-6.075s4.651-4.564,6.232-6.154l1.858-1.9a4.806,4.806,0,0,0,.645-.733" transform="translate(-9.942 -80.884)" fill="#fc8116"/>
            <path id="Trazado_600289" data-name="Trazado 600289" d="M41.526,407.229a5.629,5.629,0,0,0-.984-.352l-2.715-.843c-2.292-.713-5.453-1.708-8.914-2.9s-6.569-2.347-8.813-3.2l-2.659-1.006a5.563,5.563,0,0,0-.992-.327,5.368,5.368,0,0,0,.936.465c.612.278,1.505.663,2.616,1.12,2.221.917,5.319,2.116,8.788,3.309s6.648,2.152,8.961,2.8c1.158.32,2.1.57,2.751.727a5.375,5.375,0,0,0,1.024.209" transform="translate(-3.426 -83.023)" fill="#fc8116"/>
            <rect id="Rectángulo_297988" data-name="Rectángulo 297988" width="74.126" height="107.442" transform="translate(264.157 17.165)" fill="#ffd8b7"/>
            <rect id="Rectángulo_297989" data-name="Rectángulo 297989" width="74.126" height="107.442" transform="translate(260.444 17.165)" fill="#fff0e3"/>
            <rect id="Rectángulo_297990" data-name="Rectángulo 297990" width="55.706" height="84.169" transform="translate(269.654 28.802)" fill="#fff0e3"/>
            <path id="Trazado_600290" data-name="Trazado 600290" d="M396.249,120.494s-.007-.143-.011-.412-.006-.675-.01-1.194c-.006-1.057-.013-2.606-.023-4.616-.011-4.034-.028-9.912-.05-17.338-.022-14.842-.054-35.859-.091-60.609l.185.185-55.7.017h-.006l.2-.2c-.016,31.752-.03,61.028-.041,84.169l-.161-.161,40.547.085,11.2.04,2.94.018c.666.006,1.017.017,1.017.017s-.328.011-.983.017l-2.91.018-11.166.04-40.647.085h-.161v-.161c-.011-23.141-.025-52.417-.041-84.169v-.2h.208l55.7.017h.185v.185c-.037,24.8-.069,45.858-.091,60.73-.021,7.408-.039,13.272-.05,17.3-.01,1.994-.017,3.53-.023,4.579,0,.51-.008.9-.01,1.173s-.011.39-.011.39" transform="translate(-70.889 -7.524)" fill="#ffd8b7"/>
            <path id="Trazado_600291" data-name="Trazado 600291" d="M420.2,21.681a12.845,12.845,0,0,1-1.321,1.92c-.861,1.151-2.083,2.718-3.478,4.411s-2.7,3.193-3.664,4.259a12.843,12.843,0,0,1-1.63,1.664,13.776,13.776,0,0,1,1.415-1.85l3.568-4.33,3.565-4.331a13.888,13.888,0,0,1,1.545-1.743" transform="translate(-85.419 -4.516)" fill="#ffd8b7"/>
            <path id="Trazado_600292" data-name="Trazado 600292" d="M411.316,142.348a68.988,68.988,0,0,0,9.716,12.151" transform="translate(-85.672 -29.649)" fill="#fff"/>
            <path id="Trazado_600293" data-name="Trazado 600293" d="M421.031,154.5a11.081,11.081,0,0,1-1.693-1.541,54.2,54.2,0,0,1-6.892-8.619,11.021,11.021,0,0,1-1.131-1.991,15.311,15.311,0,0,1,1.366,1.831c.817,1.147,1.966,2.716,3.305,4.394s2.619,3.141,3.558,4.19a15.285,15.285,0,0,1,1.486,1.736" transform="translate(-85.671 -29.649)" fill="#e0e0e0"/>
            <path id="Trazado_600294" data-name="Trazado 600294" d="M328.95,154.13l9.71-11.979" transform="translate(-68.516 -29.608)" fill="#fff"/>
            <path id="Trazado_600295" data-name="Trazado 600295" d="M338.659,142.151a73.927,73.927,0,0,1-4.7,6.117,73.774,73.774,0,0,1-5.012,5.863,73.772,73.772,0,0,1,4.7-6.117,73.853,73.853,0,0,1,5.011-5.863" transform="translate(-68.516 -29.608)" fill="#e0e0e0"/>
            <path id="Trazado_600296" data-name="Trazado 600296" d="M328.963,21.681a67.271,67.271,0,0,1,4.711,5.634,67.156,67.156,0,0,1,4.4,5.884,66.876,66.876,0,0,1-4.713-5.635,66.709,66.709,0,0,1-4.4-5.883" transform="translate(-68.518 -4.516)" fill="#ffd8b7"/>
            <rect id="Rectángulo_297991" data-name="Rectángulo 297991" width="18.653" height="52.96" transform="translate(289.352 45.892)" fill="#ffd8b7"/>
            <path id="Trazado_600297" data-name="Trazado 600297" d="M110.2,0V59.2H25.168L22.105.414Z" transform="translate(-4.604)" fill="#ffd8b7"/>
            <rect id="Rectángulo_297992" data-name="Rectángulo 297992" width="85.028" height="58.661" transform="translate(17.501 0.414)" fill="#fff0e3"/>
            <path id="Trazado_600298" data-name="Trazado 600298" d="M107.429,59.482H21.595V.014h85.834ZM22.4,58.675h84.221V.82H22.4Z" transform="translate(-4.498 -0.003)" fill="#ffd8b7"/>
            <rect id="Rectángulo_297993" data-name="Rectángulo 297993" width="66.609" height="44.085" transform="translate(26.71 7.703)" fill="#fff0e3"/>
            <path id="Trazado_600299" data-name="Trazado 600299" d="M100.291,9.678s-.115.008-.329.011l-.947.012-3.659.023-13.726.052-47.949.094.192-.192c.006,13.469.011,28.393.017,44.08v0l-.21-.21,66.609.043-.167.167c.036-13.416.067-24.416.088-32.075.018-3.829.032-6.82.043-8.87q.012-1.52.018-2.331c.006-.529.018-.809.018-.809s.012.257.018.774q.006.8.019,2.3c.01,2.041.024,5.019.042,8.832.021,7.684.051,18.72.088,32.179v.167h-.168l-66.609.042h-.211v-.215c.006-15.687.013-30.611.017-44.08V9.485h.193l48.075.094,13.683.052,3.62.023.926.012c.206,0,.306.011.306.011" transform="translate(-6.972 -1.976)" fill="#ffd8b7"/>
            <path id="Trazado_600300" data-name="Trazado 600300" d="M22.1.314a7.171,7.171,0,0,1,1.462.947c.87.629,2.054,1.519,3.334,2.542S29.3,5.8,30.1,6.521a6.919,6.919,0,0,1,1.218,1.246c-.079.089-2.123-1.6-4.677-3.636A46.45,46.45,0,0,1,22.1.314" transform="translate(-4.604 -0.065)" fill="#ffd8b7"/>
            <path id="Trazado_600301" data-name="Trazado 600301" d="M127.079.522A41.18,41.18,0,0,1,122.6,4.331a41.407,41.407,0,0,1-4.735,3.48A41.145,41.145,0,0,1,122.344,4a41.163,41.163,0,0,1,4.734-3.48" transform="translate(-24.55 -0.108)" fill="#ffd8b7"/>
            <path id="Trazado_600302" data-name="Trazado 600302" d="M126.923,72.607l-9.48-7.684" transform="translate(-24.462 -13.523)" fill="#fff"/>
            <path id="Trazado_600303" data-name="Trazado 600303" d="M117.442,64.922a44.538,44.538,0,0,1,4.872,3.678,44.448,44.448,0,0,1,4.608,4.005,44.5,44.5,0,0,1-4.872-3.678,44.54,44.54,0,0,1-4.608-4.005" transform="translate(-24.461 -13.522)" fill="#e0e0e0"/>
            <path id="Trazado_600304" data-name="Trazado 600304" d="M22.1,72.72a40.327,40.327,0,0,1,4.427-3.769,40.227,40.227,0,0,1,4.688-3.439,40.438,40.438,0,0,1-4.427,3.769A40.337,40.337,0,0,1,22.1,72.72" transform="translate(-4.604 -13.644)" fill="#ffd8b7"/>
            <rect id="Rectángulo_297994" data-name="Rectángulo 297994" width="41.912" height="14.761" transform="translate(40.234 21.437)" fill="#ffd8b7"/>
            <path id="Trazado_600305" data-name="Trazado 600305" d="M371.406,234.721a29.876,29.876,0,1,1,1.081-42.189,29.844,29.844,0,0,1-1.081,42.189" transform="translate(-66.863 -38.157)" fill="#ffd7b5"/>
            <path id="Trazado_600306" data-name="Trazado 600306" d="M368.384,231.429a22.768,22.768,0,1,1,.824-32.151,22.742,22.742,0,0,1-.824,32.151" transform="translate(-68.731 -40.025)" fill="#f5f5f5"/>
            <path id="Trazado_600307" data-name="Trazado 600307" d="M370.626,230.738c-.1-.1.56-.854,1.573-2.321a24.156,24.156,0,0,0,3.258-6.707,23.312,23.312,0,0,0,.929-5.034,22.811,22.811,0,0,0-.355-5.837,22.278,22.278,0,0,0-2.111-6.085,22.062,22.062,0,0,0-1.8-2.9,22.279,22.279,0,0,0-4.976-4.932,22.272,22.272,0,0,0-2.914-1.774,22.273,22.273,0,0,0-6.1-2.055,22.813,22.813,0,0,0-5.841-.3,23.384,23.384,0,0,0-5.024.976,24.19,24.19,0,0,0-6.674,3.32c-1.455,1.028-2.207,1.693-2.3,1.6-.074-.07.515-.9,1.883-2.128a21.072,21.072,0,0,1,6.694-3.955,22.811,22.811,0,0,1,11.534-1.093,21.992,21.992,0,0,1,3.307.785,22.357,22.357,0,0,1,3.293,1.327,23.237,23.237,0,0,1,3.159,1.891,23.319,23.319,0,0,1,5.368,5.32,23.322,23.322,0,0,1,1.921,3.142,23.222,23.222,0,0,1,2.173,6.58,22.83,22.83,0,0,1-.985,11.544,21.108,21.108,0,0,1-3.891,6.733c-1.213,1.38-2.039,1.977-2.111,1.9" transform="translate(-70.458 -39.828)" fill="#ffc089"/>
            <path id="Trazado_600308" data-name="Trazado 600308" d="M346.736,228.995l-2.838,2.77-2.472-2.535,2.761-2.694a16.784,16.784,0,0,1-4.129-8.289l4.452-1.624a14.308,14.308,0,0,0,3,6.673l4.233-4.13c-2.062-3.48-4.19-7.538-.565-11.074,2.687-2.621,6.9-2.92,11.26.64l2.814-2.745,2.473,2.534-2.764,2.7a16,16,0,0,1,3.474,6.653l-4.354,1.775a14.517,14.517,0,0,0-2.465-5.165l-4.309,4.2c2.086,3.456,4.164,7.463.591,10.949-2.636,2.572-6.8,2.871-11.161-.639m8.731-13.463,3.6-3.512c-1.614-1.046-2.868-.861-3.705-.045-.887.865-.627,2.1.108,3.557m-1.856,10.319c.888-.866.652-2.07-.031-3.532l-3.5,3.412c1.515,1,2.718.91,3.529.12" transform="translate(-70.83 -42.905)" fill="#f7d6b9"/>
            <path id="Trazado_600309" data-name="Trazado 600309" d="M220.774,287.483a31.368,31.368,0,1,1-39.884-19.3,31.333,31.333,0,0,1,39.884,19.3" transform="translate(-33.277 -55.496)" fill="#ffd7b5"/>
            <path id="Trazado_600310" data-name="Trazado 600310" d="M215.685,291.887a23.9,23.9,0,1,1-30.395-14.709,23.877,23.877,0,0,1,30.395,14.709" transform="translate(-35.241 -57.456)" fill="#f5f5f5"/>
            <path id="Trazado_600311" data-name="Trazado 600311" d="M215.281,290.947a14.155,14.155,0,0,1-1.538-2.51,25.352,25.352,0,0,0-5-6.019,24.441,24.441,0,0,0-4.412-3.069,23.916,23.916,0,0,0-5.738-2.189,23.416,23.416,0,0,0-6.734-.615,23.162,23.162,0,0,0-3.551.468,23.36,23.36,0,0,0-6.871,2.624,23.285,23.285,0,0,0-2.959,2.019,23.418,23.418,0,0,0-4.609,4.949,23.893,23.893,0,0,0-2.815,5.457,24.492,24.492,0,0,0-1.243,5.228,25.4,25.4,0,0,0,.287,7.821,13.981,13.981,0,0,1,.527,2.895c-.1.04-.639-.884-1.219-2.723a22.108,22.108,0,0,1-.884-8.115,23.947,23.947,0,0,1,3.949-11.5,23.121,23.121,0,0,1,2.183-2.823,23.408,23.408,0,0,1,2.7-2.575,24.335,24.335,0,0,1,3.177-2.2,24.486,24.486,0,0,1,7.412-2.831,24.374,24.374,0,0,1,3.836-.476,24.348,24.348,0,0,1,7.235.77,23.959,23.959,0,0,1,10.614,5.94,22.163,22.163,0,0,1,4.755,6.637c.795,1.758,1.008,2.807.907,2.844" transform="translate(-35.087 -57.222)" fill="#ffc089"/>
            <path id="Trazado_600312" data-name="Trazado 600312" d="M203.635,314.275l1.42,3.915-3.5,1.267-1.382-3.809c-3.536,1.044-7.249,1.166-9.716.36l.374-4.961a15.029,15.029,0,0,0,7.681.022l-2.118-5.837c-4.221.465-9.024.743-10.836-4.255-1.344-3.705.193-7.861,5.487-10.493l-1.408-3.88,3.5-1.268,1.382,3.81a16.808,16.808,0,0,1,7.867-.442l-.188,4.932a15.232,15.232,0,0,0-6.007.122l2.156,5.942c4.208-.5,8.942-.751,10.728,4.175,1.318,3.636-.2,7.744-5.443,10.4m-9.1-14.18-1.8-4.962c-1.7,1.091-2.066,2.371-1.648,3.525.444,1.222,1.734,1.507,3.449,1.438m9.067,6.243c-.444-1.224-1.7-1.519-3.392-1.5l1.75,4.824c1.608-1.018,2.047-2.206,1.642-3.324" transform="translate(-38.555 -59.432)" fill="#f7d6b9"/>
            <path id="Trazado_600313" data-name="Trazado 600313" d="M72.462,188.354a26.327,26.327,0,1,1-26.654-25.936,26.3,26.3,0,0,1,26.654,25.936" transform="translate(-4.126 -33.829)" fill="#ffd7b5"/>
            <path id="Trazado_600314" data-name="Trazado 600314" d="M67.846,190.077a20.063,20.063,0,1,1-20.311-19.765,20.041,20.041,0,0,1,20.311,19.765" transform="translate(-5.774 -35.473)" fill="#f5f5f5"/>
            <path id="Trazado_600315" data-name="Trazado 600315" d="M67.773,189.247a11.875,11.875,0,0,1-.561-2.406,21.278,21.278,0,0,0-2.391-6.12,20.572,20.572,0,0,0-2.7-3.613,20.079,20.079,0,0,0-3.989-3.263,19.676,19.676,0,0,0-5.2-2.273A19.414,19.414,0,0,0,49.979,171a19.613,19.613,0,0,0-6.168.27,19.664,19.664,0,0,0-2.891.824,19.681,19.681,0,0,0-4.982,2.721,20.061,20.061,0,0,0-3.687,3.6,20.551,20.551,0,0,0-2.374,3.835,21.277,21.277,0,0,0-1.843,6.305,11.781,11.781,0,0,1-.347,2.445,5.884,5.884,0,0,1-.25-2.492,18.553,18.553,0,0,1,1.446-6.7,20.115,20.115,0,0,1,6.192-8.117,19.4,19.4,0,0,1,2.486-1.671,19.745,19.745,0,0,1,2.829-1.336,20.311,20.311,0,0,1,3.114-.913,20.529,20.529,0,0,1,6.653-.291,20.449,20.449,0,0,1,3.182.637,20.445,20.445,0,0,1,5.557,2.529,20.1,20.1,0,0,1,6.881,7.543,18.571,18.571,0,0,1,2.029,6.545,5.884,5.884,0,0,1-.03,2.5" transform="translate(-5.714 -35.273)" fill="#ffc089"/>
            <path id="Trazado_600316" data-name="Trazado 600316" d="M53.237,203.876l.094,3.494-3.119.083-.091-3.4a14.792,14.792,0,0,1-7.834-2.286l1.613-3.852a12.606,12.606,0,0,0,6.111,2.051l-.141-5.209c-3.485-.748-7.384-1.8-7.5-6.259-.089-3.306,2.237-6.209,7.149-6.9l-.093-3.463,3.12-.084.091,3.4a14.121,14.121,0,0,1,6.383,1.731L57.56,187.06a12.783,12.783,0,0,0-4.816-1.494l.143,5.3c3.484.717,7.32,1.769,7.439,6.167.087,3.244-2.208,6.115-7.089,6.84m-3.49-13.7-.12-4.429c-1.643.418-2.273,1.341-2.246,2.37.03,1.091.982,1.659,2.366,2.058m5.567,7.373c-.03-1.093-.95-1.66-2.3-2.093l.116,4.3c1.551-.385,2.215-1.214,2.188-2.212" transform="translate(-8.808 -37.085)" fill="#f7d6b9"/>
            <path id="Trazado_600317" data-name="Trazado 600317" d="M236.964,42.852a23.147,23.147,0,0,0-19.9-34.424,22.614,22.614,0,0,0-6.073.832,23.172,23.172,0,0,1,0,44.535,22.587,22.587,0,0,0,18.168-2.676l10.74,4.153Z" transform="translate(-43.946 -1.755)" fill="#ffd8b7"/>
          </g>
        </g>
        <g id="Grupo_878248" data-name="Grupo 878248">
          <g id="Grupo_878247" data-name="Grupo 878247" clip-path="url(#clip-path)">
            <path id="Trazado_600318" data-name="Trazado 600318" d="M342.854,427.054c0,.114-75.285.206-168.131.206-92.879,0-168.148-.092-168.148-.206s75.269-.206,168.148-.206c92.847,0,168.131.092,168.131.206" transform="translate(-1.369 -88.907)" fill="#263238"/>
          </g>
        </g>
        <g id="Grupo_878256" data-name="Grupo 878256">
          <g id="Grupo_878255" data-name="Grupo 878255" clip-path="url(#clip-path)">
            <path id="Trazado_600319" data-name="Trazado 600319" d="M117.256,395l.647,19.7,5,15.437a2.02,2.02,0,0,1-3.231,2.161c-3.164-2.713-14.754-12.753-14.721-14.2.039-1.673-2.062-20.738-2.062-20.738Z" transform="translate(-21.432 -82.273)" fill="#7f8d93"/>
            <path id="Trazado_600320" data-name="Trazado 600320" d="M122,438.449,105.4,422.5l.047.834a3.041,3.041,0,0,0,.83,1.929c1.331,1.4,5.093,5.182,13.86,12.767a2.018,2.018,0,0,0,1.86.417" transform="translate(-21.955 -88.002)" fill="#e0e0e0"/>
            <path id="Trazado_600321" data-name="Trazado 600321" d="M109.6,414.155a1.222,1.222,0,0,1,.423,1.575,1.175,1.175,0,0,1-1.557.433,1.289,1.289,0,0,1-.439-1.671,1.218,1.218,0,0,1,1.67-.27" transform="translate(-22.469 -86.23)" fill="#fff"/>
            <path id="Trazado_600322" data-name="Trazado 600322" d="M120.073,431.46c.115.048.5-1.008,1.64-1.627a6.148,6.148,0,0,1,2.242-.56c.014-.049-.243-.188-.708-.228a3.22,3.22,0,0,0-3,1.692c-.207.417-.222.709-.172.723" transform="translate(-25.005 -89.363)" fill="#263238"/>
            <path id="Trazado_600323" data-name="Trazado 600323" d="M122.031,434.921c.1.08.694-.6,1.7-.944a16.447,16.447,0,0,1,1.908-.355,2.239,2.239,0,0,0-2.055-.052c-1.139.4-1.655,1.3-1.549,1.351" transform="translate(-25.415 -90.267)" fill="#263238"/>
            <path id="Trazado_600324" data-name="Trazado 600324" d="M116.543,427.336a20.224,20.224,0,0,1,2.519-1.632,20.179,20.179,0,0,1,2.882-.844,5.52,5.52,0,0,0-5.4,2.476" transform="translate(-24.273 -88.472)" fill="#263238"/>
            <path id="Trazado_600325" data-name="Trazado 600325" d="M115.663,420.21c.059.115,1.121-.4,2.533-.53,1.41-.15,2.552.147,2.588.023a5.015,5.015,0,0,0-5.122.507" transform="translate(-24.091 -87.318)" fill="#263238"/>
            <path id="Trazado_600326" data-name="Trazado 600326" d="M115.239,412.893a9.865,9.865,0,0,1,2.622-.621,9.89,9.89,0,0,1,2.647.51c.03-.043-.2-.278-.667-.515a4.4,4.4,0,0,0-3.957.083c-.458.257-.676.5-.644.543" transform="translate(-24.002 -85.781)" fill="#263238"/>
            <path id="Trazado_600327" data-name="Trazado 600327" d="M117.661,410.011a1.7,1.7,0,0,0-.015-.746,5.163,5.163,0,0,0-.7-1.917,2.293,2.293,0,0,0-1.044-1.04.811.811,0,0,0-.9.231,1.321,1.321,0,0,0-.261.906,2.855,2.855,0,0,0,2.645,2.5,3.312,3.312,0,0,0,3.151-1.911,1.147,1.147,0,0,0,0-.957.8.8,0,0,0-.855-.375,2.828,2.828,0,0,0-1.259.747,5.762,5.762,0,0,0-1.258,1.6,1.741,1.741,0,0,0-.264.7,9.172,9.172,0,0,1,1.721-2.069,2.631,2.631,0,0,1,1.114-.623.424.424,0,0,1,.467.2.792.792,0,0,1-.037.629,2.957,2.957,0,0,1-2.752,1.625,2.478,2.478,0,0,1-2.275-2.089.951.951,0,0,1,.156-.64.439.439,0,0,1,.5-.135,2.075,2.075,0,0,1,.9.865,7.655,7.655,0,0,1,.973,2.5" transform="translate(-23.898 -84.618)" fill="#263238"/>
            <path id="Trazado_600328" data-name="Trazado 600328" d="M165.551,398.56l-1.02,14.733s14.632,5.985,14.708,8.726l-28.637-.953.648-23.021Z" transform="translate(-31.369 -82.908)" fill="#7f8d93"/>
            <path id="Trazado_600329" data-name="Trazado 600329" d="M156.833,415.353a1.17,1.17,0,0,0-.853,1.308,1.123,1.123,0,0,0,1.288.857,1.234,1.234,0,0,0,.9-1.389,1.167,1.167,0,0,0-1.439-.743" transform="translate(-32.485 -86.505)" fill="#e0e0e0"/>
            <path id="Trazado_600330" data-name="Trazado 600330" d="M150.6,426.512l.156-2.318,27.4,1.781s1.256.6,1.082,1.491Z" transform="translate(-31.369 -88.354)" fill="#e0e0e0"/>
            <path id="Trazado_600331" data-name="Trazado 600331" d="M168.087,417.1c-.01.139-.711.18-1.413.606-.715.409-1.089,1-1.216.943-.128-.032.108-.861.968-1.363s1.7-.314,1.661-.187" transform="translate(-34.456 -86.847)" fill="#263238"/>
            <path id="Trazado_600332" data-name="Trazado 600332" d="M172.013,418.819c.028.137-.586.355-1.081.93-.511.56-.652,1.2-.792,1.186-.132.017-.2-.805.427-1.509s1.447-.74,1.446-.607" transform="translate(-35.42 -87.222)" fill="#263238"/>
            <path id="Trazado_600333" data-name="Trazado 600333" d="M174.492,422.821c-.128.025-.3-.679.086-1.433s1.048-1.037,1.1-.919c.075.118-.363.515-.669,1.138-.321.616-.381,1.2-.52,1.214" transform="translate(-36.313 -87.573)" fill="#263238"/>
            <path id="Trazado_600334" data-name="Trazado 600334" d="M167.826,412.721c-.063.126-.7-.089-1.49-.062-.793.012-1.416.257-1.485.134-.078-.1.54-.6,1.473-.621s1.574.441,1.5.549" transform="translate(-34.335 -85.85)" fill="#263238"/>
            <path id="Trazado_600335" data-name="Trazado 600335" d="M167.67,408.468a2.688,2.688,0,0,1-1.434-.055,6.437,6.437,0,0,1-1.485-.511,6.827,6.827,0,0,1-.809-.464,1.777,1.777,0,0,1-.422-.352.611.611,0,0,1-.04-.746.767.767,0,0,1,.624-.3,1.87,1.87,0,0,1,.535.092,5.151,5.151,0,0,1,.881.336,5.074,5.074,0,0,1,1.294.912c.644.637.853,1.168.805,1.193-.065.044-.374-.4-1.033-.935a5.714,5.714,0,0,0-1.255-.763,5.361,5.361,0,0,0-.815-.282c-.3-.089-.558-.1-.64.032-.03.051-.035.07.026.162a1.427,1.427,0,0,0,.31.257,7.371,7.371,0,0,0,.743.458,7.994,7.994,0,0,0,1.369.578,9.772,9.772,0,0,1,1.347.388" transform="translate(-34.028 -84.573)" fill="#263238"/>
            <path id="Trazado_600336" data-name="Trazado 600336" d="M168.476,408.165a2.282,2.282,0,0,1-.332-1.4,4.639,4.639,0,0,1,.642-2.422,1.183,1.183,0,0,1,.939-.694.669.669,0,0,1,.585.42,1.912,1.912,0,0,1,.13.53,3.179,3.179,0,0,1-.031.966,3.3,3.3,0,0,1-.662,1.461c-.584.724-1.173.871-1.184.823-.044-.072.452-.325.9-1.024a3.31,3.31,0,0,0,.5-1.332,2.971,2.971,0,0,0,0-.83c-.035-.306-.141-.555-.256-.528-.143-.006-.392.215-.517.454a4.726,4.726,0,0,0-.382.766,5.167,5.167,0,0,0-.325,1.422c-.067.839.065,1.367-.012,1.386" transform="translate(-35.022 -84.075)" fill="#263238"/>
            <path id="Trazado_600337" data-name="Trazado 600337" d="M95.119,213.631,99.351,372.01l22.59-.678,5.388-163.1Z" transform="translate(-19.812 -43.372)" fill="#263238"/>
            <path id="Trazado_600338" data-name="Trazado 600338" d="M148.279,207.893s16.772,67.14,17.286,78.589-3.589,83-3.589,83H139.859L141.706,288l-16.8-68.957,4.066-10.8Z" transform="translate(-26.017 -43.302)" fill="#263238"/>
            <path id="Trazado_600339" data-name="Trazado 600339" d="M136.024,218.307a.829.829,0,0,1,.009.215c0,.165-.007.372-.013.629-.021.583-.051,1.389-.089,2.412-.1,2.127-.237,5.149-.407,8.87-.385,7.515-.914,17.843-1.5,29.252-.632,11.411-1.2,21.738-1.618,29.251-.226,3.718-.409,6.737-.538,8.863-.071,1.021-.127,1.827-.167,2.409-.022.256-.04.462-.054.626a.879.879,0,0,1-.032.213.838.838,0,0,1-.01-.214c0-.165.008-.372.013-.628.021-.583.051-1.389.089-2.412.1-2.127.236-5.148.407-8.868.384-7.515.913-17.846,1.5-29.26.631-11.408,1.2-21.736,1.618-29.249.226-3.718.409-6.737.538-8.863.071-1.021.127-1.826.167-2.408.022-.256.04-.462.054-.626a.811.811,0,0,1,.032-.212" transform="translate(-27.412 -45.471)" fill="#455a64"/>
            <path id="Trazado_600340" data-name="Trazado 600340" d="M127.115,98.606s8.206,40.724,8.325,52.2,4.149,33.892,4.149,33.892H104.039l-.767-62.045-2.532-18.507,5.339-7.612Z" transform="translate(-20.983 -20.107)" fill="#f5f5f5"/>
            <path id="Trazado_600341" data-name="Trazado 600341" d="M134.6,100.666s8.481,2.49,10.723,5.627c1.769,2.474,4.154,49.318,4.154,49.318l3.64,41.26-3.559-.334-5.022-15.444Z" transform="translate(-28.035 -20.967)" fill="#e4f476"/>
            <path id="Trazado_600342" data-name="Trazado 600342" d="M148.14,107.774l23.944,21.969,29.46-9.544,5.868,12.368-31.434,14.268c-4.493,1.917-7.309.861-10.427-1.636L149.06,131.992Z" transform="translate(-30.856 -22.448)" fill="#e4f476"/>
            <path id="Trazado_600343" data-name="Trazado 600343" d="M208.345,128.356a.646.646,0,1,1-.874-.265.646.646,0,0,1,.874.265" transform="translate(-43.142 -26.664)" fill="#263238"/>
            <path id="Trazado_600344" data-name="Trazado 600344" d="M207.771,129.321a.681.681,0,0,1-.194-.029.666.666,0,0,1-.12-1.225.665.665,0,0,1,.9.274.666.666,0,0,1-.587.979m0-1.292a.626.626,0,1,0,.553.331.624.624,0,0,0-.553-.331" transform="translate(-43.137 -26.659)" fill="#263238"/>
            <path id="Trazado_600345" data-name="Trazado 600345" d="M211.465,127.614a.646.646,0,1,1-.874-.265.646.646,0,0,1,.874.265" transform="translate(-43.792 -26.509)" fill="#263238"/>
            <path id="Trazado_600346" data-name="Trazado 600346" d="M210.891,128.58a.669.669,0,0,1-.587-.352.666.666,0,1,1,1.174-.627.667.667,0,0,1-.587.979m0-1.293a.627.627,0,0,0-.551.922.617.617,0,0,0,.37.3.626.626,0,0,0,.735-.894.618.618,0,0,0-.371-.3.632.632,0,0,0-.183-.028" transform="translate(-43.787 -26.504)" fill="#263238"/>
            <path id="Trazado_600347" data-name="Trazado 600347" d="M214.434,127.015a.646.646,0,1,1-.874-.265.646.646,0,0,1,.874.265" transform="translate(-44.411 -26.384)" fill="#263238"/>
            <path id="Trazado_600348" data-name="Trazado 600348" d="M213.86,127.981a.665.665,0,1,1,.313-.078.661.661,0,0,1-.313.078m0-1.293a.63.63,0,0,0-.295.074.626.626,0,0,0,.113,1.151.626.626,0,0,0,.735-.894.626.626,0,0,0-.553-.332" transform="translate(-44.405 -26.379)" fill="#263238"/>
            <path id="Trazado_600349" data-name="Trazado 600349" d="M215.964,124.026l2.279-.834,5.232,11.021-2.227.949Z" transform="translate(-44.983 -25.659)" fill="#e0e0e0"/>
            <path id="Trazado_600350" data-name="Trazado 600350" d="M149.1,118.739a7.368,7.368,0,0,1,.138,1.232c.089.865.2,2,.343,3.355.329,2.9.768,6.78,1.252,11.065.479,4.325.861,8.248,1.04,11.1.1,1.424.136,2.579.145,3.377a7.135,7.135,0,0,1-.04,1.24,7.129,7.129,0,0,1-.12-1.233c-.059-.794-.144-1.943-.276-3.361-.253-2.837-.679-6.75-1.158-11.074s-.9-8.239-1.133-11.082c-.12-1.421-.185-2.575-.214-3.373a6.975,6.975,0,0,1,.023-1.241" transform="translate(-31.05 -24.732)" fill="#263238"/>
            <path id="Trazado_600351" data-name="Trazado 600351" d="M154.819,125.681a45.148,45.148,0,0,1-1.5,5.9,45.081,45.081,0,0,1-1.9,5.788,45.185,45.185,0,0,1,1.5-5.9,45.241,45.241,0,0,1,1.9-5.788" transform="translate(-31.537 -26.178)" fill="#263238"/>
            <path id="Trazado_600352" data-name="Trazado 600352" d="M177.825,142.9a2.466,2.466,0,0,1-.53-1.047,7.569,7.569,0,0,1,.349-5.563c.321-.656.616-1,.657-.973a14.5,14.5,0,0,0-.952,3.747,14.527,14.527,0,0,0,.476,3.837" transform="translate(-36.851 -28.184)" fill="#263238"/>
            <path id="Trazado_600353" data-name="Trazado 600353" d="M174.31,177.04l3.065.238-1.217,12.784-2.958-.337Z" transform="translate(-36.075 -36.875)" fill="#e0e0e0"/>
            <path id="Trazado_600354" data-name="Trazado 600354" d="M101.945,97.655l-16.52,10.533a10.732,10.732,0,0,0-4.005,12.17l12.674,39.818-4.57,36.181,36.208-1.537-.88-15.86-3.076-28.372a56.385,56.385,0,0,0-3.887-15.316Z" transform="translate(-16.844 -20.34)" fill="#e4f476"/>
            <path id="Trazado_600355" data-name="Trazado 600355" d="M85.383,125.21l16.526,34.58a10.236,10.236,0,0,0,6.875,5.545L154.639,176.2l1.169-13.349-35-13.165L103.2,115.888a10.053,10.053,0,1,0-17.814,9.322" transform="translate(-17.543 -23.011)" fill="#e4f476"/>
            <path id="Trazado_600356" data-name="Trazado 600356" d="M156.956,163.027a.74.74,0,0,1-.188-.051l-.541-.184-2.076-.743-7.677-2.826-25.88-9.672-.074-.028-.036-.073c-.978-1.937-2-3.969-3.046-6.036-2.872-5.593-5.73-10.856-8.4-15.6-1.336-2.373-2.626-4.617-3.845-6.711l-1.775-3.022c-.28-.489-.568-.957-.868-1.395a10.832,10.832,0,0,0-.937-1.25,11,11,0,0,0-4.4-3.195,10.011,10.011,0,0,0-4.063-.724,7.257,7.257,0,0,0-3.4.909.963.963,0,0,1,.192-.137,3.212,3.212,0,0,1,.608-.333,7.112,7.112,0,0,1,2.592-.6,10,10,0,0,1,4.154.67,11.953,11.953,0,0,1,5.509,4.488c.313.449.606.918.888,1.4l1.8,3.012c1.232,2.087,2.534,4.326,3.881,6.7,2.694,4.738,5.566,10,8.441,15.6,1.059,2.062,2.081,4.1,3.043,6.044l-.111-.1,25.831,9.8,7.634,2.94,2.051.811.527.219a.757.757,0,0,1,.175.086" transform="translate(-18.692 -23.191)" fill="#263238"/>
            <path id="Trazado_600357" data-name="Trazado 600357" d="M164.456,186.966a.646.646,0,1,1-.646-.646.646.646,0,0,1,.646.646" transform="translate(-33.985 -38.808)" fill="#263238"/>
            <path id="Trazado_600358" data-name="Trazado 600358" d="M163.8,187.627a.666.666,0,1,1,.666-.666.666.666,0,0,1-.666.666m0-1.292a.627.627,0,1,0,.626.626.627.627,0,0,0-.626-.626" transform="translate(-33.98 -38.803)" fill="#263238"/>
            <path id="Trazado_600359" data-name="Trazado 600359" d="M167.557,187.782a.646.646,0,1,1-.646-.646.646.646,0,0,1,.646.646" transform="translate(-34.631 -38.978)" fill="#263238"/>
            <path id="Trazado_600360" data-name="Trazado 600360" d="M166.9,188.443a.666.666,0,1,1,.666-.666.666.666,0,0,1-.666.666m0-1.292a.626.626,0,1,0,.627.626.627.627,0,0,0-.627-.626" transform="translate(-34.626 -38.973)" fill="#263238"/>
            <path id="Trazado_600361" data-name="Trazado 600361" d="M170.458,188.652a.646.646,0,1,1-.646-.646.646.646,0,0,1,.646.646" transform="translate(-35.235 -39.159)" fill="#263238"/>
            <path id="Trazado_600362" data-name="Trazado 600362" d="M169.807,189.313a.666.666,0,1,1,.666-.666.666.666,0,0,1-.666.666m0-1.292a.626.626,0,1,0,.626.626.627.627,0,0,0-.626-.626" transform="translate(-35.23 -39.154)" fill="#263238"/>
            <path id="Trazado_600363" data-name="Trazado 600363" d="M155.787,181.8a.925.925,0,0,1-.223-.036l-.644-.144-2.47-.591L143.38,178.8c-7.657-1.88-18.224-4.537-29.942-7.251-1.464-.351-2.918-.629-4.349-1.017a9.551,9.551,0,0,1-3.92-1.958,11.427,11.427,0,0,1-2.4-3.48l-1.729-3.614-5.932-12.52c-1.664-3.549-3.016-6.43-3.966-8.455-.45-.98-.805-1.752-1.059-2.307l-.267-.6a.909.909,0,0,1-.078-.212.965.965,0,0,1,.116.195l.3.587,1.129,2.275,4.084,8.4,6.01,12.48,1.739,3.6a11.092,11.092,0,0,0,2.317,3.355,9.153,9.153,0,0,0,3.759,1.862c1.4.378,2.868.66,4.331,1.01,11.726,2.716,22.28,5.418,29.921,7.371l9.037,2.359,2.451.666.634.184a.939.939,0,0,1,.213.077" transform="translate(-18.692 -28.614)" fill="#263238"/>
            <path id="Trazado_600364" data-name="Trazado 600364" d="M121.983,190.749c.016.024-.179.187-.546.461s-.907.66-1.589,1.116a25.624,25.624,0,0,1-5.7,2.961,13,13,0,0,1-6.384.64,8.458,8.458,0,0,1-1.881-.541,2.1,2.1,0,0,1-.631-.341,22.209,22.209,0,0,0,2.556.594,13.828,13.828,0,0,0,6.205-.741,30.493,30.493,0,0,0,5.674-2.818,19.694,19.694,0,0,1,2.292-1.33" transform="translate(-21.923 -39.73)" fill="#263238"/>
            <path id="Trazado_600365" data-name="Trazado 600365" d="M123.875,196.549a.942.942,0,0,1,.114.3,6.944,6.944,0,0,1,.211.889,9.8,9.8,0,0,1-.032,3.358,10.259,10.259,0,0,1-2.058,4.533,10.156,10.156,0,0,1-11.177,3.123,10.244,10.244,0,0,1-4.111-2.811,9.789,9.789,0,0,1-1.767-2.855,6.845,6.845,0,0,1-.28-.869.945.945,0,0,1-.057-.314,12.1,12.1,0,0,0,2.321,3.841,10.235,10.235,0,0,0,4.022,2.649,9.932,9.932,0,0,0,10.755-3.005,10.224,10.224,0,0,0,2.066-4.35,12.09,12.09,0,0,0-.006-4.488" transform="translate(-21.81 -40.939)" fill="#263238"/>
            <path id="Trazado_600366" data-name="Trazado 600366" d="M109.735,54.059l.1,29.5a8.776,8.776,0,1,0,17.551-.075c-.01-2.221-.014-4.073,0-4.3,0,0,7.508-.733,8.023-8.168.249-3.593.161-11.035,0-17.767a13.882,13.882,0,0,0-13.093-13.525l-.718-.041c-7.767.011-12.1,6.613-11.87,14.377" transform="translate(-22.855 -8.265)" fill="#b78876"/>
            <path id="Trazado_600367" data-name="Trazado 600367" d="M129.551,88.57a17.326,17.326,0,0,1-9.543-3.309s1.987,5.485,9.45,5.238Z" transform="translate(-24.996 -17.759)" fill="#aa6550"/>
            <path id="Trazado_600368" data-name="Trazado 600368" d="M139.286,62.074a1.063,1.063,0,0,1-1.085,1.013,1.018,1.018,0,0,1-1.041-1.021,1.065,1.065,0,0,1,1.085-1.014,1.019,1.019,0,0,1,1.042,1.021" transform="translate(-28.569 -12.717)" fill="#263238"/>
            <path id="Trazado_600369" data-name="Trazado 600369" d="M139.009,60.43c-.139.131-.91-.511-2.054-.572-1.141-.079-2.014.462-2.13.314-.058-.065.091-.308.472-.553a2.917,2.917,0,0,1,1.715-.424,2.8,2.8,0,0,1,1.625.629c.336.29.441.547.373.606" transform="translate(-28.08 -12.329)" fill="#263238"/>
            <path id="Trazado_600370" data-name="Trazado 600370" d="M125.254,61.96a1.064,1.064,0,0,1-1.085,1.013,1.018,1.018,0,0,1-1.041-1.021,1.065,1.065,0,0,1,1.085-1.014,1.019,1.019,0,0,1,1.042,1.021" transform="translate(-25.646 -12.693)" fill="#263238"/>
            <path id="Trazado_600371" data-name="Trazado 600371" d="M124.634,60.1c-.14.131-.912-.511-2.055-.572-1.142-.078-2.014.462-2.13.314-.057-.065.09-.307.472-.553a2.92,2.92,0,0,1,1.715-.424,2.8,2.8,0,0,1,1.625.629c.336.29.441.547.373.606" transform="translate(-25.086 -12.261)" fill="#263238"/>
            <path id="Trazado_600372" data-name="Trazado 600372" d="M130.313,69.269a7.61,7.61,0,0,1,1.876-.23c.294-.013.573-.055.633-.252a1.484,1.484,0,0,0-.146-.876q-.351-1.083-.736-2.273a38.232,38.232,0,0,1-1.608-5.925,38.316,38.316,0,0,1,2.081,5.783q.366,1.195.7,2.283a1.69,1.69,0,0,1,.086,1.154.734.734,0,0,1-.5.4,1.987,1.987,0,0,1-.5.04,7.431,7.431,0,0,1-1.882-.1" transform="translate(-27.143 -12.437)" fill="#263238"/>
            <path id="Trazado_600373" data-name="Trazado 600373" d="M124.939,57.173c-.131.3-1.264.092-2.614.177-1.352.058-2.457.389-2.619.1-.071-.138.134-.42.588-.7a4.553,4.553,0,0,1,3.987-.211c.481.226.715.485.658.629" transform="translate(-24.93 -11.702)" fill="#263238"/>
            <path id="Trazado_600374" data-name="Trazado 600374" d="M138.97,56.967c-.216.249-.988-.067-1.935-.133-.944-.1-1.758.075-1.928-.207-.074-.136.067-.39.432-.615a2.809,2.809,0,0,1,3.112.274c.32.287.414.56.318.682" transform="translate(-28.137 -11.594)" fill="#263238"/>
            <path id="Trazado_600375" data-name="Trazado 600375" d="M108.752,64.754c-.124-.063-5.026-1.8-5.153,3.293s5.015,4.172,5.027,4.027.126-7.319.126-7.319" transform="translate(-21.578 -13.417)" fill="#b78876"/>
            <path id="Trazado_600376" data-name="Trazado 600376" d="M107.458,70.533c-.022-.017-.09.06-.242.125a.887.887,0,0,1-.663,0,2.2,2.2,0,0,1-.967-2,2.934,2.934,0,0,1,.28-1.265,1.024,1.024,0,0,1,.685-.664.45.45,0,0,1,.518.257c.065.144.03.245.056.254s.112-.082.076-.294a.563.563,0,0,0-.192-.325.672.672,0,0,0-.488-.143,1.249,1.249,0,0,0-.947.767,3.017,3.017,0,0,0-.344,1.413,2.306,2.306,0,0,0,1.24,2.233.953.953,0,0,0,.815-.115c.161-.122.191-.235.173-.245" transform="translate(-21.918 -13.846)" fill="#aa6550"/>
            <path id="Trazado_600377" data-name="Trazado 600377" d="M106.4,59a2.68,2.68,0,0,1,2.378,1.394c.289.746.315,1.572.6,2.318a1.8,1.8,0,0,0,1.784,1.306,1.566,1.566,0,0,0,1.126-1.1,4.3,4.3,0,0,0,.108-1.64c-.164-2.393-.529-4.776-.488-7.174a12.24,12.24,0,0,1,1.9-6.831,6.7,6.7,0,0,1,6.141-3.006c1.574.218,2.977,1.125,4.535,1.435a6.225,6.225,0,0,0,5.261-1.429,2.366,2.366,0,0,1,.251-.18,1.373,1.373,0,0,0,.58-1.558,1.324,1.324,0,0,0-.272-.5c-2.951-3.059-8.52-4.183-12.7-3.382a14.867,14.867,0,0,0-10.189,7.243C105.43,49.649,105.65,55.043,106.4,59" transform="translate(-22.05 -7.998)" fill="#263238"/>
            <path id="Trazado_600378" data-name="Trazado 600378" d="M126.854,72.916c.186-.011.188,1.228,1.249,2.108s2.379.743,2.389.916c.017.078-.295.241-.852.256a3.085,3.085,0,0,1-1.994-.7,2.69,2.69,0,0,1-.967-1.766c-.048-.518.091-.825.176-.818" transform="translate(-26.384 -15.187)" fill="#263238"/>
            <path id="Trazado_600379" data-name="Trazado 600379" d="M216.759,124.356s5.58-4.9,6.637-5.263,9.456-.515,10.024-.094,9.07,5.084,7.662,5.8-7.307-2.625-7.307-2.625l-.992.131s5.144,2.746,6.061,3.8c.844.974.036,2.14-.925,1.693s-5.375-3-5.723-2.9,4.7,3.052,5.17,3.6c.625.736.222,2.161-.747,1.75-.571-.243-5.232-3.331-5.232-3.331a46.177,46.177,0,0,1,3.769,3.449c.412.792-.378,1.508-1.191,1.011-.557-.341-2.952-2.7-3.7-3.153,0,0-.825-.059-2.038,1.234s-6,3.066-6,3.066Z" transform="translate(-45.148 -24.734)" fill="#b78876"/>
            <path id="Trazado_600380" data-name="Trazado 600380" d="M244.385,125.627a4.424,4.424,0,0,1-1.8-.113,10.327,10.327,0,0,1-1.889-.565c-.663-.316-1.382-.682-2.138-1.066l-1.6-.828.1.025a25.73,25.73,0,0,1-4.318-.123,25.624,25.624,0,0,1,4.312-.306l.051,0,.055.027,1.594.8,2.1,1.088a12.68,12.68,0,0,0,1.8.637c1.055.284,1.737.353,1.731.423" transform="translate(-48.477 -25.546)" fill="#aa6550"/>
            <path id="Trazado_600381" data-name="Trazado 600381" d="M219.382,126.6a1.907,1.907,0,0,0,2.1.723c.777-.165,1.477-.589,2.241-.81,2.284-.66,4.826.561,7.076-.207.314-.107.667-.338.629-.667-.035-.3-.379-.457-.671-.55l-7.5-2.391" transform="translate(-45.695 -25.555)" fill="#b78876"/>
            <path id="Trazado_600382" data-name="Trazado 600382" d="M223.25,122.692a3.161,3.161,0,0,1,.838.175c.53.141,1.294.359,2.234.637l3.3,1,.951.295c.295.117.731.139,1.015.6a.667.667,0,0,1-.118.736,1.366,1.366,0,0,1-.54.352,5.126,5.126,0,0,1-1.134.253,30.136,30.136,0,0,1-4.236-.229,5.921,5.921,0,0,0-1.767.168c-.534.145-1.02.378-1.489.546a2.774,2.774,0,0,1-2.347.017c-.514-.3-.591-.657-.572-.652a2.3,2.3,0,0,0,.649.495,2.683,2.683,0,0,0,2.156-.158c.447-.18.925-.433,1.5-.607a6.089,6.089,0,0,1,1.88-.223,35.114,35.114,0,0,0,4.176.2,4.835,4.835,0,0,0,1.024-.224c.308-.111.517-.333.42-.479-.082-.177-.426-.287-.748-.386l-.947-.31-3.267-1.092c-.928-.317-1.677-.581-2.191-.773a3.179,3.179,0,0,1-.785-.342" transform="translate(-45.694 -25.554)" fill="#aa6550"/>
            <path id="Trazado_600383" data-name="Trazado 600383" d="M175.9,177.193l9.256-.917s12.239,8.383,11.066,10.227-3.186,0-3.186,0,2.18,2.682-1.341,3.521c0,0-.838,1.844-2.18,1.676l-.838.011s-.758,2.336-1.888,1.834a36.725,36.725,0,0,1-4.546-3.521l-9.493-.838Z" transform="translate(-35.982 -36.716)" fill="#b78876"/>
            <path id="Trazado_600384" data-name="Trazado 600384" d="M183.146,189.448s-2.37.91-2.864,1.862-.778,3.2.751,3.6a13.556,13.556,0,0,0,2.693-.085l-.585-2.492a17.472,17.472,0,0,1,1.414-1.462c.5-.42-.048-2.059-1.408-1.428" transform="translate(-37.469 -39.43)" fill="#ffbe9d"/>
            <path id="Trazado_600385" data-name="Trazado 600385" d="M186.564,191.047s-2.37.91-2.864,1.862a2.093,2.093,0,0,0,1.363,2.958,11.036,11.036,0,0,0,2.446-.083l-.249-.483c-.481-.934-.686-1.691.159-2.315.047-.035.519-.477.553-.511a1.032,1.032,0,0,0-1.408-1.428" transform="translate(-38.218 -39.763)" fill="#ffbe9d"/>
            <path id="Trazado_600386" data-name="Trazado 600386" d="M188,196.246a1.375,1.375,0,0,1-.192-1.629,2.246,2.246,0,0,1,1.389-1.013,1.04,1.04,0,0,1,1.084.177.915.915,0,0,1,.152.712,3.735,3.735,0,0,1-.93,1.732c-.22.276-.492.579-.846.57s-.621-.339-.825-.638" transform="translate(-39.08 -40.311)" fill="#ffbe9d"/>
            <path id="Trazado_600387" data-name="Trazado 600387" d="M124.549,102.5l2.081-.788,1.8,3.224-1,3.441-2.122.525-2.117-2.666Z" transform="translate(-25.659 -21.185)" fill="#e8505b"/>
            <path id="Trazado_600388" data-name="Trazado 600388" d="M125.864,110.654s2.693,14.813,4.939,25.233c0,0,1.842,8.674,2.587,10.675a29.281,29.281,0,0,0,3.393,5.573l2.607,1.009L137.8,138.5l-9.811-28.374Z" transform="translate(-26.216 -22.939)" fill="#e8505b"/>
            <g id="Grupo_878251" data-name="Grupo 878251" transform="translate(97.532 80.526)">
              <g id="Grupo_878250" data-name="Grupo 878250">
                <g id="Grupo_878249" data-name="Grupo 878249" clip-path="url(#clip-path-5)">
                  <path id="Trazado_600389" data-name="Trazado 600389" d="M124.549,102.5l2.081-.788,1.8,3.224-1,3.441-2.122.525-2.117-2.666Z" transform="translate(-123.191 -101.711)" fill="#529d2e"/>
                </g>
              </g>
            </g>
            <g id="Grupo_878254" data-name="Grupo 878254" transform="translate(99.648 87.19)">
              <g id="Grupo_878253" data-name="Grupo 878253">
                <g id="Grupo_878252" data-name="Grupo 878252" clip-path="url(#clip-path-6)">
                  <path id="Trazado_600390" data-name="Trazado 600390" d="M125.864,110.654s2.693,14.813,4.939,25.233c0,0,2.109,8.593,2.587,10.675.28,1.223,3.393,5.573,3.393,5.573l2.607,1.009L137.8,138.5l-9.811-28.374Z" transform="translate(-125.864 -110.129)" fill="#529d2e"/>
                </g>
              </g>
            </g>
            <path id="Trazado_600391" data-name="Trazado 600391" d="M108.717,91.336l12.49,9-2.7,7.426-11.365-11.7Z" transform="translate(-22.316 -19.024)" fill="#f5f5f5"/>
            <path id="Trazado_600392" data-name="Trazado 600392" d="M127.535,99.663l3.491-7.786L133,98.3l-2.742,6.751Z" transform="translate(-26.564 -19.137)" fill="#f5f5f5"/>
            <path id="Trazado_600393" data-name="Trazado 600393" d="M121.277,101.42a2.085,2.085,0,0,1-.14.571c-.141.431-.308.945-.506,1.553-.447,1.325-1.1,3.191-1.873,5.369l-.108.3-.217-.239-2.912-3.211c-2.263-2.511-4.293-4.8-5.748-6.47L108.067,97.3a4.417,4.417,0,0,1-.584-.768,4.311,4.311,0,0,1,.7.661l1.8,1.9c1.511,1.621,3.575,3.878,5.838,6.389l2.892,3.229-.325.063c.8-2.169,1.5-4.016,2.013-5.318l.61-1.515a2.07,2.07,0,0,1,.259-.527" transform="translate(-22.387 -20.107)" fill="#263238"/>
            <path id="Trazado_600394" data-name="Trazado 600394" d="M133.009,99.989a8.755,8.755,0,0,1-.583,1.822c-.409,1.106-1,2.623-1.677,4.289-.1.245-.2.487-.293.717l-.205.5-.178-.51a35.023,35.023,0,0,0-2.49-5.115,5.283,5.283,0,0,1,1.042,1.3,17.2,17.2,0,0,1,1.834,3.679l-.382-.009.29-.718c.677-1.666,1.311-3.165,1.789-4.243a8.862,8.862,0,0,1,.853-1.712" transform="translate(-26.573 -20.826)" fill="#263238"/>
          </g>
        </g>
        <g id="Grupo_878264" data-name="Grupo 878264">
          <g id="Grupo_878263" data-name="Grupo 878263" clip-path="url(#clip-path)">
            <path id="Trazado_600395" data-name="Trazado 600395" d="M331.43,396.1l4.818,19.116,8.17,14.021a2.02,2.02,0,0,1-2.7,2.8c-3.669-1.979-17.127-9.327-17.4-10.746-.317-1.643-6.419-19.826-6.419-19.826Z" transform="translate(-66.214 -82.503)" fill="#7f8d93"/>
            <g id="Grupo_878259" data-name="Grupo 878259" transform="translate(257.748 337.504)" opacity="0.6">
              <g id="Grupo_878258" data-name="Grupo 878258">
                <g id="Grupo_878257" data-name="Grupo 878257" clip-path="url(#clip-path-8)">
                  <path id="Trazado_600396" data-name="Trazado 600396" d="M345.163,438.353l-19.6-12.058.222.805a3.039,3.039,0,0,0,1.22,1.708c1.6,1.084,6.078,3.982,16.255,9.531a2.021,2.021,0,0,0,1.906.013" transform="translate(-325.558 -426.296)" fill="#fff"/>
                </g>
              </g>
            </g>
            <g id="Grupo_878262" data-name="Grupo 878262" transform="translate(258.423 330.226)" opacity="0.6">
              <g id="Grupo_878261" data-name="Grupo 878261">
                <g id="Grupo_878260" data-name="Grupo 878260" clip-path="url(#clip-path-9)">
                  <path id="Trazado_600397" data-name="Trazado 600397" d="M327.94,417.173a1.222,1.222,0,0,1,.747,1.45,1.176,1.176,0,0,1-1.43.754,1.29,1.29,0,0,1-.784-1.539,1.219,1.219,0,0,1,1.575-.619" transform="translate(-326.41 -417.103)" fill="#fff"/>
                </g>
              </g>
            </g>
            <path id="Trazado_600398" data-name="Trazado 600398" d="M341.921,431.752a4.356,4.356,0,0,1,3.329-2.962c0-.051-.278-.132-.739-.072a3.222,3.222,0,0,0-2.575,2.29c-.113.452-.066.741-.014.743" transform="translate(-71.206 -89.292)" fill="#263238"/>
            <path id="Trazado_600399" data-name="Trazado 600399" d="M344.528,434.736c.113.057.552-.729,1.457-1.283a16.457,16.457,0,0,1,1.79-.752,2.244,2.244,0,0,0-2.02.386c-1.028.637-1.34,1.625-1.227,1.649" transform="translate(-71.756 -90.106)" fill="#263238"/>
            <path id="Trazado_600400" data-name="Trazado 600400" d="M337.612,428.37a10.384,10.384,0,0,1,4.752-3.567,5.519,5.519,0,0,0-4.752,3.567" transform="translate(-70.318 -88.475)" fill="#263238"/>
            <path id="Trazado_600401" data-name="Trazado 600401" d="M335.15,421.671c.082.1,1.01-.629,2.362-1.056,1.347-.445,2.526-.4,2.534-.527a5.014,5.014,0,0,0-4.9,1.583" transform="translate(-69.806 -87.465)" fill="#263238"/>
            <path id="Trazado_600402" data-name="Trazado 600402" d="M333.185,414.639a6.419,6.419,0,0,1,5.125-1.229c.021-.048-.253-.229-.762-.361a4.4,4.4,0,0,0-3.848.922c-.393.348-.554.633-.515.667" transform="translate(-69.397 -86.008)" fill="#263238"/>
            <path id="Trazado_600403" data-name="Trazado 600403" d="M334.934,411.307a1.692,1.692,0,0,0-.173-.726,5.187,5.187,0,0,0-1.092-1.724,2.3,2.3,0,0,0-1.241-.795.813.813,0,0,0-.834.419,1.324,1.324,0,0,0-.063.941,2.856,2.856,0,0,0,3.116,1.879,3.312,3.312,0,0,0,2.674-2.537,1.151,1.151,0,0,0-.2-.936.8.8,0,0,0-.915-.184,2.817,2.817,0,0,0-1.072,1,5.775,5.775,0,0,0-.888,1.835,1.763,1.763,0,0,0-.111.737,9.186,9.186,0,0,1,1.243-2.387,2.636,2.636,0,0,1,.956-.846.424.424,0,0,1,.5.1.79.79,0,0,1,.1.623,2.954,2.954,0,0,1-2.343,2.172,2.479,2.479,0,0,1-2.668-1.557.959.959,0,0,1,.017-.659.439.439,0,0,1,.457-.237,2.076,2.076,0,0,1,1.063.653,7.646,7.646,0,0,1,1.482,2.235" transform="translate(-69.042 -84.893)" fill="#263238"/>
            <path id="Trazado_600404" data-name="Trazado 600404" d="M255.982,400.472,257,415.2s-14.632,5.985-14.708,8.726l28.637-.953-.648-23.021Z" transform="translate(-50.467 -83.306)" fill="#7f8d93"/>
            <path id="Trazado_600405" data-name="Trazado 600405" d="M271.645,417.265a1.171,1.171,0,0,1,.853,1.308,1.125,1.125,0,0,1-1.289.857,1.234,1.234,0,0,1-.9-1.389,1.167,1.167,0,0,1,1.439-.743" transform="translate(-56.296 -86.903)" fill="#e0e0e0"/>
            <path id="Trazado_600406" data-name="Trazado 600406" d="M270.926,428.424l-.156-2.318-27.4,1.781s-1.256.6-1.082,1.491Z" transform="translate(-50.462 -88.753)" fill="#e0e0e0"/>
            <path id="Trazado_600407" data-name="Trazado 600407" d="M260.279,419.013c.01.14.711.18,1.413.606.715.409,1.089,1,1.216.943.128-.032-.108-.861-.968-1.362s-1.7-.314-1.661-.187" transform="translate(-54.213 -87.245)" fill="#263238"/>
            <path id="Trazado_600408" data-name="Trazado 600408" d="M256.538,420.731c-.028.137.586.354,1.081.93.511.561.652,1.2.792,1.185.132.018.2-.8-.427-1.508s-1.447-.74-1.446-.607" transform="translate(-53.433 -87.62)" fill="#263238"/>
            <path id="Trazado_600409" data-name="Trazado 600409" d="M254.219,424.734c.128.025.3-.679-.085-1.433s-1.048-1.037-1.1-.918c-.075.117.363.514.669,1.138.321.616.381,1.205.52,1.214" transform="translate(-52.701 -87.971)" fill="#263238"/>
            <path id="Trazado_600410" data-name="Trazado 600410" d="M260.455,414.633c.063.125.7-.089,1.49-.062.793.012,1.416.257,1.485.134.078-.1-.54-.6-1.473-.621s-1.574.441-1.5.549" transform="translate(-54.248 -86.249)" fill="#263238"/>
            <path id="Trazado_600411" data-name="Trazado 600411" d="M260.265,410.38a2.688,2.688,0,0,0,1.434-.055,6.4,6.4,0,0,0,1.485-.511,6.816,6.816,0,0,0,.809-.464,1.776,1.776,0,0,0,.422-.352.611.611,0,0,0,.04-.746.767.767,0,0,0-.624-.3,1.871,1.871,0,0,0-.535.092,5.155,5.155,0,0,0-.881.336,5.075,5.075,0,0,0-1.294.912c-.644.637-.853,1.168-.805,1.193.065.044.374-.4,1.033-.935a5.745,5.745,0,0,1,1.255-.763,5.25,5.25,0,0,1,.815-.281c.3-.09.558-.1.641.032.03.051.035.07-.026.162a1.4,1.4,0,0,1-.31.257,7.382,7.382,0,0,1-.743.458,7.991,7.991,0,0,1-1.369.578,9.763,9.763,0,0,0-1.347.388" transform="translate(-54.21 -84.972)" fill="#263238"/>
            <path id="Trazado_600412" data-name="Trazado 600412" d="M259.981,410.077a2.286,2.286,0,0,0,.333-1.4,4.679,4.679,0,0,0-.248-1.564,4.737,4.737,0,0,0-.4-.858,1.185,1.185,0,0,0-.939-.694.669.669,0,0,0-.585.42,1.907,1.907,0,0,0-.13.53,3.178,3.178,0,0,0,.031.966,3.3,3.3,0,0,0,.662,1.462c.584.724,1.173.871,1.184.823.044-.072-.452-.325-.9-1.024a3.309,3.309,0,0,1-.5-1.332,2.938,2.938,0,0,1,0-.83c.035-.306.141-.555.256-.528.142-.006.392.215.517.454a4.727,4.727,0,0,1,.382.766,5.166,5.166,0,0,1,.325,1.422c.067.839-.065,1.367.012,1.386" transform="translate(-53.737 -84.474)" fill="#263238"/>
            <path id="Trazado_600413" data-name="Trazado 600413" d="M249.713,198.177l4.606,171.45,22.59-.679L275.175,221.8,303.962,373.04l20.4-5.326L298.023,198.5Z" transform="translate(-52.012 -41.278)" fill="#263238"/>
            <path id="Trazado_600414" data-name="Trazado 600414" d="M265.294,373.255c-.114,0-.206-35.54-.206-79.371,0-43.846.092-79.379.206-79.379s.206,35.533.206,79.379c0,43.831-.092,79.371-.206,79.371" transform="translate(-55.215 -44.679)" fill="#455a64"/>
            <path id="Trazado_600415" data-name="Trazado 600415" d="M320.28,378.919c-.113.017-5.391-34.058-11.787-76.1S297,226.67,297.116,226.653,302.5,260.7,308.9,302.759c6.4,42.041,11.491,76.143,11.378,76.16" transform="translate(-61.885 -47.209)" fill="#455a64"/>
            <path id="Trazado_600416" data-name="Trazado 600416" d="M282.41,57.191a35.207,35.207,0,0,0,1.91-5.456c.271-1.424.7-3.56.125-4.89a3.421,3.421,0,0,0-3.7-2.245,8.267,8.267,0,0,0-4.784-6.482,21.052,21.052,0,0,0-7.923-2.059,6.723,6.723,0,0,0-2.97.372,3.805,3.805,0,0,0-1.785,1.925,6.558,6.558,0,0,0-5.821-.933c-2.179.593-4.667,1.769-5.623,3.814a6.385,6.385,0,0,0-.173,4.833C252.09,47.4,253.5,49.49,254.807,49" transform="translate(-52.338 -7.506)" fill="#263238"/>
            <path id="Trazado_600417" data-name="Trazado 600417" d="M272.193,96.189h0a9.781,9.781,0,0,1-9.565-10.266c.137-2.736.264-4.943.264-4.943s-7.455-.968-7.733-8.39.582-24.5.582-24.5A25.812,25.812,0,0,1,281.748,50.7l1.121.819L282.175,86.6a9.78,9.78,0,0,1-9.982,9.584" transform="translate(-53.135 -9.525)" fill="#ffbe9d"/>
            <path id="Trazado_600418" data-name="Trazado 600418" d="M264.893,89.331a17.273,17.273,0,0,0,9.61-2.993s-2.29,5.76-9.715,5.277Z" transform="translate(-55.152 -17.983)" fill="#eb996e"/>
            <path id="Trazado_600419" data-name="Trazado 600419" d="M289.234,62.708c.125-.058,5.063-1.636,5.028,3.443s-5.127,4-5.135,3.851.107-7.294.107-7.294" transform="translate(-60.221 -13.004)" fill="#ffbe9d"/>
            <path id="Trazado_600420" data-name="Trazado 600420" d="M291.1,68.521c.022-.016.088.063.237.132a.888.888,0,0,0,.662.018,2.189,2.189,0,0,0,1.026-1.958,2.92,2.92,0,0,0-.238-1.268,1.023,1.023,0,0,0-.661-.684A.451.451,0,0,0,291.6,65c-.069.142-.037.243-.064.252s-.108-.086-.067-.3a.569.569,0,0,1,.2-.317.668.668,0,0,1,.491-.127,1.244,1.244,0,0,1,.918.794,3.016,3.016,0,0,1,.3,1.418,2.3,2.3,0,0,1-1.306,2.185.949.949,0,0,1-.808-.14c-.157-.127-.182-.241-.165-.249" transform="translate(-60.632 -13.436)" fill="#eb996e"/>
            <path id="Trazado_600421" data-name="Trazado 600421" d="M258.343,63.095a1.061,1.061,0,0,0,1.049,1.044,1.014,1.014,0,0,0,1.069-.983,1.061,1.061,0,0,0-1.048-1.045,1.015,1.015,0,0,0-1.07.984" transform="translate(-53.81 -12.937)" fill="#263238"/>
            <path id="Trazado_600422" data-name="Trazado 600422" d="M258.008,61.549c.135.135.923-.48,2.064-.505,1.139-.042,1.991.524,2.112.381.059-.063-.082-.31-.453-.566a2.915,2.915,0,0,0-1.694-.476,2.8,2.8,0,0,0-1.639.575c-.344.278-.457.531-.39.591" transform="translate(-53.736 -12.577)" fill="#263238"/>
            <path id="Trazado_600423" data-name="Trazado 600423" d="M272.464,63.08a1.061,1.061,0,0,0,1.049,1.044,1.014,1.014,0,0,0,1.069-.983,1.061,1.061,0,0,0-1.048-1.045,1.015,1.015,0,0,0-1.07.984" transform="translate(-56.751 -12.934)" fill="#263238"/>
            <path id="Trazado_600424" data-name="Trazado 600424" d="M272.179,61.463c.135.135.925-.48,2.065-.505,1.139-.042,1.991.524,2.112.381.059-.063-.08-.309-.453-.565a2.905,2.905,0,0,0-1.694-.477,2.8,2.8,0,0,0-1.639.575c-.343.278-.456.531-.39.591" transform="translate(-56.688 -12.559)" fill="#263238"/>
            <path id="Trazado_600425" data-name="Trazado 600425" d="M266.453,70.083a7.562,7.562,0,0,0-1.861-.287c-.292-.023-.569-.074-.623-.272a1.477,1.477,0,0,1,.173-.869q.385-1.068.806-2.24a38.206,38.206,0,0,0,1.789-5.852,38.184,38.184,0,0,0-2.256,5.693q-.4,1.179-.769,2.253a1.682,1.682,0,0,0-.123,1.146.729.729,0,0,0,.489.414,2.011,2.011,0,0,0,.5.057,7.448,7.448,0,0,0,1.878-.045" transform="translate(-54.889 -12.615)" fill="#263238"/>
            <path id="Trazado_600426" data-name="Trazado 600426" d="M270.552,73.478c-.186-.006-.158,1.232-1.195,2.138s-2.36.8-2.365.976c-.016.078.3.233.857.234a3.084,3.084,0,0,0,1.975-.745,2.688,2.688,0,0,0,.923-1.79c.034-.519-.112-.823-.2-.813" transform="translate(-55.611 -15.305)" fill="#263238"/>
            <path id="Trazado_600427" data-name="Trazado 600427" d="M271.669,55.892c.12.307,1.256.131,2.6.26,1.345.1,2.435.466,2.6.183.076-.135-.12-.422-.564-.712a4.537,4.537,0,0,0-3.964-.337c-.486.211-.728.46-.675.606" transform="translate(-56.584 -11.452)" fill="#263238"/>
            <path id="Trazado_600428" data-name="Trazado 600428" d="M258.43,57.348c.207.254.986-.035,1.931-.07.944-.07,1.75.13,1.927-.146.078-.134-.055-.39-.411-.627a2.8,2.8,0,0,0-3.108.175c-.328.275-.431.544-.339.668" transform="translate(-53.821 -11.688)" fill="#263238"/>
            <path id="Trazado_600429" data-name="Trazado 600429" d="M282.778,51.618c-.047,2.165.5,4.562.171,6.7-.049.321-.861,1.2-.926,1.519-.39,1.892-1.15,2.717-2.316.805a17,17,0,0,1-.966-3.64l-1.522-6.821a11.872,11.872,0,0,1-5.61,1.48,5.772,5.772,0,0,1-4.9-2.724,5.989,5.989,0,0,1-9.258,1.452,2.5,2.5,0,0,1-3.289.788,2.969,2.969,0,0,1-1.288-3.245c.466-1.824,2.381-2.856,4.173-3.432,7.008-2.255,14.857-.823,21.3,2.743a10.769,10.769,0,0,1,2.61,1.866c.745.774,1.773,1.68,1.831,2.752" transform="translate(-52.653 -9.042)" fill="#263238"/>
            <path id="Trazado_600430" data-name="Trazado 600430" d="M283.927,52.977a3.648,3.648,0,0,1,1.153.184,3.942,3.942,0,0,1,1.059.682c.36.314.721.73,1.154,1.133a3.741,3.741,0,0,0,1.443.907,2.571,2.571,0,0,0,1.407.019c.785-.22,1.1-.653,1.059-.679a8.246,8.246,0,0,1-1.124.378,2.51,2.51,0,0,1-1.218-.1,3.7,3.7,0,0,1-1.271-.844c-.412-.384-.784-.795-1.193-1.123a3.665,3.665,0,0,0-1.216-.665c-.8-.234-1.289.072-1.253.107" transform="translate(-59.138 -10.994)" fill="#455a64"/>
            <path id="Trazado_600431" data-name="Trazado 600431" d="M285.022,55.8a2.285,2.285,0,0,1,.8.358,4.134,4.134,0,0,1,.646.734,3.465,3.465,0,0,0,3.278,1.388c.61-.092.929-.317.906-.363-.025-.065-.37.049-.933.056a3.819,3.819,0,0,1-2.057-.553c-.724-.41-1.086-1.18-1.667-1.516s-1.018-.156-.979-.1" transform="translate(-59.366 -11.603)" fill="#455a64"/>
            <path id="Trazado_600432" data-name="Trazado 600432" d="M259.519,37.589c0-.023-.24-.062-.652.061a2.843,2.843,0,0,0-1.431,1.075,6.8,6.8,0,0,0-.414,5.724,8.058,8.058,0,0,0,3.636,4.472,7.134,7.134,0,0,0,1.625.694,1.567,1.567,0,0,0,.639.107,21.283,21.283,0,0,1-2.1-1.063,8.241,8.241,0,0,1-3.383-4.346,6.837,6.837,0,0,1,.256-5.415,2.918,2.918,0,0,1,1.237-1.089c.364-.162.6-.183.591-.219" transform="translate(-53.447 -7.824)" fill="#455a64"/>
            <path id="Trazado_600433" data-name="Trazado 600433" d="M252.511,41.488a3.252,3.252,0,0,0,.063,1.431,8.852,8.852,0,0,0,3.761,5.655,3.237,3.237,0,0,0,1.294.611,14.417,14.417,0,0,1-3.377-3.305,14.419,14.419,0,0,1-1.743-4.392" transform="translate(-52.585 -8.641)" fill="#455a64"/>
            <path id="Trazado_600434" data-name="Trazado 600434" d="M197.306,172.171l-10.863.55A2.565,2.565,0,0,0,184,175.332c.051,2.48.47,5.879,2.4,5.557l1.238-5.409,9.014,7.954a6.538,6.538,0,0,0,3.248,1.592l2.119-.219Z" transform="translate(-38.326 -35.861)" fill="#ffbe9d"/>
            <path id="Trazado_600435" data-name="Trazado 600435" d="M264.187,98.159l-5.678,1.876-2.817,47.151v41.821l34.859,3.861.4-60.313L288.7,102.537l-5.324-6.363Z" transform="translate(-53.257 -20.032)" fill="#e0e0e0"/>
            <path id="Trazado_600436" data-name="Trazado 600436" d="M264.215,99.572V95L284.93,92.12l-.832,10.526-4.761,8.251-7.779.434-5.622-3.472Z" transform="translate(-55.033 -19.187)" fill="#e0e0e0"/>
            <path id="Trazado_600437" data-name="Trazado 600437" d="M266.523,99.764a5.426,5.426,0,0,1-.117-2.089,5.439,5.439,0,0,1,.3-2.07,5.426,5.426,0,0,1,.117,2.089,5.439,5.439,0,0,1-.3,2.07" transform="translate(-55.485 -19.913)" fill="#263238"/>
            <path id="Trazado_600438" data-name="Trazado 600438" d="M273.074,99.16a6.726,6.726,0,0,1-.07-2.334,6.744,6.744,0,0,1,.341-2.31,6.734,6.734,0,0,1,.07,2.335,6.744,6.744,0,0,1-.341,2.309" transform="translate(-56.855 -19.686)" fill="#263238"/>
            <path id="Trazado_600439" data-name="Trazado 600439" d="M279.407,98.429a7.521,7.521,0,0,1-.025-2.469,7.537,7.537,0,0,1,.386-2.438,7.493,7.493,0,0,1,.025,2.469,7.515,7.515,0,0,1-.386,2.438" transform="translate(-58.177 -19.48)" fill="#263238"/>
            <path id="Trazado_600440" data-name="Trazado 600440" d="M285.455,97.5a5.666,5.666,0,0,1-.181-2.338,5.693,5.693,0,0,1,.393-2.312,8.345,8.345,0,0,1,.018,2.331,8.412,8.412,0,0,1-.23,2.319" transform="translate(-59.416 -19.339)" fill="#263238"/>
            <path id="Trazado_600441" data-name="Trazado 600441" d="M279.808,123.9a3.122,3.122,0,0,1-.275.774c-.2.488-.511,1.185-.915,2.038-.806,1.705-2.005,4.022-3.476,6.5s-2.936,4.635-4.05,6.158c-.556.762-1.019,1.369-1.352,1.777a3.133,3.133,0,0,1-.549.611,27.645,27.645,0,0,1,1.663-2.556c1.049-1.561,2.467-3.737,3.934-6.2s2.7-4.75,3.569-6.418a27.927,27.927,0,0,1,1.451-2.682" transform="translate(-56.069 -25.806)" fill="#263238"/>
            <path id="Trazado_600442" data-name="Trazado 600442" d="M289.611,95.246l5.624,2.708,10.858,2.655a9.046,9.046,0,0,1,7.425,10.063l-5.685,44.342L314.618,198l-26.917-.8-1.579-15.992V136.877Z" transform="translate(-59.596 -19.839)" fill="#455a64"/>
            <path id="Trazado_600443" data-name="Trazado 600443" d="M286.122,147.291a2.815,2.815,0,0,1,.079-.549c.078-.4.18-.914.306-1.559.293-1.4.7-3.337,1.2-5.715l4.107-18.821c.45-2.02.887-3.985,1.306-5.871l.051.182-1.865-1.951-.1-.108.077-.127,3.132-5.208-.011.156-3.448-8.36-.937-2.343a5.69,5.69,0,0,1-.3-.841,5.7,5.7,0,0,1,.394.8c.255.572.6,1.344,1.024,2.305.881,2.041,2.109,4.888,3.583,8.3l.034.079-.045.077-3.093,5.231-.027-.235,1.873,1.943.074.078-.023.106c-.416,1.886-.85,3.853-1.3,5.873-1.646,7.319-3.135,13.944-4.226,18.8-.552,2.366-1,4.3-1.327,5.687-.158.637-.284,1.15-.381,1.542a2.756,2.756,0,0,1-.161.531" transform="translate(-59.595 -20.032)" fill="#263238"/>
            <path id="Trazado_600444" data-name="Trazado 600444" d="M201.387,155.369,225.2,142.092l11.54-31.121a16.714,16.714,0,0,1,9.237-9.615l3.063-1.277.015,81.941.614,19.41-12.9-3.864,6.58-39.015-2.274-19.2-2.261,9.29a12.616,12.616,0,0,1-5.878,7.9l-24.792,12.876Z" transform="translate(-41.946 -20.845)" fill="#455a64"/>
            <path id="Trazado_600445" data-name="Trazado 600445" d="M201.226,170.676l-2,.6,5.639,13.441,2.627-1.019Z" transform="translate(-41.495 -35.55)" fill="#e0e0e0"/>
            <path id="Trazado_600446" data-name="Trazado 600446" d="M235.748,158.719a11.071,11.071,0,0,0-4.416-5.32,6.667,6.667,0,0,1,4.416,5.32" transform="translate(-48.183 -31.949)" fill="#263238"/>
            <path id="Trazado_600447" data-name="Trazado 600447" d="M204.875,170.1c.025.055-.117.161-.131.391a.356.356,0,1,0,.614-.181c-.137-.186-.314-.2-.323-.258-.027-.045.222-.177.524.048a.7.7,0,1,1-1.1.323c.133-.352.413-.376.415-.323" transform="translate(-42.578 -35.403)" fill="#263238"/>
            <path id="Trazado_600448" data-name="Trazado 600448" d="M207.3,169.075c.025.055-.117.161-.131.391a.356.356,0,1,0,.614-.18c-.137-.186-.314-.2-.323-.258-.027-.045.222-.177.524.048a.7.7,0,1,1-1.1.323c.133-.352.413-.376.415-.323" transform="translate(-43.084 -35.19)" fill="#263238"/>
            <path id="Trazado_600449" data-name="Trazado 600449" d="M260.614,149.369a2.416,2.416,0,0,1-.1-.506c-.056-.376-.129-.86-.219-1.46-.179-1.321-.428-3.145-.731-5.378-.583-4.592-1.378-10.85-2.256-17.764q-.18-1.474-.357-2.9l-.006-.052.019-.048c.6-1.526,1.183-3.005,1.739-4.422l0,.15-1.718-3.924-.026-.06.017-.061,2.579-9.327.755-2.617a6.244,6.244,0,0,1,.3-.918,6.177,6.177,0,0,1-.2.948c-.164.657-.383,1.542-.657,2.643l-2.436,9.366-.009-.12c.549,1.233,1.134,2.542,1.745,3.913l.033.074-.03.077c-.552,1.418-1.129,2.9-1.724,4.428l.013-.1q.177,1.427.359,2.9c.831,6.92,1.584,13.184,2.136,17.779.249,2.24.453,4.07.6,5.4.059.6.106,1.09.143,1.469a2.389,2.389,0,0,1,.022.515" transform="translate(-53.517 -20.845)" fill="#263238"/>
            <path id="Trazado_600450" data-name="Trazado 600450" d="M252.984,164.114a1.429,1.429,0,0,1-.082-.388c-.042-.3-.093-.672-.154-1.119-.128-1.036-.3-2.43-.508-4.123-.422-3.482-1.013-8.29-1.725-13.594s-1.411-10.1-1.923-13.569c-.245-1.688-.447-3.077-.6-4.111-.059-.447-.107-.817-.146-1.121a1.434,1.434,0,0,1-.023-.4,1.466,1.466,0,0,1,.105.382l.222,1.108c.186.964.435,2.361.728,4.092.586,3.46,1.33,8.251,2.043,13.56s1.259,10.124,1.606,13.617c.174,1.746.3,3.16.378,4.138.031.45.057.823.078,1.128a1.425,1.425,0,0,1,0,.4" transform="translate(-51.617 -26.18)" fill="#263238"/>
            <path id="Trazado_600451" data-name="Trazado 600451" d="M250.184,207.066a3.869,3.869,0,0,0,.553.666,2.512,2.512,0,0,0,2.172.487,3.692,3.692,0,0,0,2.357-2.318,14.472,14.472,0,0,0,.665-4.259,9.766,9.766,0,0,0-.441-4.248,7.789,7.789,0,0,0-2.158-2.727,10.064,10.064,0,0,1-1.648-1.795,2.187,2.187,0,0,1-.39-.808c.033-.016.172.27.519.713a12.266,12.266,0,0,0,1.713,1.673,7.738,7.738,0,0,1,2.314,2.8,9.81,9.81,0,0,1,.5,4.417,14.077,14.077,0,0,1-.725,4.379,3.944,3.944,0,0,1-2.644,2.458,2.621,2.621,0,0,1-2.347-.653,1.875,1.875,0,0,1-.385-.556c-.054-.145-.071-.223-.059-.228" transform="translate(-52.109 -40.005)" fill="#263238"/>
            <path id="Trazado_600452" data-name="Trazado 600452" d="M239.01,169.561s.769-9.079,7.979-9.92a10.652,10.652,0,0,1-7.979,9.92" transform="translate(-49.783 -33.251)" fill="#263238"/>
            <path id="Trazado_600453" data-name="Trazado 600453" d="M287.692,206.175c.473.315,20.938,13.7,20.938,13.7l2.362-1.889,1.116-30.7-19.941-15.113-2.743.945Z" transform="translate(-59.923 -35.861)" fill="#fc8116"/>
            <path id="Trazado_600454" data-name="Trazado 600454" d="M292.122,172.721l.818,33.225h-4.4l1.474-32.567Z" transform="translate(-60.099 -35.976)" fill="#e0e0e0"/>
            <path id="Trazado_600455" data-name="Trazado 600455" d="M299.938,220.351a2.574,2.574,0,0,0,2.362,1.606c.059,0,.116.048.173.144a2.346,2.346,0,0,0,1.991,1.239,4.3,4.3,0,0,0,2.245-.648c1.094-.667,3.043-5.038,3.043-5.038l4.618-10.284-7.767-2.1-9.865,3.074c0,.179-2.309,9.52-2.309,9.52A2.372,2.372,0,0,0,297.2,216.4a25.288,25.288,0,0,1,1.741-3.259l.735,4.2-2.805.96a1.864,1.864,0,0,0,1.2,2.133Z" transform="translate(-61.326 -42.755)" fill="#ffbe9d"/>
            <path id="Trazado_600456" data-name="Trazado 600456" d="M305.785,127.742l12.929,23.8-10.522,31.235,11.7,6.588,14.869-34.744a9.861,9.861,0,0,0-.126-8.041l-18.243-39.185Z" transform="translate(-63.691 -22.369)" fill="#455a64"/>
            <path id="Trazado_600457" data-name="Trazado 600457" d="M308.538,202.607l-1.092,2.421,11.039,5.948,1.157-2.117Z" transform="translate(-64.037 -42.201)" fill="#e0e0e0"/>
            <path id="Trazado_600458" data-name="Trazado 600458" d="M307.225,182.542a.585.585,0,0,1,.035-.16c.036-.124.082-.275.136-.46l.56-1.767,2.148-6.564,7.452-22.348.017.166c-1.5-2.556-3.05-5.258-4.612-8.045-2.849-5.092-5.467-10-7.707-14.532-1.105-2.275-2.137-4.447-3.009-6.524a13.077,13.077,0,0,1-1.078-6.167,14.274,14.274,0,0,1,1.155-5.046,9.865,9.865,0,0,1,2.282-3.17,7.822,7.822,0,0,1,2.06-1.362,4.2,4.2,0,0,1,.811-.288,9.1,9.1,0,0,0-2.761,1.767,9.878,9.878,0,0,0-2.182,3.148,14.194,14.194,0,0,0-1.074,4.965,12.841,12.841,0,0,0,1.1,6.019c.881,2.062,1.922,4.224,3.035,6.489,2.254,4.518,4.879,9.411,7.726,14.5,1.56,2.785,3.1,5.488,4.6,8.042l.047.08-.029.087c-3.035,8.918-5.685,16.708-7.589,22.3-.955,2.755-1.722,4.968-2.261,6.525l-.624,1.746c-.068.181-.124.328-.17.449a.555.555,0,0,1-.069.148" transform="translate(-62.725 -22.136)" fill="#263238"/>
            <path id="Trazado_600459" data-name="Trazado 600459" d="M330.843,162.523a9.173,9.173,0,0,1-1.275-.45,9.068,9.068,0,0,0-6.276.195,9.263,9.263,0,0,1-1.244.529,3.024,3.024,0,0,1,1.124-.794,7.857,7.857,0,0,1,6.5-.2,3.037,3.037,0,0,1,1.171.723" transform="translate(-67.078 -33.575)" fill="#263238"/>
            <path id="Trazado_600460" data-name="Trazado 600460" d="M302.519,125.944l9.291,31.085,1.31-10.221Z" transform="translate(-63.011 -26.233)" fill="#263238"/>
            <path id="Trazado_600461" data-name="Trazado 600461" d="M321.783,203.048c.025.055-.117.161-.131.391a.356.356,0,1,0,.614-.181c-.137-.186-.314-.2-.323-.258-.027-.045.222-.177.524.048a.7.7,0,1,1-1.1.323c.133-.352.413-.376.415-.323" transform="translate(-66.929 -42.266)" fill="#263238"/>
            <path id="Trazado_600462" data-name="Trazado 600462" d="M322.962,200.221c.025.055-.117.161-.131.391a.356.356,0,1,0,.614-.181c-.137-.186-.314-.2-.323-.257-.027-.046.222-.178.524.047a.7.7,0,1,1-1.1.323c.133-.352.413-.376.415-.323" transform="translate(-67.174 -41.677)" fill="#263238"/>
            <path id="Trazado_600463" data-name="Trazado 600463" d="M338.657,150.241c-1.385.732-1.869,2.769-1.709,4.327a36.716,36.716,0,0,1,.692,4.639,19.058,19.058,0,0,1-.593,3.3,5.694,5.694,0,0,0,.1,3.3,2.539,2.539,0,0,0,2.62,1.656l1.1-2.218a12.211,12.211,0,0,0-.154-11.13Z" transform="translate(-70.162 -31.293)" fill="#263238"/>
          </g>
        </g>
        <g id="Grupo_878275" data-name="Grupo 878275">
          <g id="Grupo_878274" data-name="Grupo 878274" clip-path="url(#clip-path)">
            <path id="Trazado_600464" data-name="Trazado 600464" d="M424.257,356.639a8.861,8.861,0,0,1,4.6-5.869c2.454-1.058,5.295-.455,7.806.457s4.976,2.133,7.642,2.3,5.675-1.1,6.474-3.65c.751-2.4-.694-4.952-2.5-6.693a15.8,15.8,0,0,0-25.886,6.214" transform="translate(-87.977 -70.565)" fill="#e8505b"/>
            <g id="Grupo_878267" data-name="Grupo 878267" transform="translate(334.407 268.22)" opacity="0.5">
              <g id="Grupo_878266" data-name="Grupo 878266">
                <g id="Grupo_878265" data-name="Grupo 878265" clip-path="url(#clip-path-11)">
                  <path id="Trazado_600465" data-name="Trazado 600465" d="M424.257,356.639a8.861,8.861,0,0,1,4.6-5.869c2.454-1.058,5.295-.455,7.806.457s4.976,2.133,7.642,2.3,5.675-1.1,6.474-3.65c.751-2.4-.694-4.952-2.5-6.693a15.8,15.8,0,0,0-25.886,6.214" transform="translate(-422.384 -338.785)" fill="#fc8116"/>
                </g>
              </g>
            </g>
            <path id="Trazado_600466" data-name="Trazado 600466" d="M397.248,366.8c-3.912-3.716-3.716-10.185-1.765-15.215s6.209-8.893,10.967-11.439a34.734,34.734,0,0,1,30.27-.981,14.367,14.367,0,0,0-11.616,6.821c-2.144,3.56-2.621,7.881-4.391,11.641a18.325,18.325,0,0,1-23.465,9.173" transform="translate(-82.092 -70.02)" fill="#ffc089"/>
            <path id="Trazado_600467" data-name="Trazado 600467" d="M394.13,329.72c-4.331-5.112-4.907-13.319-4.27-19.988s2.184-13.381,1.132-20c-.623-3.92-2.144-7.663-2.658-11.6s.214-8.387,3.264-10.928c3.5-2.92,9.025-2.231,12.671.511s5.76,7.049,7.3,11.342c3.392,9.432,4.637,19.89,1.85,29.518s-9.325,18.236-18.917,21.143" transform="translate(-80.854 -55.262)" fill="#ffc089"/>
            <path id="Trazado_600468" data-name="Trazado 600468" d="M393.065,387.311a3.617,3.617,0,0,1-.017-.589c.006-.386,0-.956.032-1.689.055-1.465.2-3.587.525-6.191a82.679,82.679,0,0,1,1.664-9.067,41.776,41.776,0,0,1,4.137-10.5,43.755,43.755,0,0,1,6.761-9.038,43.037,43.037,0,0,1,7.088-5.9c1.082-.748,2.128-1.316,3.028-1.841.924-.485,1.731-.884,2.391-1.2l1.558-.656a3.552,3.552,0,0,1,.552-.205,3.7,3.7,0,0,1-.523.272l-1.526.715c-.649.337-1.443.751-2.353,1.251-.888.54-1.919,1.12-2.986,1.877a44.542,44.542,0,0,0-13.678,14.9c-3.982,6.965-5.073,14.289-5.863,19.422-.359,2.592-.539,4.7-.637,6.166q-.063,1.058-.1,1.683a3.623,3.623,0,0,1-.055.587" transform="translate(-81.867 -70.909)" fill="#263238"/>
            <path id="Trazado_600469" data-name="Trazado 600469" d="M343.961,321.191c-8.013,4.835-7.988,9.235-6.65,13.389s6.256,7.039,10.333,5.484c2.3-.88,3.974-2.883,5.4-4.9s2.765-4.168,4.764-5.613,4.9-2,6.9-.565" transform="translate(-70.118 -66.9)" fill="#e8505b"/>
            <g id="Grupo_878270" data-name="Grupo 878270" transform="translate(266.524 254.291)" opacity="0.5">
              <g id="Grupo_878269" data-name="Grupo 878269">
                <g id="Grupo_878268" data-name="Grupo 878268" clip-path="url(#clip-path-12)">
                  <path id="Trazado_600470" data-name="Trazado 600470" d="M343.961,321.191c-8.013,4.835-7.988,9.235-6.65,13.389s6.256,7.039,10.333,5.484c2.3-.88,3.974-2.883,5.4-4.9s2.765-4.168,4.764-5.613,4.9-2,6.9-.565" transform="translate(-336.642 -321.191)" fill="#fc8116"/>
                </g>
              </g>
            </g>
            <path id="Trazado_600471" data-name="Trazado 600471" d="M338.309,325.029c2.095-2.894,7.271-3.733,10.539-2.289s5.662,4.309,7.806,7.169,4.229,5.879,7.2,7.869,7.115,2.71,10.073.706a8.657,8.657,0,0,0,3.422-5.925,19.731,19.731,0,0,0-.47-6.987c-.707-3.36-1.861-6.87-4.551-9-3-2.38-7.156-2.492-10.981-2.367-4.389.143-8.843.473-12.963,1.994s-8.322,4.806-10.071,8.835" transform="translate(-70.466 -65.437)" fill="#ffc089"/>
            <path id="Trazado_600472" data-name="Trazado 600472" d="M379.225,375.656a.639.639,0,0,1-.021-.176c-.007-.138-.016-.307-.027-.517-.017-.484-.04-1.148-.07-1.989-.05-1.758-.122-4.248-.21-7.314-.1-3.088-.223-6.764-.446-10.84s-.53-8.557-1.149-13.222a42.564,42.564,0,0,0-1.328-6.714,34.824,34.824,0,0,0-2.456-5.875,33.815,33.815,0,0,0-3.1-4.863,31.631,31.631,0,0,0-3.382-3.714,24.882,24.882,0,0,0-6-4.089c-.392-.179-.732-.355-1.039-.479l-.783-.3-.48-.194a.671.671,0,0,1-.16-.078.623.623,0,0,1,.172.043l.492.161.8.273c.313.115.66.281,1.059.452a23.988,23.988,0,0,1,6.109,4.027,31.2,31.2,0,0,1,3.447,3.719,33.7,33.7,0,0,1,3.155,4.89,34.707,34.707,0,0,1,2.5,5.925,42.283,42.283,0,0,1,1.347,6.771c.621,4.683.914,9.172,1.124,13.252s.3,7.761.369,10.85.088,5.59.1,7.319c0,.842,0,1.507,0,1.99,0,.21-.006.38-.009.518a.655.655,0,0,1-.015.177" transform="translate(-74.688 -65.67)" fill="#263238"/>
            <path id="Trazado_600473" data-name="Trazado 600473" d="M387.929,372.851a23.023,23.023,0,0,1-.878-3.442,36.115,36.115,0,0,1-.367-9.666,64.263,64.263,0,0,1,3.053-14.027c1.644-5.156,3.877-10.668,5.784-16.593a76.26,76.26,0,0,0,2.3-8.779,78.115,78.115,0,0,0,1.137-8.377,122.523,122.523,0,0,0,.255-14.325c-.139-4.081-.355-7.38-.491-9.661-.066-1.123-.118-2-.154-2.626-.013-.285-.024-.511-.032-.684a.117.117,0,1,1,.036,0c.017.173.039.4.067.681.052.622.127,1.5.222,2.622.178,2.278.434,5.576.6,9.661a118.319,118.319,0,0,1-.179,14.362,77.21,77.21,0,0,1-1.122,8.417,75.505,75.505,0,0,1-2.3,8.822c-1.914,5.943-4.154,11.45-5.811,16.586a65.273,65.273,0,0,0-3.115,13.948,37.358,37.358,0,0,0,.253,9.621c.2,1.123.377,1.991.535,2.571.067.277.12.5.161.664a1.09,1.09,0,0,1,.044.23" transform="translate(-80.508 -59.245)" fill="#263238"/>
            <path id="Trazado_600474" data-name="Trazado 600474" d="M403.266,398.78H365.642l-.859-7.242h38.483Z" transform="translate(-75.98 -81.553)" fill="#455a64"/>
            <path id="Trazado_600475" data-name="Trazado 600475" d="M370.968,399.643l4.7,21.725h20.444l4.4-21.725Z" transform="translate(-77.268 -83.241)" fill="#455a64"/>
            <path id="Trazado_600476" data-name="Trazado 600476" d="M403.67,400.622c0,.1-8.273.156-18.474.127s-18.475-.132-18.474-.231,8.27-.156,18.475-.127,18.473.132,18.473.231" transform="translate(-76.384 -83.395)" fill="#455a64"/>
            <path id="Trazado_600477" data-name="Trazado 600477" d="M398.669,413.427a15.531,15.531,0,0,0-3.313-1.9,11.722,11.722,0,0,0-4.029-.809,14.192,14.192,0,0,0-4.954.909c-1.715.58-3.316,1.255-4.876,1.627a11.6,11.6,0,0,1-4.214.127,8.685,8.685,0,0,1-2.708-.857,5.32,5.32,0,0,1-.653-.415c-.141-.107-.211-.167-.2-.177.021-.029.321.186.919.466a9.466,9.466,0,0,0,2.682.732,11.809,11.809,0,0,0,4.105-.2c1.506-.376,3.107-1.059,4.835-1.644a14.08,14.08,0,0,1,5.077-.9,11.522,11.522,0,0,1,4.116.9,10.684,10.684,0,0,1,2.452,1.43,6.389,6.389,0,0,1,.584.5c.127.122.189.19.181.2" transform="translate(-77.84 -85.477)" fill="#263238"/>
            <path id="Trazado_600478" data-name="Trazado 600478" d="M398.535,415.269a16.392,16.392,0,0,0-3.182-1.874,10.793,10.793,0,0,0-3.886-.8,14,14,0,0,0-4.791.862c-1.658.554-3.213,1.2-4.7,1.6a12.079,12.079,0,0,1-4.05.454,6.87,6.87,0,0,1-2.655-.71,4.824,4.824,0,0,1-.633-.4c-.137-.1-.2-.162-.2-.172.021-.029.311.181.89.447a7.3,7.3,0,0,0,2.61.583,12.373,12.373,0,0,0,3.946-.519c1.454-.409,3-1.058,4.673-1.619a13.878,13.878,0,0,1,4.913-.852,10.652,10.652,0,0,1,6.324,2.318,6.711,6.711,0,0,1,.561.492c.123.119.182.185.174.195" transform="translate(-77.992 -85.868)" fill="#fff"/>
            <path id="Trazado_600479" data-name="Trazado 600479" d="M398.936,411.528a17.853,17.853,0,0,0-3.4-2,12.51,12.51,0,0,0-4.13-.994,13.352,13.352,0,0,0-5.111.9,46.068,46.068,0,0,1-5.049,1.649,12.868,12.868,0,0,1-4.352.007,9.781,9.781,0,0,1-2.8-.885,5.149,5.149,0,0,1-.678-.421c-.146-.109-.219-.171-.212-.18.021-.029.331.193.952.477a10.8,10.8,0,0,0,2.774.76,13.146,13.146,0,0,0,4.25-.082,51.056,51.056,0,0,0,5-1.663,13.323,13.323,0,0,1,5.247-.891,12.656,12.656,0,0,1,6.722,2.6,6.753,6.753,0,0,1,.6.521c.131.126.2.2.188.205" transform="translate(-77.734 -85.018)" fill="#fff"/>
            <path id="Trazado_600480" data-name="Trazado 600480" d="M403.864,400.677c0,.1-8.463.179-18.9.179s-18.9-.08-18.9-.179,8.462-.179,18.9-.179,18.9.08,18.9.179" transform="translate(-76.246 -83.419)" fill="#263238"/>
            <path id="Trazado_600481" data-name="Trazado 600481" d="M50.328,385c1.353,1.933,3.983,1.293,5.2.113a9.836,9.836,0,0,0,2.2-4.52c1.072-3.725,2.153-7.633,1.355-11.427a6.35,6.35,0,0,0-1.459-3.107,3.317,3.317,0,0,0-3.143-1.046c-1.326.351-2.15,1.649-2.746,2.885a27.252,27.252,0,0,0-2.692,11.689A9.447,9.447,0,0,0,50.328,385" transform="translate(-10.216 -76.011)" fill="#e8505b"/>
            <g id="Grupo_878273" data-name="Grupo 878273" transform="translate(38.834 288.922)" opacity="0.2">
              <g id="Grupo_878272" data-name="Grupo 878272">
                <g id="Grupo_878271" data-name="Grupo 878271" clip-path="url(#clip-path-13)">
                  <path id="Trazado_600482" data-name="Trazado 600482" d="M50.328,385c1.353,1.933,3.983,1.293,5.2.113a9.836,9.836,0,0,0,2.2-4.52c1.072-3.725,2.153-7.633,1.355-11.427a6.35,6.35,0,0,0-1.459-3.107,3.317,3.317,0,0,0-3.143-1.046c-1.326.351-2.15,1.649-2.746,2.885a27.252,27.252,0,0,0-2.692,11.689A9.447,9.447,0,0,0,50.328,385" transform="translate(-49.05 -364.933)" fill="#f26838"/>
                </g>
              </g>
            </g>
            <path id="Trazado_600483" data-name="Trazado 600483" d="M56.37,402.36a11.726,11.726,0,0,1,7.275-.884,6.051,6.051,0,0,1,3.594,1.6,2.587,2.587,0,0,1,.037,3.588,3.444,3.444,0,0,1-2.266.575c-1.924-.022-4.058-.361-5.594.8-.876.659-1.46,1.758-2.508,2.082a2.478,2.478,0,0,1-2.726-1.213,4.236,4.236,0,0,1-.309-3.126,4.771,4.771,0,0,1,2.5-3.423" transform="translate(-11.188 -83.58)" fill="#ffc089"/>
            <path id="Trazado_600484" data-name="Trazado 600484" d="M41.871,389.413a7.031,7.031,0,0,0,1.094-6.471,12.471,12.471,0,0,0-3.833-5.559,20.633,20.633,0,0,0-6.863-4.05,7.32,7.32,0,0,0-3.087-.525,3.24,3.24,0,0,0-2.59,1.568c-.722,1.378-.03,3.048.719,4.411a52.322,52.322,0,0,0,4.508,6.865,12.206,12.206,0,0,0,4.958,4.248c2.059.788,4.2.7,5.29-.733" transform="translate(-5.475 -77.647)" fill="#ffc089"/>
            <path id="Trazado_600485" data-name="Trazado 600485" d="M50.542,422.433a4.335,4.335,0,0,0,.122-.878c.062-.64.14-1.442.233-2.4a34.593,34.593,0,0,1,.539-3.516,27.156,27.156,0,0,1,1.278-4.149,15.307,15.307,0,0,1,2.119-3.754,7.923,7.923,0,0,1,2.678-2.227,7.509,7.509,0,0,1,2.256-.7,4.144,4.144,0,0,0,.875-.127,4.21,4.21,0,0,0-.891-.013,6.826,6.826,0,0,0-2.352.612,7.9,7.9,0,0,0-2.826,2.246,14.948,14.948,0,0,0-2.2,3.829,25.405,25.405,0,0,0-1.268,4.217,29.6,29.6,0,0,0-.467,3.56c-.076,1.018-.105,1.842-.119,2.412a4.038,4.038,0,0,0,.019.887" transform="translate(-10.522 -84.286)" fill="#263238"/>
            <path id="Trazado_600486" data-name="Trazado 600486" d="M50.707,414.357a1.763,1.763,0,0,0,.024-.408c0-.306,0-.692,0-1.165,0-1.011,0-2.474.051-4.282.089-3.614.4-8.6,1-14.087s1.408-10.42,2.14-13.96c.173-.887.347-1.686.511-2.385s.29-1.306.419-1.794c.11-.461.2-.835.272-1.133a1.788,1.788,0,0,0,.071-.4,1.661,1.661,0,0,0-.142.382c-.089.293-.2.663-.338,1.116-.15.485-.3,1.085-.48,1.783s-.375,1.493-.564,2.379a132.411,132.411,0,0,0-2.249,13.974c-.6,5.5-.873,10.5-.9,14.122-.021,1.811.017,3.279.063,4.29.028.473.052.858.071,1.165a1.688,1.688,0,0,0,.049.4" transform="translate(-10.522 -78.054)" fill="#263238"/>
            <path id="Trazado_600487" data-name="Trazado 600487" d="M47.392,405.482a7.744,7.744,0,0,0-.009-1.218c-.044-.782-.152-1.913-.373-3.3a43.591,43.591,0,0,0-1.072-4.8,42.513,42.513,0,0,0-2.009-5.685,30.273,30.273,0,0,0-5.9-9.188A15.085,15.085,0,0,0,36.64,380c-.213-.18-.4-.359-.593-.5l-.539-.371a7.867,7.867,0,0,0-1.024-.656,36.5,36.5,0,0,1,3.359,3,31.912,31.912,0,0,1,5.753,9.155,45.455,45.455,0,0,1,2.02,5.633c.526,1.766.876,3.389,1.141,4.757s.4,2.49.485,3.265a7.761,7.761,0,0,0,.149,1.206" transform="translate(-7.182 -78.83)" fill="#263238"/>
          </g>
        </g>
        <g id="Grupo_878277" data-name="Grupo 878277">
          <g id="Grupo_878276" data-name="Grupo 878276" clip-path="url(#clip-path)">
            <path id="Trazado_600488" data-name="Trazado 600488" d="M192.209,8.439a2,2,0,0,1,.4-.01l1.186.03a12.392,12.392,0,0,1,1.92.189c.377.059.789.1,1.219.187l1.364.337a22.745,22.745,0,0,1,16.772,20.765,22.631,22.631,0,0,1-3.123,12.846,23.024,23.024,0,0,1-11,9.573,22.561,22.561,0,0,1-7.632,1.681,21.9,21.9,0,0,1-7.982-.994l-.238-.075.188,0-13.341,4.621-.542.188.17-.548,3.463-11.113.058.268a22.821,22.821,0,0,1-5.354-19.756,22.485,22.485,0,0,1,3.442-8.223,23.078,23.078,0,0,1,5.282-5.511,24.624,24.624,0,0,1,2.768-1.795,25.5,25.5,0,0,1,2.658-1.206,18.059,18.059,0,0,1,2.4-.763,14.7,14.7,0,0,1,2.058-.431c.625-.083,1.175-.177,1.654-.219l1.214-.038.741-.014a1,1,0,0,1,.251.011,1.017,1.017,0,0,1-.25.036l-.738.061-1.205.083c-.475.056-1.019.164-1.636.26a15.209,15.209,0,0,0-2.029.469,18.22,18.22,0,0,0-2.362.794,25.881,25.881,0,0,0-2.609,1.225,24.651,24.651,0,0,0-2.708,1.8,22.883,22.883,0,0,0-5.147,5.466,22.119,22.119,0,0,0-3.323,8.085,22.368,22.368,0,0,0,5.306,19.294l.1.117-.047.15c-1.1,3.562-2.252,7.279-3.439,11.12l-.372-.36,13.338-4.631.093-.032.1.03.231.073a21.309,21.309,0,0,0,7.778.97,22,22,0,0,0,7.44-1.629,22.519,22.519,0,0,0,10.755-9.316,22.547,22.547,0,0,0-6.779-30.113,22.583,22.583,0,0,0-6.464-3L196.9,9.034c-.425-.1-.831-.144-1.2-.212a13.2,13.2,0,0,0-1.9-.244l-1.179-.089a2.094,2.094,0,0,1-.4-.051" transform="translate(-35.261 -1.755)" fill="#fc8116"/>
            <path id="Trazado_600489" data-name="Trazado 600489" d="M181.3,36.475l3.51-3.51,6.77,6.018L204.865,26.2l3.259,3.51L191.075,45.752Z" transform="translate(-37.762 -5.456)" fill="#fc8116"/>
          </g>
        </g>
      </g>
    </g>
  </g>
</svg>
