<svg xmlns="http://www.w3.org/2000/svg" width="318" height="212" viewBox="0 0 318 212">
  <g id="Grupo_879797" data-name="Grupo 879797" transform="translate(-1031 -3744)">
    <g id="Trazado_604007" data-name="Trazado 604007" transform="translate(1031 3744)" fill="#f6fff2">
      <path d="M 298 211 L 20 211 C 17.43458366394043 211 14.9464168548584 210.4977874755859 12.60462474822998 209.5072937011719 C 10.34224987030029 208.5503692626953 8.310208320617676 207.1802978515625 6.564958095550537 205.4350433349609 C 4.819708347320557 203.6897888183594 3.449625015258789 201.6577453613281 2.492708444595337 199.3953704833984 C 1.502208352088928 197.0535888671875 1 194.5654144287109 1 192 L 1 20 C 1 17.43458366394043 1.502208352088928 14.9464168548584 2.492708444595337 12.6046667098999 C 3.449625015258789 10.34229183197021 4.819708347320557 8.310250282287598 6.564958095550537 6.565000057220459 C 8.310208320617676 4.819708347320557 10.34224987030029 3.449625015258789 12.60462474822998 2.492708444595337 C 14.9464168548584 1.502208352088928 17.43458366394043 1 20 1 L 298 1 C 300.5654296875 1 303.0535888671875 1.502208352088928 305.3953857421875 2.492708444595337 C 307.6577453613281 3.449625015258789 309.6897888183594 4.819708347320557 311.4350280761719 6.565000057220459 C 313.1802978515625 8.310250282287598 314.5503845214844 10.34229183197021 315.5072937011719 12.6046667098999 C 316.497802734375 14.9464168548584 317 17.43458366394043 317 20 L 317 192 C 317 194.5654144287109 316.497802734375 197.0535888671875 315.5072937011719 199.3953704833984 C 314.5503845214844 201.6577453613281 313.1802978515625 203.6897888183594 311.4350280761719 205.4350433349609 C 309.6897888183594 207.1802978515625 307.6577453613281 208.5503692626953 305.3953857421875 209.5072937011719 C 303.0535888671875 210.4977874755859 300.5654296875 211 298 211 Z" stroke="none"/>
      <path d="M 20 2 C 15.19198608398438 2 10.67184448242188 3.872329711914062 7.2720947265625 7.272079467773438 C 3.872344970703125 10.67182922363281 2 15.19200134277344 2 20 L 2 192 C 2 196.8079986572266 3.872344970703125 201.3281707763672 7.2720947265625 204.7279205322266 C 10.67184448242188 208.1276702880859 15.19198608398438 210 20 210 L 298 210 C 302.8079528808594 210 307.3281555175781 208.1276702880859 310.7279052734375 204.7279205322266 C 314.1276550292969 201.3281707763672 316 196.8079528808594 316 192 L 316 20 C 316 15.19204711914062 314.1276550292969 10.67182922363281 310.7279052734375 7.272079467773438 C 307.3281555175781 3.872329711914062 302.8079528808594 2 298 2 L 20 2 M 20 0 L 298 0 C 309.045654296875 0 318 8.95428466796875 318 20 L 318 192 C 318 203.0457153320312 309.045654296875 212 298 212 L 20 212 C 8.95428466796875 212 0 203.0457153320312 0 192 L 0 20 C 0 8.95428466796875 8.95428466796875 0 20 0 Z" stroke="none" fill="#e5f5da"/>
    </g>
    <path id="Trazado_602059" data-name="Trazado 602059" d="M1824.192-7045.007h-18.711v193.22h18.711" transform="translate(-5763.788 2059.206) rotate(90)" fill="none" stroke="#16263d" stroke-width="2"/>
    <path id="Trazado_602060" data-name="Trazado 602060" d="M1873.008-6918.964h-78.9" transform="translate(-5734.354 2010.27) rotate(90)" fill="none" stroke="#16263d" stroke-width="2"/>
    <g id="Trazado_604008" data-name="Trazado 604008" transform="translate(1088.6 3819.814)" fill="#ffcb9d">
      <path d="M 54.16672134399414 33.37274169921875 L 10.00000286102295 33.37274169921875 C 5.03738260269165 33.37274169921875 1.00000262260437 29.33536148071289 1.00000262260437 24.37274169921875 L 1.00000262260437 10.00000095367432 C 1.00000262260437 5.037380695343018 5.03738260269165 1.000000834465027 10.00000286102295 1.000000834465027 L 54.16672134399414 1.000000834465027 C 59.12934112548828 1.000000834465027 63.16672134399414 5.037380695343018 63.16672134399414 10.00000095367432 L 63.16672134399414 24.37274169921875 C 63.16672134399414 29.33536148071289 59.12934112548828 33.37274169921875 54.16672134399414 33.37274169921875 Z" stroke="none"/>
      <path d="M 10.00000381469727 2 C 5.588790893554688 2 2.000003814697266 5.588790893554688 2.000003814697266 10 L 2.000003814697266 24.37274169921875 C 2.000003814697266 28.78395080566406 5.588790893554688 32.37274169921875 10.00000381469727 32.37274169921875 L 54.16672134399414 32.37274169921875 C 58.57793426513672 32.37274169921875 62.16672134399414 28.78395080566406 62.16672134399414 24.37274169921875 L 62.16672134399414 10 C 62.16672134399414 5.588790893554688 58.57793426513672 2 54.16672134399414 2 L 10.00000381469727 2 M 10.00000381469727 0 L 54.16672134399414 0 C 59.68957138061523 0 64.16672515869141 4.477149963378906 64.16672515869141 10 L 64.16672515869141 24.37274169921875 C 64.16672515869141 29.89559173583984 59.68957138061523 34.37274169921875 54.16672134399414 34.37274169921875 L 10.00000381469727 34.37274169921875 C 4.477153778076172 34.37274169921875 0 29.89559173583984 0 24.37274169921875 L 0 10 C 0 4.477149963378906 4.477153778076172 0 10.00000381469727 0 Z" stroke="none" fill="#ed8738"/>
    </g>
    <path id="Trazado_604009" data-name="Trazado 604009" d="M8.031,13H6.906V4.469H8.031Zm2.912-6.34.035.8a2.31,2.31,0,0,1,1.9-.914q2.01,0,2.027,2.268V13H13.82V8.8a1.459,1.459,0,0,0-.313-1.014,1.256,1.256,0,0,0-.958-.328,1.564,1.564,0,0,0-.926.281A1.91,1.91,0,0,0,11,8.482V13H9.918V6.66Zm8.139,5.572a1.561,1.561,0,0,0,1.014-.352,1.237,1.237,0,0,0,.48-.879H21.6a1.966,1.966,0,0,1-.375,1.037,2.47,2.47,0,0,1-.923.785,2.663,2.663,0,0,1-1.222.293,2.612,2.612,0,0,1-2.06-.864,3.442,3.442,0,0,1-.765-2.364V9.707a3.817,3.817,0,0,1,.34-1.646,2.588,2.588,0,0,1,.976-1.119,2.771,2.771,0,0,1,1.5-.4,2.543,2.543,0,0,1,1.772.639A2.283,2.283,0,0,1,21.6,8.84H20.576a1.494,1.494,0,0,0-.466-1.011,1.449,1.449,0,0,0-1.034-.4,1.517,1.517,0,0,0-1.28.595,2.793,2.793,0,0,0-.454,1.72v.205a2.737,2.737,0,0,0,.451,1.688A1.524,1.524,0,0,0,19.082,12.232ZM24,13H22.914V4H24Zm5.648-.627a2.3,2.3,0,0,1-1.857.744,1.971,1.971,0,0,1-1.544-.589,2.549,2.549,0,0,1-.536-1.743V6.66h1.084v4.1q0,1.441,1.172,1.441a1.623,1.623,0,0,0,1.652-.926V6.66H30.7V13H29.67ZM33.525,13H32.441V6.66h1.084ZM32.353,4.979a.647.647,0,0,1,.161-.445.6.6,0,0,1,.478-.182.614.614,0,0,1,.48.182.64.64,0,0,1,.164.445.619.619,0,0,1-.164.439.626.626,0,0,1-.48.176.616.616,0,0,1-.478-.176A.626.626,0,0,1,32.353,4.979Zm5.971,2.654a3.248,3.248,0,0,0-.533-.041,1.428,1.428,0,0,0-1.447.908V13H35.26V6.66h1.055l.018.732a1.688,1.688,0,0,1,1.512-.85,1.107,1.107,0,0,1,.48.082Z" transform="translate(1098.683 3829.001)" fill="#12263f"/>
    <g id="Trazado_604010" data-name="Trazado 604010" transform="translate(1088 3770)" fill="#faeab5">
      <path d="M 188.4808044433594 33.37274551391602 L 10.00000190734863 33.37274551391602 C 5.03737735748291 33.37274551391602 1.000002264976501 29.33537101745605 1.000002264976501 24.37274551391602 L 1.000002264976501 9.999996185302734 C 1.000002264976501 5.037370681762695 5.03737735748291 0.9999958276748657 10.00000190734863 0.9999958276748657 L 188.4808044433594 0.9999958276748657 C 193.4434204101562 0.9999958276748657 197.4808044433594 5.037370681762695 197.4808044433594 9.999996185302734 L 197.4808044433594 24.37274551391602 C 197.4808044433594 29.33537101745605 193.4434204101562 33.37274551391602 188.4808044433594 33.37274551391602 Z" stroke="none"/>
      <path d="M 10 2.000003814697266 C 5.588790893554688 2.000003814697266 2 5.58879280090332 2 10.00000190734863 L 2 24.37273788452148 C 2 28.78395080566406 5.588790893554688 32.37273788452148 10 32.37273788452148 L 188.4808044433594 32.37273788452148 C 192.8920135498047 32.37273788452148 196.4808044433594 28.78395080566406 196.4808044433594 24.37273788452148 L 196.4808044433594 10.00000190734863 C 196.4808044433594 5.58879280090332 192.8920135498047 2.000003814697266 188.4808044433594 2.000003814697266 L 10 2.000003814697266 M 10 3.814697265625e-06 L 188.4808044433594 3.814697265625e-06 C 194.0036315917969 3.814697265625e-06 198.4808044433594 4.47715950012207 198.4808044433594 10.00000190734863 L 198.4808044433594 24.37273788452148 C 198.4808044433594 29.89558029174805 194.0036315917969 34.37273788452148 188.4808044433594 34.37273788452148 L 10 34.37273788452148 C 4.4771728515625 34.37273788452148 0 29.89558029174805 0 24.37273788452148 L 0 10.00000190734863 C 0 4.47715950012207 4.4771728515625 3.814697265625e-06 10 3.814697265625e-06 Z" stroke="none" fill="#f6d05c"/>
    </g>
    <path id="Trazado_604011" data-name="Trazado 604011" d="M8.984,13H7.227L3.8,7.387V13H2.047V4.469H3.8l3.428,5.625V4.469H8.984Zm5.1,0a1.88,1.88,0,0,1-.17-.568,2.049,2.049,0,0,1-1.6.686,2.251,2.251,0,0,1-1.544-.539,1.734,1.734,0,0,1-.612-1.359A1.792,1.792,0,0,1,10.9,9.672a3.686,3.686,0,0,1,2.159-.545h.779V8.764a1.045,1.045,0,0,0-.226-.7A.887.887,0,0,0,12.9,7.8,1.009,1.009,0,0,0,12.233,8a.7.7,0,0,0-.243.563H10.3a1.7,1.7,0,0,1,.34-1.02A2.246,2.246,0,0,1,11.6,6.81a3.5,3.5,0,0,1,1.395-.267,2.767,2.767,0,0,1,1.86.589,2.06,2.06,0,0,1,.688,1.655v2.748a3.031,3.031,0,0,0,.252,1.365V13Zm-1.4-1.178a1.458,1.458,0,0,0,.691-.167,1.1,1.1,0,0,0,.469-.448v-1.09h-.633q-1.271,0-1.354.879l-.006.1a.678.678,0,0,0,.223.521A.865.865,0,0,0,12.682,11.822ZM18.869,5.1V6.66h1.084V7.9H18.869v3.164a.756.756,0,0,0,.135.5.677.677,0,0,0,.516.152,2.7,2.7,0,0,0,.5-.041v1.283a3.486,3.486,0,0,1-1.025.152,1.617,1.617,0,0,1-1.816-1.8V7.9H16.25V6.66h.926V5.1Zm5.824,7.254a2.124,2.124,0,0,1-1.734.762,2,2,0,0,1-1.556-.586,2.5,2.5,0,0,1-.548-1.717V6.66h1.693v4.1q0,.991.9.991a1.223,1.223,0,0,0,1.184-.6V6.66h1.7V13H24.74Zm6.48-4.107a4.6,4.6,0,0,0-.609-.047,1.24,1.24,0,0,0-1.26.65V13H27.611V6.66h1.6l.047.756a1.569,1.569,0,0,1,1.412-.873,1.774,1.774,0,0,1,.527.076ZM35.486,13a1.88,1.88,0,0,1-.17-.568,2.049,2.049,0,0,1-1.6.686,2.251,2.251,0,0,1-1.544-.539,1.734,1.734,0,0,1-.612-1.359,1.792,1.792,0,0,1,.747-1.547,3.686,3.686,0,0,1,2.159-.545h.779V8.764a1.045,1.045,0,0,0-.226-.7.887.887,0,0,0-.712-.264A1.009,1.009,0,0,0,33.638,8a.7.7,0,0,0-.243.563H31.7a1.7,1.7,0,0,1,.34-1.02A2.246,2.246,0,0,1,33,6.81,3.5,3.5,0,0,1,34.4,6.543a2.767,2.767,0,0,1,1.86.589,2.06,2.06,0,0,1,.688,1.655v2.748A3.031,3.031,0,0,0,37.2,12.9V13Zm-1.4-1.178a1.458,1.458,0,0,0,.691-.167,1.1,1.1,0,0,0,.469-.448v-1.09h-.633q-1.271,0-1.354.879l-.006.1a.678.678,0,0,0,.223.521A.865.865,0,0,0,34.086,11.822ZM40.033,13h-1.7V4h1.7Zm4.313.117a3.112,3.112,0,0,1-2.271-.855A3.041,3.041,0,0,1,41.2,9.982V9.818a3.83,3.83,0,0,1,.369-1.708,2.709,2.709,0,0,1,1.046-1.16,2.936,2.936,0,0,1,1.544-.407,2.631,2.631,0,0,1,2.048.82,3.333,3.333,0,0,1,.747,2.326v.691H42.916a1.573,1.573,0,0,0,.5,1,1.5,1.5,0,0,0,1.046.375,1.828,1.828,0,0,0,1.529-.709l.832.932a2.542,2.542,0,0,1-1.031.841A3.383,3.383,0,0,1,44.346,13.117Zm-.193-5.209a1.058,1.058,0,0,0-.817.341,1.768,1.768,0,0,0-.4.977h2.355V9.091a1.261,1.261,0,0,0-.3-.874A1.092,1.092,0,0,0,44.152,7.908Zm5.707,3.727h3.1V13H47.7V11.969L50.68,8.025H47.785V6.66h5.08v1ZM57.693,13a1.88,1.88,0,0,1-.17-.568,2.049,2.049,0,0,1-1.6.686,2.251,2.251,0,0,1-1.544-.539,1.734,1.734,0,0,1-.612-1.359,1.792,1.792,0,0,1,.747-1.547,3.686,3.686,0,0,1,2.159-.545h.779V8.764a1.045,1.045,0,0,0-.226-.7.887.887,0,0,0-.712-.264A1.009,1.009,0,0,0,55.845,8a.7.7,0,0,0-.243.563H53.908a1.7,1.7,0,0,1,.34-1.02,2.246,2.246,0,0,1,.961-.735A3.5,3.5,0,0,1,56.6,6.543a2.767,2.767,0,0,1,1.86.589,2.06,2.06,0,0,1,.688,1.655v2.748A3.031,3.031,0,0,0,59.4,12.9V13Zm-1.4-1.178a1.458,1.458,0,0,0,.691-.167,1.1,1.1,0,0,0,.469-.448v-1.09H56.82q-1.271,0-1.354.879l-.006.1a.678.678,0,0,0,.223.521A.865.865,0,0,0,56.293,11.822Zm6.885-2.039a3.821,3.821,0,0,1,.665-2.361,2.158,2.158,0,0,1,1.819-.879,1.942,1.942,0,0,1,1.529.691V4h1.7v9H67.361l-.082-.674a1.993,1.993,0,0,1-1.629.791,2.152,2.152,0,0,1-1.8-.882A3.944,3.944,0,0,1,63.178,9.783Zm1.693.126a2.5,2.5,0,0,0,.311,1.367,1.012,1.012,0,0,0,.9.475,1.133,1.133,0,0,0,1.107-.663V8.583a1.117,1.117,0,0,0-1.1-.663Q64.871,7.92,64.871,9.909Zm8.25,3.208a3.112,3.112,0,0,1-2.271-.855,3.041,3.041,0,0,1-.876-2.279V9.818a3.83,3.83,0,0,1,.369-1.708A2.709,2.709,0,0,1,71.39,6.95a2.936,2.936,0,0,1,1.544-.407,2.631,2.631,0,0,1,2.048.82,3.333,3.333,0,0,1,.747,2.326v.691H71.691a1.573,1.573,0,0,0,.5,1,1.5,1.5,0,0,0,1.046.375,1.828,1.828,0,0,0,1.529-.709l.832.932a2.542,2.542,0,0,1-1.031.841A3.383,3.383,0,0,1,73.121,13.117Zm-.193-5.209a1.058,1.058,0,0,0-.817.341,1.768,1.768,0,0,0-.4.977h2.355V9.091a1.261,1.261,0,0,0-.3-.874A1.092,1.092,0,0,0,72.928,7.908ZM78.477,13h-1.7V4h1.7ZM82.6,9.771a3.76,3.76,0,0,1,.363-1.682A2.659,2.659,0,0,1,84,6.947a3.051,3.051,0,0,1,1.585-.4,2.887,2.887,0,0,1,2.095.785,3.151,3.151,0,0,1,.905,2.133l.012.434a3.314,3.314,0,0,1-.814,2.341,3.157,3.157,0,0,1-4.374,0A3.372,3.372,0,0,1,82.6,9.848Zm1.693.12a2.37,2.37,0,0,0,.34,1.382,1.221,1.221,0,0,0,1.934.006,2.593,2.593,0,0,0,.346-1.511A2.346,2.346,0,0,0,86.563,8.4a1.124,1.124,0,0,0-.973-.487,1.105,1.105,0,0,0-.961.484A2.637,2.637,0,0,0,84.289,9.892Zm11.068,0a3.839,3.839,0,0,1-.65,2.376,2.154,2.154,0,0,1-1.816.853,1.979,1.979,0,0,1-1.646-.791L91.168,13H89.645V4h1.693V7.229a1.929,1.929,0,0,1,1.541-.686A2.172,2.172,0,0,1,94.7,7.4a3.845,3.845,0,0,1,.659,2.4Zm-1.693-.123a2.522,2.522,0,0,0-.3-1.4,1.03,1.03,0,0,0-.908-.442,1.117,1.117,0,0,0-1.113.662v2.5a1.132,1.132,0,0,0,1.125.668,1.045,1.045,0,0,0,1.078-.809A4.171,4.171,0,0,0,93.664,9.766ZM98.193,6.66v6.686a2.268,2.268,0,0,1-.557,1.632,2.116,2.116,0,0,1-1.605.583,3.443,3.443,0,0,1-.838-.1V14.119a3.179,3.179,0,0,0,.533.053q.768,0,.768-.814V6.66ZM96.359,5.02a.834.834,0,0,1,.255-.627,1.1,1.1,0,0,1,1.389,0,.834.834,0,0,1,.255.627A.831.831,0,0,1,98,5.652a1.086,1.086,0,0,1-1.377,0A.831.831,0,0,1,96.359,5.02Zm6.076,8.1a3.112,3.112,0,0,1-2.271-.855,3.041,3.041,0,0,1-.876-2.279V9.818a3.83,3.83,0,0,1,.369-1.708A2.709,2.709,0,0,1,100.7,6.95a2.936,2.936,0,0,1,1.544-.407,2.631,2.631,0,0,1,2.048.82,3.333,3.333,0,0,1,.747,2.326v.691h-4.037a1.573,1.573,0,0,0,.5,1,1.5,1.5,0,0,0,1.046.375,1.828,1.828,0,0,0,1.529-.709l.832.932a2.542,2.542,0,0,1-1.031.841A3.383,3.383,0,0,1,102.436,13.117Zm-.193-5.209a1.058,1.058,0,0,0-.817.341,1.768,1.768,0,0,0-.4.977h2.355V9.091a1.261,1.261,0,0,0-.3-.874A1.092,1.092,0,0,0,102.242,7.908ZM108.031,5.1V6.66h1.084V7.9h-1.084v3.164a.756.756,0,0,0,.135.5.677.677,0,0,0,.516.152,2.7,2.7,0,0,0,.5-.041v1.283a3.486,3.486,0,0,1-1.025.152,1.617,1.617,0,0,1-1.816-1.8V7.9h-.926V6.66h.926V5.1Zm1.588,4.67a3.76,3.76,0,0,1,.363-1.682,2.659,2.659,0,0,1,1.046-1.143,3.051,3.051,0,0,1,1.585-.4,2.887,2.887,0,0,1,2.095.785,3.151,3.151,0,0,1,.905,2.133l.012.434a3.314,3.314,0,0,1-.814,2.341,3.157,3.157,0,0,1-4.374,0,3.372,3.372,0,0,1-.817-2.391Zm1.693.12a2.37,2.37,0,0,0,.34,1.382,1.221,1.221,0,0,0,1.934.006,2.593,2.593,0,0,0,.346-1.511,2.346,2.346,0,0,0-.346-1.373,1.124,1.124,0,0,0-.973-.487,1.105,1.105,0,0,0-.961.484A2.637,2.637,0,0,0,111.313,9.892Zm8.08-.108a3.821,3.821,0,0,1,.665-2.361,2.158,2.158,0,0,1,1.819-.879,1.942,1.942,0,0,1,1.529.691V4h1.7v9h-1.529l-.082-.674a1.993,1.993,0,0,1-1.629.791,2.152,2.152,0,0,1-1.8-.882A3.944,3.944,0,0,1,119.393,9.783Zm1.693.126a2.5,2.5,0,0,0,.311,1.367,1.012,1.012,0,0,0,.9.475,1.133,1.133,0,0,0,1.107-.663V8.583a1.117,1.117,0,0,0-1.1-.663Q121.086,7.92,121.086,9.909Zm8.25,3.208a3.112,3.112,0,0,1-2.271-.855,3.041,3.041,0,0,1-.876-2.279V9.818a3.83,3.83,0,0,1,.369-1.708A2.709,2.709,0,0,1,127.6,6.95a2.936,2.936,0,0,1,1.544-.407,2.631,2.631,0,0,1,2.048.82,3.333,3.333,0,0,1,.747,2.326v.691h-4.037a1.573,1.573,0,0,0,.5,1,1.5,1.5,0,0,0,1.046.375,1.828,1.828,0,0,0,1.529-.709l.832.932a2.542,2.542,0,0,1-1.031.841A3.383,3.383,0,0,1,129.336,13.117Zm-.193-5.209a1.058,1.058,0,0,0-.817.341,1.768,1.768,0,0,0-.4.977h2.355V9.091a1.261,1.261,0,0,0-.3-.874A1.092,1.092,0,0,0,129.143,7.908ZM139.566,13a1.88,1.88,0,0,1-.17-.568,2.049,2.049,0,0,1-1.6.686,2.251,2.251,0,0,1-1.544-.539,1.734,1.734,0,0,1-.612-1.359,1.792,1.792,0,0,1,.747-1.547,3.686,3.686,0,0,1,2.159-.545h.779V8.764a1.045,1.045,0,0,0-.226-.7.887.887,0,0,0-.712-.264,1.009,1.009,0,0,0-.671.205.7.7,0,0,0-.243.563h-1.693a1.7,1.7,0,0,1,.34-1.02,2.246,2.246,0,0,1,.961-.735,3.5,3.5,0,0,1,1.395-.267,2.767,2.767,0,0,1,1.86.589,2.06,2.06,0,0,1,.688,1.655v2.748a3.031,3.031,0,0,0,.252,1.365V13Zm-1.4-1.178a1.458,1.458,0,0,0,.691-.167,1.1,1.1,0,0,0,.469-.448v-1.09h-.633q-1.271,0-1.354.879l-.006.1a.678.678,0,0,0,.223.521A.865.865,0,0,0,138.166,11.822Zm5.719-5.162.053.732a2.213,2.213,0,0,1,1.822-.85,1.84,1.84,0,0,1,1.5.592,2.761,2.761,0,0,1,.5,1.77V13H146.07V8.945a1.1,1.1,0,0,0-.234-.782,1.049,1.049,0,0,0-.779-.243,1.165,1.165,0,0,0-1.072.609V13h-1.693V6.66ZM152.721,13a1.88,1.88,0,0,1-.17-.568,2.049,2.049,0,0,1-1.6.686,2.251,2.251,0,0,1-1.544-.539,1.734,1.734,0,0,1-.612-1.359,1.792,1.792,0,0,1,.747-1.547,3.686,3.686,0,0,1,2.159-.545h.779V8.764a1.045,1.045,0,0,0-.226-.7.887.887,0,0,0-.712-.264,1.009,1.009,0,0,0-.671.205.7.7,0,0,0-.243.563h-1.693a1.7,1.7,0,0,1,.34-1.02,2.246,2.246,0,0,1,.961-.735,3.5,3.5,0,0,1,1.395-.267,2.767,2.767,0,0,1,1.86.589,2.06,2.06,0,0,1,.688,1.655v2.748a3.031,3.031,0,0,0,.252,1.365V13Zm-1.4-1.178a1.458,1.458,0,0,0,.691-.167,1.1,1.1,0,0,0,.469-.448v-1.09h-.633q-1.271,0-1.354.879l-.006.1a.678.678,0,0,0,.223.521A.865.865,0,0,0,151.32,11.822ZM151.965,4h1.846l-1.623,1.816h-1.377Zm5.3,9h-1.7V4h1.7Zm3.182,0h-1.7V6.66h1.7Zm-1.8-7.98a.834.834,0,0,1,.255-.627,1.1,1.1,0,0,1,1.386,0,.829.829,0,0,1,.258.627.831.831,0,0,1-.261.633,1.086,1.086,0,0,1-1.377,0A.831.831,0,0,1,158.65,5.02Zm6.627,6.229a.546.546,0,0,0-.308-.489,3.494,3.494,0,0,0-.987-.319q-2.262-.475-2.262-1.922a1.742,1.742,0,0,1,.7-1.409,2.825,2.825,0,0,1,1.831-.565,3.04,3.04,0,0,1,1.931.568,1.791,1.791,0,0,1,.724,1.477h-1.693a.819.819,0,0,0-.234-.6.992.992,0,0,0-.732-.237,1.013,1.013,0,0,0-.662.193.61.61,0,0,0-.234.492.522.522,0,0,0,.267.454,2.743,2.743,0,0,0,.9.3,7.346,7.346,0,0,1,1.066.284,1.752,1.752,0,0,1,1.342,1.705,1.654,1.654,0,0,1-.744,1.4,3.21,3.21,0,0,1-1.922.536,3.353,3.353,0,0,1-1.415-.284,2.374,2.374,0,0,1-.97-.779,1.811,1.811,0,0,1-.352-1.069h1.605a.884.884,0,0,0,.334.691,1.325,1.325,0,0,0,.832.24,1.226,1.226,0,0,0,.735-.185A.574.574,0,0,0,165.277,11.248ZM169.8,13h-1.7V6.66h1.7ZM168,5.02a.834.834,0,0,1,.255-.627,1.1,1.1,0,0,1,1.386,0,.829.829,0,0,1,.258.627.831.831,0,0,1-.261.633,1.086,1.086,0,0,1-1.377,0A.831.831,0,0,1,168,5.02Zm6.627,6.229a.546.546,0,0,0-.308-.489,3.494,3.494,0,0,0-.987-.319q-2.262-.475-2.262-1.922a1.742,1.742,0,0,1,.7-1.409,2.825,2.825,0,0,1,1.831-.565,3.04,3.04,0,0,1,1.931.568,1.791,1.791,0,0,1,.724,1.477h-1.693a.819.819,0,0,0-.234-.6.992.992,0,0,0-.732-.237,1.013,1.013,0,0,0-.662.193.61.61,0,0,0-.234.492.522.522,0,0,0,.267.454,2.743,2.743,0,0,0,.9.3,7.346,7.346,0,0,1,1.066.284,1.752,1.752,0,0,1,1.342,1.705,1.654,1.654,0,0,1-.744,1.4,3.21,3.21,0,0,1-1.922.536,3.353,3.353,0,0,1-1.415-.284,2.374,2.374,0,0,1-.97-.779,1.811,1.811,0,0,1-.352-1.069h1.605a.884.884,0,0,0,.334.691,1.325,1.325,0,0,0,.832.24,1.226,1.226,0,0,0,.735-.185A.574.574,0,0,0,174.629,11.248Z" transform="translate(1099 3777.731)" fill="#12263f"/>
    <g id="Trazado_604012" data-name="Trazado 604012" transform="translate(1050.516 3883.397)" fill="#ecfce4">
      <path d="M 57.99143600463867 45.37255859375 L 10.0000057220459 45.37255859375 C 5.037385940551758 45.37255859375 1.000006079673767 41.33517837524414 1.000006079673767 36.37255859375 L 1.000006079673767 9.999999046325684 C 1.000006079673767 5.037379264831543 5.037385940551758 0.9999992847442627 10.0000057220459 0.9999992847442627 L 57.99143600463867 0.9999992847442627 C 62.95405578613281 0.9999992847442627 66.99143981933594 5.037379264831543 66.99143981933594 9.999999046325684 L 66.99143981933594 36.37255859375 C 66.99143981933594 41.33517837524414 62.95405578613281 45.37255859375 57.99143600463867 45.37255859375 Z" stroke="none"/>
      <path d="M 9.999992370605469 2 C 5.588783264160156 2 1.999992370605469 5.588790893554688 1.999992370605469 10 L 1.999992370605469 36.37255859375 C 1.999992370605469 40.78376770019531 5.588783264160156 44.37255859375 9.999992370605469 44.37255859375 L 57.99142837524414 44.37255859375 C 62.40263748168945 44.37255859375 65.99142456054688 40.78376770019531 65.99142456054688 36.37255859375 L 65.99142456054688 10 C 65.99142456054688 5.588790893554688 62.40263748168945 2 57.99142837524414 2 L 9.999992370605469 2 M 9.999992370605469 0 L 57.99142837524414 0 C 63.5142707824707 0 67.99142456054688 4.477157592773438 67.99142456054688 10 L 67.99142456054688 36.37255859375 C 67.99142456054688 41.89540100097656 63.5142707824707 46.37255859375 57.99142837524414 46.37255859375 L 9.999992370605469 46.37255859375 C 4.477149963378906 46.37255859375 -7.62939453125e-06 41.89540100097656 -7.62939453125e-06 36.37255859375 L -7.62939453125e-06 10 C -7.62939453125e-06 4.477157592773438 4.477149963378906 0 9.999992370605469 0 Z" stroke="none" fill="#659a40"/>
    </g>
    <path id="Trazado_604013" data-name="Trazado 604013" d="M6.156,8.31H9.188V9H5.307V2.6h.848ZM9.807,6.579a2.808,2.808,0,0,1,.275-1.257,2.049,2.049,0,0,1,.765-.861,2.081,2.081,0,0,1,1.118-.3,2.005,2.005,0,0,1,1.571.672,2.587,2.587,0,0,1,.6,1.789v.057a2.833,2.833,0,0,1-.266,1.246,2.019,2.019,0,0,1-.76.859,2.105,2.105,0,0,1-1.136.308,2,2,0,0,1-1.567-.672,2.574,2.574,0,0,1-.6-1.78Zm.817.1a2.034,2.034,0,0,0,.367,1.27,1.243,1.243,0,0,0,1.967-.007,2.224,2.224,0,0,0,.365-1.36,2.031,2.031,0,0,0-.371-1.268,1.181,1.181,0,0,0-.987-.486,1.167,1.167,0,0,0-.971.479A2.208,2.208,0,0,0,10.625,6.675Zm7.3,1.063a.6.6,0,0,0-.248-.512,2.39,2.39,0,0,0-.866-.314,4.093,4.093,0,0,1-.98-.316,1.394,1.394,0,0,1-.536-.439,1.051,1.051,0,0,1-.174-.606,1.233,1.233,0,0,1,.494-.989,1.931,1.931,0,0,1,1.263-.4,1.987,1.987,0,0,1,1.312.417,1.326,1.326,0,0,1,.5,1.068h-.817a.734.734,0,0,0-.283-.576,1.062,1.062,0,0,0-.714-.242,1.111,1.111,0,0,0-.694.193.609.609,0,0,0-.25.505.493.493,0,0,0,.233.444,2.866,2.866,0,0,0,.842.286,4.385,4.385,0,0,1,.987.325,1.439,1.439,0,0,1,.56.455,1.118,1.118,0,0,1,.182.648,1.217,1.217,0,0,1-.51,1.022,2.138,2.138,0,0,1-1.323.385,2.394,2.394,0,0,1-1.011-.2,1.644,1.644,0,0,1-.688-.565,1.361,1.361,0,0,1-.248-.784h.813a.842.842,0,0,0,.327.648,1.27,1.27,0,0,0,.806.24,1.311,1.311,0,0,0,.74-.187A.574.574,0,0,0,17.924,7.739Zm5.2-4.645V4.245h.888v.628h-.888V7.826a.66.66,0,0,0,.119.429.5.5,0,0,0,.4.143,1.968,1.968,0,0,0,.387-.053V9a2.371,2.371,0,0,1-.624.087,1.012,1.012,0,0,1-.822-.33,1.416,1.416,0,0,1-.277-.936V4.874h-.866V4.245h.866V3.094ZM25.847,9h-.813V4.245h.813Zm-.879-6.016a.485.485,0,0,1,.121-.334.454.454,0,0,1,.358-.136.461.461,0,0,1,.36.136.48.48,0,0,1,.123.334.464.464,0,0,1-.123.33.469.469,0,0,1-.36.132.462.462,0,0,1-.358-.132A.469.469,0,0,1,24.969,2.984Zm6.2,3.691a2.847,2.847,0,0,1-.5,1.749,1.592,1.592,0,0,1-1.345.664,1.744,1.744,0,0,1-1.362-.549v2.29h-.813V4.245h.743l.04.527a1.675,1.675,0,0,1,1.38-.615,1.621,1.621,0,0,1,1.356.646,2.878,2.878,0,0,1,.5,1.8Zm-.813-.092a2.1,2.1,0,0,0-.343-1.27,1.1,1.1,0,0,0-.94-.466,1.2,1.2,0,0,0-1.107.655V7.774a1.2,1.2,0,0,0,1.116.65,1.1,1.1,0,0,0,.929-.464A2.293,2.293,0,0,0,30.352,6.583Zm1.63,0a2.808,2.808,0,0,1,.275-1.257,2.049,2.049,0,0,1,.765-.861,2.081,2.081,0,0,1,1.118-.3,2.005,2.005,0,0,1,1.571.672,2.587,2.587,0,0,1,.6,1.789v.057a2.833,2.833,0,0,1-.266,1.246,2.019,2.019,0,0,1-.76.859,2.105,2.105,0,0,1-1.136.308,2,2,0,0,1-1.567-.672,2.574,2.574,0,0,1-.6-1.78Zm.817.1a2.034,2.034,0,0,0,.367,1.27,1.243,1.243,0,0,0,1.967-.007,2.224,2.224,0,0,0,.365-1.36,2.031,2.031,0,0,0-.371-1.268,1.181,1.181,0,0,0-.987-.486,1.167,1.167,0,0,0-.971.479A2.208,2.208,0,0,0,32.8,6.675Zm7.3,1.063a.6.6,0,0,0-.248-.512,2.39,2.39,0,0,0-.866-.314A4.093,4.093,0,0,1,38,6.6a1.394,1.394,0,0,1-.536-.439A1.051,1.051,0,0,1,37.3,5.55a1.233,1.233,0,0,1,.494-.989,1.931,1.931,0,0,1,1.263-.4,1.987,1.987,0,0,1,1.312.417,1.326,1.326,0,0,1,.5,1.068h-.817a.734.734,0,0,0-.283-.576,1.062,1.062,0,0,0-.714-.242,1.111,1.111,0,0,0-.694.193.609.609,0,0,0-.25.505.493.493,0,0,0,.233.444,2.866,2.866,0,0,0,.842.286,4.385,4.385,0,0,1,.987.325,1.439,1.439,0,0,1,.56.455,1.118,1.118,0,0,1,.182.648A1.217,1.217,0,0,1,40.4,8.7a2.138,2.138,0,0,1-1.323.385,2.394,2.394,0,0,1-1.011-.2,1.644,1.644,0,0,1-.688-.565,1.361,1.361,0,0,1-.248-.784h.813a.842.842,0,0,0,.327.648,1.27,1.27,0,0,0,.806.24,1.311,1.311,0,0,0,.74-.187A.574.574,0,0,0,40.1,7.739ZM44,6.583a2.785,2.785,0,0,1,.519-1.76A1.764,1.764,0,0,1,47.2,4.729V2.25h.813V9h-.747l-.04-.51a1.656,1.656,0,0,1-1.358.6,1.624,1.624,0,0,1-1.347-.677A2.817,2.817,0,0,1,44,6.645Zm.813.092a2.109,2.109,0,0,0,.334,1.266,1.08,1.08,0,0,0,.923.457A1.186,1.186,0,0,0,47.2,7.7V5.52a1.2,1.2,0,0,0-1.121-.672,1.085,1.085,0,0,0-.932.461A2.322,2.322,0,0,0,44.814,6.675Zm6.434,2.413a2.078,2.078,0,0,1-1.573-.635,2.357,2.357,0,0,1-.606-1.7V6.6a2.853,2.853,0,0,1,.27-1.263,2.108,2.108,0,0,1,.756-.87,1.9,1.9,0,0,1,1.052-.314,1.781,1.781,0,0,1,1.441.611A2.645,2.645,0,0,1,53.1,6.517v.338H49.881a1.69,1.69,0,0,0,.411,1.136,1.292,1.292,0,0,0,1,.433,1.416,1.416,0,0,0,.729-.176,1.833,1.833,0,0,0,.523-.466l.5.387A2,2,0,0,1,51.248,9.088Zm-.1-4.263a1.084,1.084,0,0,0-.826.358,1.741,1.741,0,0,0-.413,1h2.382V6.126a1.548,1.548,0,0,0-.334-.96A1.021,1.021,0,0,0,51.147,4.825ZM3.585,15.579a2.808,2.808,0,0,1,.275-1.257,2.049,2.049,0,0,1,.765-.861,2.081,2.081,0,0,1,1.118-.3,2.005,2.005,0,0,1,1.571.672,2.587,2.587,0,0,1,.6,1.789v.057a2.833,2.833,0,0,1-.266,1.246,2.019,2.019,0,0,1-.76.859,2.105,2.105,0,0,1-1.136.308,2,2,0,0,1-1.567-.672,2.574,2.574,0,0,1-.6-1.78Zm.817.1a2.034,2.034,0,0,0,.367,1.27,1.174,1.174,0,0,0,.982.479,1.167,1.167,0,0,0,.984-.486,2.224,2.224,0,0,0,.365-1.36,2.031,2.031,0,0,0-.371-1.268,1.181,1.181,0,0,0-.987-.486,1.167,1.167,0,0,0-.971.479A2.208,2.208,0,0,0,4.4,15.675Zm6.829-1.7a2.436,2.436,0,0,0-.4-.031,1.071,1.071,0,0,0-1.085.681V18H8.933V13.245h.791l.013.549a1.266,1.266,0,0,1,1.134-.637.831.831,0,0,1,.36.062Zm.554,1.608a2.8,2.8,0,0,1,.514-1.769,1.773,1.773,0,0,1,2.72-.042l.04-.527H15.8v4.641a1.934,1.934,0,0,1-.547,1.455,2.019,2.019,0,0,1-1.47.532,2.446,2.446,0,0,1-1.006-.22,1.732,1.732,0,0,1-.751-.6l.422-.488a1.59,1.59,0,0,0,1.279.646,1.246,1.246,0,0,0,.925-.334,1.277,1.277,0,0,0,.332-.94v-.409a1.671,1.671,0,0,1-1.332.563,1.624,1.624,0,0,1-1.351-.672A2.938,2.938,0,0,1,11.785,15.583Zm.817.092a2.132,2.132,0,0,0,.33,1.263,1.071,1.071,0,0,0,.923.459,1.191,1.191,0,0,0,1.129-.7V14.528a1.2,1.2,0,0,0-1.121-.681,1.081,1.081,0,0,0-.927.461A2.322,2.322,0,0,0,12.6,15.675ZM19.963,18a1.708,1.708,0,0,1-.114-.5,1.814,1.814,0,0,1-1.354.589,1.678,1.678,0,0,1-1.154-.4,1.287,1.287,0,0,1-.45-1.009,1.344,1.344,0,0,1,.565-1.154,2.662,2.662,0,0,1,1.589-.411h.791v-.374a.913.913,0,0,0-.255-.679,1.024,1.024,0,0,0-.751-.253,1.185,1.185,0,0,0-.729.22.647.647,0,0,0-.294.532h-.817a1.122,1.122,0,0,1,.253-.688,1.725,1.725,0,0,1,.686-.525,2.306,2.306,0,0,1,.951-.193,1.88,1.88,0,0,1,1.288.411,1.482,1.482,0,0,1,.483,1.132v2.188a2.676,2.676,0,0,0,.167,1.042V18Zm-1.349-.62a1.429,1.429,0,0,0,.725-.2,1.2,1.2,0,0,0,.5-.514v-.976H19.2q-1.494,0-1.494.875a.74.74,0,0,0,.255.6A.98.98,0,0,0,18.614,17.38Zm4.078-4.135.026.6a1.733,1.733,0,0,1,1.424-.686q1.507,0,1.521,1.7V18H24.85V14.854a1.1,1.1,0,0,0-.235-.76.942.942,0,0,0-.719-.246,1.173,1.173,0,0,0-.694.211,1.432,1.432,0,0,0-.466.554V18h-.813V13.245ZM27.772,18h-.813V13.245h.813Zm-.879-6.016a.485.485,0,0,1,.121-.334.454.454,0,0,1,.358-.136.461.461,0,0,1,.36.136.48.48,0,0,1,.123.334.464.464,0,0,1-.123.33.469.469,0,0,1-.36.132.462.462,0,0,1-.358-.132A.469.469,0,0,1,26.893,11.984Zm2.944,5.353h2.782V18H28.844v-.6l2.624-3.485H28.884v-.672h3.6v.576ZM36.469,18a1.708,1.708,0,0,1-.114-.5A1.814,1.814,0,0,1,35,18.088a1.678,1.678,0,0,1-1.154-.4,1.287,1.287,0,0,1-.45-1.009,1.344,1.344,0,0,1,.565-1.154,2.662,2.662,0,0,1,1.589-.411h.791v-.374a.913.913,0,0,0-.255-.679,1.024,1.024,0,0,0-.751-.253,1.185,1.185,0,0,0-.729.22.647.647,0,0,0-.294.532h-.817a1.122,1.122,0,0,1,.253-.688,1.725,1.725,0,0,1,.686-.525,2.306,2.306,0,0,1,.951-.193,1.88,1.88,0,0,1,1.288.411,1.482,1.482,0,0,1,.483,1.132v2.188a2.676,2.676,0,0,0,.167,1.042V18Zm-1.349-.62a1.429,1.429,0,0,0,.725-.2,1.2,1.2,0,0,0,.5-.514v-.976H35.7q-1.494,0-1.494.875a.74.74,0,0,0,.255.6A.98.98,0,0,0,35.12,17.38Zm5.216.044a1.171,1.171,0,0,0,.76-.264.928.928,0,0,0,.36-.659h.769a1.474,1.474,0,0,1-.281.778,1.852,1.852,0,0,1-.692.589,2,2,0,0,1-.916.22,1.959,1.959,0,0,1-1.545-.648,2.582,2.582,0,0,1-.573-1.773V15.53a2.863,2.863,0,0,1,.255-1.235,1.941,1.941,0,0,1,.732-.839,2.078,2.078,0,0,1,1.127-.3,1.907,1.907,0,0,1,1.329.479,1.712,1.712,0,0,1,.565,1.244h-.769a1.12,1.12,0,0,0-.349-.758,1.087,1.087,0,0,0-.776-.3,1.138,1.138,0,0,0-.96.446,2.1,2.1,0,0,0-.341,1.29v.154a2.053,2.053,0,0,0,.338,1.266A1.143,1.143,0,0,0,40.336,17.424ZM44.023,18H43.21V13.245h.813Zm-.879-6.016a.485.485,0,0,1,.121-.334.454.454,0,0,1,.358-.136.461.461,0,0,1,.36.136.48.48,0,0,1,.123.334.464.464,0,0,1-.123.33.469.469,0,0,1-.36.132.462.462,0,0,1-.358-.132A.469.469,0,0,1,43.144,11.984Zm1.964,3.595a2.808,2.808,0,0,1,.275-1.257,2.049,2.049,0,0,1,.765-.861,2.081,2.081,0,0,1,1.118-.3,2.005,2.005,0,0,1,1.571.672,2.587,2.587,0,0,1,.6,1.789v.057a2.833,2.833,0,0,1-.266,1.246,2.019,2.019,0,0,1-.76.859,2.105,2.105,0,0,1-1.136.308,2,2,0,0,1-1.567-.672,2.574,2.574,0,0,1-.6-1.78Zm.817.1a2.034,2.034,0,0,0,.367,1.27,1.243,1.243,0,0,0,1.967-.007,2.224,2.224,0,0,0,.365-1.36,2.031,2.031,0,0,0-.371-1.268,1.181,1.181,0,0,0-.987-.486,1.167,1.167,0,0,0-.971.479A2.208,2.208,0,0,0,45.926,15.675Zm1.709-4.425h.984l-1.178,1.292-.655,0Zm3.59,2,.026.6a1.733,1.733,0,0,1,1.424-.686q1.507,0,1.521,1.7V18h-.813V14.854a1.1,1.1,0,0,0-.235-.76.942.942,0,0,0-.719-.246,1.173,1.173,0,0,0-.694.211,1.432,1.432,0,0,0-.466.554V18h-.813V13.245Z" transform="translate(1055.512 3896.583)" fill="#12263f"/>
    <g id="Trazado_604014" data-name="Trazado 604014" transform="translate(1230.317 3883.397)" fill="#ecfce4">
      <path d="M 91.80551910400391 45.37274551391602 L 10 45.37274551391602 C 5.037386417388916 45.37274551391602 0.9999995231628418 41.33535766601562 0.9999995231628418 36.37274551391602 L 0.9999995231628418 9.999997138977051 C 0.9999995231628418 5.037384033203125 5.037386417388916 0.9999974966049194 10 0.9999974966049194 L 91.80551910400391 0.9999974966049194 C 96.76813507080078 0.9999974966049194 100.8055191040039 5.037384033203125 100.8055191040039 9.999997138977051 L 100.8055191040039 36.37274551391602 C 100.8055191040039 41.33535766601562 96.76813507080078 45.37274551391602 91.80551910400391 45.37274551391602 Z" stroke="none"/>
      <path d="M 10 2 C 5.588790893554688 2 2 5.588783264160156 2 10 L 2 36.37274169921875 C 2 40.78395843505859 5.588790893554688 44.37274169921875 10 44.37274169921875 L 91.80551910400391 44.37274169921875 C 96.21672821044922 44.37274169921875 99.80551910400391 40.78395843505859 99.80551910400391 36.37274169921875 L 99.80551910400391 10 C 99.80551910400391 5.588783264160156 96.21672821044922 2 91.80551910400391 2 L 10 2 M 10 0 L 91.80551910400391 0 C 97.32837677001953 0 101.8055191040039 4.477157592773438 101.8055191040039 10 L 101.8055191040039 36.37274169921875 C 101.8055191040039 41.89558410644531 97.32837677001953 46.37274169921875 91.80551910400391 46.37274169921875 L 10 46.37274169921875 C 4.477142333984375 46.37274169921875 0 41.89558410644531 0 36.37274169921875 L 0 10 C 0 4.477157592773438 4.477142333984375 0 10 0 Z" stroke="none" fill="#659a40"/>
    </g>
    <path id="Trazado_604015" data-name="Trazado 604015" d="M15.238,6.97a2.354,2.354,0,0,1-.749,1.567,2.456,2.456,0,0,1-1.677.552A2.255,2.255,0,0,1,11,8.275,3.271,3.271,0,0,1,10.312,6.1V5.484a3.646,3.646,0,0,1,.319-1.569,2.38,2.38,0,0,1,.9-1.039,2.514,2.514,0,0,1,1.354-.363,2.312,2.312,0,0,1,1.635.569,2.382,2.382,0,0,1,.716,1.575H14.39a1.838,1.838,0,0,0-.477-1.111A1.443,1.443,0,0,0,12.887,3.2a1.51,1.51,0,0,0-1.268.6,2.746,2.746,0,0,0-.459,1.7v.62a2.823,2.823,0,0,0,.435,1.658,1.406,1.406,0,0,0,1.217.616,1.624,1.624,0,0,0,1.079-.319,1.768,1.768,0,0,0,.5-1.11Zm.809-.391a2.808,2.808,0,0,1,.275-1.257,2.049,2.049,0,0,1,.765-.861,2.081,2.081,0,0,1,1.118-.3,2.005,2.005,0,0,1,1.571.672,2.587,2.587,0,0,1,.6,1.789v.057a2.833,2.833,0,0,1-.266,1.246,2.019,2.019,0,0,1-.76.859,2.105,2.105,0,0,1-1.136.308,2,2,0,0,1-1.567-.672,2.574,2.574,0,0,1-.6-1.78Zm.817.1a2.034,2.034,0,0,0,.367,1.27A1.243,1.243,0,0,0,19.2,7.939a2.224,2.224,0,0,0,.365-1.36,2.031,2.031,0,0,0-.371-1.268,1.181,1.181,0,0,0-.987-.486,1.167,1.167,0,0,0-.971.479A2.208,2.208,0,0,0,16.864,6.675Zm5.3-2.43.026.6a1.733,1.733,0,0,1,1.424-.686q1.507,0,1.521,1.7V9h-.813V5.854a1.1,1.1,0,0,0-.235-.76.942.942,0,0,0-.719-.246,1.173,1.173,0,0,0-.694.211,1.432,1.432,0,0,0-.466.554V9h-.813V4.245Zm5.3-1.151V4.245h.888v.628h-.888V7.826a.66.66,0,0,0,.119.429.5.5,0,0,0,.4.143,1.968,1.968,0,0,0,.387-.053V9a2.371,2.371,0,0,1-.624.087,1.012,1.012,0,0,1-.822-.33,1.416,1.416,0,0,1-.277-.936V4.874h-.866V4.245h.866V3.094ZM31.6,4.975a2.436,2.436,0,0,0-.4-.031,1.071,1.071,0,0,0-1.085.681V9H29.3V4.245h.791l.013.549a1.266,1.266,0,0,1,1.134-.637.831.831,0,0,1,.36.062ZM35.106,9a1.708,1.708,0,0,1-.114-.5,1.814,1.814,0,0,1-1.354.589,1.678,1.678,0,0,1-1.154-.4,1.287,1.287,0,0,1-.45-1.009A1.344,1.344,0,0,1,32.6,6.528a2.662,2.662,0,0,1,1.589-.411h.791V5.744a.913.913,0,0,0-.255-.679,1.024,1.024,0,0,0-.751-.253,1.185,1.185,0,0,0-.729.22.647.647,0,0,0-.294.532h-.817a1.122,1.122,0,0,1,.253-.688,1.725,1.725,0,0,1,.686-.525,2.306,2.306,0,0,1,.951-.193,1.88,1.88,0,0,1,1.288.411A1.482,1.482,0,0,1,35.791,5.7V7.888a2.676,2.676,0,0,0,.167,1.042V9Zm-1.349-.62a1.429,1.429,0,0,0,.725-.2,1.2,1.2,0,0,0,.5-.514V6.693h-.637q-1.494,0-1.494.875a.74.74,0,0,0,.255.6A.98.98,0,0,0,33.757,8.38Zm6.078-.642a.6.6,0,0,0-.248-.512,2.39,2.39,0,0,0-.866-.314,4.093,4.093,0,0,1-.98-.316,1.394,1.394,0,0,1-.536-.439,1.051,1.051,0,0,1-.174-.606,1.233,1.233,0,0,1,.494-.989,1.931,1.931,0,0,1,1.263-.4,1.987,1.987,0,0,1,1.312.417,1.326,1.326,0,0,1,.5,1.068h-.817a.734.734,0,0,0-.283-.576,1.062,1.062,0,0,0-.714-.242,1.111,1.111,0,0,0-.694.193.609.609,0,0,0-.25.505.493.493,0,0,0,.233.444,2.866,2.866,0,0,0,.842.286,4.385,4.385,0,0,1,.987.325,1.439,1.439,0,0,1,.56.455,1.118,1.118,0,0,1,.182.648,1.217,1.217,0,0,1-.51,1.022,2.138,2.138,0,0,1-1.323.385,2.394,2.394,0,0,1-1.011-.2,1.644,1.644,0,0,1-.688-.565,1.361,1.361,0,0,1-.248-.784h.813a.842.842,0,0,0,.327.648,1.27,1.27,0,0,0,.806.24,1.311,1.311,0,0,0,.74-.187A.574.574,0,0,0,39.834,7.739Zm2.975-4.645V4.245H43.7v.628h-.888V7.826a.66.66,0,0,0,.119.429.5.5,0,0,0,.4.143,1.968,1.968,0,0,0,.387-.053V9a2.371,2.371,0,0,1-.624.087,1.012,1.012,0,0,1-.822-.33A1.416,1.416,0,0,1,42,7.822V4.874h-.866V4.245H42V3.094Zm3.81,5.994a2.078,2.078,0,0,1-1.573-.635,2.357,2.357,0,0,1-.606-1.7V6.6a2.853,2.853,0,0,1,.27-1.263,2.108,2.108,0,0,1,.756-.87,1.9,1.9,0,0,1,1.052-.314,1.781,1.781,0,0,1,1.441.611,2.645,2.645,0,0,1,.514,1.749v.338H45.253a1.69,1.69,0,0,0,.411,1.136,1.292,1.292,0,0,0,1,.433,1.416,1.416,0,0,0,.729-.176,1.833,1.833,0,0,0,.523-.466l.5.387A2,2,0,0,1,46.619,9.088Zm-.1-4.263a1.084,1.084,0,0,0-.826.358,1.741,1.741,0,0,0-.413,1h2.382V6.126a1.548,1.548,0,0,0-.334-.96A1.021,1.021,0,0,0,46.518,4.825Zm7.031,3.6a1.171,1.171,0,0,0,.76-.264.928.928,0,0,0,.36-.659h.769a1.474,1.474,0,0,1-.281.778,1.852,1.852,0,0,1-.692.589,2,2,0,0,1-.916.22A1.959,1.959,0,0,1,52,8.44a2.582,2.582,0,0,1-.573-1.773V6.53A2.863,2.863,0,0,1,51.686,5.3a1.941,1.941,0,0,1,.732-.839,2.078,2.078,0,0,1,1.127-.3,1.907,1.907,0,0,1,1.329.479,1.712,1.712,0,0,1,.565,1.244H54.67a1.12,1.12,0,0,0-.349-.758,1.087,1.087,0,0,0-.776-.3,1.138,1.138,0,0,0-.96.446,2.1,2.1,0,0,0-.341,1.29v.154a2.053,2.053,0,0,0,.338,1.266A1.143,1.143,0,0,0,53.549,8.424Zm2.588-1.846a2.808,2.808,0,0,1,.275-1.257,2.049,2.049,0,0,1,.765-.861,2.081,2.081,0,0,1,1.118-.3,2.005,2.005,0,0,1,1.571.672,2.587,2.587,0,0,1,.6,1.789v.057A2.833,2.833,0,0,1,60.2,7.921a2.019,2.019,0,0,1-.76.859,2.105,2.105,0,0,1-1.136.308,2,2,0,0,1-1.567-.672,2.574,2.574,0,0,1-.6-1.78Zm.817.1a2.034,2.034,0,0,0,.367,1.27,1.243,1.243,0,0,0,1.967-.007,2.224,2.224,0,0,0,.365-1.36,2.031,2.031,0,0,0-.371-1.268,1.181,1.181,0,0,0-.987-.486,1.167,1.167,0,0,0-.971.479A2.208,2.208,0,0,0,56.955,6.675Zm5.3-2.43.026.6a1.733,1.733,0,0,1,1.424-.686q1.507,0,1.521,1.7V9h-.813V5.854a1.1,1.1,0,0,0-.235-.76.942.942,0,0,0-.719-.246,1.173,1.173,0,0,0-.694.211,1.432,1.432,0,0,0-.466.554V9h-.813V4.245Zm8.4,4.843a2.078,2.078,0,0,1-1.573-.635,2.357,2.357,0,0,1-.606-1.7V6.6a2.853,2.853,0,0,1,.27-1.263,2.108,2.108,0,0,1,.756-.87,1.9,1.9,0,0,1,1.052-.314,1.781,1.781,0,0,1,1.441.611,2.645,2.645,0,0,1,.514,1.749v.338H69.286A1.69,1.69,0,0,0,69.7,7.991a1.292,1.292,0,0,0,1,.433,1.416,1.416,0,0,0,.729-.176,1.833,1.833,0,0,0,.523-.466l.5.387A2,2,0,0,1,70.653,9.088Zm-.1-4.263a1.084,1.084,0,0,0-.826.358,1.741,1.741,0,0,0-.413,1h2.382V6.126a1.548,1.548,0,0,0-.334-.96A1.021,1.021,0,0,0,70.552,4.825ZM74.331,9h-.813V2.25h.813ZM1.78,15.579a2.808,2.808,0,0,1,.275-1.257,2.049,2.049,0,0,1,.765-.861,2.081,2.081,0,0,1,1.118-.3,2.005,2.005,0,0,1,1.571.672,2.587,2.587,0,0,1,.6,1.789v.057a2.833,2.833,0,0,1-.266,1.246,2.019,2.019,0,0,1-.76.859,2.105,2.105,0,0,1-1.136.308,2,2,0,0,1-1.567-.672,2.574,2.574,0,0,1-.6-1.78Zm.817.1a2.034,2.034,0,0,0,.367,1.27,1.174,1.174,0,0,0,.982.479,1.167,1.167,0,0,0,.984-.486,2.224,2.224,0,0,0,.365-1.36,2.031,2.031,0,0,0-.371-1.268,1.181,1.181,0,0,0-.987-.486,1.167,1.167,0,0,0-.971.479A2.208,2.208,0,0,0,2.6,15.675Zm8.556,0a2.827,2.827,0,0,1-.5,1.751,1.6,1.6,0,0,1-1.345.661,1.658,1.658,0,0,1-1.393-.637L7.875,18H7.128V11.25h.813v2.518A1.648,1.648,0,0,1,9.3,13.157a1.61,1.61,0,0,1,1.36.655,2.912,2.912,0,0,1,.494,1.793Zm-.813-.092a2.2,2.2,0,0,0-.321-1.283,1.062,1.062,0,0,0-.923-.453,1.194,1.194,0,0,0-1.156.747v2.057a1.227,1.227,0,0,0,1.165.747,1.056,1.056,0,0,0,.91-.453A2.336,2.336,0,0,0,10.34,15.583Zm2.676-2.338v5.3q0,1.371-1.244,1.371a1.517,1.517,0,0,1-.5-.079V19.2a1.572,1.572,0,0,0,.369.035.552.552,0,0,0,.415-.147.729.729,0,0,0,.143-.512V13.245Zm-.9-1.261a.487.487,0,0,1,.121-.332.444.444,0,0,1,.354-.138.461.461,0,0,1,.36.136.48.48,0,0,1,.123.334.464.464,0,0,1-.123.33.469.469,0,0,1-.36.132.455.455,0,0,1-.356-.132A.474.474,0,0,1,12.12,11.984Zm4.179,6.1a2.078,2.078,0,0,1-1.573-.635,2.357,2.357,0,0,1-.606-1.7V15.6a2.853,2.853,0,0,1,.27-1.263,2.108,2.108,0,0,1,.756-.87,1.9,1.9,0,0,1,1.052-.314,1.781,1.781,0,0,1,1.441.611,2.645,2.645,0,0,1,.514,1.749v.338H14.933a1.69,1.69,0,0,0,.411,1.136,1.292,1.292,0,0,0,1,.433,1.416,1.416,0,0,0,.729-.176,1.833,1.833,0,0,0,.523-.466l.5.387A2,2,0,0,1,16.3,18.088Zm-.1-4.263a1.084,1.084,0,0,0-.826.358,1.741,1.741,0,0,0-.413,1h2.382v-.062a1.548,1.548,0,0,0-.334-.96A1.021,1.021,0,0,0,16.2,13.825Zm4-1.731v1.151h.888v.628H20.2v2.952a.66.66,0,0,0,.119.429.5.5,0,0,0,.4.143,1.968,1.968,0,0,0,.387-.053V18a2.371,2.371,0,0,1-.624.087,1.012,1.012,0,0,1-.822-.33,1.416,1.416,0,0,1-.277-.936V13.874h-.866v-.628h.866V12.094Zm1.534,3.485a2.808,2.808,0,0,1,.275-1.257,2.049,2.049,0,0,1,.765-.861,2.081,2.081,0,0,1,1.118-.3,2.005,2.005,0,0,1,1.571.672,2.587,2.587,0,0,1,.6,1.789v.057a2.833,2.833,0,0,1-.266,1.246,2.019,2.019,0,0,1-.76.859,2.105,2.105,0,0,1-1.136.308,2,2,0,0,1-1.567-.672,2.574,2.574,0,0,1-.6-1.78Zm.817.1a2.034,2.034,0,0,0,.367,1.27,1.243,1.243,0,0,0,1.967-.007,2.224,2.224,0,0,0,.365-1.36,2.031,2.031,0,0,0-.371-1.268,1.181,1.181,0,0,0-.987-.486,1.167,1.167,0,0,0-.971.479A2.208,2.208,0,0,0,22.548,15.675Zm6.561-.092a2.785,2.785,0,0,1,.519-1.76,1.764,1.764,0,0,1,2.681-.094V11.25h.813V18h-.747l-.04-.51a1.656,1.656,0,0,1-1.358.6,1.624,1.624,0,0,1-1.347-.677,2.817,2.817,0,0,1-.521-1.767Zm.813.092a2.109,2.109,0,0,0,.334,1.266,1.08,1.08,0,0,0,.923.457,1.186,1.186,0,0,0,1.129-.694V14.52a1.2,1.2,0,0,0-1.121-.672,1.085,1.085,0,0,0-.932.461A2.322,2.322,0,0,0,29.922,15.675Zm6.434,2.413a2.078,2.078,0,0,1-1.573-.635,2.357,2.357,0,0,1-.606-1.7V15.6a2.853,2.853,0,0,1,.27-1.263,2.108,2.108,0,0,1,.756-.87,1.9,1.9,0,0,1,1.052-.314,1.781,1.781,0,0,1,1.441.611,2.645,2.645,0,0,1,.514,1.749v.338H34.989a1.69,1.69,0,0,0,.411,1.136,1.292,1.292,0,0,0,1,.433,1.416,1.416,0,0,0,.729-.176,1.833,1.833,0,0,0,.523-.466l.5.387A2,2,0,0,1,36.356,18.088Zm-.1-4.263a1.084,1.084,0,0,0-.826.358,1.741,1.741,0,0,0-.413,1H37.4v-.062a1.548,1.548,0,0,0-.334-.96A1.021,1.021,0,0,0,36.255,13.825ZM44.314,18a1.708,1.708,0,0,1-.114-.5,1.814,1.814,0,0,1-1.354.589,1.678,1.678,0,0,1-1.154-.4,1.287,1.287,0,0,1-.45-1.009,1.344,1.344,0,0,1,.565-1.154,2.662,2.662,0,0,1,1.589-.411h.791v-.374a.913.913,0,0,0-.255-.679,1.024,1.024,0,0,0-.751-.253,1.185,1.185,0,0,0-.729.22.647.647,0,0,0-.294.532h-.817a1.122,1.122,0,0,1,.253-.688,1.725,1.725,0,0,1,.686-.525,2.306,2.306,0,0,1,.951-.193,1.88,1.88,0,0,1,1.288.411A1.482,1.482,0,0,1,45,14.7v2.188a2.676,2.676,0,0,0,.167,1.042V18Zm-1.349-.62a1.429,1.429,0,0,0,.725-.2,1.2,1.2,0,0,0,.5-.514v-.976H43.55q-1.494,0-1.494.875a.74.74,0,0,0,.255.6A.98.98,0,0,0,42.965,17.38Zm4.078-4.135.026.6a1.733,1.733,0,0,1,1.424-.686q1.507,0,1.521,1.7V18H49.2V14.854a1.1,1.1,0,0,0-.235-.76.942.942,0,0,0-.719-.246,1.173,1.173,0,0,0-.694.211,1.432,1.432,0,0,0-.466.554V18h-.813V13.245ZM54.176,18a1.708,1.708,0,0,1-.114-.5,1.814,1.814,0,0,1-1.354.589,1.678,1.678,0,0,1-1.154-.4,1.287,1.287,0,0,1-.45-1.009,1.344,1.344,0,0,1,.565-1.154,2.662,2.662,0,0,1,1.589-.411h.791v-.374a.913.913,0,0,0-.255-.679,1.024,1.024,0,0,0-.751-.253,1.185,1.185,0,0,0-.729.22.647.647,0,0,0-.294.532H51.2a1.122,1.122,0,0,1,.253-.688,1.725,1.725,0,0,1,.686-.525,2.306,2.306,0,0,1,.951-.193,1.88,1.88,0,0,1,1.288.411,1.482,1.482,0,0,1,.483,1.132v2.188a2.676,2.676,0,0,0,.167,1.042V18Zm-1.349-.62a1.429,1.429,0,0,0,.725-.2,1.2,1.2,0,0,0,.5-.514v-.976h-.637q-1.494,0-1.494.875a.74.74,0,0,0,.255.6A.98.98,0,0,0,52.827,17.38Zm.751-6.13h.984l-1.178,1.292-.655,0ZM57.019,18h-.813V11.25h.813ZM59.2,18H58.39V13.245H59.2Zm-.879-6.016a.485.485,0,0,1,.121-.334.454.454,0,0,1,.358-.136.461.461,0,0,1,.36.136.48.48,0,0,1,.123.334.464.464,0,0,1-.123.33.469.469,0,0,1-.36.132.462.462,0,0,1-.358-.132A.469.469,0,0,1,58.324,11.984Zm4.948,4.755a.6.6,0,0,0-.248-.512,2.39,2.39,0,0,0-.866-.314,4.093,4.093,0,0,1-.98-.316,1.394,1.394,0,0,1-.536-.439,1.051,1.051,0,0,1-.174-.606,1.233,1.233,0,0,1,.494-.989,1.931,1.931,0,0,1,1.263-.4,1.987,1.987,0,0,1,1.312.417,1.326,1.326,0,0,1,.5,1.068h-.817a.734.734,0,0,0-.283-.576,1.062,1.062,0,0,0-.714-.242,1.111,1.111,0,0,0-.694.193.609.609,0,0,0-.25.505.493.493,0,0,0,.233.444,2.866,2.866,0,0,0,.842.286,4.385,4.385,0,0,1,.987.325,1.439,1.439,0,0,1,.56.455,1.118,1.118,0,0,1,.182.648,1.217,1.217,0,0,1-.51,1.022,2.138,2.138,0,0,1-1.323.385,2.394,2.394,0,0,1-1.011-.2,1.644,1.644,0,0,1-.688-.565,1.361,1.361,0,0,1-.248-.784h.813a.842.842,0,0,0,.327.648,1.27,1.27,0,0,0,.806.24,1.311,1.311,0,0,0,.74-.187A.574.574,0,0,0,63.272,16.739ZM66.028,18h-.813V13.245h.813Zm-.879-6.016a.485.485,0,0,1,.121-.334.454.454,0,0,1,.358-.136.461.461,0,0,1,.36.136.48.48,0,0,1,.123.334.464.464,0,0,1-.123.33.469.469,0,0,1-.36.132.462.462,0,0,1-.358-.132A.469.469,0,0,1,65.149,11.984ZM70.1,16.739a.6.6,0,0,0-.248-.512,2.39,2.39,0,0,0-.866-.314A4.093,4.093,0,0,1,68,15.6a1.394,1.394,0,0,1-.536-.439,1.051,1.051,0,0,1-.174-.606,1.233,1.233,0,0,1,.494-.989,1.931,1.931,0,0,1,1.263-.4,1.987,1.987,0,0,1,1.312.417,1.326,1.326,0,0,1,.5,1.068h-.817a.734.734,0,0,0-.283-.576,1.062,1.062,0,0,0-.714-.242,1.111,1.111,0,0,0-.694.193.609.609,0,0,0-.25.505.493.493,0,0,0,.233.444,2.866,2.866,0,0,0,.842.286,4.385,4.385,0,0,1,.987.325,1.439,1.439,0,0,1,.56.455,1.118,1.118,0,0,1,.182.648A1.217,1.217,0,0,1,70.4,17.7a2.138,2.138,0,0,1-1.323.385,2.394,2.394,0,0,1-1.011-.2,1.644,1.644,0,0,1-.688-.565,1.361,1.361,0,0,1-.248-.784h.813a.842.842,0,0,0,.327.648,1.27,1.27,0,0,0,.806.24,1.311,1.311,0,0,0,.74-.187A.574.574,0,0,0,70.1,16.739ZM74,15.583a2.785,2.785,0,0,1,.519-1.76,1.764,1.764,0,0,1,2.681-.094V11.25h.813V18h-.747l-.04-.51a1.656,1.656,0,0,1-1.358.6,1.624,1.624,0,0,1-1.347-.677A2.817,2.817,0,0,1,74,15.645Zm.813.092a2.109,2.109,0,0,0,.334,1.266,1.08,1.08,0,0,0,.923.457A1.186,1.186,0,0,0,77.2,16.7V14.52a1.2,1.2,0,0,0-1.121-.672,1.085,1.085,0,0,0-.932.461A2.322,2.322,0,0,0,74.812,15.675Zm6.434,2.413a2.078,2.078,0,0,1-1.573-.635,2.357,2.357,0,0,1-.606-1.7V15.6a2.853,2.853,0,0,1,.27-1.263,2.108,2.108,0,0,1,.756-.87,1.9,1.9,0,0,1,1.052-.314,1.781,1.781,0,0,1,1.441.611,2.645,2.645,0,0,1,.514,1.749v.338H79.879a1.69,1.69,0,0,0,.411,1.136,1.292,1.292,0,0,0,1,.433,1.416,1.416,0,0,0,.729-.176,1.833,1.833,0,0,0,.523-.466l.5.387A2,2,0,0,1,81.246,18.088Zm-.1-4.263a1.084,1.084,0,0,0-.826.358,1.741,1.741,0,0,0-.413,1h2.382v-.062a1.548,1.548,0,0,0-.334-.96A1.021,1.021,0,0,0,81.145,13.825ZM6.763,24.583a2.785,2.785,0,0,1,.519-1.76,1.64,1.64,0,0,1,1.358-.666,1.649,1.649,0,0,1,1.323.571V20.25h.813V27h-.747l-.04-.51a1.656,1.656,0,0,1-1.358.6,1.624,1.624,0,0,1-1.347-.677,2.817,2.817,0,0,1-.521-1.767Zm.813.092a2.109,2.109,0,0,0,.334,1.266,1.08,1.08,0,0,0,.923.457A1.186,1.186,0,0,0,9.962,25.7V23.52a1.2,1.2,0,0,0-1.121-.672,1.085,1.085,0,0,0-.932.461A2.322,2.322,0,0,0,7.576,24.675ZM14.972,27a1.708,1.708,0,0,1-.114-.5,1.814,1.814,0,0,1-1.354.589,1.678,1.678,0,0,1-1.154-.4,1.287,1.287,0,0,1-.45-1.009,1.344,1.344,0,0,1,.565-1.154,2.662,2.662,0,0,1,1.589-.411h.791v-.374a.913.913,0,0,0-.255-.679,1.024,1.024,0,0,0-.751-.253,1.185,1.185,0,0,0-.729.22.647.647,0,0,0-.294.532H12a1.122,1.122,0,0,1,.253-.688,1.725,1.725,0,0,1,.686-.525,2.306,2.306,0,0,1,.951-.193,1.88,1.88,0,0,1,1.288.411,1.482,1.482,0,0,1,.483,1.132v2.188a2.676,2.676,0,0,0,.167,1.042V27Zm-1.349-.62a1.429,1.429,0,0,0,.725-.2,1.2,1.2,0,0,0,.5-.514v-.976h-.637q-1.494,0-1.494.875a.74.74,0,0,0,.255.6A.98.98,0,0,0,13.623,26.38Zm4.412-5.287v1.151h.888v.628h-.888v2.952a.66.66,0,0,0,.119.429.5.5,0,0,0,.4.143,1.968,1.968,0,0,0,.387-.053V27a2.371,2.371,0,0,1-.624.087,1.012,1.012,0,0,1-.822-.33,1.416,1.416,0,0,1-.277-.936V22.874h-.866v-.628h.866V21.094Zm1.534,3.485a2.808,2.808,0,0,1,.275-1.257,2.049,2.049,0,0,1,.765-.861,2.081,2.081,0,0,1,1.118-.3,2.005,2.005,0,0,1,1.571.672,2.587,2.587,0,0,1,.6,1.789v.057a2.833,2.833,0,0,1-.266,1.246,2.019,2.019,0,0,1-.76.859,2.105,2.105,0,0,1-1.136.308,2,2,0,0,1-1.567-.672,2.574,2.574,0,0,1-.6-1.78Zm.817.1a2.034,2.034,0,0,0,.367,1.27,1.243,1.243,0,0,0,1.967-.007,2.224,2.224,0,0,0,.365-1.36,2.031,2.031,0,0,0-.371-1.268,1.181,1.181,0,0,0-.987-.486,1.167,1.167,0,0,0-.971.479A2.208,2.208,0,0,0,20.386,24.675Zm7.3,1.063a.6.6,0,0,0-.248-.512,2.39,2.39,0,0,0-.866-.314,4.093,4.093,0,0,1-.98-.316,1.394,1.394,0,0,1-.536-.439,1.051,1.051,0,0,1-.174-.606,1.233,1.233,0,0,1,.494-.989,1.931,1.931,0,0,1,1.263-.4,1.987,1.987,0,0,1,1.312.417,1.326,1.326,0,0,1,.5,1.068h-.817a.734.734,0,0,0-.283-.576,1.062,1.062,0,0,0-.714-.242,1.111,1.111,0,0,0-.694.193.609.609,0,0,0-.25.505.493.493,0,0,0,.233.444,2.866,2.866,0,0,0,.842.286,4.385,4.385,0,0,1,.987.325,1.439,1.439,0,0,1,.56.455,1.118,1.118,0,0,1,.182.648,1.217,1.217,0,0,1-.51,1.022,2.138,2.138,0,0,1-1.323.385,2.394,2.394,0,0,1-1.011-.2,1.644,1.644,0,0,1-.688-.565,1.361,1.361,0,0,1-.248-.784h.813a.842.842,0,0,0,.327.648,1.27,1.27,0,0,0,.806.24,1.311,1.311,0,0,0,.74-.187A.574.574,0,0,0,27.685,25.739ZM35.8,24.675a2.847,2.847,0,0,1-.5,1.749,1.592,1.592,0,0,1-1.345.664,1.744,1.744,0,0,1-1.362-.549v2.29h-.813V22.245h.743l.04.527a1.675,1.675,0,0,1,1.38-.615A1.621,1.621,0,0,1,35.3,22.8a2.878,2.878,0,0,1,.5,1.8Zm-.813-.092a2.1,2.1,0,0,0-.343-1.27,1.1,1.1,0,0,0-.94-.466A1.2,1.2,0,0,0,32.6,23.5v2.272a1.2,1.2,0,0,0,1.116.65,1.1,1.1,0,0,0,.929-.464A2.293,2.293,0,0,0,34.989,24.583Zm4.144-1.608a2.436,2.436,0,0,0-.4-.031,1.071,1.071,0,0,0-1.085.681V27h-.813V22.245h.791l.013.549a1.266,1.266,0,0,1,1.134-.637.831.831,0,0,1,.36.062Zm.444,1.6a2.808,2.808,0,0,1,.275-1.257,2.049,2.049,0,0,1,.765-.861,2.081,2.081,0,0,1,1.118-.3,2.005,2.005,0,0,1,1.571.672,2.587,2.587,0,0,1,.6,1.789v.057a2.833,2.833,0,0,1-.266,1.246,2.019,2.019,0,0,1-.76.859,2.105,2.105,0,0,1-1.136.308,2,2,0,0,1-1.567-.672,2.574,2.574,0,0,1-.6-1.78Zm.817.1a2.034,2.034,0,0,0,.367,1.27,1.243,1.243,0,0,0,1.967-.007,2.224,2.224,0,0,0,.365-1.36,2.031,2.031,0,0,0-.371-1.268,1.181,1.181,0,0,0-.987-.486,1.167,1.167,0,0,0-.971.479A2.208,2.208,0,0,0,40.394,24.675Zm6.086,1.134,1.107-3.564h.87l-1.912,5.489Q46.1,28.92,45.136,28.92l-.154-.013-.3-.057v-.659l.22.018a1.082,1.082,0,0,0,.644-.167,1.209,1.209,0,0,0,.38-.611l.18-.483-1.7-4.7h.888Zm4.676,1.279a2.078,2.078,0,0,1-1.573-.635,2.357,2.357,0,0,1-.606-1.7V24.6a2.853,2.853,0,0,1,.27-1.263,2.108,2.108,0,0,1,.756-.87,1.9,1.9,0,0,1,1.052-.314,1.781,1.781,0,0,1,1.441.611,2.645,2.645,0,0,1,.514,1.749v.338H49.79a1.69,1.69,0,0,0,.411,1.136,1.292,1.292,0,0,0,1,.433,1.416,1.416,0,0,0,.729-.176,1.833,1.833,0,0,0,.523-.466l.5.387A2,2,0,0,1,51.157,27.088Zm-.1-4.263a1.084,1.084,0,0,0-.826.358,1.741,1.741,0,0,0-.413,1H52.2v-.062a1.548,1.548,0,0,0-.334-.96A1.021,1.021,0,0,0,51.056,22.825Zm4.8,3.6a1.171,1.171,0,0,0,.76-.264.928.928,0,0,0,.36-.659h.769a1.474,1.474,0,0,1-.281.778,1.852,1.852,0,0,1-.692.589,2,2,0,0,1-.916.22,1.959,1.959,0,0,1-1.545-.648,2.582,2.582,0,0,1-.573-1.773V24.53A2.863,2.863,0,0,1,54,23.3a1.941,1.941,0,0,1,.732-.839,2.078,2.078,0,0,1,1.127-.3,1.907,1.907,0,0,1,1.329.479,1.712,1.712,0,0,1,.565,1.244h-.769a1.12,1.12,0,0,0-.349-.758,1.087,1.087,0,0,0-.776-.3,1.138,1.138,0,0,0-.96.446,2.1,2.1,0,0,0-.341,1.29v.154a2.053,2.053,0,0,0,.338,1.266A1.143,1.143,0,0,0,55.859,26.424Zm3.907-5.331v1.151h.888v.628h-.888v2.952a.66.66,0,0,0,.119.429.5.5,0,0,0,.4.143,1.968,1.968,0,0,0,.387-.053V27a2.371,2.371,0,0,1-.624.087,1.012,1.012,0,0,1-.822-.33,1.416,1.416,0,0,1-.277-.936V22.874h-.866v-.628h.866V21.094ZM64.538,27a1.708,1.708,0,0,1-.114-.5,1.814,1.814,0,0,1-1.354.589,1.678,1.678,0,0,1-1.154-.4,1.287,1.287,0,0,1-.45-1.009,1.344,1.344,0,0,1,.565-1.154,2.662,2.662,0,0,1,1.589-.411h.791v-.374a.913.913,0,0,0-.255-.679,1.024,1.024,0,0,0-.751-.253,1.185,1.185,0,0,0-.729.22.647.647,0,0,0-.294.532h-.817a1.122,1.122,0,0,1,.253-.688,1.725,1.725,0,0,1,.686-.525,2.306,2.306,0,0,1,.951-.193,1.88,1.88,0,0,1,1.288.411,1.482,1.482,0,0,1,.483,1.132v2.188a2.676,2.676,0,0,0,.167,1.042V27Zm-1.349-.62a1.429,1.429,0,0,0,.725-.2,1.2,1.2,0,0,0,.5-.514v-.976h-.637q-1.494,0-1.494.875a.74.74,0,0,0,.255.6A.98.98,0,0,0,63.189,26.38Zm3.111-1.8a2.785,2.785,0,0,1,.519-1.76,1.764,1.764,0,0,1,2.681-.094V20.25h.813V27h-.747l-.04-.51a1.656,1.656,0,0,1-1.358.6,1.624,1.624,0,0,1-1.347-.677,2.817,2.817,0,0,1-.521-1.767Zm.813.092a2.109,2.109,0,0,0,.334,1.266,1.08,1.08,0,0,0,.923.457A1.186,1.186,0,0,0,69.5,25.7V23.52a1.2,1.2,0,0,0-1.121-.672,1.085,1.085,0,0,0-.932.461A2.322,2.322,0,0,0,67.113,24.675Zm4.245-.1a2.808,2.808,0,0,1,.275-1.257,2.049,2.049,0,0,1,.765-.861,2.081,2.081,0,0,1,1.118-.3,2.005,2.005,0,0,1,1.571.672,2.587,2.587,0,0,1,.6,1.789v.057a2.833,2.833,0,0,1-.266,1.246,2.019,2.019,0,0,1-.76.859,2.105,2.105,0,0,1-1.136.308,2,2,0,0,1-1.567-.672,2.574,2.574,0,0,1-.6-1.78Zm.817.1a2.034,2.034,0,0,0,.367,1.27,1.243,1.243,0,0,0,1.967-.007,2.224,2.224,0,0,0,.365-1.36,2.031,2.031,0,0,0-.371-1.268,1.181,1.181,0,0,0-.987-.486,1.167,1.167,0,0,0-.971.479A2.208,2.208,0,0,0,72.176,24.675Zm4.548,1.9a.509.509,0,0,1,.125-.352.477.477,0,0,1,.376-.141.492.492,0,0,1,.38.141.5.5,0,0,1,.13.352.472.472,0,0,1-.13.338.5.5,0,0,1-.38.136.452.452,0,0,1-.5-.475Z" transform="translate(1238.317 3892.083)" fill="#12263f"/>
    <g id="Trazado_604016" data-name="Trazado 604016" transform="translate(1124.248 3883.397)" fill="#ecfce4">
      <path d="M 91.80551910400391 45.37274551391602 L 10 45.37274551391602 C 5.037386417388916 45.37274551391602 0.9999995231628418 41.33535766601562 0.9999995231628418 36.37274551391602 L 0.9999995231628418 9.999997138977051 C 0.9999995231628418 5.037384033203125 5.037386417388916 0.9999974966049194 10 0.9999974966049194 L 91.80551910400391 0.9999974966049194 C 96.76813507080078 0.9999974966049194 100.8055191040039 5.037384033203125 100.8055191040039 9.999997138977051 L 100.8055191040039 36.37274551391602 C 100.8055191040039 41.33535766601562 96.76813507080078 45.37274551391602 91.80551910400391 45.37274551391602 Z" stroke="none"/>
      <path d="M 10 2 C 5.588790893554688 2 2 5.588783264160156 2 10 L 2 36.37274169921875 C 2 40.78395843505859 5.588790893554688 44.37274169921875 10 44.37274169921875 L 91.80551910400391 44.37274169921875 C 96.21672821044922 44.37274169921875 99.80551910400391 40.78395843505859 99.80551910400391 36.37274169921875 L 99.80551910400391 10 C 99.80551910400391 5.588783264160156 96.21672821044922 2 91.80551910400391 2 L 10 2 M 10 0 L 91.80551910400391 0 C 97.32837677001953 0 101.8055191040039 4.477157592773438 101.8055191040039 10 L 101.8055191040039 36.37274169921875 C 101.8055191040039 41.89558410644531 97.32837677001953 46.37274169921875 91.80551910400391 46.37274169921875 L 10 46.37274169921875 C 4.477142333984375 46.37274169921875 0 41.89558410644531 0 36.37274169921875 L 0 10 C 0 4.477157592773438 4.477142333984375 0 10 0 Z" stroke="none" fill="#659a40"/>
    </g>
    <path id="Trazado_604017" data-name="Trazado 604017" d="M12.674,8.31h3.032V9h-3.88V2.6h.848Zm6.8.69a1.708,1.708,0,0,1-.114-.5,1.814,1.814,0,0,1-1.354.589,1.678,1.678,0,0,1-1.154-.4,1.287,1.287,0,0,1-.45-1.009,1.344,1.344,0,0,1,.565-1.154,2.662,2.662,0,0,1,1.589-.411h.791V5.744a.913.913,0,0,0-.255-.679,1.024,1.024,0,0,0-.751-.253,1.185,1.185,0,0,0-.729.22.647.647,0,0,0-.294.532H16.5a1.122,1.122,0,0,1,.253-.688,1.725,1.725,0,0,1,.686-.525,2.306,2.306,0,0,1,.951-.193,1.88,1.88,0,0,1,1.288.411A1.482,1.482,0,0,1,20.162,5.7V7.888a2.676,2.676,0,0,0,.167,1.042V9Zm-1.349-.62a1.429,1.429,0,0,0,.725-.2,1.2,1.2,0,0,0,.5-.514V6.693h-.637q-1.494,0-1.494.875a.74.74,0,0,0,.255.6A.98.98,0,0,0,18.127,8.38Zm6.078-.642a.6.6,0,0,0-.248-.512,2.39,2.39,0,0,0-.866-.314,4.093,4.093,0,0,1-.98-.316,1.394,1.394,0,0,1-.536-.439A1.051,1.051,0,0,1,21.4,5.55a1.233,1.233,0,0,1,.494-.989,1.931,1.931,0,0,1,1.263-.4,1.987,1.987,0,0,1,1.312.417,1.326,1.326,0,0,1,.5,1.068h-.817a.734.734,0,0,0-.283-.576,1.062,1.062,0,0,0-.714-.242,1.111,1.111,0,0,0-.694.193.609.609,0,0,0-.25.505.493.493,0,0,0,.233.444,2.866,2.866,0,0,0,.842.286,4.385,4.385,0,0,1,.987.325,1.439,1.439,0,0,1,.56.455,1.118,1.118,0,0,1,.182.648,1.217,1.217,0,0,1-.51,1.022,2.138,2.138,0,0,1-1.323.385,2.394,2.394,0,0,1-1.011-.2,1.644,1.644,0,0,1-.688-.565,1.361,1.361,0,0,1-.248-.784h.813a.842.842,0,0,0,.327.648,1.27,1.27,0,0,0,.806.24,1.311,1.311,0,0,0,.74-.187A.574.574,0,0,0,24.205,7.739Zm8.117-1.063a2.847,2.847,0,0,1-.5,1.749,1.592,1.592,0,0,1-1.345.664,1.744,1.744,0,0,1-1.362-.549v2.29h-.813V4.245h.743l.04.527a1.675,1.675,0,0,1,1.38-.615,1.621,1.621,0,0,1,1.356.646,2.878,2.878,0,0,1,.5,1.8Zm-.813-.092a2.1,2.1,0,0,0-.343-1.27,1.1,1.1,0,0,0-.94-.466,1.2,1.2,0,0,0-1.107.655V7.774a1.2,1.2,0,0,0,1.116.65,1.1,1.1,0,0,0,.929-.464A2.293,2.293,0,0,0,31.509,6.583Zm1.63,0a2.808,2.808,0,0,1,.275-1.257,2.049,2.049,0,0,1,.765-.861,2.081,2.081,0,0,1,1.118-.3,2.005,2.005,0,0,1,1.571.672,2.587,2.587,0,0,1,.6,1.789v.057A2.833,2.833,0,0,1,37.2,7.921a2.019,2.019,0,0,1-.76.859,2.105,2.105,0,0,1-1.136.308,2,2,0,0,1-1.567-.672,2.574,2.574,0,0,1-.6-1.78Zm.817.1a2.034,2.034,0,0,0,.367,1.27,1.243,1.243,0,0,0,1.967-.007,2.224,2.224,0,0,0,.365-1.36,2.031,2.031,0,0,0-.371-1.268,1.181,1.181,0,0,0-.987-.486,1.167,1.167,0,0,0-.971.479A2.208,2.208,0,0,0,33.956,6.675ZM39.371,9h-.813V2.25h.813Zm2.184,0h-.817V4.245h.817Zm.009-6.746h.984L41.37,3.546l-.655,0ZM44,3.094V4.245h.888v.628H44V7.826a.66.66,0,0,0,.119.429.5.5,0,0,0,.4.143,1.968,1.968,0,0,0,.387-.053V9a2.371,2.371,0,0,1-.624.087,1.012,1.012,0,0,1-.822-.33,1.416,1.416,0,0,1-.277-.936V4.874h-.866V4.245h.866V3.094ZM46.718,9h-.813V4.245h.813Zm-.879-6.016a.485.485,0,0,1,.121-.334.454.454,0,0,1,.358-.136.461.461,0,0,1,.36.136.48.48,0,0,1,.123.334.464.464,0,0,1-.123.33.469.469,0,0,1-.36.132.462.462,0,0,1-.358-.132A.469.469,0,0,1,45.839,2.984Zm4.087,5.44a1.171,1.171,0,0,0,.76-.264.928.928,0,0,0,.36-.659h.769a1.474,1.474,0,0,1-.281.778,1.852,1.852,0,0,1-.692.589,2,2,0,0,1-.916.22,1.959,1.959,0,0,1-1.545-.648,2.582,2.582,0,0,1-.573-1.773V6.53A2.863,2.863,0,0,1,48.063,5.3a1.941,1.941,0,0,1,.732-.839,2.078,2.078,0,0,1,1.127-.3,1.907,1.907,0,0,1,1.329.479,1.712,1.712,0,0,1,.565,1.244h-.769a1.12,1.12,0,0,0-.349-.758,1.087,1.087,0,0,0-.776-.3,1.138,1.138,0,0,0-.96.446,2.1,2.1,0,0,0-.341,1.29v.154a2.053,2.053,0,0,0,.338,1.266A1.143,1.143,0,0,0,49.926,8.424ZM55.665,9a1.708,1.708,0,0,1-.114-.5,1.814,1.814,0,0,1-1.354.589,1.678,1.678,0,0,1-1.154-.4,1.287,1.287,0,0,1-.45-1.009,1.344,1.344,0,0,1,.565-1.154,2.662,2.662,0,0,1,1.589-.411h.791V5.744a.913.913,0,0,0-.255-.679,1.024,1.024,0,0,0-.751-.253,1.185,1.185,0,0,0-.729.22.647.647,0,0,0-.294.532H52.69a1.122,1.122,0,0,1,.253-.688,1.725,1.725,0,0,1,.686-.525,2.306,2.306,0,0,1,.951-.193,1.88,1.88,0,0,1,1.288.411A1.482,1.482,0,0,1,56.351,5.7V7.888a2.676,2.676,0,0,0,.167,1.042V9Zm-1.349-.62a1.429,1.429,0,0,0,.725-.2,1.2,1.2,0,0,0,.5-.514V6.693H54.9q-1.494,0-1.494.875a.74.74,0,0,0,.255.6A.98.98,0,0,0,54.316,8.38Zm6.078-.642a.6.6,0,0,0-.248-.512,2.39,2.39,0,0,0-.866-.314A4.093,4.093,0,0,1,58.3,6.6a1.394,1.394,0,0,1-.536-.439,1.051,1.051,0,0,1-.174-.606,1.233,1.233,0,0,1,.494-.989,1.931,1.931,0,0,1,1.263-.4,1.987,1.987,0,0,1,1.312.417,1.326,1.326,0,0,1,.5,1.068h-.817a.734.734,0,0,0-.283-.576,1.062,1.062,0,0,0-.714-.242,1.111,1.111,0,0,0-.694.193.609.609,0,0,0-.25.505.493.493,0,0,0,.233.444,2.866,2.866,0,0,0,.842.286,4.385,4.385,0,0,1,.987.325,1.439,1.439,0,0,1,.56.455,1.118,1.118,0,0,1,.182.648A1.217,1.217,0,0,1,60.7,8.7a2.138,2.138,0,0,1-1.323.385,2.394,2.394,0,0,1-1.011-.2,1.644,1.644,0,0,1-.688-.565,1.361,1.361,0,0,1-.248-.784h.813a.842.842,0,0,0,.327.648,1.27,1.27,0,0,0,.806.24,1.311,1.311,0,0,0,.74-.187A.574.574,0,0,0,60.394,7.739Zm3.9-1.156a2.785,2.785,0,0,1,.519-1.76A1.764,1.764,0,0,1,67.5,4.729V2.25h.813V9h-.747l-.04-.51a1.656,1.656,0,0,1-1.358.6,1.624,1.624,0,0,1-1.347-.677A2.817,2.817,0,0,1,64.3,6.645Zm.813.092a2.109,2.109,0,0,0,.334,1.266,1.08,1.08,0,0,0,.923.457A1.186,1.186,0,0,0,67.5,7.7V5.52a1.2,1.2,0,0,0-1.121-.672,1.085,1.085,0,0,0-.932.461A2.322,2.322,0,0,0,65.109,6.675Zm6.434,2.413a2.078,2.078,0,0,1-1.573-.635,2.357,2.357,0,0,1-.606-1.7V6.6a2.853,2.853,0,0,1,.27-1.263,2.108,2.108,0,0,1,.756-.87,1.9,1.9,0,0,1,1.052-.314,1.781,1.781,0,0,1,1.441.611A2.645,2.645,0,0,1,73.4,6.517v.338H70.176a1.69,1.69,0,0,0,.411,1.136,1.292,1.292,0,0,0,1,.433,1.416,1.416,0,0,0,.729-.176,1.833,1.833,0,0,0,.523-.466l.5.387A2,2,0,0,1,71.543,9.088Zm-.1-4.263a1.084,1.084,0,0,0-.826.358,1.741,1.741,0,0,0-.413,1h2.382V6.126a1.548,1.548,0,0,0-.334-.96A1.021,1.021,0,0,0,71.442,4.825ZM4.812,15.583a2.8,2.8,0,0,1,.514-1.769,1.644,1.644,0,0,1,1.362-.657,1.636,1.636,0,0,1,1.358.615l.04-.527h.743v4.641a1.934,1.934,0,0,1-.547,1.455,2.019,2.019,0,0,1-1.47.532,2.446,2.446,0,0,1-1.006-.22,1.732,1.732,0,0,1-.751-.6l.422-.488a1.59,1.59,0,0,0,1.279.646,1.246,1.246,0,0,0,.925-.334,1.277,1.277,0,0,0,.332-.94v-.409a1.671,1.671,0,0,1-1.332.563,1.624,1.624,0,0,1-1.351-.672A2.938,2.938,0,0,1,4.812,15.583Zm.817.092a2.132,2.132,0,0,0,.33,1.263,1.071,1.071,0,0,0,.923.459,1.191,1.191,0,0,0,1.129-.7V14.528a1.2,1.2,0,0,0-1.121-.681,1.081,1.081,0,0,0-.927.461A2.322,2.322,0,0,0,5.629,15.675Zm6.4,2.413a2.078,2.078,0,0,1-1.573-.635,2.357,2.357,0,0,1-.606-1.7V15.6a2.853,2.853,0,0,1,.27-1.263,2.108,2.108,0,0,1,.756-.87,1.9,1.9,0,0,1,1.052-.314,1.781,1.781,0,0,1,1.441.611,2.645,2.645,0,0,1,.514,1.749v.338H10.661a1.69,1.69,0,0,0,.411,1.136,1.292,1.292,0,0,0,1,.433,1.416,1.416,0,0,0,.729-.176,1.833,1.833,0,0,0,.523-.466l.5.387A2,2,0,0,1,12.028,18.088Zm-.1-4.263a1.084,1.084,0,0,0-.826.358,1.741,1.741,0,0,0-.413,1h2.382v-.062a1.548,1.548,0,0,0-.334-.96A1.021,1.021,0,0,0,11.927,13.825Zm5.665,2.914a.6.6,0,0,0-.248-.512,2.39,2.39,0,0,0-.866-.314,4.093,4.093,0,0,1-.98-.316,1.394,1.394,0,0,1-.536-.439,1.051,1.051,0,0,1-.174-.606,1.233,1.233,0,0,1,.494-.989,1.931,1.931,0,0,1,1.263-.4,1.987,1.987,0,0,1,1.312.417,1.326,1.326,0,0,1,.5,1.068h-.817a.734.734,0,0,0-.283-.576,1.062,1.062,0,0,0-.714-.242,1.111,1.111,0,0,0-.694.193.609.609,0,0,0-.25.505.493.493,0,0,0,.233.444,2.866,2.866,0,0,0,.842.286,4.385,4.385,0,0,1,.987.325,1.439,1.439,0,0,1,.56.455,1.118,1.118,0,0,1,.182.648,1.217,1.217,0,0,1-.51,1.022,2.138,2.138,0,0,1-1.323.385,2.394,2.394,0,0,1-1.011-.2,1.644,1.644,0,0,1-.688-.565,1.361,1.361,0,0,1-.248-.784h.813a.842.842,0,0,0,.327.648,1.27,1.27,0,0,0,.806.24,1.311,1.311,0,0,0,.74-.187A.574.574,0,0,0,17.591,16.739Zm2.975-4.645v1.151h.888v.628h-.888v2.952a.66.66,0,0,0,.119.429.5.5,0,0,0,.4.143,1.968,1.968,0,0,0,.387-.053V18a2.371,2.371,0,0,1-.624.087,1.012,1.012,0,0,1-.822-.33,1.416,1.416,0,0,1-.277-.936V13.874h-.866v-.628h.866V12.094ZM23.287,18h-.813V13.245h.813Zm-.879-6.016a.485.485,0,0,1,.121-.334.454.454,0,0,1,.358-.136.461.461,0,0,1,.36.136.48.48,0,0,1,.123.334.464.464,0,0,1-.123.33.469.469,0,0,1-.36.132.462.462,0,0,1-.358-.132A.469.469,0,0,1,22.408,11.984Zm1.964,3.595a2.808,2.808,0,0,1,.275-1.257,2.049,2.049,0,0,1,.765-.861,2.081,2.081,0,0,1,1.118-.3,2.005,2.005,0,0,1,1.571.672,2.587,2.587,0,0,1,.6,1.789v.057a2.833,2.833,0,0,1-.266,1.246,2.019,2.019,0,0,1-.76.859,2.105,2.105,0,0,1-1.136.308,2,2,0,0,1-1.567-.672,2.574,2.574,0,0,1-.6-1.78Zm.817.1a2.034,2.034,0,0,0,.367,1.27,1.243,1.243,0,0,0,1.967-.007,2.224,2.224,0,0,0,.365-1.36,2.031,2.031,0,0,0-.371-1.268,1.181,1.181,0,0,0-.987-.486,1.167,1.167,0,0,0-.971.479A2.208,2.208,0,0,0,25.189,15.675ZM26.9,11.25h.984l-1.178,1.292-.655,0Zm3.59,2,.026.6a1.733,1.733,0,0,1,1.424-.686q1.507,0,1.521,1.7V18h-.813V14.854a1.1,1.1,0,0,0-.235-.76.942.942,0,0,0-.719-.246,1.173,1.173,0,0,0-.694.211,1.432,1.432,0,0,0-.466.554V18H29.72V13.245Zm6.227,2.338a2.785,2.785,0,0,1,.519-1.76,1.764,1.764,0,0,1,2.681-.094V11.25h.813V18h-.747l-.04-.51a1.656,1.656,0,0,1-1.358.6,1.624,1.624,0,0,1-1.347-.677,2.817,2.817,0,0,1-.521-1.767Zm.813.092a2.109,2.109,0,0,0,.334,1.266,1.08,1.08,0,0,0,.923.457,1.186,1.186,0,0,0,1.129-.694V14.52a1.2,1.2,0,0,0-1.121-.672,1.085,1.085,0,0,0-.932.461A2.322,2.322,0,0,0,37.529,15.675Zm6.434,2.413a2.078,2.078,0,0,1-1.573-.635,2.357,2.357,0,0,1-.606-1.7V15.6a2.853,2.853,0,0,1,.27-1.263,2.108,2.108,0,0,1,.756-.87,1.9,1.9,0,0,1,1.052-.314,1.781,1.781,0,0,1,1.441.611,2.645,2.645,0,0,1,.514,1.749v.338H42.6a1.69,1.69,0,0,0,.411,1.136,1.292,1.292,0,0,0,1,.433,1.416,1.416,0,0,0,.729-.176,1.833,1.833,0,0,0,.523-.466l.5.387A2,2,0,0,1,43.963,18.088Zm-.1-4.263a1.084,1.084,0,0,0-.826.358,1.741,1.741,0,0,0-.413,1H45v-.062a1.548,1.548,0,0,0-.334-.96A1.021,1.021,0,0,0,43.862,13.825ZM47.641,18h-.813V11.25h.813Zm5.436-.576a1.171,1.171,0,0,0,.76-.264.928.928,0,0,0,.36-.659h.769a1.474,1.474,0,0,1-.281.778,1.852,1.852,0,0,1-.692.589,2,2,0,0,1-.916.22,1.959,1.959,0,0,1-1.545-.648,2.582,2.582,0,0,1-.573-1.773V15.53a2.863,2.863,0,0,1,.255-1.235,1.941,1.941,0,0,1,.732-.839,2.078,2.078,0,0,1,1.127-.3,1.907,1.907,0,0,1,1.329.479,1.712,1.712,0,0,1,.565,1.244H54.2a1.12,1.12,0,0,0-.349-.758,1.087,1.087,0,0,0-.776-.3,1.138,1.138,0,0,0-.96.446,2.1,2.1,0,0,0-.341,1.29v.154a2.053,2.053,0,0,0,.338,1.266A1.143,1.143,0,0,0,53.077,17.424ZM58.816,18a1.708,1.708,0,0,1-.114-.5,1.814,1.814,0,0,1-1.354.589,1.678,1.678,0,0,1-1.154-.4,1.287,1.287,0,0,1-.45-1.009,1.344,1.344,0,0,1,.565-1.154,2.662,2.662,0,0,1,1.589-.411h.791v-.374a.913.913,0,0,0-.255-.679,1.024,1.024,0,0,0-.751-.253,1.185,1.185,0,0,0-.729.22.647.647,0,0,0-.294.532h-.817a1.122,1.122,0,0,1,.253-.688,1.725,1.725,0,0,1,.686-.525,2.306,2.306,0,0,1,.951-.193,1.88,1.88,0,0,1,1.288.411A1.482,1.482,0,0,1,59.5,14.7v2.188a2.676,2.676,0,0,0,.167,1.042V18Zm-1.349-.62a1.429,1.429,0,0,0,.725-.2,1.2,1.2,0,0,0,.5-.514v-.976h-.637q-1.494,0-1.494.875a.74.74,0,0,0,.255.6A.98.98,0,0,0,57.467,17.38Zm4.074-4.135.022.527a1.756,1.756,0,0,1,1.411-.615,1.359,1.359,0,0,1,1.358.765,1.8,1.8,0,0,1,.617-.554,1.824,1.824,0,0,1,.9-.211q1.564,0,1.591,1.657V18h-.813V14.862a1.092,1.092,0,0,0-.233-.762,1.026,1.026,0,0,0-.782-.253,1.078,1.078,0,0,0-.751.27,1.1,1.1,0,0,0-.347.727V18h-.817V14.884a.907.907,0,0,0-1.015-1.037,1.088,1.088,0,0,0-1.094.681V18h-.813V13.245Zm11.149,2.43a2.827,2.827,0,0,1-.5,1.751,1.6,1.6,0,0,1-1.345.661,1.658,1.658,0,0,1-1.393-.637l-.04.549h-.747V11.25h.813v2.518a1.648,1.648,0,0,1,1.358-.611,1.61,1.61,0,0,1,1.36.655A2.912,2.912,0,0,1,72.69,15.6Zm-.813-.092a2.2,2.2,0,0,0-.321-1.283,1.062,1.062,0,0,0-.923-.453,1.194,1.194,0,0,0-1.156.747v2.057a1.227,1.227,0,0,0,1.165.747,1.056,1.056,0,0,0,.91-.453A2.336,2.336,0,0,0,71.877,15.583ZM74.6,18h-.813V13.245H74.6Zm-.879-6.016a.485.485,0,0,1,.121-.334.454.454,0,0,1,.358-.136.461.461,0,0,1,.36.136.48.48,0,0,1,.123.334.464.464,0,0,1-.123.33.469.469,0,0,1-.36.132.462.462,0,0,1-.358-.132A.469.469,0,0,1,73.718,11.984Zm1.964,3.595a2.808,2.808,0,0,1,.275-1.257,2.049,2.049,0,0,1,.765-.861,2.081,2.081,0,0,1,1.118-.3,2.005,2.005,0,0,1,1.571.672,2.587,2.587,0,0,1,.6,1.789v.057a2.833,2.833,0,0,1-.266,1.246,2.019,2.019,0,0,1-.76.859,2.105,2.105,0,0,1-1.136.308,2,2,0,0,1-1.567-.672,2.574,2.574,0,0,1-.6-1.78Zm.817.1a2.034,2.034,0,0,0,.367,1.27,1.243,1.243,0,0,0,1.967-.007,2.224,2.224,0,0,0,.365-1.36,2.031,2.031,0,0,0-.371-1.268,1.181,1.181,0,0,0-.987-.486,1.167,1.167,0,0,0-.971.479A2.208,2.208,0,0,0,76.5,15.675ZM2.951,27.088a2.078,2.078,0,0,1-1.573-.635,2.357,2.357,0,0,1-.606-1.7V24.6a2.853,2.853,0,0,1,.27-1.263,2.108,2.108,0,0,1,.756-.87,1.9,1.9,0,0,1,1.052-.314,1.781,1.781,0,0,1,1.441.611,2.645,2.645,0,0,1,.514,1.749v.338H1.584A1.69,1.69,0,0,0,2,25.991a1.292,1.292,0,0,0,1,.433,1.416,1.416,0,0,0,.729-.176,1.833,1.833,0,0,0,.523-.466l.5.387A2,2,0,0,1,2.951,27.088Zm-.1-4.263a1.084,1.084,0,0,0-.826.358,1.741,1.741,0,0,0-.413,1H3.992v-.062a1.548,1.548,0,0,0-.334-.96A1.021,1.021,0,0,0,2.85,22.825Zm3.665-.58.026.6a1.733,1.733,0,0,1,1.424-.686q1.507,0,1.521,1.7V27H8.673V23.854a1.1,1.1,0,0,0-.235-.76.942.942,0,0,0-.719-.246,1.173,1.173,0,0,0-.694.211,1.432,1.432,0,0,0-.466.554V27H5.746V22.245Zm9.193,3.494a.6.6,0,0,0-.248-.512,2.39,2.39,0,0,0-.866-.314,4.093,4.093,0,0,1-.98-.316,1.394,1.394,0,0,1-.536-.439,1.051,1.051,0,0,1-.174-.606,1.233,1.233,0,0,1,.494-.989,1.931,1.931,0,0,1,1.263-.4,1.987,1.987,0,0,1,1.312.417,1.326,1.326,0,0,1,.5,1.068H15.66a.734.734,0,0,0-.283-.576,1.062,1.062,0,0,0-.714-.242,1.111,1.111,0,0,0-.694.193.609.609,0,0,0-.25.505.493.493,0,0,0,.233.444,2.866,2.866,0,0,0,.842.286,4.385,4.385,0,0,1,.987.325,1.439,1.439,0,0,1,.56.455,1.118,1.118,0,0,1,.182.648,1.217,1.217,0,0,1-.51,1.022,2.138,2.138,0,0,1-1.323.385,2.394,2.394,0,0,1-1.011-.2,1.644,1.644,0,0,1-.688-.565,1.361,1.361,0,0,1-.248-.784h.813a.842.842,0,0,0,.327.648,1.27,1.27,0,0,0,.806.24,1.311,1.311,0,0,0,.74-.187A.574.574,0,0,0,15.708,25.739Zm4.808.791a1.727,1.727,0,0,1-1.393.558,1.478,1.478,0,0,1-1.158-.442,1.912,1.912,0,0,1-.4-1.307V22.245h.813v3.072q0,1.081.879,1.081a1.217,1.217,0,0,0,1.239-.694V22.245h.813V27h-.773Zm4.794-.791a.6.6,0,0,0-.248-.512,2.39,2.39,0,0,0-.866-.314,4.093,4.093,0,0,1-.98-.316,1.394,1.394,0,0,1-.536-.439,1.051,1.051,0,0,1-.174-.606A1.233,1.233,0,0,1,23,22.562a1.931,1.931,0,0,1,1.263-.4,1.987,1.987,0,0,1,1.312.417,1.326,1.326,0,0,1,.5,1.068h-.817a.734.734,0,0,0-.283-.576,1.062,1.062,0,0,0-.714-.242,1.111,1.111,0,0,0-.694.193.609.609,0,0,0-.25.505.493.493,0,0,0,.233.444,2.866,2.866,0,0,0,.842.286,4.385,4.385,0,0,1,.987.325,1.439,1.439,0,0,1,.56.455,1.118,1.118,0,0,1,.182.648,1.217,1.217,0,0,1-.51,1.022,2.138,2.138,0,0,1-1.323.385,2.394,2.394,0,0,1-1.011-.2,1.644,1.644,0,0,1-.688-.565,1.361,1.361,0,0,1-.248-.784h.813a.842.842,0,0,0,.327.648,1.27,1.27,0,0,0,.806.24,1.311,1.311,0,0,0,.74-.187A.574.574,0,0,0,25.31,25.739Zm8.117-1.063a2.847,2.847,0,0,1-.5,1.749,1.592,1.592,0,0,1-1.345.664,1.744,1.744,0,0,1-1.362-.549v2.29H29.41V22.245h.743l.04.527a1.675,1.675,0,0,1,1.38-.615,1.621,1.621,0,0,1,1.356.646,2.878,2.878,0,0,1,.5,1.8Zm-.813-.092a2.1,2.1,0,0,0-.343-1.27,1.1,1.1,0,0,0-.94-.466,1.2,1.2,0,0,0-1.107.655v2.272a1.2,1.2,0,0,0,1.116.65,1.1,1.1,0,0,0,.929-.464A2.293,2.293,0,0,0,32.614,24.583Zm4.144-1.608a2.436,2.436,0,0,0-.4-.031,1.071,1.071,0,0,0-1.085.681V27H34.46V22.245h.791l.013.549a1.266,1.266,0,0,1,1.134-.637.831.831,0,0,1,.36.062Zm.444,1.6a2.808,2.808,0,0,1,.275-1.257,2.049,2.049,0,0,1,.765-.861,2.081,2.081,0,0,1,1.118-.3,2.005,2.005,0,0,1,1.571.672,2.587,2.587,0,0,1,.6,1.789v.057a2.833,2.833,0,0,1-.266,1.246,2.019,2.019,0,0,1-.76.859,2.105,2.105,0,0,1-1.136.308,2,2,0,0,1-1.567-.672,2.574,2.574,0,0,1-.6-1.78Zm.817.1a2.034,2.034,0,0,0,.367,1.27,1.243,1.243,0,0,0,1.967-.007,2.224,2.224,0,0,0,.365-1.36,2.031,2.031,0,0,0-.371-1.268,1.181,1.181,0,0,0-.987-.486,1.167,1.167,0,0,0-.971.479A2.208,2.208,0,0,0,38.019,24.675Zm6.086,1.134,1.107-3.564h.87l-1.912,5.489q-.444,1.187-1.411,1.187l-.154-.013-.3-.057v-.659l.22.018a1.082,1.082,0,0,0,.644-.167,1.209,1.209,0,0,0,.38-.611l.18-.483-1.7-4.7h.888Zm4.676,1.279a2.078,2.078,0,0,1-1.573-.635,2.357,2.357,0,0,1-.606-1.7V24.6a2.853,2.853,0,0,1,.27-1.263,2.108,2.108,0,0,1,.756-.87,1.9,1.9,0,0,1,1.052-.314,1.781,1.781,0,0,1,1.441.611,2.645,2.645,0,0,1,.514,1.749v.338H47.415a1.69,1.69,0,0,0,.411,1.136,1.292,1.292,0,0,0,1,.433,1.416,1.416,0,0,0,.729-.176,1.833,1.833,0,0,0,.523-.466l.5.387A2,2,0,0,1,48.781,27.088Zm-.1-4.263a1.084,1.084,0,0,0-.826.358,1.741,1.741,0,0,0-.413,1h2.382v-.062a1.548,1.548,0,0,0-.334-.96A1.021,1.021,0,0,0,48.68,22.825Zm4.8,3.6a1.171,1.171,0,0,0,.76-.264.928.928,0,0,0,.36-.659h.769a1.474,1.474,0,0,1-.281.778,1.852,1.852,0,0,1-.692.589,2,2,0,0,1-.916.22,1.959,1.959,0,0,1-1.545-.648,2.582,2.582,0,0,1-.573-1.773V24.53A2.863,2.863,0,0,1,51.62,23.3a1.941,1.941,0,0,1,.732-.839,2.078,2.078,0,0,1,1.127-.3,1.907,1.907,0,0,1,1.329.479,1.712,1.712,0,0,1,.565,1.244H54.6a1.12,1.12,0,0,0-.349-.758,1.087,1.087,0,0,0-.776-.3,1.138,1.138,0,0,0-.96.446,2.1,2.1,0,0,0-.341,1.29v.154a2.053,2.053,0,0,0,.338,1.266A1.143,1.143,0,0,0,53.484,26.424Zm4.711,0a1.171,1.171,0,0,0,.76-.264.928.928,0,0,0,.36-.659h.769a1.474,1.474,0,0,1-.281.778,1.852,1.852,0,0,1-.692.589,2,2,0,0,1-.916.22,1.959,1.959,0,0,1-1.545-.648,2.582,2.582,0,0,1-.573-1.773V24.53a2.863,2.863,0,0,1,.255-1.235,1.941,1.941,0,0,1,.732-.839,2.078,2.078,0,0,1,1.127-.3,1.907,1.907,0,0,1,1.329.479,1.712,1.712,0,0,1,.565,1.244h-.769a1.12,1.12,0,0,0-.349-.758,1.087,1.087,0,0,0-.776-.3,1.138,1.138,0,0,0-.96.446,2.1,2.1,0,0,0-.341,1.29v.154a2.053,2.053,0,0,0,.338,1.266A1.143,1.143,0,0,0,58.195,26.424ZM61.882,27h-.813V22.245h.813ZM61,20.984a.485.485,0,0,1,.121-.334.454.454,0,0,1,.358-.136.461.461,0,0,1,.36.136.48.48,0,0,1,.123.334.464.464,0,0,1-.123.33.469.469,0,0,1-.36.132.462.462,0,0,1-.358-.132A.469.469,0,0,1,61,20.984Zm1.964,3.595a2.808,2.808,0,0,1,.275-1.257,2.049,2.049,0,0,1,.765-.861,2.081,2.081,0,0,1,1.118-.3,2.005,2.005,0,0,1,1.571.672,2.587,2.587,0,0,1,.6,1.789v.057a2.833,2.833,0,0,1-.266,1.246,2.019,2.019,0,0,1-.76.859,2.105,2.105,0,0,1-1.136.308,2,2,0,0,1-1.567-.672,2.574,2.574,0,0,1-.6-1.78Zm.817.1a2.034,2.034,0,0,0,.367,1.27,1.243,1.243,0,0,0,1.967-.007,2.224,2.224,0,0,0,.365-1.36,2.031,2.031,0,0,0-.371-1.268,1.181,1.181,0,0,0-.987-.486,1.167,1.167,0,0,0-.971.479A2.208,2.208,0,0,0,63.784,24.675Zm5.3-2.43.026.6a1.733,1.733,0,0,1,1.424-.686q1.507,0,1.521,1.7V27h-.813V23.854a1.1,1.1,0,0,0-.235-.76.942.942,0,0,0-.719-.246,1.173,1.173,0,0,0-.694.211,1.432,1.432,0,0,0-.466.554V27h-.813V22.245Zm6.17,4.843a2.078,2.078,0,0,1-1.573-.635,2.357,2.357,0,0,1-.606-1.7V24.6a2.853,2.853,0,0,1,.27-1.263,2.108,2.108,0,0,1,.756-.87,1.9,1.9,0,0,1,1.052-.314,1.781,1.781,0,0,1,1.441.611,2.645,2.645,0,0,1,.514,1.749v.338H73.887a1.69,1.69,0,0,0,.411,1.136,1.292,1.292,0,0,0,1,.433,1.416,1.416,0,0,0,.729-.176,1.833,1.833,0,0,0,.523-.466l.5.387A2,2,0,0,1,75.254,27.088Zm-.1-4.263a1.084,1.084,0,0,0-.826.358,1.741,1.741,0,0,0-.413,1H76.3v-.062a1.548,1.548,0,0,0-.334-.96A1.021,1.021,0,0,0,75.153,22.825Zm5.665,2.914a.6.6,0,0,0-.248-.512,2.39,2.39,0,0,0-.866-.314,4.093,4.093,0,0,1-.98-.316,1.394,1.394,0,0,1-.536-.439,1.051,1.051,0,0,1-.174-.606,1.233,1.233,0,0,1,.494-.989,1.931,1.931,0,0,1,1.263-.4,1.987,1.987,0,0,1,1.312.417,1.326,1.326,0,0,1,.5,1.068h-.817a.734.734,0,0,0-.283-.576,1.062,1.062,0,0,0-.714-.242,1.111,1.111,0,0,0-.694.193.609.609,0,0,0-.25.505.493.493,0,0,0,.233.444,2.866,2.866,0,0,0,.842.286,4.385,4.385,0,0,1,.987.325,1.439,1.439,0,0,1,.56.455,1.118,1.118,0,0,1,.182.648,1.217,1.217,0,0,1-.51,1.022,2.138,2.138,0,0,1-1.323.385,2.394,2.394,0,0,1-1.011-.2,1.644,1.644,0,0,1-.688-.565,1.361,1.361,0,0,1-.248-.784h.813a.842.842,0,0,0,.327.648,1.27,1.27,0,0,0,.806.24,1.311,1.311,0,0,0,.74-.187A.574.574,0,0,0,80.818,25.739Zm1.89.835a.509.509,0,0,1,.125-.352.477.477,0,0,1,.376-.141.492.492,0,0,1,.38.141.5.5,0,0,1,.13.352.472.472,0,0,1-.13.338.5.5,0,0,1-.38.136.452.452,0,0,1-.5-.475Z" transform="translate(1132.248 3892.083)" fill="#12263f"/>
    <path id="Trazado_602061" data-name="Trazado 602061" d="M1825.947-6918.964H1794.1" transform="translate(-641.337 10755.964)" fill="none" stroke="#16263d" stroke-width="2"/>
  </g>
</svg>
