<svg xmlns="http://www.w3.org/2000/svg" width="318" height="212" viewBox="0 0 318 212">
  <g id="Grupo_879800" data-name="Grupo 879800" transform="translate(-1138 7015)">
    <g id="Trazado_604033" data-name="Trazado 604033" transform="translate(1138 -7015)" fill="#f6fff2">
      <path d="M 298 211 L 20 211 C 17.43458366394043 211 14.9464168548584 210.4977874755859 12.60462474822998 209.5072937011719 C 10.34224987030029 208.5503692626953 8.310208320617676 207.1802978515625 6.564958095550537 205.4350433349609 C 4.819708347320557 203.6897888183594 3.449625015258789 201.6577453613281 2.492708444595337 199.3953704833984 C 1.502208352088928 197.0535888671875 1 194.5654144287109 1 192 L 1 20 C 1 17.43458366394043 1.502208352088928 14.9464168548584 2.492708444595337 12.6046667098999 C 3.449625015258789 10.34229183197021 4.819708347320557 8.310250282287598 6.564958095550537 6.565000057220459 C 8.310208320617676 4.819708347320557 10.34224987030029 3.449625015258789 12.60462474822998 2.492708444595337 C 14.9464168548584 1.502208352088928 17.43458366394043 1 20 1 L 298 1 C 300.5654296875 1 303.0535888671875 1.502208352088928 305.3953857421875 2.492708444595337 C 307.6577453613281 3.449625015258789 309.6897888183594 4.819708347320557 311.4350280761719 6.565000057220459 C 313.1802978515625 8.310250282287598 314.5503845214844 10.34229183197021 315.5072937011719 12.6046667098999 C 316.497802734375 14.9464168548584 317 17.43458366394043 317 20 L 317 192 C 317 194.5654144287109 316.497802734375 197.0535888671875 315.5072937011719 199.3953704833984 C 314.5503845214844 201.6577453613281 313.1802978515625 203.6897888183594 311.4350280761719 205.4350433349609 C 309.6897888183594 207.1802978515625 307.6577453613281 208.5503692626953 305.3953857421875 209.5072937011719 C 303.0535888671875 210.4977874755859 300.5654296875 211 298 211 Z" stroke="none"/>
      <path d="M 20 2 C 15.19198608398438 2 10.67184448242188 3.872329711914062 7.2720947265625 7.272079467773438 C 3.872344970703125 10.67182922363281 2 15.19200134277344 2 20 L 2 192 C 2 196.8079986572266 3.872344970703125 201.3281707763672 7.2720947265625 204.7279205322266 C 10.67184448242188 208.1276702880859 15.19198608398438 210 20 210 L 298 210 C 302.8079528808594 210 307.3281555175781 208.1276702880859 310.7279052734375 204.7279205322266 C 314.1276550292969 201.3281707763672 316 196.8079528808594 316 192 L 316 20 C 316 15.19204711914062 314.1276550292969 10.67182922363281 310.7279052734375 7.272079467773438 C 307.3281555175781 3.872329711914062 302.8079528808594 2 298 2 L 20 2 M 20 0 L 298 0 C 309.045654296875 0 318 8.95428466796875 318 20 L 318 192 C 318 203.0457153320312 309.045654296875 212 298 212 L 20 212 C 8.95428466796875 212 0 203.0457153320312 0 192 L 0 20 C 0 8.95428466796875 8.95428466796875 0 20 0 Z" stroke="none" fill="#e5f5da"/>
    </g>
    <path id="Trazado_602055" data-name="Trazado 602055" d="M1815.079-6943.312h-9.6v40.579h9.6" transform="translate(-481.762 -27.537)" fill="none" stroke="#16263d" stroke-width="2"/>
    <path id="Trazado_602059" data-name="Trazado 602059" d="M1815.079-6943.312h-9.6v83.752h9.6" transform="translate(-609.34 -7.247)" fill="none" stroke="#16263d" stroke-width="2"/>
    <path id="Trazado_602057" data-name="Trazado 602057" d="M1815.079-6943.312h-9.6v40.579h9.6" transform="translate(-481.762 55.583)" fill="none" stroke="#16263d" stroke-width="2"/>
    <path id="Trazado_602056" data-name="Trazado 602056" d="M1806.254-6918.964H1794.1" transform="translate(-482.536 -31.596)" fill="none" stroke="#16263d" stroke-width="2"/>
    <path id="Trazado_602060" data-name="Trazado 602060" d="M1803.584-6918.964h-9.48" transform="translate(-607.443 10.28)" fill="none" stroke="#16263d" stroke-width="2"/>
    <path id="Trazado_602058" data-name="Trazado 602058" d="M1806.254-6918.964H1794.1" transform="translate(-482.536 51.524)" fill="none" stroke="#16263d" stroke-width="2"/>
    <g id="Trazado_604034" data-name="Trazado 604034" transform="translate(1205.826 -6968.297)" fill="#ffcb9d">
      <path d="M 98.16673278808594 33.37274169921875 L 10.0000057220459 33.37274169921875 C 5.037391185760498 33.37274169921875 1.000005483627319 29.33535575866699 1.000005483627319 24.37274169921875 L 1.000005483627319 9.999999046325684 C 1.000005483627319 5.037384986877441 5.037391185760498 0.9999994039535522 10.0000057220459 0.9999994039535522 L 98.16673278808594 0.9999994039535522 C 103.1293487548828 0.9999994039535522 107.1667327880859 5.037384986877441 107.1667327880859 9.999999046325684 L 107.1667327880859 24.37274169921875 C 107.1667327880859 29.33535575866699 103.1293487548828 33.37274169921875 98.16673278808594 33.37274169921875 Z" stroke="none"/>
      <path d="M 9.999992370605469 2 C 5.588775634765625 2 1.999992370605469 5.588787078857422 1.999992370605469 10.00000190734863 L 1.999992370605469 24.37273979187012 C 1.999992370605469 28.78395462036133 5.588775634765625 32.37274169921875 9.999992370605469 32.37274169921875 L 98.16671752929688 32.37274169921875 C 102.5779342651367 32.37274169921875 106.1667175292969 28.78395462036133 106.1667175292969 24.37273979187012 L 106.1667175292969 10.00000190734863 C 106.1667175292969 5.588787078857422 102.5779342651367 2 98.16671752929688 2 L 9.999992370605469 2 M 9.999992370605469 0 L 98.16671752929688 0 C 103.6895751953125 0 108.1667175292969 4.477155685424805 108.1667175292969 10.00000190734863 L 108.1667175292969 24.37273979187012 C 108.1667175292969 29.89558601379395 103.6895751953125 34.37274169921875 98.16671752929688 34.37274169921875 L 9.999992370605469 34.37274169921875 C 4.477149963378906 34.37274169921875 -7.62939453125e-06 29.89558601379395 -7.62939453125e-06 24.37273979187012 L -7.62939453125e-06 10.00000190734863 C -7.62939453125e-06 4.477155685424805 4.477149963378906 0 9.999992370605469 0 Z" stroke="none" fill="#ed8738"/>
    </g>
    <g id="Trazado_604035" data-name="Trazado 604035" transform="translate(1152.516 -6851.816) rotate(-90)" fill="#faeab5">
      <path d="M 106.4807968139648 33.37274169921875 L 9.999998092651367 33.37274169921875 C 5.037383079528809 33.37274169921875 0.9999983906745911 29.33535575866699 0.9999983906745911 24.37273979187012 L 0.9999983906745911 10.00000190734863 C 0.9999983906745911 5.037386417388916 5.037383079528809 1.000001668930054 9.999998092651367 1.000001668930054 L 106.4807968139648 1.000001668930054 C 111.4434127807617 1.000001668930054 115.4807968139648 5.037386417388916 115.4807968139648 10.00000190734863 L 115.4807968139648 24.37273979187012 C 115.4807968139648 29.33535575866699 111.4434127807617 33.37274169921875 106.4807968139648 33.37274169921875 Z" stroke="none"/>
      <path d="M 10 2.000003814697266 C 5.588783264160156 2.000003814697266 2 5.588787078857422 2 10.00000381469727 L 2 24.37273788452148 C 2 28.78395462036133 5.588783264160156 32.37273788452148 10 32.37273788452148 L 106.4807968139648 32.37273788452148 C 110.8920135498047 32.37273788452148 114.4807968139648 28.78395462036133 114.4807968139648 24.37273788452148 L 114.4807968139648 10.00000381469727 C 114.4807968139648 5.588787078857422 110.8920135498047 2.000003814697266 106.4807968139648 2.000003814697266 L 10 2.000003814697266 M 10 3.814697265625e-06 L 106.4807968139648 3.814697265625e-06 C 112.0036468505859 3.814697265625e-06 116.4807968139648 4.477153778076172 116.4807968139648 10.00000381469727 L 116.4807968139648 24.37273788452148 C 116.4807968139648 29.89558792114258 112.0036468505859 34.37273788452148 106.4807968139648 34.37273788452148 L 10 34.37273788452148 C 4.477149963378906 34.37273788452148 0 29.89558792114258 0 24.37273788452148 L 0 10.00000381469727 C 0 4.477153778076172 4.477149963378906 3.814697265625e-06 10 3.814697265625e-06 Z" stroke="none" fill="#f6d05c"/>
    </g>
    <g id="Trazado_604036" data-name="Trazado 604036" transform="translate(1333.318 -6988.035)" fill="#ecfce4">
      <path d="M 98.16673278808594 33.37274169921875 L 10.0000057220459 33.37274169921875 C 5.037391185760498 33.37274169921875 1.000005483627319 29.33535575866699 1.000005483627319 24.37274169921875 L 1.000005483627319 9.999999046325684 C 1.000005483627319 5.037384986877441 5.037391185760498 0.9999994039535522 10.0000057220459 0.9999994039535522 L 98.16673278808594 0.9999994039535522 C 103.1293487548828 0.9999994039535522 107.1667327880859 5.037384986877441 107.1667327880859 9.999999046325684 L 107.1667327880859 24.37274169921875 C 107.1667327880859 29.33535575866699 103.1293487548828 33.37274169921875 98.16673278808594 33.37274169921875 Z" stroke="none"/>
      <path d="M 9.999992370605469 2 C 5.588775634765625 2 1.999992370605469 5.588787078857422 1.999992370605469 10.00000190734863 L 1.999992370605469 24.37273979187012 C 1.999992370605469 28.78395462036133 5.588775634765625 32.37274169921875 9.999992370605469 32.37274169921875 L 98.16671752929688 32.37274169921875 C 102.5779342651367 32.37274169921875 106.1667175292969 28.78395462036133 106.1667175292969 24.37273979187012 L 106.1667175292969 10.00000190734863 C 106.1667175292969 5.588787078857422 102.5779342651367 2 98.16671752929688 2 L 9.999992370605469 2 M 9.999992370605469 0 L 98.16671752929688 0 C 103.6895751953125 0 108.1667175292969 4.477155685424805 108.1667175292969 10.00000190734863 L 108.1667175292969 24.37273979187012 C 108.1667175292969 29.89558601379395 103.6895751953125 34.37274169921875 98.16671752929688 34.37274169921875 L 9.999992370605469 34.37274169921875 C 4.477149963378906 34.37274169921875 -7.62939453125e-06 29.89558601379395 -7.62939453125e-06 24.37273979187012 L -7.62939453125e-06 10.00000190734863 C -7.62939453125e-06 4.477155685424805 4.477149963378906 0 9.999992370605469 0 Z" stroke="none" fill="#659a40"/>
    </g>
    <g id="Trazado_604037" data-name="Trazado 604037" transform="translate(1333.318 -6905.176)" fill="#ecfce4">
      <path d="M 98.16673278808594 33.37274169921875 L 10.0000057220459 33.37274169921875 C 5.037391185760498 33.37274169921875 1.000005483627319 29.33535575866699 1.000005483627319 24.37274169921875 L 1.000005483627319 9.999999046325684 C 1.000005483627319 5.037384986877441 5.037391185760498 0.9999994039535522 10.0000057220459 0.9999994039535522 L 98.16673278808594 0.9999994039535522 C 103.1293487548828 0.9999994039535522 107.1667327880859 5.037384986877441 107.1667327880859 9.999999046325684 L 107.1667327880859 24.37274169921875 C 107.1667327880859 29.33535575866699 103.1293487548828 33.37274169921875 98.16673278808594 33.37274169921875 Z" stroke="none"/>
      <path d="M 9.999992370605469 2 C 5.588775634765625 2 1.999992370605469 5.588787078857422 1.999992370605469 10.00000190734863 L 1.999992370605469 24.37273979187012 C 1.999992370605469 28.78395462036133 5.588775634765625 32.37274169921875 9.999992370605469 32.37274169921875 L 98.16671752929688 32.37274169921875 C 102.5779342651367 32.37274169921875 106.1667175292969 28.78395462036133 106.1667175292969 24.37273979187012 L 106.1667175292969 10.00000190734863 C 106.1667175292969 5.588787078857422 102.5779342651367 2 98.16671752929688 2 L 9.999992370605469 2 M 9.999992370605469 0 L 98.16671752929688 0 C 103.6895751953125 0 108.1667175292969 4.477155685424805 108.1667175292969 10.00000190734863 L 108.1667175292969 24.37273979187012 C 108.1667175292969 29.89558601379395 103.6895751953125 34.37274169921875 98.16671752929688 34.37274169921875 L 9.999992370605469 34.37274169921875 C 4.477149963378906 34.37274169921875 -7.62939453125e-06 29.89558601379395 -7.62939453125e-06 24.37273979187012 L -7.62939453125e-06 10.00000190734863 C -7.62939453125e-06 4.477155685424805 4.477149963378906 0 9.999992370605469 0 Z" stroke="none" fill="#659a40"/>
    </g>
    <g id="Trazado_604038" data-name="Trazado 604038" transform="translate(1333.318 -6948.351)" fill="#ecfce4">
      <path d="M 98.16673278808594 33.37274169921875 L 10.0000057220459 33.37274169921875 C 5.037391185760498 33.37274169921875 1.000005483627319 29.33535575866699 1.000005483627319 24.37274169921875 L 1.000005483627319 9.999999046325684 C 1.000005483627319 5.037384986877441 5.037391185760498 0.9999994039535522 10.0000057220459 0.9999994039535522 L 98.16673278808594 0.9999994039535522 C 103.1293487548828 0.9999994039535522 107.1667327880859 5.037384986877441 107.1667327880859 9.999999046325684 L 107.1667327880859 24.37274169921875 C 107.1667327880859 29.33535575866699 103.1293487548828 33.37274169921875 98.16673278808594 33.37274169921875 Z" stroke="none"/>
      <path d="M 9.999992370605469 2 C 5.588775634765625 2 1.999992370605469 5.588787078857422 1.999992370605469 10.00000190734863 L 1.999992370605469 24.37273979187012 C 1.999992370605469 28.78395462036133 5.588775634765625 32.37274169921875 9.999992370605469 32.37274169921875 L 98.16671752929688 32.37274169921875 C 102.5779342651367 32.37274169921875 106.1667175292969 28.78395462036133 106.1667175292969 24.37273979187012 L 106.1667175292969 10.00000190734863 C 106.1667175292969 5.588787078857422 102.5779342651367 2 98.16671752929688 2 L 9.999992370605469 2 M 9.999992370605469 0 L 98.16671752929688 0 C 103.6895751953125 0 108.1667175292969 4.477155685424805 108.1667175292969 10.00000190734863 L 108.1667175292969 24.37273979187012 C 108.1667175292969 29.89558601379395 103.6895751953125 34.37274169921875 98.16671752929688 34.37274169921875 L 9.999992370605469 34.37274169921875 C 4.477149963378906 34.37274169921875 -7.62939453125e-06 29.89558601379395 -7.62939453125e-06 24.37273979187012 L -7.62939453125e-06 10.00000190734863 C -7.62939453125e-06 4.477155685424805 4.477149963378906 0 9.999992370605469 0 Z" stroke="none" fill="#659a40"/>
    </g>
    <g id="Trazado_604039" data-name="Trazado 604039" transform="translate(1333.318 -6864.337)" fill="#ecfce4">
      <path d="M 98.16673278808594 33.37274169921875 L 10.0000057220459 33.37274169921875 C 5.037391185760498 33.37274169921875 1.000005483627319 29.33535575866699 1.000005483627319 24.37274169921875 L 1.000005483627319 9.999999046325684 C 1.000005483627319 5.037384986877441 5.037391185760498 0.9999994039535522 10.0000057220459 0.9999994039535522 L 98.16673278808594 0.9999994039535522 C 103.1293487548828 0.9999994039535522 107.1667327880859 5.037384986877441 107.1667327880859 9.999999046325684 L 107.1667327880859 24.37274169921875 C 107.1667327880859 29.33535575866699 103.1293487548828 33.37274169921875 98.16673278808594 33.37274169921875 Z" stroke="none"/>
      <path d="M 9.999992370605469 2 C 5.588775634765625 2 1.999992370605469 5.588787078857422 1.999992370605469 10.00000190734863 L 1.999992370605469 24.37273979187012 C 1.999992370605469 28.78395462036133 5.588775634765625 32.37274169921875 9.999992370605469 32.37274169921875 L 98.16671752929688 32.37274169921875 C 102.5779342651367 32.37274169921875 106.1667175292969 28.78395462036133 106.1667175292969 24.37273979187012 L 106.1667175292969 10.00000190734863 C 106.1667175292969 5.588787078857422 102.5779342651367 2 98.16671752929688 2 L 9.999992370605469 2 M 9.999992370605469 0 L 98.16671752929688 0 C 103.6895751953125 0 108.1667175292969 4.477155685424805 108.1667175292969 10.00000190734863 L 108.1667175292969 24.37273979187012 C 108.1667175292969 29.89558601379395 103.6895751953125 34.37274169921875 98.16671752929688 34.37274169921875 L 9.999992370605469 34.37274169921875 C 4.477149963378906 34.37274169921875 -7.62939453125e-06 29.89558601379395 -7.62939453125e-06 24.37273979187012 L -7.62939453125e-06 10.00000190734863 C -7.62939453125e-06 4.477155685424805 4.477149963378906 0 9.999992370605469 0 Z" stroke="none" fill="#659a40"/>
    </g>
    <g id="Trazado_604040" data-name="Trazado 604040" transform="translate(1205.826 -6886.396)" fill="#ffcb9d">
      <path d="M 98.16673278808594 37.24794387817383 L 10.0000057220459 37.24794387817383 C 5.037391185760498 37.24794387817383 1.000005483627319 33.2105598449707 1.000005483627319 28.24794578552246 L 1.000005483627319 10.00000286102295 C 1.000005483627319 5.037388324737549 5.037391185760498 1.000002384185791 10.0000057220459 1.000002384185791 L 98.16673278808594 1.000002384185791 C 103.1293487548828 1.000002384185791 107.1667327880859 5.037388324737549 107.1667327880859 10.00000286102295 L 107.1667327880859 28.24794578552246 C 107.1667327880859 33.2105598449707 103.1293487548828 37.24794387817383 98.16673278808594 37.24794387817383 Z" stroke="none"/>
      <path d="M 9.999992370605469 2.000003814697266 C 5.588775634765625 2.000003814697266 1.999992370605469 5.588790893554688 1.999992370605469 10.00000381469727 L 1.999992370605469 28.24794387817383 C 1.999992370605469 32.65915679931641 5.588775634765625 36.24794387817383 9.999992370605469 36.24794387817383 L 98.16671752929688 36.24794387817383 C 102.5779342651367 36.24794387817383 106.1667175292969 32.65915679931641 106.1667175292969 28.24794387817383 L 106.1667175292969 10.00000381469727 C 106.1667175292969 5.588790893554688 102.5779342651367 2.000003814697266 98.16671752929688 2.000003814697266 L 9.999992370605469 2.000003814697266 M 9.999992370605469 3.814697265625e-06 L 98.16671752929688 3.814697265625e-06 C 103.6895751953125 3.814697265625e-06 108.1667175292969 4.477157592773438 108.1667175292969 10.00000381469727 L 108.1667175292969 28.24794387817383 C 108.1667175292969 33.77079010009766 103.6895751953125 38.24794387817383 98.16671752929688 38.24794387817383 L 9.999992370605469 38.24794387817383 C 4.477149963378906 38.24794387817383 -7.62939453125e-06 33.77079010009766 -7.62939453125e-06 28.24794387817383 L -7.62939453125e-06 10.00000381469727 C -7.62939453125e-06 4.477157592773438 4.477149963378906 3.814697265625e-06 9.999992370605469 3.814697265625e-06 Z" stroke="none" fill="#ed8738"/>
    </g>
    <path id="Trazado_604041" data-name="Trazado 604041" d="M11.876,9.66V13H10.751V4.469H13.9a3.161,3.161,0,0,1,2.194.715,2.423,2.423,0,0,1,.794,1.893,2.391,2.391,0,0,1-.776,1.913,3.3,3.3,0,0,1-2.224.671Zm0-.92H13.9a2.021,2.021,0,0,0,1.383-.426,1.556,1.556,0,0,0,.48-1.23,1.608,1.608,0,0,0-.48-1.221,1.894,1.894,0,0,0-1.318-.475H11.876ZM19.329,13H18.245V4h1.084Zm5.648,0a2.277,2.277,0,0,1-.152-.668,2.419,2.419,0,0,1-1.8.785,2.238,2.238,0,0,1-1.538-.53,1.716,1.716,0,0,1-.6-1.345A1.792,1.792,0,0,1,21.635,9.7a3.55,3.55,0,0,1,2.118-.548h1.055v-.5a1.217,1.217,0,0,0-.34-.905,1.366,1.366,0,0,0-1-.337,1.581,1.581,0,0,0-.973.293.863.863,0,0,0-.393.709h-1.09a1.5,1.5,0,0,1,.337-.917,2.3,2.3,0,0,1,.914-.7,3.075,3.075,0,0,1,1.269-.258,2.506,2.506,0,0,1,1.717.548A1.976,1.976,0,0,1,25.891,8.6v2.918a3.567,3.567,0,0,0,.223,1.389V13Zm-1.8-.826a1.905,1.905,0,0,0,.967-.264,1.6,1.6,0,0,0,.662-.686v-1.3h-.85q-1.992,0-1.992,1.166a.987.987,0,0,0,.34.8A1.306,1.306,0,0,0,23.179,12.174ZM28.616,6.66l.035.8a2.31,2.31,0,0,1,1.9-.914q2.01,0,2.027,2.268V13H31.493V8.8a1.459,1.459,0,0,0-.313-1.014,1.256,1.256,0,0,0-.958-.328,1.564,1.564,0,0,0-.926.281,1.91,1.91,0,0,0-.621.738V13H27.591V6.66ZM35.389,13H34.306V6.66h1.084ZM34.218,4.979a.647.647,0,0,1,.161-.445.6.6,0,0,1,.478-.182.614.614,0,0,1,.48.182.64.64,0,0,1,.164.445.619.619,0,0,1-.164.439.626.626,0,0,1-.48.176.616.616,0,0,1-.478-.176A.626.626,0,0,1,34.218,4.979ZM37.487,13V7.5h-1V6.66h1V6.121a2.2,2.2,0,0,1,.606-1.652,2.352,2.352,0,0,1,1.714-.592,5.161,5.161,0,0,1,1.658.357l-.182.914a3.756,3.756,0,0,0-1.395-.293,1.364,1.364,0,0,0-1,.313,1.292,1.292,0,0,0-.308.94V6.66h1.295V7.5H38.577V13ZM42,13h-1.09V6.66H42Zm4.307-.768a1.561,1.561,0,0,0,1.014-.352,1.237,1.237,0,0,0,.48-.879h1.025a1.966,1.966,0,0,1-.375,1.037,2.47,2.47,0,0,1-.923.785,2.663,2.663,0,0,1-1.222.293,2.612,2.612,0,0,1-2.06-.864,3.442,3.442,0,0,1-.765-2.364V9.707a3.817,3.817,0,0,1,.34-1.646A2.588,2.588,0,0,1,44.8,6.941a2.771,2.771,0,0,1,1.5-.4,2.543,2.543,0,0,1,1.772.639,2.283,2.283,0,0,1,.753,1.658H47.806a1.494,1.494,0,0,0-.466-1.011,1.449,1.449,0,0,0-1.034-.4,1.517,1.517,0,0,0-1.28.595,2.793,2.793,0,0,0-.454,1.72v.205a2.737,2.737,0,0,0,.451,1.688A1.524,1.524,0,0,0,46.311,12.232ZM53.964,13a2.277,2.277,0,0,1-.152-.668,2.419,2.419,0,0,1-1.8.785,2.238,2.238,0,0,1-1.538-.53,1.716,1.716,0,0,1-.6-1.345A1.792,1.792,0,0,1,50.621,9.7a3.55,3.55,0,0,1,2.118-.548h1.055v-.5a1.217,1.217,0,0,0-.34-.905,1.366,1.366,0,0,0-1-.337,1.581,1.581,0,0,0-.973.293.863.863,0,0,0-.393.709H50a1.5,1.5,0,0,1,.337-.917,2.3,2.3,0,0,1,.914-.7,3.075,3.075,0,0,1,1.269-.258,2.506,2.506,0,0,1,1.717.548A1.976,1.976,0,0,1,54.878,8.6v2.918a3.567,3.567,0,0,0,.223,1.389V13Zm-1.8-.826a1.905,1.905,0,0,0,.967-.264,1.6,1.6,0,0,0,.662-.686v-1.3h-.85q-1.992,0-1.992,1.166a.987.987,0,0,0,.34.8A1.306,1.306,0,0,0,52.165,12.174Zm6.955.059a1.561,1.561,0,0,0,1.014-.352,1.237,1.237,0,0,0,.48-.879h1.025a1.966,1.966,0,0,1-.375,1.037,2.47,2.47,0,0,1-.923.785,2.663,2.663,0,0,1-1.222.293,2.612,2.612,0,0,1-2.06-.864A3.442,3.442,0,0,1,56.3,9.889V9.707a3.817,3.817,0,0,1,.34-1.646,2.588,2.588,0,0,1,.976-1.119,2.771,2.771,0,0,1,1.5-.4,2.543,2.543,0,0,1,1.772.639,2.283,2.283,0,0,1,.753,1.658H60.614a1.494,1.494,0,0,0-.466-1.011,1.449,1.449,0,0,0-1.034-.4,1.517,1.517,0,0,0-1.28.595,2.793,2.793,0,0,0-.454,1.72v.205a2.737,2.737,0,0,0,.451,1.688A1.524,1.524,0,0,0,59.12,12.232ZM64.036,13H62.952V6.66h1.084ZM62.864,4.979a.647.647,0,0,1,.161-.445.6.6,0,0,1,.478-.182.614.614,0,0,1,.48.182.64.64,0,0,1,.164.445.619.619,0,0,1-.164.439.626.626,0,0,1-.48.176.616.616,0,0,1-.478-.176A.626.626,0,0,1,62.864,4.979Zm2.619,4.793A3.745,3.745,0,0,1,65.849,8.1a2.732,2.732,0,0,1,1.02-1.148,2.775,2.775,0,0,1,1.491-.4,2.674,2.674,0,0,1,2.095.9,3.449,3.449,0,0,1,.8,2.385V9.9a3.777,3.777,0,0,1-.354,1.661,2.692,2.692,0,0,1-1.014,1.146,2.807,2.807,0,0,1-1.515.41,2.667,2.667,0,0,1-2.089-.9,3.432,3.432,0,0,1-.8-2.373Zm1.09.129a2.712,2.712,0,0,0,.489,1.693,1.658,1.658,0,0,0,2.622-.009,2.966,2.966,0,0,0,.486-1.813,2.708,2.708,0,0,0-.5-1.69,1.574,1.574,0,0,0-1.315-.647,1.557,1.557,0,0,0-1.295.639A2.944,2.944,0,0,0,66.573,9.9ZM68.852,4h1.313l-1.57,1.723-.873,0Zm4.787,2.66.035.8a2.31,2.31,0,0,1,1.9-.914q2.01,0,2.027,2.268V13H76.516V8.8A1.459,1.459,0,0,0,76.2,7.791a1.256,1.256,0,0,0-.958-.328,1.564,1.564,0,0,0-.926.281,1.91,1.91,0,0,0-.621.738V13H72.614V6.66Z" transform="translate(1215.825 -6961.255)" fill="#12263f"/>
    <path id="Trazado_604042" data-name="Trazado 604042" d="M9.268,9.3H5.893v2.285H9.854V13H4.135V4.469H9.842V5.893H5.893V7.926H9.268ZM7.434,2.166H9.279L7.656,3.982H6.279Zm5.754,6.387L14.254,6.66h1.811l-1.8,3.105L16.141,13H14.324l-1.131-1.992L12.068,13H10.246l1.881-3.234-1.8-3.105h1.816ZM18.666,13h-1.7V6.66h1.7Zm-1.8-7.98a.834.834,0,0,1,.255-.627,1.1,1.1,0,0,1,1.386,0,.829.829,0,0,1,.258.627.831.831,0,0,1-.261.633,1.086,1.086,0,0,1-1.377,0A.831.831,0,0,1,16.867,5.02Zm5.221.082V6.66h1.084V7.9H22.088v3.164a.756.756,0,0,0,.135.5.677.677,0,0,0,.516.152,2.7,2.7,0,0,0,.5-.041v1.283a3.486,3.486,0,0,1-1.025.152,1.617,1.617,0,0,1-1.816-1.8V7.9h-.926V6.66h.926V5.1Zm1.588,4.67a3.76,3.76,0,0,1,.363-1.682,2.659,2.659,0,0,1,1.046-1.143,3.051,3.051,0,0,1,1.585-.4,2.887,2.887,0,0,1,2.095.785,3.151,3.151,0,0,1,.905,2.133l.012.434a3.314,3.314,0,0,1-.814,2.341,3.157,3.157,0,0,1-4.374,0,3.372,3.372,0,0,1-.817-2.391Zm1.693.12a2.37,2.37,0,0,0,.34,1.382,1.221,1.221,0,0,0,1.934.006,2.593,2.593,0,0,0,.346-1.511A2.346,2.346,0,0,0,27.643,8.4a1.124,1.124,0,0,0-.973-.487,1.105,1.105,0,0,0-.961.484A2.637,2.637,0,0,0,25.369,9.892Zm8.08-.108a3.821,3.821,0,0,1,.665-2.361,2.158,2.158,0,0,1,1.819-.879,1.942,1.942,0,0,1,1.529.691V4h1.7v9H37.633l-.082-.674a1.993,1.993,0,0,1-1.629.791,2.152,2.152,0,0,1-1.8-.882A3.944,3.944,0,0,1,33.449,9.783Zm1.693.126a2.5,2.5,0,0,0,.311,1.367,1.012,1.012,0,0,0,.9.475,1.133,1.133,0,0,0,1.107-.663V8.583a1.117,1.117,0,0,0-1.1-.663Q35.143,7.92,35.143,9.909Zm8.25,3.208a3.112,3.112,0,0,1-2.271-.855,3.041,3.041,0,0,1-.876-2.279V9.818a3.83,3.83,0,0,1,.369-1.708,2.709,2.709,0,0,1,1.046-1.16,2.936,2.936,0,0,1,1.544-.407,2.631,2.631,0,0,1,2.048.82A3.333,3.333,0,0,1,46,9.689v.691H41.963a1.573,1.573,0,0,0,.5,1,1.5,1.5,0,0,0,1.046.375,1.828,1.828,0,0,0,1.529-.709l.832.932a2.542,2.542,0,0,1-1.031.841A3.383,3.383,0,0,1,43.393,13.117ZM43.2,7.908a1.058,1.058,0,0,0-.817.341,1.768,1.768,0,0,0-.4.977h2.355V9.091a1.261,1.261,0,0,0-.3-.874A1.092,1.092,0,0,0,43.2,7.908ZM48.748,13h-1.7V4h1.7ZM56.8,13a1.88,1.88,0,0,1-.17-.568,2.049,2.049,0,0,1-1.6.686,2.251,2.251,0,0,1-1.544-.539,1.734,1.734,0,0,1-.612-1.359,1.792,1.792,0,0,1,.747-1.547,3.686,3.686,0,0,1,2.159-.545h.779V8.764a1.045,1.045,0,0,0-.226-.7.887.887,0,0,0-.712-.264A1.009,1.009,0,0,0,54.956,8a.7.7,0,0,0-.243.563H53.02a1.7,1.7,0,0,1,.34-1.02,2.246,2.246,0,0,1,.961-.735,3.5,3.5,0,0,1,1.395-.267,2.767,2.767,0,0,1,1.86.589,2.06,2.06,0,0,1,.688,1.655v2.748a3.031,3.031,0,0,0,.252,1.365V13Zm-1.4-1.178a1.458,1.458,0,0,0,.691-.167,1.1,1.1,0,0,0,.469-.448v-1.09h-.633q-1.271,0-1.354.879l-.006.1a.678.678,0,0,0,.223.521A.865.865,0,0,0,55.4,11.822ZM61.123,6.66l.053.732A2.213,2.213,0,0,1,63,6.543a1.84,1.84,0,0,1,1.5.592A2.761,2.761,0,0,1,65,8.9V13H63.309V8.945a1.1,1.1,0,0,0-.234-.782,1.049,1.049,0,0,0-.779-.243,1.165,1.165,0,0,0-1.072.609V13H59.529V6.66ZM69.959,13a1.88,1.88,0,0,1-.17-.568,2.049,2.049,0,0,1-1.6.686,2.251,2.251,0,0,1-1.544-.539,1.734,1.734,0,0,1-.612-1.359,1.792,1.792,0,0,1,.747-1.547,3.686,3.686,0,0,1,2.159-.545h.779V8.764a1.045,1.045,0,0,0-.226-.7.887.887,0,0,0-.712-.264A1.009,1.009,0,0,0,68.11,8a.7.7,0,0,0-.243.563H66.174a1.7,1.7,0,0,1,.34-1.02,2.246,2.246,0,0,1,.961-.735,3.5,3.5,0,0,1,1.395-.267,2.767,2.767,0,0,1,1.86.589,2.06,2.06,0,0,1,.688,1.655v2.748A3.031,3.031,0,0,0,71.67,12.9V13Zm-1.4-1.178a1.458,1.458,0,0,0,.691-.167,1.1,1.1,0,0,0,.469-.448v-1.09h-.633q-1.271,0-1.354.879l-.006.1a.678.678,0,0,0,.223.521A.865.865,0,0,0,68.559,11.822ZM69.2,4h1.846L69.426,5.816H68.049Zm5.3,9h-1.7V4h1.7Zm3.182,0h-1.7V6.66h1.7Zm-1.8-7.98a.834.834,0,0,1,.255-.627,1.1,1.1,0,0,1,1.386,0,.829.829,0,0,1,.258.627.831.831,0,0,1-.261.633,1.086,1.086,0,0,1-1.377,0A.831.831,0,0,1,75.889,5.02Zm6.627,6.229a.546.546,0,0,0-.308-.489,3.494,3.494,0,0,0-.987-.319q-2.262-.475-2.262-1.922a1.742,1.742,0,0,1,.7-1.409,2.825,2.825,0,0,1,1.831-.565,3.04,3.04,0,0,1,1.931.568,1.791,1.791,0,0,1,.724,1.477H82.451a.819.819,0,0,0-.234-.6.992.992,0,0,0-.732-.237,1.013,1.013,0,0,0-.662.193.61.61,0,0,0-.234.492.522.522,0,0,0,.267.454,2.743,2.743,0,0,0,.9.3,7.346,7.346,0,0,1,1.066.284,1.752,1.752,0,0,1,1.342,1.705,1.654,1.654,0,0,1-.744,1.4,3.21,3.21,0,0,1-1.922.536,3.353,3.353,0,0,1-1.415-.284,2.374,2.374,0,0,1-.97-.779,1.811,1.811,0,0,1-.352-1.069h1.605a.884.884,0,0,0,.334.691,1.325,1.325,0,0,0,.832.24,1.226,1.226,0,0,0,.735-.185A.574.574,0,0,0,82.516,11.248ZM87.039,13h-1.7V6.66h1.7Zm-1.8-7.98a.834.834,0,0,1,.255-.627,1.1,1.1,0,0,1,1.386,0,.829.829,0,0,1,.258.627.831.831,0,0,1-.261.633,1.086,1.086,0,0,1-1.377,0A.831.831,0,0,1,85.24,5.02Zm6.627,6.229a.546.546,0,0,0-.308-.489,3.494,3.494,0,0,0-.987-.319q-2.262-.475-2.262-1.922a1.742,1.742,0,0,1,.7-1.409,2.825,2.825,0,0,1,1.831-.565,3.04,3.04,0,0,1,1.931.568A1.791,1.791,0,0,1,93.5,8.588H91.8a.819.819,0,0,0-.234-.6.992.992,0,0,0-.732-.237,1.013,1.013,0,0,0-.662.193.61.61,0,0,0-.234.492.522.522,0,0,0,.267.454,2.743,2.743,0,0,0,.9.3,7.346,7.346,0,0,1,1.066.284,1.752,1.752,0,0,1,1.342,1.705,1.654,1.654,0,0,1-.744,1.4,3.21,3.21,0,0,1-1.922.536,3.353,3.353,0,0,1-1.415-.284,2.374,2.374,0,0,1-.97-.779,1.811,1.811,0,0,1-.352-1.069h1.605a.884.884,0,0,0,.334.691,1.325,1.325,0,0,0,.832.24,1.226,1.226,0,0,0,.735-.185A.574.574,0,0,0,91.867,11.248Z" transform="translate(1160.247 -6861.09) rotate(-90)" fill="#12263f"/>
    <path id="Trazado_604043" data-name="Trazado 604043" d="M30.711,5.389H27.969V13H26.849V5.389H24.113v-.92h6.6ZM32.984,13H31.9V6.66h1.084ZM31.812,4.979a.647.647,0,0,1,.161-.445.6.6,0,0,1,.478-.182.614.614,0,0,1,.48.182.64.64,0,0,1,.164.445.619.619,0,0,1-.164.439.626.626,0,0,1-.48.176.616.616,0,0,1-.478-.176A.626.626,0,0,1,31.812,4.979Zm5.537,8.139a2.77,2.77,0,0,1-2.1-.847,3.142,3.142,0,0,1-.809-2.265v-.2a3.8,3.8,0,0,1,.36-1.685,2.811,2.811,0,0,1,1.008-1.16,2.534,2.534,0,0,1,1.4-.419,2.374,2.374,0,0,1,1.922.814,3.526,3.526,0,0,1,.686,2.332v.451H35.527a2.254,2.254,0,0,0,.548,1.515,1.722,1.722,0,0,0,1.333.577A1.888,1.888,0,0,0,38.381,12a2.444,2.444,0,0,0,.7-.621l.662.516A2.662,2.662,0,0,1,37.349,13.117Zm-.135-5.684a1.446,1.446,0,0,0-1.1.478,2.321,2.321,0,0,0-.551,1.339h3.176V9.168a2.065,2.065,0,0,0-.445-1.28A1.361,1.361,0,0,0,37.215,7.434ZM42.1,6.66l.029.7a2.341,2.341,0,0,1,1.881-.82,1.813,1.813,0,0,1,1.811,1.02,2.4,2.4,0,0,1,.823-.738,2.431,2.431,0,0,1,1.2-.281q2.086,0,2.121,2.209V13H48.875V8.816A1.456,1.456,0,0,0,48.564,7.8a1.368,1.368,0,0,0-1.043-.337,1.437,1.437,0,0,0-1,.36,1.462,1.462,0,0,0-.463.97V13h-1.09V8.846a1.209,1.209,0,0,0-1.354-1.383,1.45,1.45,0,0,0-1.459.908V13H41.07V6.66ZM56.949,9.9a3.8,3.8,0,0,1-.662,2.332,2.122,2.122,0,0,1-1.793.885,2.325,2.325,0,0,1-1.816-.732v3.053H51.594V6.66h.99l.053.7a2.233,2.233,0,0,1,1.84-.82,2.162,2.162,0,0,1,1.808.861,3.838,3.838,0,0,1,.665,2.4Zm-1.084-.123a2.8,2.8,0,0,0-.457-1.693,1.472,1.472,0,0,0-1.254-.621,1.593,1.593,0,0,0-1.477.873v3.029a1.6,1.6,0,0,0,1.488.867,1.465,1.465,0,0,0,1.239-.618A3.058,3.058,0,0,0,55.865,9.777Zm2.174-.006A3.745,3.745,0,0,1,58.405,8.1a2.732,2.732,0,0,1,1.02-1.148,2.775,2.775,0,0,1,1.491-.4,2.674,2.674,0,0,1,2.095.9,3.449,3.449,0,0,1,.8,2.385V9.9a3.777,3.777,0,0,1-.354,1.661,2.692,2.692,0,0,1-1.014,1.146,2.807,2.807,0,0,1-1.515.41,2.667,2.667,0,0,1-2.089-.9,3.432,3.432,0,0,1-.8-2.373Zm1.09.129a2.712,2.712,0,0,0,.489,1.693,1.658,1.658,0,0,0,2.622-.009,2.966,2.966,0,0,0,.486-1.813,2.708,2.708,0,0,0-.5-1.69,1.574,1.574,0,0,0-1.315-.647,1.557,1.557,0,0,0-1.295.639A2.944,2.944,0,0,0,59.129,9.9Z" transform="translate(1343.317 -6977.255)" fill="#12263f"/>
    <path id="Trazado_604044" data-name="Trazado 604044" d="M9.752,10.293a3.139,3.139,0,0,1-1,2.089,3.274,3.274,0,0,1-2.235.735,3.006,3.006,0,0,1-2.423-1.084,4.361,4.361,0,0,1-.911-2.9v-.82a4.861,4.861,0,0,1,.425-2.092,3.173,3.173,0,0,1,1.2-1.386,3.353,3.353,0,0,1,1.8-.483A3.083,3.083,0,0,1,8.8,5.11a3.176,3.176,0,0,1,.955,2.1H8.621A2.451,2.451,0,0,0,7.985,5.73a1.924,1.924,0,0,0-1.368-.458,2.013,2.013,0,0,0-1.69.8,3.661,3.661,0,0,0-.612,2.269v.827a3.764,3.764,0,0,0,.58,2.211,1.874,1.874,0,0,0,1.623.821,2.165,2.165,0,0,0,1.438-.425,2.357,2.357,0,0,0,.665-1.479Zm1.078-.521A3.745,3.745,0,0,1,11.2,8.1a2.732,2.732,0,0,1,1.02-1.148,2.775,2.775,0,0,1,1.491-.4,2.674,2.674,0,0,1,2.095.9,3.449,3.449,0,0,1,.8,2.385V9.9a3.777,3.777,0,0,1-.354,1.661,2.692,2.692,0,0,1-1.014,1.146,2.807,2.807,0,0,1-1.515.41,2.667,2.667,0,0,1-2.089-.9,3.432,3.432,0,0,1-.8-2.373Zm1.09.129a2.712,2.712,0,0,0,.489,1.693,1.658,1.658,0,0,0,2.622-.009,2.966,2.966,0,0,0,.486-1.813,2.708,2.708,0,0,0-.5-1.69,1.574,1.574,0,0,0-1.315-.647,1.557,1.557,0,0,0-1.295.639A2.944,2.944,0,0,0,11.92,9.9ZM14.2,4h1.313l-1.57,1.723-.873,0ZM18.98,6.66l.029.7a2.341,2.341,0,0,1,1.881-.82A1.813,1.813,0,0,1,22.7,7.563a2.4,2.4,0,0,1,.823-.738,2.431,2.431,0,0,1,1.2-.281q2.086,0,2.121,2.209V13H25.76V8.816A1.456,1.456,0,0,0,25.449,7.8a1.368,1.368,0,0,0-1.043-.337,1.437,1.437,0,0,0-1,.36,1.462,1.462,0,0,0-.463.97V13h-1.09V8.846A1.209,1.209,0,0,0,20.5,7.463a1.45,1.45,0,0,0-1.459.908V13H17.955V6.66Zm9.211,3.111A3.745,3.745,0,0,1,28.557,8.1a2.732,2.732,0,0,1,1.02-1.148,2.775,2.775,0,0,1,1.491-.4,2.674,2.674,0,0,1,2.095.9,3.449,3.449,0,0,1,.8,2.385V9.9a3.777,3.777,0,0,1-.354,1.661,2.692,2.692,0,0,1-1.014,1.146,2.807,2.807,0,0,1-1.515.41,2.667,2.667,0,0,1-2.089-.9,3.432,3.432,0,0,1-.8-2.373Zm1.09.129a2.712,2.712,0,0,0,.489,1.693,1.658,1.658,0,0,0,2.622-.009,2.966,2.966,0,0,0,.486-1.813,2.708,2.708,0,0,0-.5-1.69,1.574,1.574,0,0,0-1.315-.647,1.557,1.557,0,0,0-1.295.639A2.944,2.944,0,0,0,29.281,9.9Zm12.7,1.418a.8.8,0,0,0-.331-.683,3.187,3.187,0,0,0-1.154-.419,5.457,5.457,0,0,1-1.307-.422,1.859,1.859,0,0,1-.715-.586,1.4,1.4,0,0,1-.231-.809,1.645,1.645,0,0,1,.659-1.318,2.574,2.574,0,0,1,1.685-.539,2.649,2.649,0,0,1,1.749.557,1.768,1.768,0,0,1,.671,1.424H41.92a.979.979,0,0,0-.378-.768,1.416,1.416,0,0,0-.952-.322,1.482,1.482,0,0,0-.926.258.812.812,0,0,0-.334.674.658.658,0,0,0,.311.592,3.821,3.821,0,0,0,1.122.381,5.847,5.847,0,0,1,1.315.434,1.919,1.919,0,0,1,.747.606,1.491,1.491,0,0,1,.243.864,1.623,1.623,0,0,1-.68,1.362,2.851,2.851,0,0,1-1.764.513,3.193,3.193,0,0,1-1.348-.27,2.192,2.192,0,0,1-.917-.753,1.815,1.815,0,0,1-.331-1.046h1.084a1.122,1.122,0,0,0,.437.864,1.693,1.693,0,0,0,1.075.319,1.748,1.748,0,0,0,.987-.249A.765.765,0,0,0,41.984,11.318Zm5.127,1.8a2.77,2.77,0,0,1-2.1-.847,3.142,3.142,0,0,1-.809-2.265v-.2a3.8,3.8,0,0,1,.36-1.685,2.811,2.811,0,0,1,1.008-1.16,2.534,2.534,0,0,1,1.4-.419,2.374,2.374,0,0,1,1.922.814,3.526,3.526,0,0,1,.686,2.332v.451H45.289a2.254,2.254,0,0,0,.548,1.515,1.722,1.722,0,0,0,1.333.577A1.888,1.888,0,0,0,48.142,12a2.444,2.444,0,0,0,.7-.621l.662.516A2.662,2.662,0,0,1,47.111,13.117Zm-.135-5.684a1.446,1.446,0,0,0-1.1.478,2.321,2.321,0,0,0-.551,1.339H48.5V9.168a2.065,2.065,0,0,0-.445-1.28A1.361,1.361,0,0,0,46.976,7.434Zm9.9.2a3.248,3.248,0,0,0-.533-.041,1.428,1.428,0,0,0-1.447.908V13H53.808V6.66h1.055l.018.732a1.688,1.688,0,0,1,1.512-.85,1.107,1.107,0,0,1,.48.082ZM60.5,13.117a2.77,2.77,0,0,1-2.1-.847,3.142,3.142,0,0,1-.809-2.265v-.2a3.8,3.8,0,0,1,.36-1.685,2.811,2.811,0,0,1,1.008-1.16,2.534,2.534,0,0,1,1.4-.419,2.374,2.374,0,0,1,1.922.814,3.526,3.526,0,0,1,.686,2.332v.451H58.678a2.254,2.254,0,0,0,.548,1.515,1.722,1.722,0,0,0,1.333.577A1.888,1.888,0,0,0,61.531,12a2.444,2.444,0,0,0,.7-.621l.662.516A2.662,2.662,0,0,1,60.5,13.117Zm-.135-5.684a1.446,1.446,0,0,0-1.1.478,2.321,2.321,0,0,0-.551,1.339h3.176V9.168a2.065,2.065,0,0,0-.445-1.28A1.361,1.361,0,0,0,60.365,7.434Zm6.4,4.8a1.561,1.561,0,0,0,1.014-.352,1.237,1.237,0,0,0,.48-.879h1.025a1.966,1.966,0,0,1-.375,1.037,2.47,2.47,0,0,1-.923.785,2.663,2.663,0,0,1-1.222.293,2.612,2.612,0,0,1-2.06-.864,3.442,3.442,0,0,1-.765-2.364V9.707a3.817,3.817,0,0,1,.34-1.646,2.588,2.588,0,0,1,.976-1.119,2.771,2.771,0,0,1,1.5-.4,2.543,2.543,0,0,1,1.772.639,2.283,2.283,0,0,1,.753,1.658H68.264A1.494,1.494,0,0,0,67.8,7.829a1.449,1.449,0,0,0-1.034-.4,1.517,1.517,0,0,0-1.28.595,2.793,2.793,0,0,0-.454,1.72v.205a2.737,2.737,0,0,0,.451,1.688A1.524,1.524,0,0,0,66.769,12.232ZM71.685,13H70.6V6.66h1.084ZM70.514,4.979a.647.647,0,0,1,.161-.445.6.6,0,0,1,.478-.182.614.614,0,0,1,.48.182.64.64,0,0,1,.164.445.619.619,0,0,1-.164.439.626.626,0,0,1-.48.176.616.616,0,0,1-.478-.176A.626.626,0,0,1,70.514,4.979ZM78.787,9.9a3.77,3.77,0,0,1-.668,2.335,2.134,2.134,0,0,1-1.793.882,2.21,2.21,0,0,1-1.857-.85L74.416,13h-1V4H74.5V7.357a2.2,2.2,0,0,1,1.811-.814,2.147,2.147,0,0,1,1.813.873,3.883,3.883,0,0,1,.659,2.391ZM77.7,9.777a2.929,2.929,0,0,0-.428-1.711,1.416,1.416,0,0,0-1.23-.6,1.591,1.591,0,0,0-1.541,1V11.2a1.636,1.636,0,0,0,1.553,1,1.408,1.408,0,0,0,1.213-.6A3.115,3.115,0,0,0,77.7,9.777Zm5.08,3.34a2.77,2.77,0,0,1-2.1-.847,3.142,3.142,0,0,1-.809-2.265v-.2a3.8,3.8,0,0,1,.36-1.685,2.811,2.811,0,0,1,1.008-1.16,2.534,2.534,0,0,1,1.4-.419,2.374,2.374,0,0,1,1.922.814,3.526,3.526,0,0,1,.686,2.332v.451H80.961a2.254,2.254,0,0,0,.548,1.515,1.722,1.722,0,0,0,1.333.577A1.888,1.888,0,0,0,83.814,12a2.444,2.444,0,0,0,.7-.621l.662.516A2.662,2.662,0,0,1,82.783,13.117Zm-.135-5.684a1.446,1.446,0,0,0-1.1.478A2.321,2.321,0,0,0,81,9.25h3.176V9.168a2.065,2.065,0,0,0-.445-1.28A1.361,1.361,0,0,0,82.648,7.434Z" transform="translate(1343.317 -6894.396)" fill="#12263f"/>
    <path id="Trazado_604045" data-name="Trazado 604045" d="M18.485,9.01a5.277,5.277,0,0,1-.422,2.188,3.2,3.2,0,0,1-1.2,1.427,3.3,3.3,0,0,1-4.8-1.415,5.064,5.064,0,0,1-.442-2.124V8.471A5.215,5.215,0,0,1,12.052,6.3a3.163,3.163,0,0,1,3-1.945,3.307,3.307,0,0,1,1.808.5,3.19,3.19,0,0,1,1.2,1.436,5.3,5.3,0,0,1,.422,2.188Zm-1.119-.551a3.825,3.825,0,0,0-.609-2.329,2.01,2.01,0,0,0-1.705-.812,1.988,1.988,0,0,0-1.679.812,3.747,3.747,0,0,0-.63,2.253V9.01a3.831,3.831,0,0,0,.618,2.312,2,2,0,0,0,1.7.841,1.989,1.989,0,0,0,1.687-.794,3.809,3.809,0,0,0,.615-2.276ZM25.358,9.9a3.8,3.8,0,0,1-.662,2.332,2.122,2.122,0,0,1-1.793.885,2.325,2.325,0,0,1-1.816-.732v3.053H20V6.66h.99l.053.7a2.233,2.233,0,0,1,1.84-.82,2.162,2.162,0,0,1,1.808.861,3.838,3.838,0,0,1,.665,2.4Zm-1.084-.123a2.8,2.8,0,0,0-.457-1.693,1.472,1.472,0,0,0-1.254-.621,1.593,1.593,0,0,0-1.477.873v3.029a1.6,1.6,0,0,0,1.488.867,1.465,1.465,0,0,0,1.239-.618A3.058,3.058,0,0,0,24.274,9.777Zm2.174-.006A3.745,3.745,0,0,1,26.814,8.1a2.732,2.732,0,0,1,1.02-1.148,2.775,2.775,0,0,1,1.491-.4,2.674,2.674,0,0,1,2.095.9,3.449,3.449,0,0,1,.8,2.385V9.9a3.777,3.777,0,0,1-.354,1.661,2.692,2.692,0,0,1-1.014,1.146,2.807,2.807,0,0,1-1.515.41,2.667,2.667,0,0,1-2.089-.9,3.432,3.432,0,0,1-.8-2.373Zm1.09.129a2.712,2.712,0,0,0,.489,1.693,1.658,1.658,0,0,0,2.622-.009,2.966,2.966,0,0,0,.486-1.813,2.708,2.708,0,0,0-.5-1.69,1.574,1.574,0,0,0-1.315-.647,1.557,1.557,0,0,0-1.295.639A2.944,2.944,0,0,0,27.538,9.9Zm9.105-2.268a3.248,3.248,0,0,0-.533-.041,1.428,1.428,0,0,0-1.447.908V13H33.579V6.66h1.055l.018.732a1.688,1.688,0,0,1,1.512-.85,1.107,1.107,0,0,1,.48.082ZM39.4,5.125V6.66h1.184V7.5H39.4v3.937a.88.88,0,0,0,.158.572.666.666,0,0,0,.539.191,2.624,2.624,0,0,0,.516-.07V13a3.161,3.161,0,0,1-.832.116,1.35,1.35,0,0,1-1.1-.439,1.888,1.888,0,0,1-.369-1.248V7.5H37.165V6.66h1.154V5.125Zm6.363,7.248a2.3,2.3,0,0,1-1.857.744,1.971,1.971,0,0,1-1.544-.589,2.549,2.549,0,0,1-.536-1.743V6.66h1.084v4.1q0,1.441,1.172,1.441a1.623,1.623,0,0,0,1.652-.926V6.66h1.084V13H45.79ZM49.493,6.66l.035.8a2.31,2.31,0,0,1,1.9-.914q2.01,0,2.027,2.268V13H52.37V8.8a1.459,1.459,0,0,0-.313-1.014,1.256,1.256,0,0,0-.958-.328,1.564,1.564,0,0,0-.926.281,1.91,1.91,0,0,0-.621.738V13H48.468V6.66ZM56.266,13H55.182V6.66h1.084ZM55.095,4.979a.647.647,0,0,1,.161-.445.6.6,0,0,1,.478-.182.614.614,0,0,1,.48.182.64.64,0,0,1,.164.445.619.619,0,0,1-.164.439.626.626,0,0,1-.48.176.616.616,0,0,1-.478-.176A.626.626,0,0,1,55.095,4.979Zm2.643,4.8a3.714,3.714,0,0,1,.691-2.347A2.352,2.352,0,0,1,62,7.3V4h1.084v9h-1l-.053-.68a2.208,2.208,0,0,1-1.811.8,2.165,2.165,0,0,1-1.8-.9,3.756,3.756,0,0,1-.694-2.355Zm1.084.123a2.812,2.812,0,0,0,.445,1.688,1.44,1.44,0,0,0,1.23.609A1.581,1.581,0,0,0,62,11.271V8.359a1.593,1.593,0,0,0-1.494-.9,1.446,1.446,0,0,0-1.242.615A3.1,3.1,0,0,0,58.821,9.9ZM68.682,13a2.277,2.277,0,0,1-.152-.668,2.419,2.419,0,0,1-1.8.785,2.238,2.238,0,0,1-1.538-.53,1.716,1.716,0,0,1-.6-1.345A1.792,1.792,0,0,1,65.34,9.7a3.55,3.55,0,0,1,2.118-.548h1.055v-.5a1.217,1.217,0,0,0-.34-.905,1.366,1.366,0,0,0-1-.337,1.581,1.581,0,0,0-.973.293.863.863,0,0,0-.393.709h-1.09a1.5,1.5,0,0,1,.337-.917,2.3,2.3,0,0,1,.914-.7,3.075,3.075,0,0,1,1.269-.258,2.506,2.506,0,0,1,1.717.548A1.976,1.976,0,0,1,69.6,8.6v2.918a3.567,3.567,0,0,0,.223,1.389V13Zm-1.8-.826a1.905,1.905,0,0,0,.967-.264,1.6,1.6,0,0,0,.662-.686v-1.3h-.85q-1.992,0-1.992,1.166a.987.987,0,0,0,.34.8A1.306,1.306,0,0,0,66.884,12.174Zm4.148-2.4a3.714,3.714,0,0,1,.691-2.347A2.352,2.352,0,0,1,75.3,7.3V4h1.084v9h-1l-.053-.68a2.208,2.208,0,0,1-1.811.8,2.165,2.165,0,0,1-1.8-.9,3.756,3.756,0,0,1-.694-2.355Zm1.084.123a2.812,2.812,0,0,0,.445,1.688,1.44,1.44,0,0,0,1.23.609,1.581,1.581,0,0,0,1.506-.926V8.359a1.593,1.593,0,0,0-1.494-.9,1.446,1.446,0,0,0-1.242.615A3.1,3.1,0,0,0,72.116,9.9Z" transform="translate(1343.317 -6939.757)" fill="#12263f"/>
    <path id="Trazado_604046" data-name="Trazado 604046" d="M18.851,9.01a5.269,5.269,0,0,1-.393,2.13,3.291,3.291,0,0,1-1.1,1.4l1.523,1.2-.768.709-1.8-1.43a3.66,3.66,0,0,1-.891.105,3.183,3.183,0,0,1-3-1.907,5.064,5.064,0,0,1-.442-2.124V8.471A5.215,5.215,0,0,1,12.412,6.3a3.163,3.163,0,0,1,3-1.945,3.3,3.3,0,0,1,1.813.5,3.213,3.213,0,0,1,1.2,1.433,5.262,5.262,0,0,1,.422,2.183Zm-1.125-.551a3.872,3.872,0,0,0-.6-2.323,2,2,0,0,0-1.714-.817,1.982,1.982,0,0,0-1.673.812,3.747,3.747,0,0,0-.63,2.253V9.01a3.86,3.86,0,0,0,.612,2.309,1.985,1.985,0,0,0,1.7.844,1.989,1.989,0,0,0,1.687-.794,3.809,3.809,0,0,0,.615-2.276Zm6.6,3.914a2.3,2.3,0,0,1-1.857.744,1.971,1.971,0,0,1-1.544-.589,2.549,2.549,0,0,1-.536-1.743V6.66h1.084v4.1q0,1.441,1.172,1.441a1.623,1.623,0,0,0,1.652-.926V6.66h1.084V13H24.353Zm5.332.744a2.77,2.77,0,0,1-2.1-.847,3.142,3.142,0,0,1-.809-2.265v-.2a3.8,3.8,0,0,1,.36-1.685,2.811,2.811,0,0,1,1.008-1.16,2.534,2.534,0,0,1,1.4-.419,2.374,2.374,0,0,1,1.922.814,3.526,3.526,0,0,1,.686,2.332v.451H27.84a2.254,2.254,0,0,0,.548,1.515,1.722,1.722,0,0,0,1.333.577A1.888,1.888,0,0,0,30.693,12a2.444,2.444,0,0,0,.7-.621l.662.516A2.662,2.662,0,0,1,29.662,13.117Zm-.135-5.684a1.446,1.446,0,0,0-1.1.478,2.321,2.321,0,0,0-.551,1.339h3.176V9.168a2.065,2.065,0,0,0-.445-1.28A1.361,1.361,0,0,0,29.527,7.434ZM30.055,4h1.313L29.8,5.723l-.873,0Zm10,7.318a.8.8,0,0,0-.331-.683,3.187,3.187,0,0,0-1.154-.419,5.457,5.457,0,0,1-1.307-.422,1.859,1.859,0,0,1-.715-.586,1.4,1.4,0,0,1-.231-.809,1.645,1.645,0,0,1,.659-1.318,2.574,2.574,0,0,1,1.685-.539,2.649,2.649,0,0,1,1.749.557,1.768,1.768,0,0,1,.671,1.424h-1.09a.979.979,0,0,0-.378-.768,1.416,1.416,0,0,0-.952-.322,1.482,1.482,0,0,0-.926.258.812.812,0,0,0-.334.674.658.658,0,0,0,.311.592,3.821,3.821,0,0,0,1.122.381,5.847,5.847,0,0,1,1.315.434,1.919,1.919,0,0,1,.747.606,1.491,1.491,0,0,1,.243.864,1.623,1.623,0,0,1-.68,1.362,2.851,2.851,0,0,1-1.764.513,3.193,3.193,0,0,1-1.348-.27,2.192,2.192,0,0,1-.917-.753,1.815,1.815,0,0,1-.331-1.046H37.18a1.122,1.122,0,0,0,.437.864,1.693,1.693,0,0,0,1.075.319,1.748,1.748,0,0,0,.987-.249A.765.765,0,0,0,40.051,11.318Zm5.127,1.8a2.77,2.77,0,0,1-2.1-.847,3.142,3.142,0,0,1-.809-2.265v-.2a3.8,3.8,0,0,1,.36-1.685,2.811,2.811,0,0,1,1.008-1.16,2.534,2.534,0,0,1,1.4-.419,2.374,2.374,0,0,1,1.922.814,3.526,3.526,0,0,1,.686,2.332v.451H43.355a2.254,2.254,0,0,0,.548,1.515,1.722,1.722,0,0,0,1.333.577A1.888,1.888,0,0,0,46.209,12a2.444,2.444,0,0,0,.7-.621l.662.516A2.662,2.662,0,0,1,45.178,13.117Zm-.135-5.684a1.446,1.446,0,0,0-1.1.478A2.321,2.321,0,0,0,43.39,9.25h3.176V9.168a2.065,2.065,0,0,0-.445-1.28A1.361,1.361,0,0,0,45.043,7.434Zm7.916-.006a2.3,2.3,0,0,1,1.875-.885q2.01,0,2.027,2.268V13H55.777V8.8a1.459,1.459,0,0,0-.313-1.014,1.256,1.256,0,0,0-.958-.328,1.564,1.564,0,0,0-.926.281,1.91,1.91,0,0,0-.621.738V13H51.875V4h1.084ZM62.4,13a2.277,2.277,0,0,1-.152-.668,2.419,2.419,0,0,1-1.8.785,2.238,2.238,0,0,1-1.538-.53,1.716,1.716,0,0,1-.6-1.345A1.792,1.792,0,0,1,59.056,9.7a3.55,3.55,0,0,1,2.118-.548h1.055v-.5a1.217,1.217,0,0,0-.34-.905,1.366,1.366,0,0,0-1-.337,1.581,1.581,0,0,0-.973.293.863.863,0,0,0-.393.709h-1.09a1.5,1.5,0,0,1,.337-.917,2.3,2.3,0,0,1,.914-.7,3.075,3.075,0,0,1,1.269-.258,2.506,2.506,0,0,1,1.717.548A1.976,1.976,0,0,1,63.312,8.6v2.918a3.567,3.567,0,0,0,.223,1.389V13Zm-1.8-.826a1.905,1.905,0,0,0,.967-.264,1.6,1.6,0,0,0,.662-.686v-1.3h-.85q-1.992,0-1.992,1.166a.987.987,0,0,0,.34.8A1.306,1.306,0,0,0,60.6,12.174Zm6.955.059a1.561,1.561,0,0,0,1.014-.352,1.237,1.237,0,0,0,.48-.879h1.025a1.966,1.966,0,0,1-.375,1.037,2.47,2.47,0,0,1-.923.785,2.663,2.663,0,0,1-1.222.293,2.612,2.612,0,0,1-2.06-.864,3.442,3.442,0,0,1-.765-2.364V9.707a3.817,3.817,0,0,1,.34-1.646,2.588,2.588,0,0,1,.976-1.119,2.771,2.771,0,0,1,1.5-.4,2.543,2.543,0,0,1,1.772.639,2.283,2.283,0,0,1,.753,1.658H69.049a1.494,1.494,0,0,0-.466-1.011,1.449,1.449,0,0,0-1.034-.4,1.517,1.517,0,0,0-1.28.595,2.793,2.793,0,0,0-.454,1.72v.205a2.737,2.737,0,0,0,.451,1.688A1.524,1.524,0,0,0,67.555,12.232Zm6.369.885a2.77,2.77,0,0,1-2.1-.847,3.142,3.142,0,0,1-.809-2.265v-.2a3.8,3.8,0,0,1,.36-1.685,2.811,2.811,0,0,1,1.008-1.16,2.534,2.534,0,0,1,1.4-.419,2.374,2.374,0,0,1,1.922.814A3.526,3.526,0,0,1,76.4,9.689v.451H72.1a2.254,2.254,0,0,0,.548,1.515,1.722,1.722,0,0,0,1.333.577A1.888,1.888,0,0,0,74.955,12a2.444,2.444,0,0,0,.7-.621l.662.516A2.662,2.662,0,0,1,73.924,13.117Zm-.135-5.684a1.446,1.446,0,0,0-1.1.478,2.321,2.321,0,0,0-.551,1.339h3.176V9.168a2.065,2.065,0,0,0-.445-1.28A1.361,1.361,0,0,0,73.789,7.434Z" transform="translate(1343.317 -6855.744)" fill="#12263f"/>
    <path id="Trazado_604047" data-name="Trazado 604047" d="M16.734,4.469l2.789,6.961,2.789-6.961h1.459V13H22.646V9.678l.105-3.586L19.951,13h-.861L16.294,6.109l.111,3.568V13H15.281V4.469ZM29.5,13a2.277,2.277,0,0,1-.152-.668,2.419,2.419,0,0,1-1.8.785,2.238,2.238,0,0,1-1.538-.53,1.716,1.716,0,0,1-.6-1.345A1.792,1.792,0,0,1,26.159,9.7a3.55,3.55,0,0,1,2.118-.548h1.055v-.5a1.217,1.217,0,0,0-.34-.905,1.366,1.366,0,0,0-1-.337,1.581,1.581,0,0,0-.973.293.863.863,0,0,0-.393.709h-1.09a1.5,1.5,0,0,1,.337-.917,2.3,2.3,0,0,1,.914-.7,3.075,3.075,0,0,1,1.269-.258,2.506,2.506,0,0,1,1.717.548A1.976,1.976,0,0,1,30.415,8.6v2.918a3.567,3.567,0,0,0,.223,1.389V13Zm-1.8-.826a1.905,1.905,0,0,0,.967-.264,1.6,1.6,0,0,0,.662-.686v-1.3h-.85q-1.992,0-1.992,1.166a.987.987,0,0,0,.34.8A1.306,1.306,0,0,0,27.7,12.174ZM33.14,6.66l.035.8a2.31,2.31,0,0,1,1.9-.914q2.01,0,2.027,2.268V13H36.017V8.8A1.459,1.459,0,0,0,35.7,7.791a1.256,1.256,0,0,0-.958-.328,1.564,1.564,0,0,0-.926.281,1.91,1.91,0,0,0-.621.738V13H32.115V6.66Zm8.227,6.457a2.77,2.77,0,0,1-2.1-.847,3.142,3.142,0,0,1-.809-2.265v-.2a3.8,3.8,0,0,1,.36-1.685,2.811,2.811,0,0,1,1.008-1.16,2.534,2.534,0,0,1,1.4-.419,2.374,2.374,0,0,1,1.922.814,3.526,3.526,0,0,1,.686,2.332v.451H39.544a2.254,2.254,0,0,0,.548,1.515,1.722,1.722,0,0,0,1.333.577A1.888,1.888,0,0,0,42.4,12a2.444,2.444,0,0,0,.7-.621l.662.516A2.662,2.662,0,0,1,41.367,13.117Zm-.135-5.684a1.446,1.446,0,0,0-1.1.478,2.321,2.321,0,0,0-.551,1.339h3.176V9.168a2.065,2.065,0,0,0-.445-1.28A1.361,1.361,0,0,0,41.232,7.434Zm4.98-.773v7.072q0,1.828-1.658,1.828a2.023,2.023,0,0,1-.662-.1v-.862a2.1,2.1,0,0,0,.492.047.736.736,0,0,0,.554-.2.971.971,0,0,0,.19-.683V6.66Zm-1.2-1.682a.65.65,0,0,1,.161-.442.592.592,0,0,1,.472-.185.614.614,0,0,1,.48.182.64.64,0,0,1,.164.445.619.619,0,0,1-.164.439.626.626,0,0,1-.48.176.606.606,0,0,1-.475-.176A.632.632,0,0,1,45.017,4.979Zm2.654,4.793A3.745,3.745,0,0,1,48.037,8.1a2.732,2.732,0,0,1,1.02-1.148,2.775,2.775,0,0,1,1.491-.4,2.674,2.674,0,0,1,2.095.9,3.449,3.449,0,0,1,.8,2.385V9.9a3.777,3.777,0,0,1-.354,1.661,2.692,2.692,0,0,1-1.014,1.146,2.807,2.807,0,0,1-1.515.41,2.667,2.667,0,0,1-2.089-.9,3.432,3.432,0,0,1-.8-2.373Zm1.09.129a2.712,2.712,0,0,0,.489,1.693,1.658,1.658,0,0,0,2.622-.009,2.966,2.966,0,0,0,.486-1.813,2.708,2.708,0,0,0-.5-1.69,1.574,1.574,0,0,0-1.315-.647,1.557,1.557,0,0,0-1.295.639A2.944,2.944,0,0,0,48.761,9.9Zm8.748-.123A3.714,3.714,0,0,1,58.2,7.431,2.352,2.352,0,0,1,61.775,7.3V4h1.084v9h-1l-.053-.68a2.208,2.208,0,0,1-1.811.8,2.165,2.165,0,0,1-1.8-.9,3.756,3.756,0,0,1-.694-2.355Zm1.084.123a2.812,2.812,0,0,0,.445,1.688,1.44,1.44,0,0,0,1.23.609,1.581,1.581,0,0,0,1.506-.926V8.359a1.593,1.593,0,0,0-1.494-.9,1.446,1.446,0,0,0-1.242.615A3.1,3.1,0,0,0,58.593,9.9Zm8.578,3.217a2.77,2.77,0,0,1-2.1-.847,3.142,3.142,0,0,1-.809-2.265v-.2a3.8,3.8,0,0,1,.36-1.685,2.811,2.811,0,0,1,1.008-1.16,2.534,2.534,0,0,1,1.4-.419,2.374,2.374,0,0,1,1.922.814,3.526,3.526,0,0,1,.686,2.332v.451H65.349a2.254,2.254,0,0,0,.548,1.515,1.722,1.722,0,0,0,1.333.577A1.888,1.888,0,0,0,68.2,12a2.444,2.444,0,0,0,.7-.621l.662.516A2.662,2.662,0,0,1,67.171,13.117Zm-.135-5.684a1.446,1.446,0,0,0-1.1.478,2.321,2.321,0,0,0-.551,1.339H68.56V9.168a2.065,2.065,0,0,0-.445-1.28A1.361,1.361,0,0,0,67.036,7.434ZM75.046,13H73.962V4h1.084Zm5.648,0a2.277,2.277,0,0,1-.152-.668,2.419,2.419,0,0,1-1.8.785,2.238,2.238,0,0,1-1.538-.53,1.716,1.716,0,0,1-.6-1.345A1.792,1.792,0,0,1,77.352,9.7a3.55,3.55,0,0,1,2.118-.548h1.055v-.5a1.217,1.217,0,0,0-.34-.905,1.366,1.366,0,0,0-1-.337,1.581,1.581,0,0,0-.973.293.863.863,0,0,0-.393.709h-1.09a1.5,1.5,0,0,1,.337-.917,2.3,2.3,0,0,1,.914-.7,3.075,3.075,0,0,1,1.269-.258,2.506,2.506,0,0,1,1.717.548A1.976,1.976,0,0,1,81.609,8.6v2.918a3.567,3.567,0,0,0,.223,1.389V13Zm-1.8-.826a1.905,1.905,0,0,0,.967-.264,1.6,1.6,0,0,0,.662-.686v-1.3h-.85q-1.992,0-1.992,1.166a.987.987,0,0,0,.34.8A1.306,1.306,0,0,0,78.9,12.174ZM18.234,27H17.15V20.66h1.084Zm-1.172-8.021a.647.647,0,0,1,.161-.445.6.6,0,0,1,.478-.182.614.614,0,0,1,.48.182.64.64,0,0,1,.164.445.619.619,0,0,1-.164.439.626.626,0,0,1-.48.176.616.616,0,0,1-.478-.176A.626.626,0,0,1,17.062,18.979Zm3.932,1.682.035.8a2.31,2.31,0,0,1,1.9-.914q2.01,0,2.027,2.268V27H23.87V22.8a1.459,1.459,0,0,0-.313-1.014,1.256,1.256,0,0,0-.958-.328,1.564,1.564,0,0,0-.926.281,1.91,1.91,0,0,0-.621.738V27H19.968V20.66ZM27.122,27V21.5h-1V20.66h1v-.65a2.159,2.159,0,0,1,.545-1.576,2.058,2.058,0,0,1,1.541-.557,2.862,2.862,0,0,1,.744.1l-.059.874a3.113,3.113,0,0,0-.586-.053,1.058,1.058,0,0,0-.814.309,1.252,1.252,0,0,0-.287.885v.67H29.56V21.5H28.206V27Zm3.346-3.229a3.745,3.745,0,0,1,.366-1.676,2.732,2.732,0,0,1,1.02-1.148,2.775,2.775,0,0,1,1.491-.4,2.674,2.674,0,0,1,2.095.9,3.449,3.449,0,0,1,.8,2.385V23.9a3.777,3.777,0,0,1-.354,1.661,2.692,2.692,0,0,1-1.014,1.146,2.807,2.807,0,0,1-1.515.41,2.667,2.667,0,0,1-2.089-.9,3.432,3.432,0,0,1-.8-2.373Zm1.09.129a2.712,2.712,0,0,0,.489,1.693,1.658,1.658,0,0,0,2.622-.009,2.966,2.966,0,0,0,.486-1.813,2.708,2.708,0,0,0-.5-1.69,1.574,1.574,0,0,0-1.315-.647,1.557,1.557,0,0,0-1.295.639A2.944,2.944,0,0,0,31.558,23.9Zm9.105-2.268a3.248,3.248,0,0,0-.533-.041,1.428,1.428,0,0,0-1.447.908V27H37.6V20.66h1.055l.018.732a1.688,1.688,0,0,1,1.512-.85,1.107,1.107,0,0,1,.48.082Zm2.016-.973.029.7a2.341,2.341,0,0,1,1.881-.82,1.813,1.813,0,0,1,1.811,1.02,2.4,2.4,0,0,1,.823-.738,2.431,2.431,0,0,1,1.2-.281q2.086,0,2.121,2.209V27H49.458V22.816a1.456,1.456,0,0,0-.311-1.017,1.368,1.368,0,0,0-1.043-.337,1.437,1.437,0,0,0-1,.36,1.462,1.462,0,0,0-.463.97V27H45.55V22.846A1.209,1.209,0,0,0,44.2,21.463a1.45,1.45,0,0,0-1.459.908V27H41.654V20.66ZM56.091,27a2.277,2.277,0,0,1-.152-.668,2.419,2.419,0,0,1-1.8.785,2.238,2.238,0,0,1-1.538-.53,1.716,1.716,0,0,1-.6-1.345,1.792,1.792,0,0,1,.753-1.538,3.55,3.55,0,0,1,2.118-.548h1.055v-.5a1.217,1.217,0,0,0-.34-.905,1.366,1.366,0,0,0-1-.337,1.581,1.581,0,0,0-.973.293.863.863,0,0,0-.393.709h-1.09a1.5,1.5,0,0,1,.337-.917,2.3,2.3,0,0,1,.914-.7,3.075,3.075,0,0,1,1.269-.258,2.506,2.506,0,0,1,1.717.548,1.976,1.976,0,0,1,.645,1.509v2.918a3.567,3.567,0,0,0,.223,1.389V27Zm-1.8-.826a1.905,1.905,0,0,0,.967-.264,1.6,1.6,0,0,0,.662-.686v-1.3h-.85q-1.992,0-1.992,1.166a.987.987,0,0,0,.34.8A1.306,1.306,0,0,0,54.292,26.174Zm6.955.059a1.561,1.561,0,0,0,1.014-.352,1.237,1.237,0,0,0,.48-.879h1.025a1.966,1.966,0,0,1-.375,1.037,2.47,2.47,0,0,1-.923.785,2.663,2.663,0,0,1-1.222.293,2.612,2.612,0,0,1-2.06-.864,3.442,3.442,0,0,1-.765-2.364v-.182a3.817,3.817,0,0,1,.34-1.646,2.588,2.588,0,0,1,.976-1.119,2.771,2.771,0,0,1,1.5-.4,2.543,2.543,0,0,1,1.772.639,2.283,2.283,0,0,1,.753,1.658H62.742a1.494,1.494,0,0,0-.466-1.011,1.449,1.449,0,0,0-1.034-.4,1.517,1.517,0,0,0-1.28.595,2.793,2.793,0,0,0-.454,1.72v.205a2.737,2.737,0,0,0,.451,1.688A1.524,1.524,0,0,0,61.247,26.232ZM66.163,27H65.079V20.66h1.084Zm-1.172-8.021a.647.647,0,0,1,.161-.445.6.6,0,0,1,.478-.182.614.614,0,0,1,.48.182.64.64,0,0,1,.164.445.619.619,0,0,1-.164.439.626.626,0,0,1-.48.176.616.616,0,0,1-.478-.176A.626.626,0,0,1,64.992,18.979Zm2.619,4.793a3.745,3.745,0,0,1,.366-1.676A2.732,2.732,0,0,1,69,20.947a2.775,2.775,0,0,1,1.491-.4,2.674,2.674,0,0,1,2.095.9,3.449,3.449,0,0,1,.8,2.385V23.9a3.777,3.777,0,0,1-.354,1.661,2.692,2.692,0,0,1-1.014,1.146,2.807,2.807,0,0,1-1.515.41,2.667,2.667,0,0,1-2.089-.9,3.432,3.432,0,0,1-.8-2.373Zm1.09.129a2.712,2.712,0,0,0,.489,1.693,1.658,1.658,0,0,0,2.622-.009,2.966,2.966,0,0,0,.486-1.813,2.708,2.708,0,0,0-.5-1.69,1.574,1.574,0,0,0-1.315-.647,1.557,1.557,0,0,0-1.295.639A2.944,2.944,0,0,0,68.7,23.9ZM70.98,18h1.313l-1.57,1.723-.873,0Zm4.787,2.66.035.8a2.31,2.31,0,0,1,1.9-.914q2.01,0,2.027,2.268V27H78.644V22.8a1.459,1.459,0,0,0-.313-1.014,1.256,1.256,0,0,0-.958-.328,1.564,1.564,0,0,0-.926.281,1.91,1.91,0,0,0-.621.738V27H74.742V20.66Z" transform="translate(1211.659 -6882.44)" fill="#12263f"/>
  </g>
</svg>
